# Blender 4.2.3 LTS
# www.blender.org
mtllib Box_mail_door.mtl
o Box_mail_door
v 0.050000 -1.000000 -1.972915
v 0.050000 -1.000000 -0.000285
v 0.047220 1.000001 -1.971775
v 0.047220 1.000001 -0.000285
v -0.047220 -1.000000 -1.972915
v -0.047220 -1.000000 -0.000285
v -0.050000 1.000001 -1.971775
v -0.050000 1.000001 -0.000285
vn 1.0000 0.0014 -0.0000
vn -1.0000 -0.0014 -0.0000
vn -0.0000 1.0000 -0.0000
vn -0.0000 -0.0000 1.0000
vn -0.0000 -1.0000 -0.0000
vn -0.0000 0.0006 -1.0000
vt 0.000000 0.000000
s 0
f 3/1/1 4/1/1 2/1/1 1/1/1
f 7/1/2 5/1/2 6/1/2 8/1/2
f 4/1/3 3/1/3 7/1/3 8/1/3
f 2/1/4 4/1/4 8/1/4 6/1/4
f 2/1/5 6/1/5 5/1/5 1/1/5
f 3/1/6 1/1/6 5/1/6 7/1/6
