# Blender 4.2.3 LTS
# www.blender.org
mtllib Shovle.mtl
o shovle
v -0.015646 18.305904 2.009221
v 0.192616 18.239157 2.010272
v 0.305291 18.032730 2.009328
v 0.244019 17.821516 2.002370
v 0.102817 17.715714 2.009028
v -0.102390 17.712727 2.009811
v -0.286544 17.878296 2.013532
v -0.262738 18.173752 2.008343
v 0.269251 15.479528 2.296010
v 0.671243 15.665994 2.233431
v 0.807999 15.805620 2.224477
v 0.823333 15.970267 2.193310
v 0.587868 16.168980 2.154164
v -0.108622 16.338154 2.133728
v -0.578928 16.201748 2.156529
v -0.819282 15.988382 2.189365
v -0.800122 15.788359 2.227572
v -0.649519 15.646296 2.254735
v -0.354246 15.536398 2.260107
v 1.102305 15.785040 2.233288
v 1.126672 16.319582 2.137306
v -0.922551 16.699127 2.075208
v -1.031884 15.662528 2.269960
v -0.440867 15.550146 0.439982
v 0.533347 15.575502 0.399633
v 0.816198 15.605167 0.082924
v 0.833411 15.601824 -0.046380
v 0.614222 15.651542 -0.292276
v -0.476301 15.603433 -0.377480
v -0.824475 15.592124 0.004995
v -0.747162 15.556999 0.218267
v -0.313016 6.648220 -0.294971
v -0.417818 6.552727 0.033497
v 0.152251 18.266523 -2.009114
v 0.317818 18.010092 -2.011030
v 0.127119 17.711243 -2.004830
v -0.152288 17.733498 -2.008738
v -0.296466 17.920233 -2.023634
v -0.260764 18.158125 -2.006818
v -0.075024 18.296974 -2.008705
v -0.037170 15.478991 -2.281481
v 0.354246 15.536398 -2.260107
v 0.673795 15.673079 -2.225724
v 0.832105 15.873178 -2.213385
v 0.782919 16.060114 -2.169580
v 0.058149 16.328537 -2.134825
v -0.516855 16.205462 -2.152807
v -0.797393 16.031364 -2.182078
v -0.832105 15.873178 -2.213385
v -0.747778 15.734443 -2.228663
v -0.572503 15.610293 -2.237355
v 1.116889 15.791170 -2.374279
v 1.185871 16.248140 -2.149894
v -0.948256 16.704453 -2.073646
v -0.978758 15.719632 -2.259655
v 0.460026 15.553429 -0.428794
v 0.137104 15.653788 0.427323
v 0.418242 6.552719 0.015475
v 0.209277 3.551687 0.391367
v 0.387815 3.544113 -0.183193
v -0.102071 3.558146 -0.444517
v -0.338149 3.525949 -0.254777
v -0.290259 3.555112 0.290365
v 0.013167 -0.447290 1.501403
v 0.043070 -0.447292 -0.238051
v -0.013168 -0.447290 -1.500517
v -0.043078 -0.447292 0.238951
v -0.417489 3.467313 -0.043201
v 0.394631 3.387001 -0.697782
v 0.303345 3.354788 -1.672737
v -0.420037 3.508599 0.101758
v 0.170440 3.356285 -2.305733
v 0.148684 3.349324 2.465754
v -0.303344 3.354786 1.673748
v -0.148684 3.349324 -2.464759
v 0.301570 3.365465 1.621765
v -0.170441 3.356285 2.306730
v 0.416637 3.475356 0.065703
v -0.301570 3.365468 -1.620767
vn -0.5823 -0.8092 0.0778
vn -0.3762 0.2093 0.9026
vn 0.0140 -0.0813 -0.9966
vn -0.0029 -0.0620 -0.9981
vn -0.0702 0.1246 0.9897
vn 0.0367 0.1039 0.9939
vn 0.1932 0.1649 0.9672
vn 0.0237 -0.0871 -0.9959
vn -0.0009 -0.1619 -0.9868
vn 0.0052 -0.1578 -0.9875
vn 0.2368 0.9510 -0.1986
vn 0.0240 -0.9986 -0.0472
vn -0.0907 -0.9959 -0.0032
vn 0.7149 -0.6959 0.0679
vn -0.2842 0.9305 -0.2312
vn 0.6519 0.7487 -0.1202
vn -0.1983 -0.0147 0.9800
vn 0.7466 -0.0206 0.6649
vn -0.7391 -0.0197 -0.6734
vn 0.9901 -0.0445 0.1330
vn 0.8970 -0.0381 0.4403
vn 0.0414 -0.0018 0.9991
vn 0.4702 -0.0167 -0.8824
vn 0.3052 0.9523 0.0034
vn 0.8778 0.4791 -0.0000
vn -0.6685 -0.7437 0.0045
vn 0.0877 -0.0353 0.9955
vn -0.2227 -0.0355 0.9742
vn 0.0187 0.1531 -0.9880
vn -0.1107 0.1347 -0.9847
vn -0.0179 -0.0492 0.9986
vn 0.4576 0.3017 -0.8364
vn -0.0920 0.0084 0.9957
vn 0.1435 -0.7293 -0.6690
vn 0.3430 -0.8827 0.3213
vn 0.0007 -0.1454 -0.9894
vn -0.5347 0.3764 0.7566
vn 0.0525 -0.2147 0.9753
vn 0.0051 -0.1149 0.9934
vn 0.0022 -0.1548 0.9879
vn -0.0038 -0.1599 0.9871
vn -0.0814 -0.1763 0.9810
vn -0.1195 -0.1801 0.9764
vn -0.1149 -0.2299 0.9664
vn -0.5789 -0.8123 -0.0716
vn 0.1451 -0.9894 0.0008
vn -0.2375 -0.9713 0.0087
vn -0.2104 0.9479 0.2394
vn 0.7842 -0.6156 -0.0776
vn -0.5325 0.8311 0.1603
vn -0.8559 -0.5134 -0.0621
vn 0.3492 0.9195 0.1806
vn 0.8444 0.0083 0.5357
vn -0.9533 0.0074 -0.3020
vn -0.8253 0.0133 0.5646
vn 0.9943 -0.0965 -0.0443
vn -0.9947 -0.0932 0.0443
vn 0.4400 -0.2063 -0.8740
vn 0.9811 -0.0798 0.1762
vn 0.9947 -0.0774 0.0681
vn -0.4400 -0.2063 0.8740
vn -0.9811 -0.0798 -0.1762
vn -0.9947 -0.0774 -0.0681
vn 0.4742 0.8750 0.0969
vn -0.5534 0.8250 0.1142
vn 0.0299 0.9942 -0.1035
vn -0.4858 0.8657 0.1208
vn 0.6396 0.7572 -0.1325
vn 0.9263 0.3636 -0.0987
vn 0.9749 0.2163 -0.0531
vn 0.9604 -0.2787 0.0046
vn 0.5998 -0.8002 0.0045
vn 0.0146 -0.9999 0.0012
vn -0.4716 0.8818 0.0050
vn 0.1385 -0.0076 -0.9903
vn -0.0755 -0.0114 -0.9971
vn 0.0153 -0.0803 -0.9967
vn 0.0282 0.1037 0.9942
vn -0.0058 0.1004 0.9949
vn 0.4634 0.2491 0.8504
vn -0.0452 -0.0278 -0.9986
vn 0.1732 -0.6280 -0.7587
vn 0.0171 -0.1775 -0.9840
vn 0.0367 -0.1892 -0.9813
vn 0.0176 -0.1732 -0.9847
vn -0.0996 -0.1772 -0.9791
vn -0.2009 -0.9792 0.0288
vn -0.0487 -0.2371 -0.9703
vn -0.0465 -0.1731 -0.9838
vn -0.1005 -0.6019 0.7922
vn 0.0775 0.0080 -0.9970
vn -0.6909 -0.7201 0.0647
vn 0.9847 -0.1723 0.0265
vn -0.0207 0.9604 -0.2780
vn 0.4224 -0.9063 0.0130
vn 0.1460 -0.9886 0.0378
vn -0.2813 0.9313 -0.2313
vn -0.6681 0.7324 -0.1313
vn -0.9840 -0.0396 0.1736
vn -0.9956 -0.0917 0.0190
vn 0.4097 0.8934 -0.1845
vn -0.7549 -0.0198 -0.6556
vn 0.9808 -0.0445 0.1897
vn -0.9480 -0.0436 -0.3152
vn 0.7443 -0.0199 -0.6675
vn -0.9938 0.1109 0.0013
vn -0.5865 -0.0175 0.8097
vn 0.1328 0.9911 -0.0042
vn 0.8401 0.5424 -0.0047
vn 0.8429 -0.5380 -0.0098
vn -0.0793 -0.9968 -0.0042
vn -0.7913 -0.6114 -0.0044
vn -0.0630 -0.1573 -0.9855
vn -0.5988 0.8009 -0.0034
vn -0.2758 0.1866 -0.9429
vn 0.0171 -0.0864 0.9961
vn -0.0582 0.1169 -0.9914
vn 0.5118 0.3152 -0.7992
vn 0.3896 -0.4527 0.8021
vn 0.0021 -0.1550 0.9879
vn -0.1188 -0.1807 0.9763
vn 0.2754 -0.9608 -0.0312
vn 0.1920 0.9505 0.2444
vn 0.0269 -0.9996 -0.0051
vn -0.1733 0.9511 0.2558
vn -0.9775 0.2086 0.0298
vn -0.0503 -0.9973 0.0536
vn 0.9544 0.2956 0.0411
vn -0.0000 -1.0000 -0.0000
vn -0.6260 -0.0050 -0.7798
vn -0.9366 0.0030 -0.3504
vn 0.9933 -0.0024 -0.1157
vn -0.9998 0.0003 -0.0177
vn -0.3105 0.9451 -0.1021
vn -0.9952 -0.0964 -0.0171
vn 0.9955 -0.0934 -0.0179
vn 0.9922 -0.0867 -0.0900
vn -0.9955 -0.0945 0.0094
vn 0.9746 -0.0904 -0.2048
vn -0.9942 -0.0857 0.0654
vn -0.9746 -0.0904 0.2048
vn 0.9952 -0.0961 0.0171
vn -0.7463 0.6585 -0.0973
vn -0.0185 0.9950 0.0979
vn 0.4564 0.8842 0.0996
vn 0.0796 0.9922 -0.0960
vt 0.102511 0.278340
vt 0.096179 0.239055
vt 0.110386 0.296557
vt 0.156769 0.999951
vt 0.379836 1.000000
vt 0.206236 1.000000
vt 0.649496 0.999906
vt 0.672847 1.000000
vt 0.555251 0.999984
vt 0.445418 1.000008
vt 0.019518 0.999993
vt 0.892106 1.000026
vt 0.925217 1.000000
vt 0.808692 1.000000
vt 0.766859 1.000173
vt 0.400042 0.274891
vt 0.474544 0.336784
vt 0.375579 0.313659
vt 0.142462 0.169865
vt 0.107077 0.104848
vt 0.229978 0.138300
vt 0.100428 0.228576
vt 0.360805 0.174638
vt 0.361096 0.174435
vt 0.299381 0.356433
vt 0.167675 0.343945
vt 0.349454 0.336151
vt 0.182349 0.354261
vt 0.403845 0.255252
vt 0.168331 0.156184
vt 0.401995 0.232138
vt 0.402346 0.233671
vt 0.140094 0.326368
vt 0.327318 0.344895
vt 0.140076 0.175692
vt 0.403941 0.255225
vt 0.393421 0.218996
vt 0.211190 0.142202
vt 0.917337 1.000000
vt 0.977863 1.000003
vt 0.754680 0.999958
vt 0.313567 1.000020
vt 0.417315 1.000000
vt 0.688633 1.000000
vt 0.565711 0.999988
vt 0.163110 0.999958
vt 0.205781 1.000000
vt 0.291736 1.000000
vt 0.912835 1.000000
vt 1.000000 0.999976
vt 0.039336 0.999981
vt 0.372722 1.000000
vt 0.343939 0.436714
vt 0.317651 0.354261
vt 0.243112 0.365639
vt 0.376453 0.312313
vt 0.457067 0.141019
vt 0.463488 0.163720
vt 0.404075 0.256989
vt 0.392797 0.212421
vt 0.260801 0.137822
vt 0.096933 0.109074
vt 0.151546 0.162410
vt 0.103474 0.217180
vt 0.095925 0.256989
vt 0.029434 0.312156
vt 0.110044 0.295111
vt 0.142399 0.330084
vt 0.096211 0.249590
vt 0.335915 0.342904
vt 0.156427 0.340492
vt 0.104889 0.216351
vt 0.403789 0.249590
vt 0.396360 0.217698
vt 0.403748 0.257036
vt 0.097037 0.237875
vt 0.095490 0.251493
vt 0.099907 0.272242
vt 0.397070 0.218197
vt 0.399783 0.232437
vt 0.257459 0.138087
vt 0.100221 0.267582
vt 0.242542 0.361913
vt 0.313594 0.144702
vt 0.196484 0.142861
vt 0.303517 0.357139
vt 0.363746 0.325041
vt 0.186406 0.355298
vt 0.136254 0.174959
vt 0.137373 0.325959
vt 0.362628 0.174042
vt 0.000000 1.000000
vt 0.023659 0.312589
vt 0.128621 0.318776
vt 0.027828 1.000000
vt 0.274810 0.135080
vt 0.123737 0.185232
s 0
f 17/1/1 30/2/1 31/3/1
f 8/4/2 22/5/2 23/6/2
f 4/7/3 21/8/3 5/9/3
f 5/9/4 22/5/4 6/10/4
f 8/4/5 23/6/5 1/11/5
f 2/12/6 9/13/6 20/14/6
f 3/15/7 20/14/7 21/8/7
f 11/16/8 20/17/8 10/18/8
f 15/19/9 22/20/9 14/21/9
f 16/22/10 22/20/10 15/19/10
f 13/23/11 28/24/11 14/21/11
f 9/25/12 24/26/12 25/27/12
f 19/28/13 24/26/13 9/25/13
f 10/18/14 26/29/14 11/16/14
f 15/19/15 29/30/15 30/2/15
f 12/31/16 27/32/16 13/23/16
f 24/26/17 63/33/17 59/34/17
f 25/27/18 59/34/18 26/29/18
f 29/30/19 32/35/19 30/2/19
f 26/29/20 58/36/20 27/32/20
f 27/32/21 58/36/21 60/37/21
f 24/26/22 59/34/22 25/27/22
f 28/24/23 60/37/23 61/38/23
f 2/12/24 34/39/24 1/40/24
f 3/15/25 35/41/25 2/12/25
f 7/42/26 37/43/26 6/10/26
f 53/44/27 35/41/27 36/45/27
f 39/46/28 55/47/28 38/48/28
f 34/39/29 52/49/29 40/50/29
f 55/47/30 39/46/30 40/51/30
f 37/43/31 54/52/31 36/45/31
f 35/41/32 52/49/32 34/39/32
f 38/48/33 54/52/33 37/43/33
f 52/53/34 42/54/34 41/55/34
f 52/53/35 43/56/35 42/54/35
f 22/20/36 21/57/36 13/23/36 14/21/36
f 53/58/37 44/59/37 43/56/37
f 44/59/38 53/58/38 45/60/38
f 45/60/39 53/58/39 46/61/39
f 54/62/40 47/63/40 46/61/40
f 54/62/41 48/64/41 47/63/41
f 54/62/42 49/65/42 48/64/42
f 49/65/43 55/66/43 50/67/43
f 50/67/44 55/66/44 51/68/44
f 51/68/45 30/69/45 50/67/45
f 42/54/46 56/70/46 41/55/46
f 29/71/47 51/68/47 41/55/47
f 47/63/48 30/72/48 46/61/48
f 27/73/49 43/56/49 44/59/49
f 48/64/50 30/72/50 47/63/50
f 50/67/51 30/69/51 49/65/51
f 26/74/52 45/60/52 46/61/52
f 59/34/53 78/75/53 58/36/53
f 32/35/54 68/76/54 33/77/54
f 33/77/55 71/78/55 63/33/55
f 69/79/56 65/80/56 66/81/56
f 71/78/57 67/82/57 64/83/57
f 72/84/58 66/81/58 75/85/58
f 73/86/59 64/83/59 76/87/59
f 76/87/60 64/83/60 78/75/60
f 77/88/61 64/83/61 73/86/61
f 75/85/62 66/81/62 79/89/62
f 79/89/63 66/81/63 68/76/63
f 59/34/64 76/87/64 78/75/64
f 63/33/65 74/90/65 77/88/65
f 61/38/66 72/84/66 75/85/66
f 63/33/67 71/78/67 74/90/67
f 60/37/68 70/91/68 72/84/68
f 60/37/69 69/79/69 70/91/69
f 60/37/70 78/75/70 69/79/70
f 3/15/71 4/7/71 35/41/71
f 4/7/72 5/9/72 36/45/72
f 5/9/73 6/10/73 36/45/73
f 8/4/74 1/11/74 40/51/74
f 4/7/75 3/15/75 21/8/75
f 8/4/76 7/42/76 22/5/76
f 5/9/77 21/8/77 22/5/77
f 2/12/78 1/40/78 9/13/78
f 1/11/79 23/6/79 9/92/79
f 3/15/80 2/12/80 20/14/80
f 7/42/81 6/10/81 22/5/81
f 10/18/82 20/17/82 9/25/82
f 11/16/83 21/57/83 20/17/83
f 11/16/84 12/31/84 21/57/84
f 12/31/85 13/23/85 21/57/85
f 23/93/86 22/20/86 16/22/86 17/1/86
f 24/26/87 19/28/87 18/94/87 31/3/87
f 17/1/88 18/94/88 23/93/88
f 18/94/89 19/28/89 23/93/89
f 19/28/90 9/25/90 23/93/90
f 29/30/91 28/24/91 61/38/91
f 18/94/92 17/1/92 31/3/92
f 27/32/93 12/31/93 11/16/93 26/29/93
f 14/21/94 28/24/94 29/30/94
f 10/18/95 9/25/95 25/27/95
f 10/18/96 25/27/96 26/29/96
f 15/19/97 14/21/97 29/30/97
f 16/22/98 15/19/98 30/2/98
f 33/77/99 63/33/99 31/3/99 30/2/99
f 17/1/100 16/22/100 30/2/100
f 13/23/101 27/32/101 28/24/101
f 29/30/102 61/38/102 32/35/102
f 26/29/103 59/34/103 58/36/103
f 30/2/104 32/35/104 33/77/104
f 28/24/105 27/32/105 60/37/105
f 38/48/106 7/42/106 8/4/106 39/46/106
f 24/26/107 31/3/107 63/33/107
f 1/40/108 34/39/108 40/50/108
f 2/12/109 35/41/109 34/39/109
f 4/7/110 36/45/110 35/41/110
f 6/10/111 37/43/111 36/45/111
f 7/42/112 38/48/112 37/43/112
f 52/53/113 41/55/113 51/68/113 55/66/113
f 8/4/114 40/51/114 39/46/114
f 38/48/115 55/47/115 54/52/115
f 54/52/116 53/44/116 36/45/116
f 52/95/117 55/47/117 40/51/117
f 35/41/118 53/44/118 52/49/118
f 52/53/119 53/58/119 43/56/119
f 46/61/120 53/58/120 54/62/120
f 54/62/121 55/66/121 49/65/121
f 56/70/122 42/54/122 43/56/122 27/73/122
f 57/96/123 26/74/123 46/61/123
f 29/71/124 30/69/124 51/68/124
f 46/61/125 30/72/125 57/96/125
f 30/72/126 48/64/126 49/65/126
f 56/70/127 29/71/127 41/55/127
f 44/59/128 45/60/128 26/74/128 27/73/128
f 65/80/129 64/83/129 67/82/129 66/81/129
f 32/35/130 61/38/130 62/97/130
f 32/35/131 62/97/131 68/76/131
f 58/36/132 78/75/132 60/37/132
f 33/77/133 68/76/133 71/78/133
f 79/89/134 62/97/134 61/38/134 75/85/134
f 68/76/135 66/81/135 67/82/135
f 69/79/136 78/75/136 65/80/136
f 70/91/137 69/79/137 66/81/137
f 71/78/138 68/76/138 67/82/138
f 72/84/139 70/91/139 66/81/139
f 74/90/140 71/78/140 64/83/140
f 77/88/141 74/90/141 64/83/141
f 78/75/142 64/83/142 65/80/142
f 62/97/143 79/89/143 68/76/143
f 77/88/144 73/86/144 59/34/144 63/33/144
f 59/34/145 73/86/145 76/87/145
f 61/38/146 60/37/146 72/84/146
