# Blender 4.2.3 LTS
# www.blender.org
mtllib Shelf.mtl
o Cube
v -1.000000 -3.320560 1.471122
v -1.000000 -3.267435 1.471122
v -1.000000 -3.320560 -1.471122
v -1.000000 -3.267435 -1.471122
v 1.000000 -3.320560 1.471122
v 1.000000 -3.267435 1.471122
v 1.000000 -3.320560 -1.471122
v 1.000000 -3.267435 -1.471122
v -1.000000 -1.673710 1.471122
v -1.000000 -1.620585 1.471122
v -1.000000 -1.673710 -1.471122
v -1.000000 -1.620585 -1.471122
v 1.000000 -1.673710 1.471122
v 1.000000 -1.620585 1.471122
v 1.000000 -1.673710 -1.471122
v 1.000000 -1.620585 -1.471122
v -1.000000 -0.026860 1.471122
v -1.000000 0.026264 1.471122
v -1.000000 -0.026860 -1.471122
v -1.000000 0.026264 -1.471122
v 1.000000 -0.026860 1.471122
v 1.000000 0.026264 1.471122
v 1.000000 -0.026860 -1.471122
v 1.000000 0.026264 -1.471122
v -1.000000 1.619990 1.471122
v -1.000000 1.673114 1.471122
v -1.000000 1.619990 -1.471122
v -1.000000 1.673114 -1.471122
v 1.000000 1.619990 1.471122
v 1.000000 1.673114 1.471122
v 1.000000 1.619990 -1.471122
v 1.000000 1.673114 -1.471122
v -1.000000 3.266840 1.471122
v -1.000000 3.319964 1.471122
v -1.000000 3.266840 -1.471122
v -1.000000 3.319964 -1.471122
v 1.000000 3.266840 1.471122
v 1.000000 3.319964 1.471122
v 1.000000 3.266840 -1.471122
v 1.000000 3.319964 -1.471122
v 1.004904 -3.342265 1.444889
v 0.934721 -3.342265 1.553376
v 0.999667 -3.342265 1.485589
v 0.984200 -3.342265 1.521372
v 0.961051 -3.342265 1.545281
v 0.934721 3.342266 1.553376
v 1.004904 3.342266 1.444889
v 0.961051 3.342266 1.545281
v 0.984200 3.342266 1.521372
v 0.999667 3.342266 1.485589
v 1.000000 -3.342265 1.443381
v 0.933746 -3.342265 1.545796
v 0.994957 -3.342265 1.482574
v 0.980595 -3.342265 1.515800
v 0.959100 -3.342265 1.538000
v 0.933746 3.342266 1.545796
v 1.000000 3.342266 1.443381
v 0.959100 3.342266 1.538000
v 0.980595 3.342266 1.515800
v 0.994957 3.342266 1.482574
v -1.004904 -3.342265 1.444889
v -0.934721 -3.342265 1.553376
v -0.999667 -3.342265 1.485589
v -0.984200 -3.342265 1.521372
v -0.961051 -3.342265 1.545281
v -0.934721 3.342266 1.553376
v -1.004904 3.342266 1.444889
v -0.961051 3.342266 1.545281
v -0.984200 3.342266 1.521372
v -0.999667 3.342266 1.485589
v -1.000000 -3.342265 1.443381
v -0.933746 -3.342265 1.545796
v -0.994957 -3.342265 1.482574
v -0.980595 -3.342265 1.515800
v -0.959100 -3.342265 1.538000
v -0.933746 3.342266 1.545796
v -1.000000 3.342266 1.443381
v -0.959100 3.342266 1.538000
v -0.980595 3.342266 1.515800
v -0.994957 3.342266 1.482574
v 1.004904 -3.342265 -1.444889
v 0.934721 -3.342265 -1.553376
v 0.999667 -3.342265 -1.485589
v 0.984200 -3.342265 -1.521372
v 0.961051 -3.342265 -1.545281
v 0.934721 3.342266 -1.553376
v 1.004904 3.342266 -1.444889
v 0.961051 3.342266 -1.545281
v 0.984200 3.342266 -1.521372
v 0.999667 3.342266 -1.485589
v 1.000000 -3.342265 -1.443381
v 0.933746 -3.342265 -1.545796
v 0.994957 -3.342265 -1.482574
v 0.980595 -3.342265 -1.515800
v 0.959100 -3.342265 -1.538000
v 0.933746 3.342266 -1.545796
v 1.000000 3.342266 -1.443381
v 0.959100 3.342266 -1.538000
v 0.980595 3.342266 -1.515800
v 0.994957 3.342266 -1.482574
v -1.004904 -3.342265 -1.444889
v -0.934721 -3.342265 -1.553376
v -0.999667 -3.342265 -1.485589
v -0.984200 -3.342265 -1.521372
v -0.961051 -3.342265 -1.545281
v -0.934721 3.342266 -1.553376
v -1.004904 3.342266 -1.444889
v -0.961051 3.342266 -1.545281
v -0.984200 3.342266 -1.521372
v -0.999667 3.342266 -1.485589
v -1.000000 -3.342265 -1.443381
v -0.933746 -3.342265 -1.545796
v -0.994957 -3.342265 -1.482574
v -0.980595 -3.342265 -1.515800
v -0.959100 -3.342265 -1.538000
v -0.933746 3.342266 -1.545796
v -1.000000 3.342266 -1.443381
v -0.959100 3.342266 -1.538000
v -0.980595 3.342266 -1.515800
v -0.994957 3.342266 -1.482574
vn -1.0000 -0.0000 -0.0000
vn -0.0000 -0.0000 -1.0000
vn 1.0000 -0.0000 -0.0000
vn -0.0000 -0.0000 1.0000
vn -0.0000 -1.0000 -0.0000
vn -0.0000 1.0000 -0.0000
vn -0.0209 0.9996 0.0213
vn -0.0209 -0.9996 0.0213
vn 0.0119 -0.9998 0.0186
vn 0.0119 0.9998 0.0186
vn 0.0215 -0.9997 0.0140
vn 0.0215 0.9997 0.0140
vn 0.0276 -0.9996 0.0074
vn 0.0275 0.9996 0.0074
vn 0.0311 -0.9994 -0.0141
vn 0.0310 0.9994 -0.0141
vn -0.0311 0.9994 -0.0141
vn -0.0092 0.9999 -0.0144
vn -0.0092 -0.9999 -0.0144
vn -0.0311 -0.9994 -0.0141
vn -0.0168 0.9998 -0.0109
vn -0.0167 -0.9998 -0.0109
vn -0.0217 0.9997 -0.0058
vn -0.0216 -0.9997 -0.0058
vn -0.0210 0.9996 -0.0213
vn -0.0209 -0.9996 -0.0213
vn 0.0209 0.9996 0.0213
vn -0.0119 0.9998 0.0186
vn -0.0119 -0.9998 0.0186
vn 0.0209 -0.9996 0.0213
vn -0.0215 0.9997 0.0140
vn -0.0215 -0.9997 0.0140
vn -0.0275 0.9996 0.0074
vn -0.0276 -0.9996 0.0074
vn -0.0310 0.9994 -0.0141
vn 0.0311 0.9994 -0.0141
vn 0.0092 -0.9999 -0.0144
vn 0.0092 0.9999 -0.0144
vn 0.0167 -0.9998 -0.0109
vn 0.0168 0.9998 -0.0109
vn 0.0216 -0.9997 -0.0058
vn 0.0217 0.9997 -0.0058
vn 0.0209 -0.9996 -0.0213
vn 0.0210 0.9996 -0.0213
vn -0.0209 0.9996 -0.0213
vn 0.0119 0.9998 -0.0186
vn 0.0119 -0.9998 -0.0186
vn 0.0215 0.9997 -0.0140
vn 0.0215 -0.9997 -0.0140
vn 0.0275 0.9996 -0.0074
vn 0.0276 -0.9996 -0.0074
vn 0.0310 0.9994 0.0141
vn 0.0311 -0.9994 0.0141
vn -0.0311 0.9994 0.0141
vn -0.0311 -0.9994 0.0141
vn -0.0092 -0.9999 0.0144
vn -0.0092 0.9999 0.0144
vn -0.0167 -0.9998 0.0109
vn -0.0168 0.9998 0.0109
vn -0.0216 -0.9997 0.0058
vn -0.0217 0.9997 0.0058
vn -0.0210 0.9996 0.0213
vn 0.0209 0.9996 -0.0213
vn -0.0119 -0.9998 -0.0186
vn -0.0119 0.9998 -0.0186
vn -0.0215 -0.9997 -0.0140
vn -0.0215 0.9997 -0.0140
vn -0.0276 -0.9996 -0.0074
vn -0.0275 0.9996 -0.0074
vn -0.0310 0.9994 0.0141
vn 0.0311 0.9994 0.0141
vn 0.0092 0.9999 0.0144
vn 0.0092 -0.9999 0.0144
vn 0.0168 0.9998 0.0109
vn 0.0167 -0.9998 0.0109
vn 0.0217 0.9997 0.0058
vn 0.0216 -0.9997 0.0058
vn 0.0210 0.9996 0.0213
vt 0.375000 0.000000
vt 0.625000 0.000000
vt 0.625000 0.250000
vt 0.375000 0.250000
vt 0.625000 0.500000
vt 0.375000 0.500000
vt 0.625000 0.750000
vt 0.375000 0.750000
vt 0.625000 1.000000
vt 0.375000 1.000000
vt 0.125000 0.500000
vt 0.125000 0.750000
vt 0.875000 0.500000
vt 0.875000 0.750000
vt 0.625000 0.758282
vt 0.375000 0.758282
vt 0.375000 0.755112
vt 0.625000 0.755112
vt 0.375000 0.744888
vt 0.625000 0.744888
vt 0.375000 0.741718
vt 0.625000 0.741718
s 0
f 1/1/1 2/2/1 4/3/1 3/4/1
f 3/4/2 4/3/2 8/5/2 7/6/2
f 7/6/3 8/5/3 6/7/3 5/8/3
f 5/8/4 6/7/4 2/9/4 1/10/4
f 3/11/5 7/6/5 5/8/5 1/12/5
f 8/5/6 4/13/6 2/14/6 6/7/6
f 9/1/1 10/2/1 12/3/1 11/4/1
f 11/4/2 12/3/2 16/5/2 15/6/2
f 15/6/3 16/5/3 14/7/3 13/8/3
f 13/8/4 14/7/4 10/9/4 9/10/4
f 11/11/5 15/6/5 13/8/5 9/12/5
f 16/5/6 12/13/6 10/14/6 14/7/6
f 17/1/1 18/2/1 20/3/1 19/4/1
f 19/4/2 20/3/2 24/5/2 23/6/2
f 23/6/3 24/5/3 22/7/3 21/8/3
f 21/8/4 22/7/4 18/9/4 17/10/4
f 19/11/5 23/6/5 21/8/5 17/12/5
f 24/5/6 20/13/6 18/14/6 22/7/6
f 25/1/1 26/2/1 28/3/1 27/4/1
f 27/4/2 28/3/2 32/5/2 31/6/2
f 31/6/3 32/5/3 30/7/3 29/8/3
f 29/8/4 30/7/4 26/9/4 25/10/4
f 27/11/5 31/6/5 29/8/5 25/12/5
f 32/5/6 28/13/6 26/14/6 30/7/6
f 33/1/1 34/2/1 36/3/1 35/4/1
f 35/4/2 36/3/2 40/5/2 39/6/2
f 39/6/3 40/5/3 38/7/3 37/8/3
f 37/8/4 38/7/4 34/9/4 33/10/4
f 35/11/5 39/6/5 37/8/5 33/12/5
f 40/5/6 36/13/6 34/14/6 38/7/6
s 1
f 46/15/7 42/16/8 45/17/9 48/18/10
f 48/18/10 45/17/9 44/8/11 49/7/12
f 49/7/12 44/8/11 43/19/13 50/20/14
f 50/20/14 43/19/13 41/21/15 47/22/16
f 56/15/17 58/18/18 55/17/19 52/16/20
f 58/18/18 59/7/21 54/8/22 55/17/19
f 59/7/21 60/20/23 53/19/24 54/8/22
f 60/20/23 57/22/25 51/21/26 53/19/24
f 46/15/7 48/18/10 58/18/18 56/15/17
f 42/16/8 46/15/7 56/15/17 52/16/20
f 45/17/9 42/16/8 52/16/20 55/17/19
f 48/18/10 49/7/12 59/7/21 58/18/18
f 44/8/11 45/17/9 55/17/19 54/8/22
f 49/7/12 50/20/14 60/20/23 59/7/21
f 43/19/13 44/8/11 54/8/22 53/19/24
f 50/20/14 47/22/16 57/22/25 60/20/23
f 41/21/15 43/19/13 53/19/24 51/21/26
f 47/22/16 41/21/15 51/21/26 57/22/25
f 66/15/27 68/18/28 65/17/29 62/16/30
f 68/18/28 69/7/31 64/8/32 65/17/29
f 69/7/31 70/20/33 63/19/34 64/8/32
f 70/20/33 67/22/35 61/21/20 63/19/34
f 76/15/36 72/16/15 75/17/37 78/18/38
f 78/18/38 75/17/37 74/8/39 79/7/40
f 79/7/40 74/8/39 73/19/41 80/20/42
f 80/20/42 73/19/41 71/21/43 77/22/44
f 66/15/27 76/15/36 78/18/38 68/18/28
f 62/16/30 72/16/15 76/15/36 66/15/27
f 65/17/29 75/17/37 72/16/15 62/16/30
f 68/18/28 78/18/38 79/7/40 69/7/31
f 64/8/32 74/8/39 75/17/37 65/17/29
f 69/7/31 79/7/40 80/20/42 70/20/33
f 63/19/34 73/19/41 74/8/39 64/8/32
f 70/20/33 80/20/42 77/22/44 67/22/35
f 61/21/20 71/21/43 73/19/41 63/19/34
f 67/22/35 77/22/44 71/21/43 61/21/20
f 86/15/45 88/18/46 85/17/47 82/16/26
f 88/18/46 89/7/48 84/8/49 85/17/47
f 89/7/48 90/20/50 83/19/51 84/8/49
f 90/20/50 87/22/52 81/21/53 83/19/51
f 96/15/54 92/16/55 95/17/56 98/18/57
f 98/18/57 95/17/56 94/8/58 99/7/59
f 99/7/59 94/8/58 93/19/60 100/20/61
f 100/20/61 93/19/60 91/21/8 97/22/62
f 86/15/45 96/15/54 98/18/57 88/18/46
f 82/16/26 92/16/55 96/15/54 86/15/45
f 85/17/47 95/17/56 92/16/55 82/16/26
f 88/18/46 98/18/57 99/7/59 89/7/48
f 84/8/49 94/8/58 95/17/56 85/17/47
f 89/7/48 99/7/59 100/20/61 90/20/50
f 83/19/51 93/19/60 94/8/58 84/8/49
f 90/20/50 100/20/61 97/22/62 87/22/52
f 81/21/53 91/21/8 93/19/60 83/19/51
f 87/22/52 97/22/62 91/21/8 81/21/53
f 106/15/63 102/16/43 105/17/64 108/18/65
f 108/18/65 105/17/64 104/8/66 109/7/67
f 109/7/67 104/8/66 103/19/68 110/20/69
f 110/20/69 103/19/68 101/21/55 107/22/70
f 116/15/71 118/18/72 115/17/73 112/16/53
f 118/18/72 119/7/74 114/8/75 115/17/73
f 119/7/74 120/20/76 113/19/77 114/8/75
f 120/20/76 117/22/78 111/21/30 113/19/77
f 106/15/63 108/18/65 118/18/72 116/15/71
f 102/16/43 106/15/63 116/15/71 112/16/53
f 105/17/64 102/16/43 112/16/53 115/17/73
f 108/18/65 109/7/67 119/7/74 118/18/72
f 104/8/66 105/17/64 115/17/73 114/8/75
f 109/7/67 110/20/69 120/20/76 119/7/74
f 103/19/68 104/8/66 114/8/75 113/19/77
f 110/20/69 107/22/70 117/22/78 120/20/76
f 101/21/55 103/19/68 113/19/77 111/21/30
f 107/22/70 101/21/55 111/21/30 117/22/78
