# Blender 4.2.3 LTS
# www.blender.org
mtllib 1.mtl
o 1
v -0.193636 -0.200471 0.198363
v -0.193636 0.199529 0.198363
v -0.193636 -0.200471 -0.201637
v -0.193636 0.199529 -0.201637
v 0.206364 -0.200471 0.198363
v 0.206364 0.199529 0.198363
v 0.206364 -0.200471 -0.201637
v 0.206364 0.199529 -0.201637
v 0.192364 -0.173343 0.039363
v 0.192364 0.172401 0.039363
v 0.192364 -0.173343 -0.002637
v 0.192364 0.172401 -0.002637
v 0.220364 -0.173343 0.039363
v 0.220364 0.172401 0.039363
v 0.220364 -0.173343 -0.002637
v 0.220364 0.172401 -0.002637
v 0.192364 -0.123951 0.039363
v 0.192364 -0.074559 0.039363
v 0.192364 -0.025167 0.039363
v 0.192364 0.024225 0.039363
v 0.192364 0.073617 0.039363
v 0.192364 0.123009 0.039363
v 0.192364 0.123009 -0.002637
v 0.192364 0.073617 -0.002637
v 0.192364 0.024225 -0.002637
v 0.192364 -0.025167 -0.002637
v 0.192364 -0.074559 -0.002637
v 0.192364 -0.123951 -0.002637
v 0.220364 0.123009 -0.002637
v 0.220364 0.073617 -0.002637
v 0.220364 0.024225 -0.002637
v 0.220364 -0.025167 -0.002637
v 0.220364 -0.074559 -0.002637
v 0.220364 -0.123951 -0.002637
v 0.220364 0.123009 0.039363
v 0.220364 0.073617 0.039363
v 0.220364 0.024225 0.039363
v 0.220364 -0.025167 0.039363
v 0.220364 -0.074559 0.039363
v 0.220364 -0.123951 0.039363
v 0.192364 0.123009 0.098363
v 0.192364 0.172401 0.098363
v 0.220364 0.172401 0.098363
v 0.220364 0.123009 0.098363
vn -1.0000 -0.0000 -0.0000
vn -0.0000 -0.0000 -1.0000
vn 1.0000 -0.0000 -0.0000
vn -0.0000 -0.0000 1.0000
vn -0.0000 -1.0000 -0.0000
vn -0.0000 1.0000 -0.0000
vt 0.375000 0.000000
vt 0.625000 0.000000
vt 0.625000 0.250000
vt 0.375000 0.250000
vt 0.625000 0.500000
vt 0.375000 0.500000
vt 0.625000 0.750000
vt 0.375000 0.750000
vt 0.625000 1.000000
vt 0.375000 1.000000
vt 0.125000 0.500000
vt 0.125000 0.750000
vt 0.875000 0.500000
vt 0.875000 0.750000
vt 0.589286 0.000000
vt 0.589286 0.250000
vt 0.589286 0.500000
vt 0.589286 0.750000
vt 0.410714 0.750000
vt 0.410714 1.000000
vt 0.446429 0.750000
vt 0.446429 1.000000
vt 0.482143 0.750000
vt 0.482143 1.000000
vt 0.517857 0.750000
vt 0.517857 1.000000
vt 0.553571 0.750000
vt 0.553571 1.000000
vt 0.589286 1.000000
vt 0.410714 0.500000
vt 0.446429 0.500000
vt 0.482143 0.500000
vt 0.517857 0.500000
vt 0.553571 0.500000
vt 0.410714 0.250000
vt 0.446429 0.250000
vt 0.482143 0.250000
vt 0.517857 0.250000
vt 0.553571 0.250000
vt 0.410714 0.000000
vt 0.446429 0.000000
vt 0.482143 0.000000
vt 0.517857 0.000000
vt 0.553571 0.000000
s 0
f 1/1/1 2/2/1 4/3/1 3/4/1
f 3/4/2 4/3/2 8/5/2 7/6/2
f 7/6/3 8/5/3 6/7/3 5/8/3
f 5/8/4 6/7/4 2/9/4 1/10/4
f 3/11/5 7/6/5 5/8/5 1/12/5
f 8/5/6 4/13/6 2/14/6 6/7/6
f 22/15/1 10/2/1 12/3/1 23/16/1
f 23/16/2 12/3/2 16/5/2 29/17/2
f 29/17/3 16/5/3 14/7/3 35/18/3
f 35/18/3 14/7/3 43/7/3 44/18/3
f 11/11/5 15/6/5 13/8/5 9/12/5
f 16/5/6 12/13/6 10/14/6 14/7/6
f 13/8/4 40/19/4 17/20/4 9/10/4
f 40/19/4 39/21/4 18/22/4 17/20/4
f 39/21/4 38/23/4 19/24/4 18/22/4
f 38/23/4 37/25/4 20/26/4 19/24/4
f 37/25/4 36/27/4 21/28/4 20/26/4
f 36/27/4 35/18/4 22/29/4 21/28/4
f 15/6/3 34/30/3 40/19/3 13/8/3
f 34/30/3 33/31/3 39/21/3 40/19/3
f 33/31/3 32/32/3 38/23/3 39/21/3
f 32/32/3 31/33/3 37/25/3 38/23/3
f 31/33/3 30/34/3 36/27/3 37/25/3
f 30/34/3 29/17/3 35/18/3 36/27/3
f 11/4/2 28/35/2 34/30/2 15/6/2
f 28/35/2 27/36/2 33/31/2 34/30/2
f 27/36/2 26/37/2 32/32/2 33/31/2
f 26/37/2 25/38/2 31/33/2 32/32/2
f 25/38/2 24/39/2 30/34/2 31/33/2
f 24/39/2 23/16/2 29/17/2 30/34/2
f 9/1/1 17/40/1 28/35/1 11/4/1
f 17/40/1 18/41/1 27/36/1 28/35/1
f 18/41/1 19/42/1 26/37/1 27/36/1
f 19/42/1 20/43/1 25/38/1 26/37/1
f 20/43/1 21/44/1 24/39/1 25/38/1
f 21/44/1 22/15/1 23/16/1 24/39/1
f 44/18/4 43/7/4 42/9/4 41/29/4
f 22/29/5 35/18/5 44/18/5 41/29/5
f 14/7/6 10/14/6 42/14/6 43/7/6
f 10/2/1 22/15/1 41/15/1 42/2/1
