# Blender 4.2.3 LTS
# www.blender.org
mtllib 5.mtl
o 5
v -0.200000 -0.200000 0.200000
v -0.200000 0.200000 0.200000
v -0.200000 -0.200000 -0.200000
v -0.200000 0.200000 -0.200000
v 0.200000 -0.200000 0.200000
v 0.200000 0.200000 0.200000
v 0.200000 -0.200000 -0.200000
v 0.200000 0.200000 -0.200000
v 0.186000 0.172872 0.101000
v 0.186000 0.172872 0.059000
v 0.214000 0.172872 0.101000
v 0.214000 0.172872 0.059000
v 0.186000 -0.024696 0.101000
v 0.186000 0.024696 0.101000
v 0.186000 0.074088 0.101000
v 0.186000 0.123480 0.101000
v 0.186000 0.123480 0.059000
v 0.186000 0.074088 0.059000
v 0.186000 0.024696 0.059000
v 0.186000 -0.024696 0.059000
v 0.214000 0.123480 0.059000
v 0.214000 0.074088 0.059000
v 0.214000 0.024696 0.059000
v 0.214000 -0.024696 0.059000
v 0.214000 0.123480 0.101000
v 0.214000 0.074088 0.101000
v 0.214000 0.024696 0.101000
v 0.214000 -0.024696 0.101000
v 0.186000 0.172872 -0.101000
v 0.214000 0.172872 -0.101000
v 0.186000 0.123480 -0.101000
v 0.214000 0.123480 -0.101000
v 0.186000 0.024696 -0.061000
v 0.186000 -0.024696 -0.061000
v 0.214000 0.024696 -0.061000
v 0.214000 -0.024696 -0.061000
v 0.186000 0.024696 -0.101000
v 0.186000 -0.024696 -0.101000
v 0.214000 0.024696 -0.101000
v 0.214000 -0.024696 -0.101000
v 0.186000 -0.124696 -0.061000
v 0.214000 -0.124696 -0.061000
v 0.186000 -0.124696 -0.101000
v 0.214000 -0.124696 -0.101000
v 0.186000 -0.174696 -0.061000
v 0.214000 -0.174696 -0.061000
v 0.186000 -0.174696 -0.101000
v 0.214000 -0.174696 -0.101000
v 0.186000 -0.124696 0.099000
v 0.214000 -0.124696 0.099000
v 0.186000 -0.174696 0.099000
v 0.214000 -0.174696 0.099000
vn -1.0000 -0.0000 -0.0000
vn -0.0000 -0.0000 -1.0000
vn 1.0000 -0.0000 -0.0000
vn -0.0000 -0.0000 1.0000
vn -0.0000 -1.0000 -0.0000
vn -0.0000 1.0000 -0.0000
vt 0.375000 0.000000
vt 0.625000 0.000000
vt 0.625000 0.250000
vt 0.375000 0.250000
vt 0.625000 0.500000
vt 0.375000 0.500000
vt 0.625000 0.750000
vt 0.375000 0.750000
vt 0.625000 1.000000
vt 0.375000 1.000000
vt 0.125000 0.500000
vt 0.125000 0.750000
vt 0.875000 0.500000
vt 0.875000 0.750000
vt 0.589286 0.000000
vt 0.589286 0.250000
vt 0.589286 0.500000
vt 0.589286 0.750000
vt 0.482143 0.750000
vt 0.517857 0.750000
vt 0.517857 1.000000
vt 0.482143 1.000000
vt 0.553571 0.750000
vt 0.553571 1.000000
vt 0.589286 1.000000
vt 0.482143 0.000000
vt 0.482143 0.250000
vt 0.482143 0.500000
vt 0.517857 0.500000
vt 0.553571 0.500000
vt 0.517857 0.250000
vt 0.553571 0.250000
vt 0.517857 0.000000
vt 0.553571 0.000000
s 0
f 1/1/1 2/2/1 4/3/1 3/4/1
f 3/4/2 4/3/2 8/5/2 7/6/2
f 7/6/3 8/5/3 6/7/3 5/8/3
f 5/8/4 6/7/4 2/9/4 1/10/4
f 3/11/5 7/6/5 5/8/5 1/12/5
f 8/5/6 4/13/6 2/14/6 6/7/6
f 16/15/1 9/2/1 10/3/1 17/16/1
f 10/13/6 12/5/6 30/5/6 29/13/6
f 21/17/3 12/5/3 11/7/3 25/18/3
f 12/5/6 10/13/6 9/14/6 11/7/6
f 28/19/4 27/20/4 14/21/4 13/22/4
f 27/20/4 26/23/4 15/24/4 14/21/4
f 26/23/4 25/18/4 16/25/4 15/24/4
f 28/19/5 13/26/5 20/27/5 24/28/5
f 24/28/3 23/29/3 27/20/3 28/19/3
f 23/29/3 22/30/3 26/23/3 27/20/3
f 22/30/3 21/17/3 25/18/3 26/23/3
f 20/27/1 19/31/1 33/31/1 34/27/1
f 19/31/2 18/32/2 22/30/2 23/29/2
f 18/32/2 17/16/2 21/17/2 22/30/2
f 13/26/1 14/33/1 19/31/1 20/27/1
f 14/33/1 15/34/1 18/32/1 19/31/1
f 15/34/1 16/15/1 17/16/1 18/32/1
f 16/25/4 25/18/4 11/7/4 9/14/4
f 31/16/2 29/3/2 30/5/2 32/17/2
f 12/5/3 21/17/3 32/17/3 30/5/3
f 21/17/5 17/16/5 31/16/5 32/17/5
f 17/16/1 10/3/1 29/3/1 31/16/1
f 38/27/2 40/28/2 44/28/2 43/27/2
f 24/28/5 20/27/5 34/27/5 36/28/5
f 19/31/6 23/29/6 35/29/6 33/31/6
f 23/29/3 24/28/3 36/28/3 35/29/3
f 38/27/2 37/31/2 39/29/2 40/28/2
f 34/27/1 33/31/1 37/31/1 38/27/1
f 33/31/6 35/29/6 39/29/6 37/31/6
f 35/29/3 36/28/3 40/28/3 39/29/3
f 44/28/3 42/28/3 46/28/3 48/28/3
f 36/28/4 34/27/4 41/27/4 42/28/4
f 40/28/3 36/28/3 42/28/3 44/28/3
f 34/27/1 38/27/1 43/27/1 41/27/1
f 46/28/5 45/27/5 47/27/5 48/28/5
f 43/27/2 44/28/2 48/28/2 47/27/2
f 41/27/1 43/27/1 47/27/1 45/27/1
f 46/28/3 42/28/3 50/28/3 52/28/3
f 50/28/4 49/27/4 51/27/4 52/28/4
f 45/27/5 46/28/5 52/28/5 51/27/5
f 41/27/1 45/27/1 51/27/1 49/27/1
f 42/28/6 41/27/6 49/27/6 50/28/6
