# Blender 4.2.3 LTS
# www.blender.org
mtllib 9.mtl
o 9
v -0.014000 0.172972 -0.101000
v -0.014000 -0.172772 -0.101000
v -0.014000 0.172972 -0.059000
v -0.014000 -0.172772 -0.059000
v 0.014000 0.172972 -0.101000
v 0.014000 -0.172772 -0.101000
v 0.014000 0.172972 -0.059000
v 0.014000 -0.172772 -0.059000
v -0.014000 0.123580 -0.101000
v -0.014000 0.074188 -0.101000
v -0.014000 0.024796 -0.101000
v -0.014000 -0.024596 -0.101000
v -0.014000 -0.073988 -0.101000
v -0.014000 -0.123380 -0.101000
v -0.014000 -0.123380 -0.059000
v -0.014000 -0.073988 -0.059000
v -0.014000 -0.025508 -0.059000
v -0.014000 0.024188 -0.059000
v -0.014000 0.074188 -0.059000
v -0.014000 0.123580 -0.059000
v 0.014000 -0.123380 -0.059000
v 0.014000 -0.073988 -0.059000
v 0.014000 -0.025508 -0.059000
v 0.014000 0.024188 -0.059000
v 0.014000 0.074188 -0.059000
v 0.014000 0.123580 -0.059000
v 0.014000 -0.123380 -0.101000
v 0.014000 -0.073988 -0.101000
v 0.014000 -0.024596 -0.101000
v 0.014000 0.024796 -0.101000
v 0.014000 0.074188 -0.101000
v 0.014000 0.123580 -0.101000
v -0.014000 0.123580 0.061000
v -0.014000 0.172972 0.061000
v 0.014000 0.172972 0.061000
v 0.014000 0.123580 0.061000
v -0.014000 0.123580 0.101000
v -0.014000 0.172972 0.101000
v 0.014000 0.172972 0.101000
v 0.014000 0.123580 0.101000
v -0.014000 0.023580 0.061000
v 0.014000 0.023580 0.061000
v -0.014000 0.023580 0.101000
v 0.014000 0.023580 0.101000
v -0.014000 -0.026420 0.061000
v 0.014000 -0.026420 0.061000
v -0.014000 -0.026420 0.101000
v 0.014000 -0.026420 0.101000
v -0.014000 -0.172772 0.101000
v 0.014000 -0.172772 0.101000
v -0.014000 -0.123380 0.101000
v 0.014000 -0.123380 0.101000
vn -1.0000 -0.0000 -0.0000
vn 1.0000 -0.0000 -0.0000
vn -0.0000 1.0000 -0.0000
vn -0.0000 -1.0000 -0.0000
vn -0.0000 -0.0000 -1.0000
vn -0.0000 -0.0000 1.0000
vn -0.0000 -1.0000 -0.0076
vn -0.0000 1.0000 0.0051
vt 0.589286 0.000000
vt 0.625000 0.000000
vt 0.625000 0.250000
vt 0.589286 0.250000
vt 0.625000 0.500000
vt 0.589286 0.500000
vt 0.625000 0.750000
vt 0.589286 0.750000
vt 0.125000 0.500000
vt 0.375000 0.500000
vt 0.375000 0.750000
vt 0.125000 0.750000
vt 0.875000 0.500000
vt 0.875000 0.750000
vt 0.410714 0.750000
vt 0.410714 1.000000
vt 0.375000 1.000000
vt 0.446429 0.750000
vt 0.446429 1.000000
vt 0.482143 0.750000
vt 0.482143 1.000000
vt 0.517857 0.750000
vt 0.517857 1.000000
vt 0.553571 0.750000
vt 0.553571 1.000000
vt 0.589286 1.000000
vt 0.410714 0.500000
vt 0.446429 0.500000
vt 0.482143 0.500000
vt 0.517857 0.500000
vt 0.553571 0.500000
vt 0.375000 0.250000
vt 0.410714 0.250000
vt 0.446429 0.250000
vt 0.482143 0.250000
vt 0.517857 0.250000
vt 0.553571 0.250000
vt 0.375000 0.000000
vt 0.410714 0.000000
vt 0.446429 0.000000
vt 0.482143 0.000000
vt 0.517857 0.000000
vt 0.553571 0.000000
s 0
f 14/1/1 2/2/1 4/3/1 15/4/1
f 8/5/2 21/6/2 52/6/2 50/5/2
f 21/6/2 8/5/2 6/7/2 27/8/2
f 3/9/3 7/10/3 5/11/3 1/12/3
f 8/5/4 4/13/4 2/14/4 6/7/4
f 5/11/5 32/15/5 9/16/5 1/17/5
f 32/15/5 31/18/5 10/19/5 9/16/5
f 31/18/5 30/20/5 11/21/5 10/19/5
f 30/20/5 29/22/5 12/23/5 11/21/5
f 29/22/5 28/24/5 13/25/5 12/23/5
f 28/24/5 27/8/5 14/26/5 13/25/5
f 7/10/2 26/27/2 32/15/2 5/11/2
f 26/27/2 25/28/2 31/18/2 32/15/2
f 25/28/2 24/29/2 30/20/2 31/18/2
f 24/29/2 23/30/2 29/22/2 30/20/2
f 23/30/2 22/31/2 28/24/2 29/22/2
f 22/31/2 21/6/2 27/8/2 28/24/2
f 3/32/1 20/33/1 33/33/1 34/32/1
f 20/33/6 19/34/6 25/28/6 26/27/6
f 19/34/6 18/35/6 24/29/6 25/28/6
f 18/35/6 17/36/6 23/30/6 24/29/6
f 17/36/6 16/37/6 22/31/6 23/30/6
f 16/37/6 15/4/6 21/6/6 22/31/6
f 1/38/1 9/39/1 20/33/1 3/32/1
f 9/39/1 10/40/1 19/34/1 20/33/1
f 10/40/1 11/41/1 18/35/1 19/34/1
f 11/41/1 12/42/1 17/36/1 18/35/1
f 12/42/1 13/43/1 16/37/1 17/36/1
f 13/43/1 14/1/1 15/4/1 16/37/1
f 14/26/5 27/8/5 6/7/5 2/14/5
f 36/27/2 35/10/2 39/10/2 40/27/2
f 26/27/2 7/10/2 35/10/2 36/27/2
f 7/10/3 3/9/3 34/9/3 35/10/3
f 20/33/4 26/27/4 36/27/4 33/33/4
f 38/32/6 37/33/6 40/27/6 39/10/6
f 34/32/1 33/33/1 37/33/1 38/32/1
f 36/27/2 40/27/2 44/27/2 42/27/2
f 35/10/3 34/9/3 38/9/3 39/10/3
f 42/27/2 44/27/2 48/27/2 46/27/2
f 40/27/6 37/33/6 43/33/6 44/27/6
f 33/33/5 36/27/5 42/27/5 41/33/5
f 37/33/1 33/33/1 41/33/1 43/33/1
f 45/33/4 46/27/4 48/27/4 47/33/4
f 46/27/7 45/33/7 17/33/7 23/27/7
f 43/33/1 41/33/1 45/33/1 47/33/1
f 44/27/6 43/33/6 47/33/6 48/27/6
f 42/27/2 46/27/2 23/27/2 24/27/2
f 41/33/8 42/27/8 24/27/8 18/33/8
f 45/33/1 41/33/1 18/33/1 17/33/1
f 51/4/6 49/3/6 50/5/6 52/6/6
f 21/6/3 15/4/3 51/4/3 52/6/3
f 15/4/1 4/3/1 49/3/1 51/4/1
f 4/13/4 8/5/4 50/5/4 49/13/4
