# Blender 4.2.3 LTS
# www.blender.org
mtllib Validate.mtl
o Validate
v -0.014000 -0.139212 0.054623
v -0.014000 0.160212 -0.118250
v -0.014000 -0.160212 0.018249
v -0.014000 0.139211 -0.154623
v 0.014000 -0.139212 0.054623
v 0.014000 0.160212 -0.118250
v 0.014000 -0.160212 0.018249
v 0.014000 0.139211 -0.154623
v -0.014000 -0.096437 0.029927
v -0.014000 -0.053662 0.005230
v -0.014000 -0.010887 -0.019466
v -0.014000 0.031887 -0.044162
v -0.014000 0.074662 -0.068858
v -0.014000 0.117437 -0.093554
v -0.014000 0.096437 -0.129927
v -0.014000 0.053662 -0.105231
v -0.014000 0.010887 -0.080535
v -0.014000 -0.031887 -0.055839
v -0.014000 -0.074662 -0.031143
v -0.014000 -0.117437 -0.006447
v 0.014000 0.096437 -0.129927
v 0.014000 0.053662 -0.105231
v 0.014000 0.010887 -0.080535
v 0.014000 -0.031887 -0.055839
v 0.014000 -0.074662 -0.031143
v 0.014000 -0.117437 -0.006447
v 0.014000 0.117437 -0.093554
v 0.014000 0.074662 -0.068858
v 0.014000 0.031887 -0.044162
v 0.014000 -0.010887 -0.019466
v 0.014000 -0.053662 0.005230
v 0.014000 -0.096437 0.029927
v 0.014000 -0.051437 0.107869
v 0.014000 -0.094212 0.132565
v -0.014000 -0.094212 0.132565
v -0.014000 -0.051437 0.107869
vn -1.0000 -0.0000 -0.0000
vn -0.0000 -0.5000 -0.8660
vn 1.0000 -0.0000 -0.0000
vn -0.0000 -0.8660 0.5000
vn -0.0000 0.8660 -0.5000
vn -0.0000 0.5000 0.8660
vt 0.589286 0.000000
vt 0.625000 0.000000
vt 0.625000 0.250000
vt 0.589286 0.250000
vt 0.625000 0.500000
vt 0.589286 0.500000
vt 0.625000 0.750000
vt 0.589286 0.750000
vt 0.125000 0.500000
vt 0.375000 0.500000
vt 0.375000 0.750000
vt 0.125000 0.750000
vt 0.875000 0.500000
vt 0.875000 0.750000
vt 0.410714 0.750000
vt 0.446429 0.750000
vt 0.446429 1.000000
vt 0.410714 1.000000
vt 0.482143 0.750000
vt 0.482143 1.000000
vt 0.517857 0.750000
vt 0.517857 1.000000
vt 0.553571 0.750000
vt 0.553571 1.000000
vt 0.589286 1.000000
vt 0.410714 0.500000
vt 0.446429 0.500000
vt 0.482143 0.500000
vt 0.517857 0.500000
vt 0.553571 0.500000
vt 0.375000 0.250000
vt 0.410714 0.250000
vt 0.446429 0.250000
vt 0.482143 0.250000
vt 0.517857 0.250000
vt 0.553571 0.250000
vt 0.375000 0.000000
vt 0.410714 0.000000
vt 0.446429 0.000000
vt 0.482143 0.000000
vt 0.517857 0.000000
vt 0.553571 0.000000
vt 0.375000 1.000000
s 0
f 14/1/1 2/2/1 4/3/1 15/4/1
f 15/4/2 4/3/2 8/5/2 21/6/2
f 21/6/3 8/5/3 6/7/3 27/8/3
f 3/9/4 7/10/4 5/11/4 1/12/4
f 8/5/5 4/13/5 2/14/5 6/7/5
f 5/11/3 32/15/3 33/15/3 34/11/3
f 32/15/6 31/16/6 10/17/6 9/18/6
f 31/16/6 30/19/6 11/20/6 10/17/6
f 30/19/6 29/21/6 12/22/6 11/20/6
f 29/21/6 28/23/6 13/24/6 12/22/6
f 28/23/6 27/8/6 14/25/6 13/24/6
f 7/10/3 26/26/3 32/15/3 5/11/3
f 26/26/3 25/27/3 31/16/3 32/15/3
f 25/27/3 24/28/3 30/19/3 31/16/3
f 24/28/3 23/29/3 29/21/3 30/19/3
f 23/29/3 22/30/3 28/23/3 29/21/3
f 22/30/3 21/6/3 27/8/3 28/23/3
f 3/31/2 20/32/2 26/26/2 7/10/2
f 20/32/2 19/33/2 25/27/2 26/26/2
f 19/33/2 18/34/2 24/28/2 25/27/2
f 18/34/2 17/35/2 23/29/2 24/28/2
f 17/35/2 16/36/2 22/30/2 23/29/2
f 16/36/2 15/4/2 21/6/2 22/30/2
f 1/37/1 9/38/1 20/32/1 3/31/1
f 9/38/1 10/39/1 19/33/1 20/32/1
f 10/39/1 11/40/1 18/34/1 19/33/1
f 11/40/1 12/41/1 17/35/1 18/34/1
f 12/41/1 13/42/1 16/36/1 17/35/1
f 13/42/1 14/1/1 15/4/1 16/36/1
f 14/25/6 27/8/6 6/7/6 2/14/6
f 34/11/6 33/15/6 36/18/6 35/43/6
f 32/15/5 9/18/5 36/18/5 33/15/5
f 9/38/1 1/37/1 35/37/1 36/38/1
f 1/12/4 5/11/4 34/11/4 35/12/4
