# Blender 4.2.3 LTS
# www.blender.org
mtllib Wrong.mtl
o Wrong.001
v -0.021000 -0.140078 -0.107409
v -0.021000 0.107409 0.140078
v -0.021000 -0.107410 -0.140078
v -0.021000 0.140078 0.107410
v 0.021000 -0.140078 -0.107409
v 0.021000 0.107409 0.140078
v 0.021000 -0.107410 -0.140078
v 0.021000 0.140078 0.107410
v -0.021000 -0.104723 -0.072054
v -0.021000 -0.069367 -0.036699
v -0.021000 -0.034012 -0.001343
v -0.021000 0.001343 0.034012
v -0.021000 0.036699 0.069367
v -0.021000 0.072054 0.104723
v -0.021000 0.104722 0.072054
v -0.021000 0.069367 0.036699
v -0.021000 0.034012 0.001344
v -0.021000 -0.001344 -0.034012
v -0.021000 -0.036699 -0.069367
v -0.021000 -0.072054 -0.104722
v 0.021000 0.104722 0.072054
v 0.021000 0.069367 0.036699
v 0.021000 0.034012 0.001344
v 0.021000 -0.001344 -0.034012
v 0.021000 -0.036699 -0.069367
v 0.021000 -0.072054 -0.104722
v 0.021000 0.072054 0.104723
v 0.021000 0.036699 0.069367
v 0.021000 0.001343 0.034012
v 0.021000 -0.034012 -0.001343
v 0.021000 -0.069367 -0.036699
v 0.021000 -0.104723 -0.072054
v -0.021000 -0.145028 0.109672
v -0.021000 -0.109672 0.145028
v 0.021000 -0.109672 0.145028
v 0.021000 -0.145028 0.109672
v -0.021000 0.145735 -0.110379
v -0.021000 0.110379 -0.145735
v 0.021000 0.145735 -0.110379
v 0.021000 0.110379 -0.145735
vn -1.0000 -0.0000 -0.0000
vn -0.0000 0.7071 -0.7071
vn 1.0000 -0.0000 -0.0000
vn -0.0000 -0.7071 0.7071
vn -0.0000 -0.7071 -0.7071
vn -0.0000 0.7071 0.7071
vt 0.589286 0.000000
vt 0.625000 0.000000
vt 0.625000 0.250000
vt 0.589286 0.250000
vt 0.625000 0.500000
vt 0.589286 0.500000
vt 0.625000 0.750000
vt 0.589286 0.750000
vt 0.625000 1.000000
vt 0.589286 1.000000
vt 0.125000 0.500000
vt 0.375000 0.500000
vt 0.375000 0.750000
vt 0.125000 0.750000
vt 0.875000 0.500000
vt 0.875000 0.750000
vt 0.410714 0.750000
vt 0.410714 1.000000
vt 0.375000 1.000000
vt 0.446429 0.750000
vt 0.446429 1.000000
vt 0.482143 0.750000
vt 0.482143 1.000000
vt 0.517857 0.750000
vt 0.553571 0.750000
vt 0.553571 1.000000
vt 0.517857 1.000000
vt 0.410714 0.500000
vt 0.446429 0.500000
vt 0.482143 0.500000
vt 0.517857 0.500000
vt 0.553571 0.500000
vt 0.375000 0.250000
vt 0.410714 0.250000
vt 0.446429 0.250000
vt 0.482143 0.250000
vt 0.517857 0.250000
vt 0.553571 0.250000
vt 0.375000 0.000000
vt 0.410714 0.000000
vt 0.446429 0.000000
vt 0.482143 0.000000
vt 0.517857 0.000000
vt 0.553571 0.000000
s 0
f 14/1/1 2/2/1 4/3/1 15/4/1
f 15/4/2 4/3/2 8/5/2 21/6/2
f 21/6/3 8/5/3 6/7/3 27/8/3
f 27/8/4 6/7/4 2/9/4 14/10/4
f 3/11/5 7/12/5 5/13/5 1/14/5
f 8/5/6 4/15/6 2/16/6 6/7/6
f 5/13/4 32/17/4 9/18/4 1/19/4
f 32/17/4 31/20/4 10/21/4 9/18/4
f 31/20/4 30/22/4 11/23/4 10/21/4
f 30/22/3 29/24/3 35/24/3 36/22/3
f 29/24/4 28/25/4 13/26/4 12/27/4
f 28/25/4 27/8/4 14/10/4 13/26/4
f 7/12/3 26/28/3 32/17/3 5/13/3
f 26/28/3 25/29/3 31/20/3 32/17/3
f 25/29/3 24/30/3 30/22/3 31/20/3
f 24/30/3 23/31/3 29/24/3 30/22/3
f 23/31/3 22/32/3 28/25/3 29/24/3
f 22/32/3 21/6/3 27/8/3 28/25/3
f 3/33/2 20/34/2 26/28/2 7/12/2
f 20/34/2 19/35/2 25/29/2 26/28/2
f 19/35/2 18/36/2 24/30/2 25/29/2
f 17/37/6 23/31/6 39/31/6 37/37/6
f 17/37/2 16/38/2 22/32/2 23/31/2
f 16/38/2 15/4/2 21/6/2 22/32/2
f 1/39/1 9/40/1 20/34/1 3/33/1
f 9/40/1 10/41/1 19/35/1 20/34/1
f 10/41/1 11/42/1 18/36/1 19/35/1
f 11/42/1 12/43/1 17/37/1 18/36/1
f 12/43/1 13/44/1 16/38/1 17/37/1
f 13/44/1 14/1/1 15/4/1 16/38/1
f 36/22/4 35/24/4 34/27/4 33/23/4
f 11/23/5 30/22/5 36/22/5 33/23/5
f 29/24/6 12/27/6 34/27/6 35/24/6
f 12/43/1 11/42/1 33/42/1 34/43/1
f 38/36/2 37/37/2 39/31/2 40/30/2
f 23/31/3 24/30/3 40/30/3 39/31/3
f 18/36/1 17/37/1 37/37/1 38/36/1
f 24/30/5 18/36/5 38/36/5 40/30/5
