# Blender 4.2.3 LTS
# www.blender.org
mtllib Big_doors_garage.mtl
o Doors_garage
v -0.064800 -2.160000 2.160000
v -0.064800 2.160000 2.160000
v -0.064800 -2.160000 -2.160000
v -0.064800 2.160000 -2.160000
v 0.064800 -2.160000 2.160000
v 0.064800 2.160000 2.160000
v 0.064800 -2.160000 -2.160000
v 0.064800 2.160000 -2.160000
v -0.024800 -1.728000 2.160000
v -0.054800 -1.296000 2.160000
v -0.024800 -0.864000 2.160000
v -0.054800 -0.432000 2.160000
v -0.024800 0.000000 2.160000
v -0.054800 0.432000 2.160000
v -0.024800 0.864000 2.160000
v -0.054800 1.296000 2.160000
v -0.024800 1.728000 2.160000
v -0.024800 1.728000 -2.160000
v -0.054800 1.296000 -2.160000
v -0.024800 0.864000 -2.160000
v -0.054800 0.432000 -2.160000
v -0.024800 0.000000 -2.160000
v -0.054800 -0.432000 -2.160000
v -0.024800 -0.864000 -2.160000
v -0.054800 -1.296000 -2.160000
v -0.024800 -1.728000 -2.160000
v 0.064800 1.728000 -2.160000
v 0.064800 1.296000 -2.160000
v 0.064800 0.864000 -2.160000
v 0.064800 0.432000 -2.160000
v 0.064800 0.000000 -2.160000
v 0.064800 -0.432000 -2.160000
v 0.064800 -0.864000 -2.160000
v 0.064800 -1.296000 -2.160000
v 0.064800 -1.728000 -2.160000
v 0.064800 1.728000 2.160000
v 0.064800 1.296000 2.160000
v 0.064800 0.864000 2.160000
v 0.064800 0.432000 2.160000
v 0.064800 0.000000 2.160000
v 0.064800 -0.432000 2.160000
v 0.064800 -0.864000 2.160000
v 0.064800 -1.296000 2.160000
v 0.064800 -1.728000 2.160000
vn -0.9957 -0.0922 -0.0000
vn -0.0000 -0.0000 -1.0000
vn 1.0000 -0.0000 -0.0000
vn -0.0000 -0.0000 1.0000
vn -0.0000 -1.0000 -0.0000
vn -0.0000 1.0000 -0.0000
vn -0.9957 0.0922 -0.0000
vn -0.9976 -0.0693 -0.0000
vn -0.9976 0.0693 -0.0000
vt 0.600000 0.000000
vt 0.625000 0.000000
vt 0.625000 0.250000
vt 0.600000 0.250000
vt 0.625000 0.500000
vt 0.600000 0.500000
vt 0.625000 0.750000
vt 0.600000 0.750000
vt 0.625000 1.000000
vt 0.600000 1.000000
vt 0.125000 0.500000
vt 0.375000 0.500000
vt 0.375000 0.750000
vt 0.125000 0.750000
vt 0.875000 0.500000
vt 0.875000 0.750000
vt 0.400000 0.750000
vt 0.400000 1.000000
vt 0.375000 1.000000
vt 0.425000 0.750000
vt 0.425000 1.000000
vt 0.450000 0.750000
vt 0.450000 1.000000
vt 0.475000 0.750000
vt 0.475000 1.000000
vt 0.500000 0.750000
vt 0.500000 1.000000
vt 0.525000 0.750000
vt 0.525000 1.000000
vt 0.550000 0.750000
vt 0.550000 1.000000
vt 0.575000 0.750000
vt 0.575000 1.000000
vt 0.400000 0.500000
vt 0.425000 0.500000
vt 0.450000 0.500000
vt 0.475000 0.500000
vt 0.500000 0.500000
vt 0.525000 0.500000
vt 0.550000 0.500000
vt 0.575000 0.500000
vt 0.375000 0.250000
vt 0.400000 0.250000
vt 0.425000 0.250000
vt 0.450000 0.250000
vt 0.475000 0.250000
vt 0.500000 0.250000
vt 0.525000 0.250000
vt 0.550000 0.250000
vt 0.575000 0.250000
vt 0.375000 0.000000
vt 0.400000 0.000000
vt 0.425000 0.000000
vt 0.450000 0.000000
vt 0.475000 0.000000
vt 0.500000 0.000000
vt 0.525000 0.000000
vt 0.550000 0.000000
vt 0.575000 0.000000
s 0
f 17/1/1 2/2/1 4/3/1 18/4/1
f 18/4/2 4/3/2 8/5/2 27/6/2
f 27/6/3 8/5/3 6/7/3 36/8/3
f 36/8/4 6/7/4 2/9/4 17/10/4
f 3/11/5 7/12/5 5/13/5 1/14/5
f 8/5/6 4/15/6 2/16/6 6/7/6
f 5/13/4 44/17/4 9/18/4 1/19/4
f 44/17/4 43/20/4 10/21/4 9/18/4
f 43/20/4 42/22/4 11/23/4 10/21/4
f 42/22/4 41/24/4 12/25/4 11/23/4
f 41/24/4 40/26/4 13/27/4 12/25/4
f 40/26/4 39/28/4 14/29/4 13/27/4
f 39/28/4 38/30/4 15/31/4 14/29/4
f 38/30/4 37/32/4 16/33/4 15/31/4
f 37/32/4 36/8/4 17/10/4 16/33/4
f 7/12/3 35/34/3 44/17/3 5/13/3
f 35/34/3 34/35/3 43/20/3 44/17/3
f 34/35/3 33/36/3 42/22/3 43/20/3
f 33/36/3 32/37/3 41/24/3 42/22/3
f 32/37/3 31/38/3 40/26/3 41/24/3
f 31/38/3 30/39/3 39/28/3 40/26/3
f 30/39/3 29/40/3 38/30/3 39/28/3
f 29/40/3 28/41/3 37/32/3 38/30/3
f 28/41/3 27/6/3 36/8/3 37/32/3
f 3/42/2 26/43/2 35/34/2 7/12/2
f 26/43/2 25/44/2 34/35/2 35/34/2
f 25/44/2 24/45/2 33/36/2 34/35/2
f 24/45/2 23/46/2 32/37/2 33/36/2
f 23/46/2 22/47/2 31/38/2 32/37/2
f 22/47/2 21/48/2 30/39/2 31/38/2
f 21/48/2 20/49/2 29/40/2 30/39/2
f 20/49/2 19/50/2 28/41/2 29/40/2
f 19/50/2 18/4/2 27/6/2 28/41/2
f 1/51/7 9/52/7 26/43/7 3/42/7
f 9/52/8 10/53/8 25/44/8 26/43/8
f 10/53/9 11/54/9 24/45/9 25/44/9
f 11/54/8 12/55/8 23/46/8 24/45/8
f 12/55/9 13/56/9 22/47/9 23/46/9
f 13/56/8 14/57/8 21/48/8 22/47/8
f 14/57/9 15/58/9 20/49/9 21/48/9
f 15/58/8 16/59/8 19/50/8 20/49/8
f 16/59/9 17/1/9 18/4/9 19/50/9
