# Blender 4.2.3 LTS
# www.blender.org
mtllib Car_windows.mtl
o Cars_Windows
v 2.963285 5.396732 2.590298
v 2.961194 5.416656 -2.230298
v 2.961194 5.576656 -1.090149
v -1.872000 5.300000 2.590298
v -1.872000 5.400000 2.010224
v 2.961194 5.496656 2.010224
v -1.872000 5.400000 -1.710223
v -1.872000 5.320000 -2.230298
v 2.961194 5.496656 -1.710223
v -1.872000 5.480000 -1.090149
v 2.961194 5.576656 1.390149
v -1.872000 5.480000 -0.470074
v 2.961194 5.576656 0.770075
v -1.872000 5.480000 0.150000
v 2.961194 5.576656 0.150000
v -1.872000 5.480000 0.770075
v 2.961194 5.576656 -0.470074
v -1.872000 5.480000 1.390149
v 0.651822 5.341355 -2.230298
v 0.653182 5.321405 2.590298
v 0.399440 5.339220 -2.230298
v 0.400664 5.319264 2.590298
v -1.417712 5.323844 -2.230298
v -1.417467 5.303853 2.590298
v 1.808938 5.331202 2.590298
v 1.806956 5.351130 -2.230298
v 6.093251 4.805286 2.405521
v -5.380800 4.380000 -2.105521
v -5.380800 4.368000 -2.417361
v 6.093251 4.805286 -2.105521
v -5.380800 4.392000 -1.353680
v 6.093251 4.817286 1.653681
v -5.380800 4.392000 -0.601840
v 6.093251 4.817286 0.901840
v -5.380800 4.392000 0.150000
v 6.093251 4.817286 0.150000
v -5.380800 4.392000 0.901840
v 6.093251 4.817286 -0.601840
v -5.380800 4.392000 1.653681
v 6.102455 4.705621 2.981361
v 6.093251 4.793286 -2.417361
v 6.093251 4.817286 -1.353680
v -5.380800 4.280000 2.981361
v -5.380800 4.380000 2.405521
v 0.632177 4.461964 -2.417361
v 0.638160 4.374181 2.981361
v 0.030879 4.452567 -2.417361
v 0.036264 4.364763 2.981361
v -4.298464 4.384913 -2.417361
v -4.297388 4.296953 2.981361
v 3.392991 4.417287 2.981361
v 3.384270 4.504970 -2.417361
v -5.409222 4.375873 2.982096
v -1.900422 5.395874 2.591033
v -5.409222 4.475873 2.406255
v -1.900422 5.495873 2.010958
v -1.900422 5.575873 1.390884
v -1.900422 5.575873 0.770809
v -1.900422 5.575873 0.150735
v -1.900422 5.575873 -0.469340
v -1.900422 5.415874 -2.229563
v -1.900422 5.495873 -1.709489
v -1.900422 5.575873 -1.089414
v -5.409222 4.475873 -2.104786
v -5.409222 4.463873 -2.416626
v -5.409222 4.487874 -1.352946
v -5.409222 4.487874 -0.601106
v -5.409222 4.487874 0.150735
v -5.409222 4.487874 0.902575
v -5.409222 4.487874 1.654415
v 0.035753 4.402531 3.073954
v 0.400153 5.357032 2.682890
v -4.297898 4.334720 3.073954
v -1.417978 5.341620 2.682890
v 0.638160 4.374181 2.981361
v 0.653182 5.321405 2.590298
v 3.392991 4.417287 2.981361
v 1.808938 5.331202 2.590298
v 0.638160 4.374181 2.981361
v 0.653182 5.321405 2.590298
v 3.392991 4.417287 2.981361
v 1.808938 5.331202 2.590298
v 0.637640 4.412550 3.073706
v 0.652663 5.359774 2.682642
v 3.392472 4.455657 3.073706
v 1.808419 5.369571 2.682642
v 0.030602 4.473117 -2.515226
v 0.399162 5.359770 -2.328163
v -4.298742 4.405464 -2.515226
v -1.417990 5.344394 -2.328163
v 0.631894 4.482909 -2.515142
v 0.651539 5.362300 -2.328079
v 3.383987 4.525915 -2.515142
v 1.806673 5.372075 -2.328079
v 6.124609 4.803133 2.982080
v 2.985440 5.494245 2.591017
v 6.115406 4.890799 -2.416642
v 2.983348 5.514169 -2.229579
v 6.115406 4.914799 -1.352962
v 2.983348 5.674169 -1.089430
v 2.983348 5.674169 -0.469356
v 2.983348 5.674169 0.150719
v 2.983348 5.594169 -1.709505
v 2.983348 5.674169 0.770793
v 2.983348 5.594169 2.010942
v 2.983348 5.674169 1.390868
v 6.115406 4.902799 2.406240
v 6.115406 4.902799 -2.104802
v 6.115406 4.914799 1.654399
v 6.115406 4.914799 0.902559
v 6.115406 4.914799 0.150719
v 6.115406 4.914799 -0.601121
vn 0.0028 -0.2095 0.9778
vn 0.0051 -0.3777 -0.9259
vn 0.0028 -0.2055 0.9787
vn 0.0052 -0.3837 -0.9234
vn 0.2816 -0.9574 -0.0642
vn 0.2583 -0.9519 -0.1647
vn -0.2356 -0.9718 -0.0000
vn 0.2962 -0.9551 -0.0000
vn -0.1946 -0.9749 0.1078
vn -0.2186 -0.9736 0.0653
vn 0.2608 -0.9595 0.1061
vn -0.1925 -0.9673 -0.1651
vn 0.2816 -0.9574 0.0642
vn -0.2186 -0.9736 -0.0653
vn -0.2816 0.9574 0.0642
vn -0.2583 0.9519 0.1647
vn -0.2962 0.9551 -0.0000
vn -0.2608 0.9595 -0.1061
vn -0.2816 0.9574 -0.0642
vn -0.9588 -0.2842 -0.0000
vn -0.9587 -0.2843 0.0109
vn 0.9580 0.2843 -0.0367
vn 0.9588 0.2842 -0.0000
vn -0.9577 -0.2835 -0.0492
vn -0.9588 -0.2842 -0.0045
vn 0.9582 0.2838 0.0366
vn 0.1041 0.0232 0.9943
vn 0.9577 0.2835 0.0489
vn -0.9587 -0.2843 0.0045
vn 0.9578 0.2843 -0.0437
vn 0.0474 0.0217 -0.9986
vn -0.0051 0.3777 0.9259
vn 0.0145 -0.9258 0.3777
vn -0.0078 0.9259 -0.3777
vn -0.3511 0.8663 -0.3553
vn 0.9429 -0.3066 0.1303
vn -0.0000 1.0000 -0.0000
vn 0.0144 -0.9233 0.3837
vn -0.0052 0.3837 0.9234
vn 0.5315 0.7833 -0.3225
vn -0.0078 0.9234 -0.3837
vn -0.9999 0.0116 -0.0104
vn -0.0028 0.2055 -0.9787
vn -0.3154 0.9285 0.1959
vn 0.9263 -0.3682 -0.0799
vn 0.0153 -0.9785 -0.2055
vn -0.0083 0.9786 0.2055
vn -0.0028 0.2095 -0.9778
vn -0.0083 0.9778 0.2095
vn -0.9998 0.0208 0.0073
vn 0.4815 0.8573 0.1822
vn 0.0153 -0.9777 -0.2095
vn 0.2356 0.9718 -0.0000
vn 0.1946 0.9749 -0.1078
vn 0.2186 0.9736 -0.0653
vn 0.1925 0.9673 0.1651
vn 0.2186 0.9736 0.0653
vn 0.9751 -0.2215 -0.0000
vn 0.9738 -0.2209 -0.0538
vn -0.9744 0.2211 0.0416
vn -0.9751 0.2215 -0.0000
vn -0.1193 0.0198 0.9927
vn 0.9751 -0.2216 0.0035
vn -0.9748 0.2213 0.0285
vn -0.9745 0.2217 -0.0341
vn -0.0556 0.0200 -0.9983
vn 0.9751 -0.2216 0.0085
vn 0.9751 -0.2215 -0.0035
vn -0.9747 0.2217 -0.0286
vt 0.375000 0.880000
vt 0.375000 0.939500
vt 0.375000 0.939500
vt 0.375000 0.880000
vt 0.375000 0.383000
vt 0.375000 0.476600
vt 0.375000 0.476600
vt 0.375000 0.383000
vt 0.375000 0.773400
vt 0.375000 0.867000
vt 0.375000 0.867000
vt 0.375000 0.773400
vt 0.375000 0.310500
vt 0.375000 0.370000
vt 0.375000 0.370000
vt 0.375000 0.310500
vt 0.375000 0.531250
vt 0.375000 0.562500
vt 0.375000 0.562500
vt 0.375000 0.531250
vt 0.375000 0.500000
vt 0.375000 0.500000
vt 0.375000 0.062500
vt 0.375000 0.093750
vt 0.375000 0.062500
vt 0.375000 0.593750
vt 0.375000 0.125000
vt 0.375000 0.625000
vt 0.375000 0.000000
vt 0.375000 0.031250
vt 0.375000 0.031250
vt 0.375000 0.000000
vt 0.375000 0.156250
vt 0.375000 0.656250
vt 0.375000 0.718750
vt 0.375000 0.750000
vt 0.375000 0.750000
vt 0.375000 0.718750
vt 0.375000 0.218750
vt 0.375000 0.250000
vt 0.375000 0.687500
vt 0.375000 0.687500
vt 0.375000 0.187500
vt 0.375000 0.187500
s 0
f 45/1/1 52/2/1 26/3/1 19/4/1
f 48/5/2 50/6/2 24/7/2 22/8/2
f 49/9/3 47/10/3 21/11/3 23/12/3
f 51/13/4 46/14/4 20/15/4 25/16/4
f 44/17/5 39/18/5 18/19/5 5/20/5
f 43/21/6 44/17/6 5/20/6 4/22/6
f 42/23/7 38/24/7 17/24/7 3/25/7
f 39/18/8 37/26/8 16/26/8 18/19/8
f 38/24/7 36/27/7 15/27/7 17/24/7
f 37/26/8 35/28/8 14/28/8 16/26/8
f 41/29/9 30/30/9 9/31/9 2/32/9
f 36/27/7 34/33/7 13/33/7 15/27/7
f 35/28/8 33/34/8 12/34/8 14/28/8
f 30/30/10 42/23/10 3/25/10 9/31/10
f 28/35/11 29/36/11 8/37/11 7/38/11
f 27/39/12 40/40/12 1/40/12 6/39/12
f 31/41/13 28/35/13 7/38/13 10/42/13
f 32/43/14 27/39/14 6/39/14 11/44/14
f 33/34/8 31/41/8 10/42/8 12/34/8
f 34/33/7 32/43/7 11/44/7 13/33/7
f 55/17/15 56/20/15 57/19/15 70/18/15
f 53/21/16 54/22/16 56/20/16 55/17/16
f 70/18/17 57/19/17 58/26/17 69/26/17
f 69/26/17 58/26/17 59/28/17 68/28/17
f 68/28/17 59/28/17 60/34/17 67/34/17
f 64/35/18 62/38/18 61/37/18 65/36/18
f 66/41/19 63/42/19 62/38/19 64/35/19
f 67/34/17 60/34/17 63/42/17 66/41/17
f 37/26/20 39/18/20 70/18/20 69/26/20
f 29/36/21 28/35/21 64/35/21 65/36/21
f 10/42/22 7/38/22 62/38/22 63/42/22
f 16/26/23 14/28/23 59/28/23 58/26/23
f 44/17/24 43/21/24 53/21/24 55/17/24
f 33/34/20 35/28/20 68/28/20 67/34/20
f 12/34/23 10/42/23 63/42/23 60/34/23
f 39/18/25 44/17/25 55/17/25 70/18/25
f 5/20/26 18/19/26 57/19/26 56/20/26
f 31/41/20 33/34/20 67/34/20 66/41/20
f 14/28/23 12/34/23 60/34/23 59/28/23
f 43/21/27 4/22/27 54/22/27 53/21/27
f 4/22/28 5/20/28 56/20/28 54/22/28
f 35/28/20 37/26/20 69/26/20 68/28/20
f 28/35/29 31/41/29 66/41/29 64/35/29
f 7/38/30 8/37/30 61/37/30 62/38/30
f 18/19/23 16/26/23 58/26/23 57/19/23
f 8/37/31 29/36/31 65/36/31 61/37/31
f 71/5/32 72/8/32 74/7/32 73/6/32
f 50/6/33 48/5/33 71/5/33 73/6/33
f 22/8/34 24/7/34 74/7/34 72/8/34
f 24/7/35 50/6/35 73/6/35 74/7/35
f 48/5/36 22/8/36 72/8/36 71/5/36
f 78/16/37 76/15/37 80/15/37 82/16/37
f 51/13/37 25/16/37 78/16/37 77/13/37
f 46/14/37 51/13/37 77/13/37 75/14/37
f 25/16/37 20/15/37 76/15/37 78/16/37
f 20/15/37 46/14/37 75/14/37 76/15/37
f 79/14/38 81/13/38 85/13/38 83/14/38
f 76/15/37 75/14/37 79/14/37 80/15/37
f 75/14/37 77/13/37 81/13/37 79/14/37
f 77/13/37 78/16/37 82/16/37 81/13/37
f 85/13/39 86/16/39 84/15/39 83/14/39
f 81/13/40 82/16/40 86/16/40 85/13/40
f 82/16/41 80/15/41 84/15/41 86/16/41
f 80/15/42 79/14/42 83/14/42 84/15/42
f 89/9/43 90/12/43 88/11/43 87/10/43
f 49/9/44 23/12/44 90/12/44 89/9/44
f 21/11/45 47/10/45 87/10/45 88/11/45
f 47/10/46 49/9/46 89/9/46 87/10/46
f 23/12/47 21/11/47 88/11/47 90/12/47
f 91/1/48 92/4/48 94/3/48 93/2/48
f 19/4/49 26/3/49 94/3/49 92/4/49
f 45/1/50 19/4/50 92/4/50 91/1/50
f 26/3/51 52/2/51 93/2/51 94/3/51
f 52/2/52 45/1/52 91/1/52 93/2/52
f 99/23/53 100/25/53 101/24/53 112/24/53
f 112/24/53 101/24/53 102/27/53 111/27/53
f 97/29/54 98/32/54 103/31/54 108/30/54
f 111/27/53 102/27/53 104/33/53 110/33/53
f 108/30/55 103/31/55 100/25/55 99/23/55
f 107/39/56 105/39/56 96/40/56 95/40/56
f 109/43/57 106/44/57 105/39/57 107/39/57
f 110/33/53 104/33/53 106/44/53 109/43/53
f 36/27/58 38/24/58 112/24/58 111/27/58
f 40/40/59 27/39/59 107/39/59 95/40/59
f 6/39/60 1/40/60 96/40/60 105/39/60
f 17/24/61 15/27/61 102/27/61 101/24/61
f 38/24/58 42/23/58 99/23/58 112/24/58
f 1/40/62 40/40/62 95/40/62 96/40/62
f 42/23/63 30/30/63 108/30/63 99/23/63
f 11/44/64 6/39/64 105/39/64 106/44/64
f 2/32/65 9/31/65 103/31/65 98/32/65
f 41/29/66 2/32/66 98/32/66 97/29/66
f 32/43/58 34/33/58 110/33/58 109/43/58
f 15/27/61 13/33/61 104/33/61 102/27/61
f 34/33/58 36/27/58 111/27/58 110/33/58
f 13/33/61 11/44/61 106/44/61 104/33/61
f 30/30/67 41/29/67 97/29/67 108/30/67
f 27/39/68 32/43/68 109/43/68 107/39/68
f 9/31/69 3/25/69 100/25/69 103/31/69
f 3/25/61 17/24/61 101/24/61 100/25/61
