# Blender 4.2.3 LTS
# www.blender.org
mtllib Garage.mtl
o Cabane
v 4.000000 2.296210 -7.000000
v 4.000000 -2.296210 -7.000000
v 4.000000 2.296210 7.000000
v 4.000000 -2.296210 7.000000
v -4.000000 2.296210 -7.000000
v -4.000000 -2.296210 -7.000000
v -4.000000 2.296210 7.000000
v -4.000000 -2.296210 7.000000
v 4.000000 3.203790 0.000000
v -4.000000 3.203790 0.000000
v -4.000000 -2.296210 -0.004642
v 3.952018 2.275546 -6.907366
v 3.953812 -2.269696 -6.919171
v 3.952018 2.275546 6.907366
v 3.953812 -2.269696 6.919171
v -3.952018 2.275546 -6.907366
v -3.953812 -2.269696 -6.919171
v -3.952018 2.275546 6.907366
v -3.953812 -2.269696 6.919171
v 3.949363 3.168236 0.000000
v -3.949363 3.168236 0.000000
v -3.964223 -2.255134 -0.004642
vn -0.0000 0.9917 0.1286
vn -0.0000 -0.0000 1.0000
vn -0.0000 -1.0000 -0.0000
vn -0.0000 -0.0000 -1.0000
vn -0.0000 0.9917 -0.1286
vn 1.0000 -0.0000 -0.0000
vn -0.0000 -0.9918 -0.1282
vn -0.0000 -0.0026 -1.0000
vn 0.0009 1.0000 -0.0000
vn -0.0000 -0.0026 1.0000
vn -0.0000 -0.9918 0.1282
vn -1.0000 -0.0006 -0.0000
vn 1.0000 -0.0017 -0.0000
vn -1.0000 -0.0000 -0.0000
vt 0.625000 0.625000
vt 0.875000 0.625000
vt 0.875000 0.750000
vt 0.625000 0.750000
vt 0.375000 0.750000
vt 0.625000 1.000000
vt 0.375000 1.000000
vt 0.125000 0.500000
vt 0.375000 0.500000
vt 0.125000 0.750000
vt 0.125000 0.555359
vt 0.375000 0.250000
vt 0.625000 0.250000
vt 0.625000 0.500000
vt 0.875000 0.500000
vt 0.125000 0.692535
vt 0.260071 0.827606
s 0
usemtl Material
f 9/1/1 10/2/1 7/3/1 3/4/1
f 4/5/2 3/4/2 7/6/2 8/7/2
f 6/8/3 2/9/3 4/5/3 8/10/3 11/11/3
f 6/12/4 5/13/4 1/14/4 2/9/4
f 1/14/5 5/15/5 10/2/5 9/1/5
f 2/9/6 1/14/6 9/1/6 3/4/6 4/5/6
f 20/1/7 14/4/7 18/3/7 21/2/7
f 15/5/8 19/7/8 18/6/8 14/4/8
f 17/8/9 22/16/9 19/10/9 15/5/9 13/9/9
f 17/12/10 13/9/10 12/14/10 16/13/10
f 12/14/11 20/1/11 21/2/11 16/15/11
f 13/9/12 15/5/12 14/4/12 20/1/12 12/14/12
f 22/11/13 17/8/13 16/13/13 21/2/13 18/3/13 19/7/13
f 6/8/14 11/17/14 8/7/14 7/3/14 10/2/14 5/13/14
l 11 22
