# Blender 4.2.3 LTS
# www.blender.org
mtllib Locker_doors.mtl
o locker_doors
v -2.400000 -1.200000 0.100000
v -2.400000 1.200000 0.100000
v -2.400000 -1.200000 -0.100000
v -2.400000 1.200000 -0.100000
v 0.000000 -1.200000 0.100000
v 0.000000 1.200000 0.100000
v 0.000000 -1.200000 -0.100000
v -1.591427 0.400000 0.093429
v 0.000000 1.200000 -0.100000
v -1.700000 0.443429 0.093429
v -2.400000 -1.200000 -0.000000
v -1.591427 0.443429 0.050000
v -2.400000 1.200000 -0.000000
v -1.591427 0.800000 0.093429
v 0.000000 -1.200000 -0.000000
v -1.591427 0.756571 0.050000
v 0.000000 1.200000 -0.000000
v -1.700000 0.756571 0.093429
v -2.400000 0.000000 0.100000
v -2.400000 0.000000 -0.100000
v 0.000000 0.000000 -0.100000
v 0.000000 0.000000 0.100000
v 0.000000 0.000000 -0.000000
v -2.400000 0.000000 -0.000000
v -0.808572 0.400000 0.093429
v -0.808572 0.443429 0.050000
v -0.700000 0.443429 0.093429
v -0.808572 0.800000 0.093429
v -0.700000 0.756571 0.093429
v -0.808572 0.756571 0.050000
v -1.591427 0.800000 0.100000
v -0.808572 0.800000 0.100000
v -0.700000 0.756571 0.100000
v -0.700000 0.443429 0.100000
v -1.700000 0.756571 0.100000
v -1.700000 0.443429 0.100000
v -0.808572 0.400000 0.100000
v -1.591427 0.400000 0.100000
v -2.300000 -0.100000 0.160000
v -2.300000 0.100000 0.160000
v -2.300000 -0.100000 -0.040000
v -2.300000 0.100000 -0.040000
v -2.100000 -0.100000 0.160000
v -2.100000 0.100000 0.160000
v -2.100000 -0.100000 -0.040000
v -2.100000 0.100000 -0.040000
vn -1.0000 -0.0000 -0.0000
vn -0.0000 -0.0000 -1.0000
vn 1.0000 -0.0000 -0.0000
vn -0.0000 -0.0000 1.0000
vn -0.0000 -1.0000 -0.0000
vn -0.0000 1.0000 -0.0000
vn 0.2722 0.6804 0.6804
vn 0.2722 -0.6804 0.6804
vn -0.2722 0.6804 0.6804
vn -0.2722 -0.6804 0.6804
vn 0.3714 0.9285 -0.0000
vn 0.3714 -0.9285 -0.0000
vn 0.3714 -0.0000 0.9285
vn -0.0000 0.7071 0.7071
vn -0.0000 -0.7071 0.7071
vn -0.3714 -0.0000 0.9285
vn -0.3714 0.9285 -0.0000
vn -0.3714 -0.9285 -0.0000
vt 0.500000 0.125000
vt 0.625000 0.125000
vt 0.625000 0.250000
vt 0.500000 0.250000
vt 0.625000 0.500000
vt 0.500000 0.500000
vt 0.500000 0.625000
vt 0.625000 0.625000
vt 0.625000 0.750000
vt 0.500000 0.750000
vt 0.578809 0.822917
vt 0.546191 0.822917
vt 0.625000 1.000000
vt 0.500000 1.000000
vt 0.541667 0.834226
vt 0.541667 0.915774
vt 0.546191 0.927083
vt 0.578809 0.927083
vt 0.583333 0.915774
vt 0.583333 0.834226
vt 0.125000 0.625000
vt 0.375000 0.625000
vt 0.375000 0.750000
vt 0.125000 0.750000
vt 0.875000 0.625000
vt 0.875000 0.750000
vt 0.875000 0.500000
vt 0.125000 0.500000
vt 0.375000 0.500000
vt 0.500000 0.000000
vt 0.625000 0.000000
vt 0.375000 0.000000
vt 0.375000 0.125000
vt 0.375000 1.000000
vt 0.375000 0.250000
vt 0.597857 0.527143
vt 0.402143 0.527143
vt 0.402143 0.531250
vt 0.597857 0.531250
vt 0.847857 0.531250
vt 0.847857 0.527143
vt 0.652143 0.527143
vt 0.652143 0.531250
vt 0.402143 0.222857
vt 0.597857 0.222857
vt 0.597857 0.218750
vt 0.402143 0.218750
vt 0.402143 0.277143
vt 0.402143 0.472857
vt 0.597857 0.472857
vt 0.597857 0.277143
vt 0.152143 0.527143
vt 0.152143 0.500000
vt 0.125000 0.527143
vt 0.625000 0.222857
vt 0.597857 0.250000
vt 0.347857 0.527143
vt 0.375000 0.527143
vt 0.347857 0.500000
vt 0.625000 0.472857
vt 0.597857 0.500000
vt 0.152143 0.531250
vt 0.125000 0.531250
vt 0.625000 0.218750
vt 0.625000 0.277143
vt 0.347857 0.531250
s 0
f 24/1/1 13/2/1 4/3/1 20/4/1
f 20/4/2 4/3/2 9/5/2 21/6/2
f 23/7/3 17/8/3 6/9/3 22/10/3
f 22/10/4 6/9/4 33/11/4 34/12/4
f 33/11/4 6/9/4 2/13/4 19/14/4 22/10/4 34/12/4 37/15/4 38/16/4 36/17/4 35/18/4 31/19/4 32/20/4
f 11/21/5 15/22/5 5/23/5 1/24/5
f 17/8/6 13/25/6 2/26/6 6/9/6
f 9/5/6 4/27/6 13/25/6 17/8/6
f 3/28/5 7/29/5 15/22/5 11/21/5
f 21/6/3 9/5/3 17/8/3 23/7/3
f 19/30/1 2/31/1 13/2/1 24/1/1
f 1/32/1 19/30/1 24/1/1 11/33/1
f 7/29/3 21/6/3 23/7/3 15/22/3
f 5/23/4 22/10/4 19/14/4 1/34/4
f 15/22/3 23/7/3 22/10/3 5/23/3
f 3/35/2 20/4/2 21/6/2 7/29/2
f 11/33/1 24/1/1 20/4/1 3/35/1
f 29/36/1 27/37/1 34/38/1 33/39/1
f 31/40/5 14/41/5 28/42/5 32/43/5
f 10/44/3 18/45/3 35/46/3 36/47/3
f 12/48/4 26/49/4 30/50/4 16/51/4
f 8/52/7 12/53/7 10/54/7
f 14/55/8 18/45/8 16/56/8
f 25/57/9 27/58/9 26/59/9
f 28/60/10 30/50/10 29/61/10
f 38/62/11 8/52/11 10/54/11 36/63/11
f 35/46/12 18/45/12 14/55/12 31/64/12
f 16/51/13 18/45/13 10/44/13 12/48/13
f 25/57/14 26/59/14 12/53/14 8/52/14
f 14/65/15 16/51/15 30/50/15 28/60/15
f 29/36/16 30/50/16 26/49/16 27/37/16
f 34/38/17 27/37/17 25/57/17 37/66/17
f 32/43/18 28/42/18 29/36/18 33/39/18
f 37/66/6 25/57/6 8/52/6 38/62/6
f 39/32/1 40/31/1 42/3/1 41/35/1
f 41/35/2 42/3/2 46/5/2 45/29/2
f 45/29/3 46/5/3 44/9/3 43/23/3
f 43/23/4 44/9/4 40/13/4 39/34/4
f 41/28/5 45/29/5 43/23/5 39/24/5
f 46/5/6 42/27/6 40/26/6 44/9/6
