# Blender 4.2.3 LTS
# www.blender.org
mtllib Roof_garage.mtl
o Toit
v -3.997928 -0.992847 6.941017
v -3.997928 -0.916873 7.047155
v -3.997928 -0.075974 -0.106138
v -3.997928 0.000000 0.000000
v -3.978118 -0.992847 6.941017
v -3.978118 -0.916873 7.047155
v -3.978118 -0.075974 -0.106138
v -3.978118 0.000000 0.000000
v -3.978118 -0.992847 -6.846705
v -3.978118 -0.916873 -6.952844
v -3.978117 -0.075974 0.200449
v -3.978117 0.000000 0.094311
v -3.997929 -0.992847 -6.846705
v -3.997929 -0.916873 -6.952844
v -3.997928 -0.075974 0.200449
v -3.997928 0.000000 0.094311
v 3.978118 -0.992847 6.941016
v 3.978118 -0.916873 7.047155
v 3.978118 -0.075974 -0.106139
v 3.978118 0.000000 -0.000000
v 3.997929 -0.992847 6.941016
v 3.997929 -0.916873 7.047155
v 3.997929 -0.075974 -0.106139
v 3.997929 0.000000 -0.000000
v 3.997929 -0.992847 -6.846705
v 3.997929 -0.916873 -6.952844
v 3.997929 -0.075974 0.200449
v 3.997929 0.000000 0.094311
v 3.978118 -0.992847 -6.846705
v 3.978118 -0.916873 -6.952844
v 3.978118 -0.075974 0.200449
v 3.978118 0.000000 0.094311
v 4.002072 -1.000000 -6.887694
v 4.002072 -0.917409 -6.887695
v -3.987782 -1.000000 -6.887693
v -3.987782 -0.917409 -6.887692
v 4.002072 -1.000000 -6.951897
v 4.002072 -0.917409 -6.951897
v -3.987782 -1.000000 -6.951896
v -3.987782 -0.917409 -6.951896
v 4.002072 -1.000000 7.006448
v 4.002072 -0.917409 7.006448
v -3.987782 -1.000000 7.006448
v -3.987782 -0.917409 7.006448
v 4.002072 -1.000000 6.942245
v 4.002072 -0.917409 6.942245
v -3.987782 -1.000000 6.942246
v -3.987782 -0.917409 6.942245
v 0.000000 0.000000 0.000000
v 0.000000 0.000000 0.094311
vn -1.0000 -0.0000 -0.0000
vn -0.0000 0.8131 -0.5821
vn 1.0000 -0.0000 -0.0000
vn -0.0000 -0.8131 0.5821
vn -0.0000 -0.9916 -0.1290
vn -0.0000 0.9916 0.1290
vn -0.0000 0.8132 0.5821
vn -0.0000 -0.8132 -0.5820
vn -0.0000 -0.9916 0.1290
vn -0.0000 0.9916 -0.1290
vn -0.0000 0.8132 -0.5821
vn -0.0000 -0.8132 0.5820
vn -0.0000 -0.0000 1.0000
vn -0.0000 -0.0000 -1.0000
vn -0.0000 -1.0000 -0.0000
vn -0.0000 1.0000 -0.0000
vn -0.0000 0.9911 0.1328
vn -0.0000 0.9912 -0.1320
vn -0.9092 0.4128 -0.0537
vn -0.9384 0.3428 0.0446
vn 0.7385 0.6686 0.0870
vn 0.6611 0.7440 -0.0968
vt 0.375000 0.000000
vt 0.625000 0.000000
vt 0.625000 0.250000
vt 0.375000 0.250000
vt 0.625000 0.500000
vt 0.375000 0.500000
vt 0.625000 0.750000
vt 0.375000 0.750000
vt 0.625000 1.000000
vt 0.375000 1.000000
vt 0.125000 0.500000
vt 0.125000 0.750000
vt 0.875000 0.500000
vt 0.875000 0.750000
vt 0.000000 0.000000
s 0
f 1/1/1 2/2/1 4/3/1 3/4/1
f 3/4/2 4/3/2 8/5/2 7/6/2
f 7/6/3 8/5/3 6/7/3 5/8/3
f 5/8/4 6/7/4 2/9/4 1/10/4
f 3/11/5 7/6/5 5/8/5 1/12/5
f 8/5/6 4/13/6 2/14/6 6/7/6
f 9/1/3 10/2/3 12/3/3 11/4/3
f 11/4/7 12/3/7 16/5/7 15/6/7
f 15/6/1 16/5/1 14/7/1 13/8/1
f 13/8/8 14/7/8 10/9/8 9/10/8
f 11/11/9 15/6/9 13/8/9 9/12/9
f 16/5/10 12/13/10 10/14/10 14/7/10
f 17/1/1 18/2/1 20/3/1 19/4/1
f 19/4/11 20/3/11 24/5/11 23/6/11
f 23/6/3 24/5/3 22/7/3 21/8/3
f 21/8/12 22/7/12 18/9/12 17/10/12
f 19/11/5 23/6/5 21/8/5 17/12/5
f 24/5/6 20/13/6 18/14/6 22/7/6
f 25/1/3 26/2/3 28/3/3 27/4/3
f 27/4/7 28/3/7 32/5/7 31/6/7
f 31/6/1 32/5/1 30/7/1 29/8/1
f 29/8/8 30/7/8 26/9/8 25/10/8
f 27/11/9 31/6/9 29/8/9 25/12/9
f 32/5/10 28/13/10 26/14/10 30/7/10
f 33/1/13 34/2/13 36/3/13 35/4/13
f 35/4/1 36/3/1 40/5/1 39/6/1
f 39/6/14 40/5/14 38/7/14 37/8/14
f 37/8/3 38/7/3 34/9/3 33/10/3
f 35/11/15 39/6/15 37/8/15 33/12/15
f 40/5/16 36/13/16 34/14/16 38/7/16
f 41/1/13 42/2/13 44/3/13 43/4/13
f 43/4/1 44/3/1 48/5/1 47/6/1
f 47/6/14 48/5/14 46/7/14 45/8/14
f 45/8/3 46/7/3 42/9/3 41/10/3
f 43/11/15 47/6/15 45/8/15 41/12/15
f 48/5/16 44/13/16 42/14/16 46/7/16
f 48/5/17 46/7/17 32/15/17 50/15/17 12/15/17
f 34/2/18 36/3/18 8/15/18 49/15/18 20/15/18
f 49/15/16 8/15/16 12/15/16 50/15/16
f 12/15/19 8/15/19 10/15/19 36/15/19
f 6/15/20 12/15/20 8/15/20 48/15/20
f 18/15/21 46/15/21 20/15/21 32/15/21
f 34/15/22 30/15/22 20/15/22 32/15/22
f 20/15/16 49/15/16 50/15/16 32/15/16
