# Blender 4.2.3 LTS
# www.blender.org
mtllib Seal.mtl
o seal
v 0.000000 -1.000000 -1.000000
v 0.000000 -0.700000 -0.900000
v -0.000000 1.000000 -1.200000
v 0.195090 -1.000000 -0.980785
v 0.175581 -0.700000 -0.882707
v 0.234108 1.000000 -1.176942
v 0.382683 -1.000000 -0.923880
v 0.344415 -0.700000 -0.831492
v 0.459220 1.000000 -1.108655
v 0.555570 -1.000000 -0.831470
v 0.500013 -0.700000 -0.748323
v 0.666684 1.000000 -0.997764
v 0.707107 -1.000000 -0.707107
v 0.636396 -0.700000 -0.636396
v 0.848528 1.000000 -0.848528
v 0.831470 -1.000000 -0.555570
v 0.748323 -0.700000 -0.500013
v 0.997764 1.000000 -0.666684
v 0.923880 -1.000000 -0.382683
v 0.831492 -0.700000 -0.344415
v 1.108655 1.000000 -0.459220
v 0.980785 -1.000000 -0.195090
v 0.882707 -0.700000 -0.175581
v 1.176942 1.000000 -0.234108
v 1.000000 -1.000000 0.000000
v 0.900000 -0.700000 0.000000
v 1.200000 1.000000 0.000000
v 0.980785 -1.000000 0.195090
v 0.882707 -0.700000 0.175581
v 1.176942 1.000000 0.234108
v 0.831492 -0.700000 0.344415
v 0.923880 -1.000000 0.382683
v 1.108655 1.000000 0.459220
v 0.831470 -1.000000 0.555570
v 0.748323 -0.700000 0.500013
v 0.997764 1.000000 0.666684
v 0.707107 -1.000000 0.707107
v 0.636396 -0.700000 0.636396
v 0.848528 1.000000 0.848528
v 0.555570 -1.000000 0.831470
v 0.500013 -0.700000 0.748323
v 0.666684 1.000000 0.997764
v 0.382683 -1.000000 0.923880
v 0.344415 -0.700000 0.831492
v 0.459220 1.000000 1.108655
v 0.175581 -0.700000 0.882707
v 0.195090 -1.000000 0.980785
v 0.234108 1.000000 1.176942
v 0.000000 -1.000000 1.000000
v 0.000000 -0.700000 0.900000
v -0.000000 1.000000 1.200000
v -0.195090 -1.000000 0.980785
v -0.175581 -0.700000 0.882707
v -0.234108 1.000000 1.176942
v -0.382683 -1.000000 0.923880
v -0.344415 -0.700000 0.831492
v -0.459220 1.000000 1.108655
v -0.555570 -1.000000 0.831470
v -0.500013 -0.700000 0.748323
v -0.666684 1.000000 0.997764
v -0.707107 -1.000000 0.707107
v -0.636396 -0.700000 0.636396
v -0.848528 1.000000 0.848528
v -0.831470 -1.000000 0.555570
v -0.748323 -0.700000 0.500013
v -0.997764 1.000000 0.666684
v -0.923880 -1.000000 0.382683
v -0.831492 -0.700000 0.344415
v -1.108655 1.000000 0.459220
v -0.980785 -1.000000 0.195090
v -0.882707 -0.700000 0.175581
v -1.176942 1.000000 0.234108
v -1.000000 -1.000000 0.000000
v -0.900000 -0.700000 0.000000
v -1.200000 1.000000 0.000000
v -0.980785 -1.000000 -0.195090
v -0.882707 -0.700000 -0.175581
v -1.176942 1.000000 -0.234108
v -0.923880 -1.000000 -0.382683
v -0.831492 -0.700000 -0.344415
v -1.108655 1.000000 -0.459220
v -0.831470 -1.000000 -0.555570
v -0.748323 -0.700000 -0.500013
v -0.997764 1.000000 -0.666684
v -0.707107 -1.000000 -0.707107
v -0.636396 -0.700000 -0.636396
v -0.848528 1.000000 -0.848528
v -0.555570 -1.000000 -0.831470
v -0.500013 -0.700000 -0.748323
v -0.666684 1.000000 -0.997764
v -0.382683 -1.000000 -0.923880
v -0.344415 -0.700000 -0.831492
v -0.459220 1.000000 -1.108655
v -0.195090 -1.000000 -0.980785
v -0.175581 -0.700000 -0.882707
v -0.234108 1.000000 -1.176942
v -0.889673 1.000000 -0.594460
v -0.594460 1.000000 -0.889673
v -0.756604 1.000000 -0.756604
v -0.208747 1.000000 -1.049440
v -0.409471 1.000000 -0.988551
v 0.208747 1.000000 -1.049440
v -0.000000 1.000000 -1.070000
v -1.070000 1.000000 0.000000
v -1.049440 1.000000 -0.208747
v -1.049440 1.000000 0.208747
v -0.889673 1.000000 0.594460
v -0.594460 1.000000 0.889673
v -0.756604 1.000000 0.756604
v -0.988551 1.000000 0.409471
v -0.208747 1.000000 1.049440
v 0.208747 1.000000 1.049440
v -0.000000 1.000000 1.070000
v 0.756604 1.000000 0.756604
v 0.594460 1.000000 0.889673
v 0.889673 1.000000 0.594460
v 0.409471 1.000000 0.988551
v 0.594460 1.000000 -0.889673
v 0.889673 1.000000 -0.594460
v 0.756604 1.000000 -0.756604
v 1.070000 1.000000 0.000000
v 1.049440 1.000000 0.208747
v 1.049440 1.000000 -0.208747
v 0.988551 1.000000 -0.409471
v -0.988551 1.000000 -0.409471
v -0.409471 1.000000 0.988551
v 0.988551 1.000000 0.409471
v 0.409471 1.000000 -0.988551
vn 0.0975 -0.0990 -0.9903
vn 0.2889 -0.0990 -0.9522
vn 0.4691 -0.0990 -0.8776
vn 0.6313 -0.0990 -0.7692
vn 0.7692 -0.0990 -0.6313
vn 0.8776 -0.0990 -0.4691
vn 0.9522 -0.0990 -0.2889
vn 0.9903 -0.0990 -0.0975
vn 0.9903 -0.0990 0.0975
vn 0.9522 -0.0990 0.2889
vn 0.8776 -0.0990 0.4691
vn 0.7692 -0.0990 0.6313
vn 0.6313 -0.0990 0.7692
vn 0.4691 -0.0990 0.8776
vn 0.2889 -0.0990 0.9522
vn 0.0975 -0.0990 0.9903
vn -0.0975 -0.0990 0.9903
vn -0.2889 -0.0990 0.9522
vn -0.4691 -0.0990 0.8776
vn -0.6313 -0.0990 0.7692
vn -0.7692 -0.0990 0.6313
vn -0.8776 -0.0990 0.4691
vn -0.9522 -0.0990 0.2889
vn -0.9903 -0.0990 0.0975
vn -0.9903 -0.0990 -0.0975
vn -0.9522 -0.0990 -0.2889
vn -0.8776 -0.0990 -0.4691
vn -0.7692 -0.0990 -0.6313
vn -0.6313 -0.0990 -0.7692
vn -0.4691 -0.0990 -0.8776
vn -0.0000 1.0000 -0.0000
vn -0.2889 -0.0990 -0.9522
vn -0.0975 -0.0990 -0.9903
vn -0.0000 -1.0000 -0.0000
vn -0.0975 0.0990 0.9903
vn -0.2889 0.0990 0.9522
vn -0.4691 0.0990 0.8776
vn -0.6313 0.0990 0.7692
vn -0.7692 0.0990 0.6313
vn -0.8776 0.0990 0.4691
vn -0.9522 0.0990 0.2889
vn -0.9903 0.0990 0.0975
vn -0.9903 0.0990 -0.0975
vn -0.9522 0.0990 -0.2889
vn -0.8776 0.0990 -0.4691
vn -0.7692 0.0990 -0.6313
vn -0.6313 0.0990 -0.7692
vn -0.4691 0.0990 -0.8776
vn -0.2889 0.0990 -0.9522
vn -0.0975 0.0990 -0.9903
vn 0.0975 0.0990 -0.9903
vn 0.2889 0.0990 -0.9522
vn 0.4691 0.0990 -0.8776
vn 0.6313 0.0990 -0.7692
vn 0.7692 0.0990 -0.6313
vn 0.8776 0.0990 -0.4691
vn 0.9522 0.0990 -0.2889
vn 0.9903 0.0990 -0.0975
vn 0.9903 0.0990 0.0975
vn 0.9522 0.0990 0.2889
vn 0.8776 0.0990 0.4691
vn 0.7692 0.0990 0.6313
vn 0.6313 0.0990 0.7692
vn 0.4691 0.0990 0.8776
vn 0.2889 0.0990 0.9522
vn 0.0975 0.0990 0.9903
vt 1.000000 0.500000
vt 1.000000 1.000000
vt 0.968750 1.000000
vt 0.968750 0.500000
vt 0.937500 1.000000
vt 0.937500 0.500000
vt 0.906250 1.000000
vt 0.906250 0.500000
vt 0.875000 1.000000
vt 0.875000 0.500000
vt 0.843750 1.000000
vt 0.843750 0.500000
vt 0.812500 1.000000
vt 0.812500 0.500000
vt 0.781250 1.000000
vt 0.781250 0.500000
vt 0.750000 1.000000
vt 0.750000 0.500000
vt 0.718750 1.000000
vt 0.718750 0.500000
vt 0.687500 1.000000
vt 0.687500 0.500000
vt 0.656250 1.000000
vt 0.656250 0.500000
vt 0.625000 1.000000
vt 0.625000 0.500000
vt 0.593750 1.000000
vt 0.593750 0.500000
vt 0.562500 1.000000
vt 0.562500 0.500000
vt 0.531250 1.000000
vt 0.531250 0.500000
vt 0.500000 1.000000
vt 0.500000 0.500000
vt 0.468750 1.000000
vt 0.468750 0.500000
vt 0.437500 1.000000
vt 0.437500 0.500000
vt 0.406250 1.000000
vt 0.406250 0.500000
vt 0.375000 1.000000
vt 0.375000 0.500000
vt 0.343750 1.000000
vt 0.343750 0.500000
vt 0.312500 1.000000
vt 0.312500 0.500000
vt 0.281250 1.000000
vt 0.281250 0.500000
vt 0.250000 1.000000
vt 0.250000 0.500000
vt 0.218750 1.000000
vt 0.218750 0.500000
vt 0.187500 1.000000
vt 0.187500 0.500000
vt 0.156250 1.000000
vt 0.156250 0.500000
vt 0.125000 1.000000
vt 0.125000 0.500000
vt 0.093750 1.000000
vt 0.093750 0.500000
vt 0.062500 1.000000
vt 0.062500 0.500000
vt 0.447710 0.168106
vt 0.471731 0.158156
vt 0.485388 0.203178
vt 0.490000 0.250000
vt 0.485388 0.296822
vt 0.471731 0.341844
vt 0.449553 0.383337
vt 0.419706 0.419706
vt 0.383337 0.449553
vt 0.341844 0.471731
vt 0.331894 0.447710
vt 0.368892 0.427934
vt 0.401321 0.401321
vt 0.427935 0.368892
vt 0.447710 0.331894
vt 0.459888 0.291749
vt 0.464000 0.250000
vt 0.459888 0.208251
vt 0.296822 0.485388
vt 0.250000 0.490000
vt 0.203178 0.485388
vt 0.158156 0.471731
vt 0.116663 0.449553
vt 0.080294 0.419706
vt 0.050447 0.383337
vt 0.028269 0.341844
vt 0.014612 0.296822
vt 0.010000 0.250000
vt 0.014612 0.203178
vt 0.028269 0.158156
vt 0.050447 0.116663
vt 0.080294 0.080294
vt 0.116663 0.050447
vt 0.158156 0.028269
vt 0.203178 0.014612
vt 0.250000 0.010000
vt 0.296822 0.014612
vt 0.341844 0.028269
vt 0.383337 0.050447
vt 0.419706 0.080294
vt 0.449553 0.116663
vt 0.427934 0.131108
vt 0.401321 0.098679
vt 0.368892 0.072066
vt 0.331894 0.052290
vt 0.291749 0.040112
vt 0.250000 0.036000
vt 0.208251 0.040112
vt 0.168106 0.052290
vt 0.131108 0.072066
vt 0.098679 0.098679
vt 0.072066 0.131108
vt 0.052290 0.168106
vt 0.040112 0.208251
vt 0.036000 0.250000
vt 0.040112 0.291749
vt 0.052290 0.331894
vt 0.072066 0.368892
vt 0.098679 0.401321
vt 0.131108 0.427934
vt 0.168106 0.447710
vt 0.208251 0.459888
vt 0.250000 0.464000
vt 0.291749 0.459888
vt 0.031250 1.000000
vt 0.031250 0.500000
vt 0.000000 1.000000
vt 0.000000 0.500000
vt 0.703178 0.485388
vt 0.750000 0.490000
vt 0.796822 0.485388
vt 0.841844 0.471731
vt 0.883337 0.449553
vt 0.919706 0.419706
vt 0.949553 0.383337
vt 0.971731 0.341844
vt 0.985388 0.296822
vt 0.990000 0.250000
vt 0.985388 0.203178
vt 0.971731 0.158156
vt 0.949553 0.116663
vt 0.919706 0.080294
vt 0.883337 0.050447
vt 0.841844 0.028269
vt 0.796822 0.014612
vt 0.750000 0.010000
vt 0.703178 0.014612
vt 0.658156 0.028269
vt 0.616663 0.050447
vt 0.580294 0.080294
vt 0.550447 0.116663
vt 0.528269 0.158156
vt 0.514612 0.203178
vt 0.510000 0.250000
vt 0.514612 0.296822
vt 0.528269 0.341844
vt 0.550447 0.383337
vt 0.580294 0.419706
vt 0.616663 0.449553
vt 0.658156 0.471731
vt 0.968750 0.972222
vt 1.000000 0.972222
vt 0.937500 0.972222
vt 0.906250 0.972222
vt 0.875000 0.972222
vt 0.843750 0.972222
vt 0.812500 0.972222
vt 0.781250 0.972222
vt 0.750000 0.972222
vt 0.718750 0.972222
vt 0.687500 0.972222
vt 0.656250 0.972222
vt 0.625000 0.972222
vt 0.593750 0.972222
vt 0.562500 0.972222
vt 0.531250 0.972222
vt 0.500000 0.972222
vt 0.468750 0.972222
vt 0.437500 0.972222
vt 0.406250 0.972222
vt 0.375000 0.972222
vt 0.343750 0.972222
vt 0.312500 0.972222
vt 0.281250 0.972222
vt 0.250000 0.972222
vt 0.218750 0.972222
vt 0.187500 0.972222
vt 0.156250 0.972222
vt 0.125000 0.972222
vt 0.093750 0.972222
vt 0.062500 0.972222
vt 0.031250 0.972222
vt 0.000000 0.972222
s 0
f 1/1/1 3/2/1 6/3/1 4/4/1
f 4/4/2 6/3/2 9/5/2 7/6/2
f 7/6/3 9/5/3 12/7/3 10/8/3
f 10/8/4 12/7/4 15/9/4 13/10/4
f 13/10/5 15/9/5 18/11/5 16/12/5
f 16/12/6 18/11/6 21/13/6 19/14/6
f 19/14/7 21/13/7 24/15/7 22/16/7
f 22/16/8 24/15/8 27/17/8 25/18/8
f 25/18/9 27/17/9 30/19/9 28/20/9
f 28/20/10 30/19/10 33/21/10 32/22/10
f 32/22/11 33/21/11 36/23/11 34/24/11
f 34/24/12 36/23/12 39/25/12 37/26/12
f 37/26/13 39/25/13 42/27/13 40/28/13
f 40/28/14 42/27/14 45/29/14 43/30/14
f 43/30/15 45/29/15 48/31/15 47/32/15
f 47/32/16 48/31/16 51/33/16 49/34/16
f 49/34/17 51/33/17 54/35/17 52/36/17
f 52/36/18 54/35/18 57/37/18 55/38/18
f 55/38/19 57/37/19 60/39/19 58/40/19
f 58/40/20 60/39/20 63/41/20 61/42/20
f 61/42/21 63/41/21 66/43/21 64/44/21
f 64/44/22 66/43/22 69/45/22 67/46/22
f 67/46/23 69/45/23 72/47/23 70/48/23
f 70/48/24 72/47/24 75/49/24 73/50/24
f 73/50/25 75/49/25 78/51/25 76/52/25
f 76/52/26 78/51/26 81/53/26 79/54/26
f 79/54/27 81/53/27 84/55/27 82/56/27
f 82/56/28 84/55/28 87/57/28 85/58/28
f 85/58/29 87/57/29 90/59/29 88/60/29
f 88/60/30 90/59/30 93/61/30 91/62/30
f 127/63/31 33/64/31 30/65/31 27/66/31 24/67/31 21/68/31 18/69/31 15/70/31 12/71/31 9/72/31 128/73/31 118/74/31 120/75/31 119/76/31 124/77/31 123/78/31 121/79/31 122/80/31
f 128/73/31 9/72/31 6/81/31 3/82/31 96/83/31 93/84/31 90/85/31 87/86/31 84/87/31 81/88/31 78/89/31 75/90/31 72/91/31 69/92/31 66/93/31 63/94/31 60/95/31 57/96/31 54/97/31 51/98/31 48/99/31 45/100/31 42/101/31 39/102/31 36/103/31 33/64/31 127/63/31 116/104/31 114/105/31 115/106/31 117/107/31 112/108/31 113/109/31 111/110/31 126/111/31 108/112/31 109/113/31 107/114/31 110/115/31 106/116/31 104/117/31 105/118/31 125/119/31 97/120/31 99/121/31 98/122/31 101/123/31 100/124/31 103/125/31 102/126/31
f 91/62/32 93/61/32 96/127/32 94/128/32
f 94/128/33 96/127/33 3/129/33 1/130/33
f 94/131/34 1/132/34 4/133/34 7/134/34 10/135/34 13/136/34 16/137/34 19/138/34 22/139/34 25/140/34 28/141/34 32/142/34 34/143/34 37/144/34 40/145/34 43/146/34 47/147/34 49/148/34 52/149/34 55/150/34 58/151/34 61/152/34 64/153/34 67/154/34 70/155/34 73/156/34 76/157/34 79/158/34 82/159/34 85/160/34 88/161/34 91/162/34
f 2/1/35 5/4/35 102/163/35 103/164/35
f 102/163/36 5/4/36 8/6/36 128/165/36
f 128/165/37 8/6/37 11/8/37 118/166/37
f 118/166/38 11/8/38 14/10/38 120/167/38
f 14/10/39 17/12/39 119/168/39 120/167/39
f 17/12/40 20/14/40 124/169/40 119/168/40
f 20/14/41 23/16/41 123/170/41 124/169/41
f 23/16/42 26/18/42 121/171/42 123/170/42
f 26/18/43 29/20/43 122/172/43 121/171/43
f 29/20/44 31/22/44 127/173/44 122/172/44
f 31/22/45 35/24/45 116/174/45 127/173/45
f 35/24/46 38/26/46 114/175/46 116/174/46
f 38/26/47 41/28/47 115/176/47 114/175/47
f 41/28/48 44/30/48 117/177/48 115/176/48
f 44/30/49 46/32/49 112/178/49 117/177/49
f 46/32/50 50/34/50 113/179/50 112/178/50
f 50/34/51 53/36/51 111/180/51 113/179/51
f 53/36/52 56/38/52 126/181/52 111/180/52
f 56/38/53 59/40/53 108/182/53 126/181/53
f 59/40/54 62/42/54 109/183/54 108/182/54
f 62/42/55 65/44/55 107/184/55 109/183/55
f 65/44/56 68/46/56 110/185/56 107/184/56
f 68/46/57 71/48/57 106/186/57 110/185/57
f 71/48/58 74/50/58 104/187/58 106/186/58
f 74/50/59 77/52/59 105/188/59 104/187/59
f 105/188/60 77/52/60 80/54/60 125/189/60
f 125/189/61 80/54/61 83/56/61 97/190/61
f 97/190/62 83/56/62 86/58/62 99/191/62
f 86/58/63 89/60/63 98/192/63 99/191/63
f 89/60/64 92/62/64 101/193/64 98/192/64
f 92/62/65 95/128/65 100/194/65 101/193/65
f 95/128/66 2/130/66 103/195/66 100/194/66
f 86/160/31 83/159/31 80/158/31 77/157/31 74/156/31 71/155/31 68/154/31 65/153/31 62/152/31 59/151/31 56/150/31 53/149/31 50/148/31 46/147/31 44/146/31 41/145/31 38/144/31 35/143/31 31/142/31 29/141/31 26/140/31 23/139/31 20/138/31 17/137/31 14/136/31 11/135/31 8/134/31 5/133/31 2/132/31 95/131/31 92/162/31 89/161/31
