# Blender 4.2.3 LTS
# www.blender.org
mtllib Doormat.mtl
o doormat
v -1.700000 -0.060000 1.000000
v -1.311087 0.048968 0.771228
v -1.700000 -0.060000 -1.000000
v -1.311087 0.048968 -0.771228
v 1.700000 -0.060000 1.000000
v 1.311087 0.048968 0.771228
v 1.700000 -0.060000 -1.000000
v 1.311087 0.048968 -0.771228
v -1.700000 0.060000 1.000000
v -1.700000 0.060000 -1.000000
v 1.700000 0.060000 -1.000000
v 1.700000 0.060000 1.000000
v -1.450075 0.078968 0.852985
v -1.450075 0.078968 -0.852985
v 1.450075 0.078968 -0.852985
v 1.450075 0.078968 0.852985
vn -1.0000 -0.0000 -0.0000
vn -0.0000 -0.0000 -1.0000
vn 1.0000 -0.0000 -0.0000
vn -0.0000 -0.0000 1.0000
vn -0.0000 -1.0000 -0.0000
vn -0.0000 1.0000 -0.0000
vn -0.0757 0.9971 -0.0000
vn -0.0000 0.9918 -0.1280
vn 0.0757 0.9971 -0.0000
vn -0.0000 0.9918 0.1280
vn 0.2110 0.9775 -0.0000
vn -0.0000 0.9388 0.3445
vn -0.2110 0.9775 -0.0000
vn -0.0000 0.9388 -0.3445
vt 0.375000 0.000000
vt 0.625000 0.000000
vt 0.625000 0.250000
vt 0.375000 0.250000
vt 0.625000 0.500000
vt 0.375000 0.500000
vt 0.625000 0.750000
vt 0.375000 0.750000
vt 0.625000 1.000000
vt 0.375000 1.000000
vt 0.125000 0.500000
vt 0.125000 0.750000
vt 0.653597 0.528597
vt 0.846404 0.528597
vt 0.846403 0.721403
vt 0.653597 0.721403
vt 0.856623 0.731623
vt 0.856623 0.518377
vt 0.875000 0.500000
vt 0.875000 0.750000
vt 0.643377 0.518377
vt 0.643377 0.731623
s 0
f 1/1/1 9/2/1 10/3/1 3/4/1
f 3/4/2 10/3/2 11/5/2 7/6/2
f 7/6/3 11/5/3 12/7/3 5/8/3
f 5/8/4 12/7/4 9/9/4 1/10/4
f 3/11/5 7/6/5 5/8/5 1/12/5
f 8/13/6 4/14/6 2/15/6 6/16/6
f 13/17/7 14/18/7 10/19/7 9/20/7
f 14/18/8 15/21/8 11/5/8 10/19/8
f 15/21/9 16/22/9 12/7/9 11/5/9
f 16/22/10 13/17/10 9/20/10 12/7/10
f 2/15/11 4/14/11 14/18/11 13/17/11
f 4/14/12 8/13/12 15/21/12 14/18/12
f 8/13/13 6/16/13 16/22/13 15/21/13
f 6/16/14 2/15/14 13/17/14 16/22/14
