# Blender 4.2.3 LTS
# www.blender.org
mtllib Blue_Cable.mtl
o Cable_Blue
v 1.484569 5.541121 -0.167880
v 1.561040 0.179677 -0.158466
v 1.557894 5.541121 -0.159138
v 1.589561 0.179677 -0.094991
v 1.589561 5.541121 -0.105009
v 1.561040 5.541121 -0.041534
v 1.557894 0.179677 -0.040862
v 1.484569 0.179677 -0.032120
v 1.480242 5.541121 -0.033780
v 1.439043 0.179677 -0.077287
v 1.441000 5.541121 -0.074524
v 1.441000 0.179677 -0.125476
v 1.439043 5.541121 -0.122713
v 1.480242 0.179677 -0.166220
v 2.315199 0.179677 -0.161548
v 2.319094 5.541121 -0.159138
v 2.351981 5.541121 -0.097832
v 2.351981 0.179677 -0.102168
v 2.319094 0.179677 -0.040862
v 2.315199 5.541121 -0.038452
v 2.253242 0.179677 -0.030905
v 2.249071 5.541121 -0.032076
v 2.211056 0.179677 -0.059184
v 2.208941 5.541121 -0.062115
v 2.197106 0.179677 -0.098238
v 2.197106 5.541121 -0.101762
v 2.208941 0.179677 -0.137885
v 2.211056 5.541121 -0.140816
v 2.253242 5.541121 -0.169095
v 2.249071 0.179677 -0.167924
vn 0.9122 -0.0008 -0.4099
vn 0.8631 -0.0004 0.5050
vn -0.9992 -0.0003 -0.0406
vn 0.1064 -0.0002 -0.9943
vn 0.1064 0.0002 0.9943
vn 0.8631 0.0004 -0.5050
vn 0.9122 0.0008 0.4099
vn -0.7118 -0.0002 0.7024
vn -0.7118 0.0002 -0.7024
vn -0.9992 0.0003 0.0406
vn 0.1228 -0.0000 -0.9924
vn -0.0000 1.0000 -0.0000
vn -0.0000 -1.0000 -0.0000
vn 0.8661 -0.0000 -0.4999
vn 0.8661 -0.0000 0.4999
vn 0.1228 -0.0000 0.9924
vn -0.5781 -0.0000 0.8160
vn -0.9503 -0.0000 0.3113
vn -0.9503 -0.0000 -0.3113
vn -0.5781 -0.0000 -0.8160
vt 0.761082 1.000000
vt 0.738918 0.500000
vt 0.895627 0.500000
vt 0.604373 1.000000
vt 0.598940 0.500000
vt 0.198581 1.000000
vt 0.191404 0.500000
vt 0.301418 0.500000
vt 1.000000 0.500000
vt 1.000000 1.000000
vt 0.901060 1.000000
vt 0.442569 0.500000
vt 0.432310 1.000000
vt 0.308596 1.000000
vt 0.067691 0.500000
vt 0.057431 1.000000
vt 0.910736 0.500000
vt 0.901058 1.000000
vt 0.154768 0.039921
vt 0.388216 0.070146
vt 0.483741 0.266255
vt 0.384386 0.437464
vt 0.168571 0.466060
vt 0.027830 0.324432
vt 0.028731 0.164680
vt 0.668571 0.033940
vt 0.527830 0.175568
vt 0.528731 0.335320
vt 0.654768 0.460079
vt 0.888216 0.429854
vt 0.983741 0.233745
vt 0.884386 0.062536
vt 0.755069 0.500000
vt 0.744931 1.000000
vt 0.598942 0.500000
vt 0.589264 1.000000
vt 0.457669 0.500000
vt 0.448582 1.000000
vt 0.347655 0.500000
vt 0.339654 1.000000
vt 0.254098 0.500000
vt 0.245902 1.000000
vt 0.160346 0.500000
vt 0.152345 1.000000
vt 0.051418 0.500000
vt 0.042331 1.000000
vt 0.049753 0.123580
vt 0.175570 0.027830
vt 0.372915 0.054252
vt 0.480775 0.242548
vt 0.384388 0.437463
vt 0.188458 0.476079
vt 0.056128 0.386577
vt 0.013266 0.256139
vt 0.884388 0.062537
vt 0.688458 0.023921
vt 0.556128 0.113423
vt 0.513266 0.243861
vt 0.549753 0.376420
vt 0.675570 0.472170
vt 0.872915 0.445748
vt 0.980775 0.257452
s 0
f 5/1/1 4/2/1 2/3/1
f 6/4/2 7/5/2 4/2/2
f 13/6/3 12/7/3 10/8/3
f 2/3/4 14/9/4 1/10/4 3/11/4
f 8/12/5 7/5/5 6/4/5 9/13/5
f 3/11/6 5/1/6 2/3/6
f 5/1/7 6/4/7 4/2/7
f 10/8/8 8/12/8 9/13/8 11/14/8
f 14/15/9 12/7/9 13/6/9 1/16/9
f 11/14/10 13/6/10 10/8/10
f 15/17/11 30/9/11 29/10/11 16/18/11
f 9/19/12 6/20/12 5/21/12 3/22/12 1/23/12 13/24/12 11/25/12
f 8/26/13 10/27/13 12/28/13 14/29/13 2/30/13 4/31/13 7/32/13
f 18/33/14 15/17/14 16/18/14 17/34/14
f 19/35/15 18/33/15 17/34/15 20/36/15
f 21/37/16 19/35/16 20/36/16 22/38/16
f 23/39/17 21/37/17 22/38/17 24/40/17
f 25/41/18 23/39/18 24/40/18 26/42/18
f 27/43/19 25/41/19 26/42/19 28/44/19
f 30/45/20 27/43/20 28/44/20 29/46/20
f 24/47/12 22/48/12 20/49/12 17/50/12 16/51/12 29/52/12 28/53/12 26/54/12
f 19/55/13 21/56/13 23/57/13 25/58/13 27/59/13 30/60/13 15/61/13 18/62/13
