# Blender 4.2.3 LTS
# www.blender.org
mtllib Brochure.mtl
o Brochure
v -6.000000 -0.905491 0.885989
v -6.000000 0.973895 0.201949
v -6.000000 -0.973895 0.698051
v -6.000000 0.905491 0.014011
v 6.000000 -0.905491 0.885989
v 6.000000 0.973895 0.201949
v 6.000000 -0.973895 0.698051
v 6.000000 0.905491 0.014011
v -6.000000 -0.973895 -0.698051
v -6.000000 0.905491 -0.014011
v -6.000000 -0.905491 -0.885990
v -6.000000 0.973895 -0.201949
v 6.000000 -0.973895 -0.698051
v 6.000000 0.905491 -0.014011
v 6.000000 -0.905491 -0.885990
v 6.000000 0.973895 -0.201949
v -5.999999 0.937402 0.002690
v -6.000000 0.941716 0.005153
v -6.000000 0.941716 -0.005153
v -5.999999 0.937402 -0.002690
v 6.000000 0.937403 -0.002690
v 6.000001 0.941716 -0.005153
v 6.000001 0.941716 0.005153
v 6.000000 0.937403 0.002690
v 6.000000 1.071862 0.145367
v 6.000001 1.132488 0.054896
v 6.000000 1.132488 -0.054896
v 5.999999 1.071862 -0.145367
v -5.999998 1.071861 0.145367
v -5.999999 1.132488 0.054896
v -5.999999 1.132488 -0.054896
v -5.999999 1.071862 -0.145367
vn -1.0000 -0.0000 -0.0000
vn -0.0000 -0.3420 -0.9397
vn 1.0000 -0.0000 -0.0000
vn -0.0000 0.3420 0.9397
vn -0.0000 -0.9397 0.3420
vn -0.0000 0.3420 -0.9397
vn -0.0000 -0.3420 0.9397
vn -0.0000 -0.9397 -0.3420
vn -0.0000 -0.4637 0.8860
vn -0.0000 0.5001 -0.8659
vn -0.0000 -0.4959 0.8684
vn -0.0000 1.0000 -0.0000
vn -0.0000 -0.4959 -0.8684
vn -0.0000 -0.4637 -0.8860
vn -0.0000 0.8307 -0.5567
vn -0.0000 0.8307 0.5567
vn -0.0000 0.5001 0.8659
vt 0.375000 0.000000
vt 0.625000 0.000000
vt 0.625000 0.250000
vt 0.375000 0.250000
vt 0.625000 0.500000
vt 0.375000 0.500000
vt 0.625000 0.750000
vt 0.375000 0.750000
vt 0.625000 1.000000
vt 0.375000 1.000000
vt 0.125000 0.500000
vt 0.125000 0.750000
vt 0.625000 0.550000
vt 0.625000 0.700000
vt 0.625000 0.850000
vt 0.625000 0.400000
vt 0.625000 0.050000
vt 0.625000 0.200000
vt 0.625000 0.650000
vt 0.625000 0.700000
vt 0.625000 0.600000
vt 0.625000 0.650000
vt 0.625000 0.100000
vt 0.625000 0.150000
s 0
f 1/1/1 2/2/1 4/3/1 3/4/1
f 3/4/2 4/3/2 8/5/2 7/6/2
f 7/6/3 8/5/3 6/7/3 5/8/3
f 5/8/4 6/7/4 2/9/4 1/10/4
f 3/11/5 7/6/5 5/8/5 1/12/5
f 14/7/3 16/5/3 28/13/3 24/14/3
f 9/1/1 10/2/1 12/3/1 11/4/1
f 11/4/6 12/3/6 16/5/6 15/6/6
f 15/6/3 16/5/3 14/7/3 13/8/3
f 13/8/7 14/7/7 10/9/7 9/10/7
f 11/11/8 15/6/8 13/8/8 9/12/8
f 10/9/9 14/7/9 24/14/9 17/15/9
f 16/5/10 12/3/10 32/16/10 28/13/10
f 12/3/1 10/2/1 17/17/1 32/18/1
f 17/15/11 24/14/11 23/19/11 18/20/11
f 18/20/12 23/19/12 22/21/12 19/13/12
f 19/13/13 22/21/13 21/13/13 20/16/13
f 20/16/14 21/13/14 8/5/14 4/3/14
f 24/14/3 28/13/3 27/21/3 23/19/3
f 23/19/3 27/21/3 26/22/3 22/21/3
f 22/21/3 26/22/3 25/20/3 21/13/3
f 21/13/3 25/20/3 6/7/3 8/5/3
f 28/13/15 32/16/15 31/13/15 27/21/15
f 27/21/12 31/13/12 30/20/12 26/22/12
f 26/22/16 30/20/16 29/15/16 25/20/16
f 25/20/17 29/15/17 2/9/17 6/7/17
f 32/18/1 17/17/1 18/23/1 31/24/1
f 31/24/1 18/23/1 19/24/1 30/23/1
f 30/23/1 19/24/1 20/18/1 29/17/1
f 29/17/1 20/18/1 4/3/1 2/2/1
