# Blender 4.2.3 LTS
# www.blender.org
mtllib Cellar.mtl
o Cave
v -0.900000 0.719433 0.900000
v 0.900000 0.719433 0.900000
v -0.900000 -0.000567 0.900000
v -0.900000 -0.000567 -0.900000
v 0.900000 -0.000567 -0.900000
v 0.900000 -0.000567 0.900000
v -0.900000 0.719433 0.609509
v 0.900000 0.719433 0.609509
vn 1.0000 -0.0000 -0.0000
vn -1.0000 -0.0000 -0.0000
vn -0.0000 1.0000 -0.0000
vn -0.0000 0.9026 -0.4305
vn -0.0000 -1.0000 -0.0000
vn -0.0000 -0.0000 1.0000
vt 0.625000 0.750000
vt 0.400000 0.750000
vt 0.400000 0.500000
vt 0.625000 0.709654
vt 0.400000 0.250000
vt 0.400000 0.000000
vt 0.625000 0.000000
vt 0.625000 0.040346
vt 0.875000 0.709654
vt 0.875000 0.750000
vt 0.000000 0.000000
s 0
f 2/1/1 6/2/1 5/3/1 8/4/1
f 4/5/2 3/6/2 1/7/2 7/8/2
f 8/4/3 7/9/3 1/10/3 2/1/3
f 5/11/4 4/11/4 7/9/4 8/4/4
f 4/5/5 5/3/5 6/2/5 3/6/5
f 6/2/6 2/1/6 1/7/6 3/6/6
