# Blender 4.2.3 LTS
# www.blender.org
mtllib Circuit_breaker.mtl.mtl
o Dijoncteur
v -31.800001 -38.160004 6.360000
v -31.800001 38.160004 6.360000
v -24.138031 -28.965637 0.853431
v -24.138031 28.965637 0.853431
v 31.800001 -38.160004 6.360000
v 31.800001 38.160004 6.360000
v 24.138031 -28.965637 0.853431
v 24.138031 28.965637 0.853431
v -31.800001 38.160004 -6.360000
v -31.800001 -38.160004 -6.360000
v 31.800001 -38.160004 -6.360000
v 31.800001 38.160004 -6.360000
v 17.809998 -18.479004 2.152599
v 17.809998 -0.959006 2.152599
v 17.809998 -18.479004 -6.607400
v 17.809998 -0.959006 -6.607400
v 22.189999 -18.479004 2.152599
v 22.189999 -0.959006 2.152599
v 22.189999 -18.479004 -6.607400
v 22.189999 -0.959006 -6.607400
v 17.809998 -14.099005 2.152599
v 17.809998 -9.719006 2.152599
v 17.809998 -5.339006 2.152599
v 17.809998 -5.339006 -6.607400
v 17.809998 -9.719006 -6.607400
v 17.809998 -14.099005 -6.607400
v 22.189999 -5.339006 -6.607400
v 22.189999 -9.719006 -6.607400
v 22.189999 -14.099005 -6.607400
v 22.189999 -5.339006 2.152599
v 22.189999 -9.719006 2.152599
v 22.189999 -14.099005 2.152599
v 17.809998 -5.339006 -8.971527
v 17.809998 -9.719006 -8.971527
v 17.809998 -14.099005 -8.971527
v 22.189999 -5.339006 -8.971527
v 22.189999 -9.719006 -8.971527
v 22.189999 -14.099005 -8.971527
v 8.174001 -18.479004 2.152599
v 8.174001 -0.959006 2.152599
v 8.174001 -18.479004 -6.607400
v 8.174001 -0.959006 -6.607400
v 12.554000 -18.479004 2.152599
v 12.554000 -0.959006 2.152599
v 12.554000 -18.479004 -6.607400
v 12.554000 -0.959006 -6.607400
v 8.174001 -14.099005 2.152599
v 8.174001 -9.719006 2.152599
v 8.174001 -5.339006 2.152599
v 8.174001 -5.339006 -6.607400
v 8.174001 -9.719006 -6.607400
v 8.174001 -14.099005 -6.607400
v 12.554000 -5.339006 -6.607400
v 12.554000 -9.719006 -6.607400
v 12.554000 -14.099005 -6.607400
v 12.554000 -5.339006 2.152599
v 12.554000 -9.719006 2.152599
v 12.554000 -14.099005 2.152599
v 8.174001 -5.339006 -8.971527
v 8.174001 -9.719006 -8.971527
v 8.174001 -14.099005 -8.971527
v 12.554000 -5.339006 -8.971527
v 12.554000 -9.719006 -8.971527
v 12.554000 -14.099005 -8.971527
v -1.461996 -18.479004 2.152599
v -1.461996 -0.959006 2.152599
v -1.461996 -18.479004 -6.607400
v -1.461996 -0.959006 -6.607400
v 2.918003 -18.479004 2.152599
v 2.918003 -0.959006 2.152599
v 2.918003 -18.479004 -6.607400
v 2.918003 -0.959006 -6.607400
v -1.461996 -14.099005 2.152599
v -1.461996 -9.719006 2.152599
v -1.461996 -5.339006 2.152599
v -1.461996 -5.339006 -6.607400
v -1.461996 -9.719006 -6.607400
v -1.461996 -14.099005 -6.607400
v 2.918003 -5.339006 -6.607400
v 2.918003 -9.719006 -6.607400
v 2.918003 -14.099005 -6.607400
v 2.918003 -5.339006 2.152599
v 2.918003 -9.719006 2.152599
v 2.918003 -14.099005 2.152599
v -1.461996 -5.339006 -8.971527
v -1.461996 -9.719006 -8.971527
v -1.461996 -14.099005 -8.971527
v 2.918003 -5.339006 -8.971527
v 2.918003 -9.719006 -8.971527
v 2.918003 -14.099005 -8.971527
v -11.097996 -18.479004 2.152599
v -11.097996 -0.959006 2.152599
v -11.097996 -18.479004 -6.607400
v -11.097996 -0.959006 -6.607400
v -6.717995 -18.479004 2.152599
v -6.717995 -0.959006 2.152599
v -6.717995 -18.479004 -6.607400
v -6.717995 -0.959006 -6.607400
v -11.097996 -14.099005 2.152599
v -11.097996 -9.719006 2.152599
v -11.097996 -5.339006 2.152599
v -11.097996 -5.339006 -6.607400
v -11.097996 -9.719006 -6.607400
v -11.097996 -14.099005 -6.607400
v -6.717995 -5.339006 -6.607400
v -6.717995 -9.719006 -6.607400
v -6.717995 -14.099005 -6.607400
v -6.717995 -5.339006 2.152599
v -6.717995 -9.719006 2.152599
v -6.717995 -14.099005 2.152599
v -11.097996 -5.339006 -8.971527
v -11.097996 -9.719006 -8.971527
v -11.097996 -14.099005 -8.971527
v -6.717995 -5.339006 -8.971527
v -6.717995 -9.719006 -8.971527
v -6.717995 -14.099005 -8.971527
v -20.733994 -18.479004 2.152599
v -20.733994 -0.959006 2.152599
v -20.733994 -18.479004 -6.607400
v -20.733994 -0.959006 -6.607400
v -16.353994 -18.479004 2.152599
v -16.353994 -0.959006 2.152599
v -16.353994 -18.479004 -6.607400
v -16.353994 -0.959006 -6.607400
v -20.733994 -14.099005 2.152599
v -20.733994 -9.719006 2.152599
v -20.733994 -5.339006 2.152599
v -20.733994 -5.339006 -6.607400
v -20.733994 -9.719006 -6.607400
v -20.733994 -14.099005 -6.607400
v -16.353994 -5.339006 -6.607400
v -16.353994 -9.719006 -6.607400
v -16.353994 -14.099005 -6.607400
v -16.353994 -5.339006 2.152599
v -16.353994 -9.719006 2.152599
v -16.353994 -14.099005 2.152599
v -20.733994 -5.339006 -8.971527
v -20.733994 -9.719006 -8.971527
v -20.733994 -14.099005 -8.971527
v -16.353994 -5.339006 -8.971527
v -16.353994 -9.719006 -8.971527
v -16.353994 -14.099005 -8.971527
v 17.809998 5.520998 2.152599
v 17.809998 23.040995 2.152599
v 17.809998 5.520998 -6.607400
v 17.809998 23.040995 -6.607400
v 22.189999 5.520998 2.152599
v 22.189999 23.040995 2.152599
v 22.189999 5.520998 -6.607400
v 22.189999 23.040995 -6.607400
v 17.809998 9.900997 2.152599
v 17.809998 14.280996 2.152599
v 17.809998 18.660997 2.152599
v 17.809998 18.660997 -6.607400
v 17.809998 14.280996 -6.607400
v 17.809998 9.900997 -6.607400
v 22.189999 18.660997 -6.607400
v 22.189999 14.280996 -6.607400
v 22.189999 9.900997 -6.607400
v 22.189999 18.660997 2.152599
v 22.189999 14.280996 2.152599
v 22.189999 9.900997 2.152599
v 17.809998 18.660997 -8.971529
v 17.809998 14.280996 -8.971529
v 17.809998 9.900997 -8.971529
v 22.189999 18.660997 -8.971529
v 22.189999 14.280996 -8.971529
v 22.189999 9.900997 -8.971529
v 8.174001 5.520998 2.152599
v 8.174001 23.040995 2.152599
v 8.174001 5.520998 -6.607400
v 8.174001 23.040995 -6.607400
v 12.554000 5.520998 2.152599
v 12.554000 23.040995 2.152599
v 12.554000 5.520998 -6.607400
v 12.554000 23.040995 -6.607400
v 8.174001 9.900997 2.152599
v 8.174001 14.280996 2.152599
v 8.174001 18.660997 2.152599
v 8.174001 18.660997 -6.607400
v 8.174001 14.280996 -6.607400
v 8.174001 9.900997 -6.607400
v 12.554000 18.660997 -6.607400
v 12.554000 14.280996 -6.607400
v 12.554000 9.900997 -6.607400
v 12.554000 18.660997 2.152599
v 12.554000 14.280996 2.152599
v 12.554000 9.900997 2.152599
v 8.174001 18.660997 -8.971529
v 8.174001 14.280996 -8.971529
v 8.174001 9.900997 -8.971529
v 12.554000 18.660997 -8.971529
v 12.554000 14.280996 -8.971529
v 12.554000 9.900997 -8.971529
v -1.461996 5.520998 2.152599
v -1.461996 23.040995 2.152599
v -1.461996 5.520998 -6.607400
v -1.461996 23.040995 -6.607400
v 2.918003 5.520998 2.152599
v 2.918003 23.040995 2.152599
v 2.918003 5.520998 -6.607400
v 2.918003 23.040995 -6.607400
v -1.461996 9.900997 2.152599
v -1.461996 14.280996 2.152599
v -1.461996 18.660997 2.152599
v -1.461996 18.660997 -6.607400
v -1.461996 14.280996 -6.607400
v -1.461996 9.900997 -6.607400
v 2.918003 18.660997 -6.607400
v 2.918003 14.280996 -6.607400
v 2.918003 9.900997 -6.607400
v 2.918003 18.660997 2.152599
v 2.918003 14.280996 2.152599
v 2.918003 9.900997 2.152599
v -1.461996 18.660997 -8.971529
v -1.461996 14.280996 -8.971529
v -1.461996 9.900997 -8.971529
v 2.918003 18.660997 -8.971529
v 2.918003 14.280996 -8.971529
v 2.918003 9.900997 -8.971529
v -11.097996 5.520998 2.152599
v -11.097996 23.040995 2.152599
v -11.097996 5.520998 -6.607400
v -11.097996 23.040995 -6.607400
v -6.717995 5.520998 2.152599
v -6.717995 23.040995 2.152599
v -6.717995 5.520998 -6.607400
v -6.717995 23.040995 -6.607400
v -11.097996 9.900997 2.152599
v -11.097996 14.280996 2.152599
v -11.097996 18.660997 2.152599
v -11.097996 18.660997 -6.607400
v -11.097996 14.280996 -6.607400
v -11.097996 9.900997 -6.607400
v -6.717995 18.660997 -6.607400
v -6.717995 14.280996 -6.607400
v -6.717995 9.900997 -6.607400
v -6.717995 18.660997 2.152599
v -6.717995 14.280996 2.152599
v -6.717995 9.900997 2.152599
v -11.097996 18.660997 -8.971529
v -11.097996 14.280996 -8.971529
v -11.097996 9.900997 -8.971529
v -6.717995 18.660997 -8.971529
v -6.717995 14.280996 -8.971529
v -6.717995 9.900997 -8.971529
v -20.733994 5.520998 2.152599
v -20.733994 23.040995 2.152599
v -20.733994 5.520998 -6.607400
v -20.733994 23.040995 -6.607400
v -16.353994 5.520998 2.152599
v -16.353994 23.040995 2.152599
v -16.353994 5.520998 -6.607400
v -16.353994 23.040995 -6.607400
v -20.733994 9.900997 2.152599
v -20.733994 14.280996 2.152599
v -20.733994 18.660997 2.152599
v -20.733994 18.660997 -6.607400
v -20.733994 14.280996 -6.607400
v -20.733994 9.900997 -6.607400
v -16.353994 18.660997 -6.607400
v -16.353994 14.280996 -6.607400
v -16.353994 9.900997 -6.607400
v -16.353994 18.660997 2.152599
v -16.353994 14.280996 2.152599
v -16.353994 9.900997 2.152599
v -20.733994 18.660997 -8.971529
v -20.733994 14.280996 -8.971529
v -20.733994 9.900997 -8.971529
v -16.353994 18.660997 -8.971529
v -16.353994 14.280996 -8.971529
v -16.353994 9.900997 -8.971529
vn -1.0000 -0.0000 -0.0000
vn -0.0000 -0.0000 -1.0000
vn 1.0000 -0.0000 -0.0000
vn -0.0000 -0.0000 1.0000
vn -0.0000 -1.0000 -0.0000
vn -0.0000 1.0000 -0.0000
vn 0.6855 -0.0000 -0.7281
vn -0.0000 0.6173 -0.7868
vn -0.0000 -0.6173 -0.7868
vn -0.6855 -0.0000 -0.7281
vt 0.375000 0.000000
vt 0.625000 0.000000
vt 0.625000 0.250000
vt 0.375000 0.250000
vt 0.405118 0.280118
vt 0.594882 0.280118
vt 0.594882 0.469882
vt 0.405118 0.469882
vt 0.375000 0.500000
vt 0.625000 0.500000
vt 0.625000 0.750000
vt 0.375000 0.750000
vt 0.625000 1.000000
vt 0.375000 1.000000
vt 0.125000 0.500000
vt 0.125000 0.750000
vt 0.875000 0.500000
vt 0.875000 0.750000
vt 0.562500 0.000000
vt 0.562500 0.250000
vt 0.562500 0.500000
vt 0.562500 0.750000
vt 0.562500 1.000000
vt 0.437500 0.750000
vt 0.437500 1.000000
vt 0.500000 0.750000
vt 0.500000 1.000000
vt 0.437500 0.500000
vt 0.500000 0.500000
vt 0.437500 0.250000
vt 0.500000 0.250000
vt 0.437500 0.000000
vt 0.500000 0.000000
s 0
f 1/1/1 2/2/1 9/3/1 10/4/1
f 3/5/2 4/6/2 8/7/2 7/8/2
f 11/9/3 12/10/3 6/11/3 5/12/3
f 5/12/4 6/11/4 2/13/4 1/14/4
f 10/15/5 11/9/5 5/12/5 1/16/5
f 12/10/6 9/17/6 2/18/6 6/11/6
f 4/6/7 3/5/7 10/4/7 9/3/7
f 3/5/8 7/8/8 11/9/8 10/4/8
f 8/7/9 4/6/9 9/3/9 12/10/9
f 7/8/10 8/7/10 12/10/10 11/9/10
f 23/19/1 14/2/1 16/3/1 24/20/1
f 24/20/2 16/3/2 20/10/2 27/21/2
f 27/21/3 20/10/3 18/11/3 30/22/3
f 30/22/4 18/11/4 14/13/4 23/23/4
f 15/15/5 19/9/5 17/12/5 13/16/5
f 20/10/6 16/17/6 14/18/6 18/11/6
f 17/12/4 32/24/4 21/25/4 13/14/4
f 32/24/4 31/26/4 22/27/4 21/25/4
f 31/26/4 30/22/4 23/23/4 22/27/4
f 19/9/3 29/28/3 32/24/3 17/12/3
f 29/28/3 28/29/3 31/26/3 32/24/3
f 28/29/3 27/21/3 30/22/3 31/26/3
f 15/4/2 26/30/2 29/28/2 19/9/2
f 24/20/6 27/21/6 36/21/6 33/20/6
f 25/31/1 24/20/1 33/20/1 34/31/1
f 13/1/1 21/32/1 26/30/1 15/4/1
f 21/32/1 22/33/1 25/31/1 26/30/1
f 22/33/1 23/19/1 24/20/1 25/31/1
f 35/30/2 34/31/2 37/29/2 38/28/2
f 34/31/2 33/20/2 36/21/2 37/29/2
f 29/28/5 26/30/5 35/30/5 38/28/5
f 27/21/3 28/29/3 37/29/3 36/21/3
f 26/30/1 25/31/1 34/31/1 35/30/1
f 28/29/3 29/28/3 38/28/3 37/29/3
f 49/19/1 40/2/1 42/3/1 50/20/1
f 50/20/2 42/3/2 46/10/2 53/21/2
f 53/21/3 46/10/3 44/11/3 56/22/3
f 56/22/4 44/11/4 40/13/4 49/23/4
f 41/15/5 45/9/5 43/12/5 39/16/5
f 46/10/6 42/17/6 40/18/6 44/11/6
f 43/12/4 58/24/4 47/25/4 39/14/4
f 58/24/4 57/26/4 48/27/4 47/25/4
f 57/26/4 56/22/4 49/23/4 48/27/4
f 45/9/3 55/28/3 58/24/3 43/12/3
f 55/28/3 54/29/3 57/26/3 58/24/3
f 54/29/3 53/21/3 56/22/3 57/26/3
f 41/4/2 52/30/2 55/28/2 45/9/2
f 50/20/6 53/21/6 62/21/6 59/20/6
f 51/31/1 50/20/1 59/20/1 60/31/1
f 39/1/1 47/32/1 52/30/1 41/4/1
f 47/32/1 48/33/1 51/31/1 52/30/1
f 48/33/1 49/19/1 50/20/1 51/31/1
f 61/30/2 60/31/2 63/29/2 64/28/2
f 60/31/2 59/20/2 62/21/2 63/29/2
f 55/28/5 52/30/5 61/30/5 64/28/5
f 53/21/3 54/29/3 63/29/3 62/21/3
f 52/30/1 51/31/1 60/31/1 61/30/1
f 54/29/3 55/28/3 64/28/3 63/29/3
f 75/19/1 66/2/1 68/3/1 76/20/1
f 76/20/2 68/3/2 72/10/2 79/21/2
f 79/21/3 72/10/3 70/11/3 82/22/3
f 82/22/4 70/11/4 66/13/4 75/23/4
f 67/15/5 71/9/5 69/12/5 65/16/5
f 72/10/6 68/17/6 66/18/6 70/11/6
f 69/12/4 84/24/4 73/25/4 65/14/4
f 84/24/4 83/26/4 74/27/4 73/25/4
f 83/26/4 82/22/4 75/23/4 74/27/4
f 71/9/3 81/28/3 84/24/3 69/12/3
f 81/28/3 80/29/3 83/26/3 84/24/3
f 80/29/3 79/21/3 82/22/3 83/26/3
f 67/4/2 78/30/2 81/28/2 71/9/2
f 76/20/6 79/21/6 88/21/6 85/20/6
f 77/31/1 76/20/1 85/20/1 86/31/1
f 65/1/1 73/32/1 78/30/1 67/4/1
f 73/32/1 74/33/1 77/31/1 78/30/1
f 74/33/1 75/19/1 76/20/1 77/31/1
f 87/30/2 86/31/2 89/29/2 90/28/2
f 86/31/2 85/20/2 88/21/2 89/29/2
f 81/28/5 78/30/5 87/30/5 90/28/5
f 79/21/3 80/29/3 89/29/3 88/21/3
f 78/30/1 77/31/1 86/31/1 87/30/1
f 80/29/3 81/28/3 90/28/3 89/29/3
f 101/19/1 92/2/1 94/3/1 102/20/1
f 102/20/2 94/3/2 98/10/2 105/21/2
f 105/21/3 98/10/3 96/11/3 108/22/3
f 108/22/4 96/11/4 92/13/4 101/23/4
f 93/15/5 97/9/5 95/12/5 91/16/5
f 98/10/6 94/17/6 92/18/6 96/11/6
f 95/12/4 110/24/4 99/25/4 91/14/4
f 110/24/4 109/26/4 100/27/4 99/25/4
f 109/26/4 108/22/4 101/23/4 100/27/4
f 97/9/3 107/28/3 110/24/3 95/12/3
f 107/28/3 106/29/3 109/26/3 110/24/3
f 106/29/3 105/21/3 108/22/3 109/26/3
f 93/4/2 104/30/2 107/28/2 97/9/2
f 102/20/6 105/21/6 114/21/6 111/20/6
f 103/31/1 102/20/1 111/20/1 112/31/1
f 91/1/1 99/32/1 104/30/1 93/4/1
f 99/32/1 100/33/1 103/31/1 104/30/1
f 100/33/1 101/19/1 102/20/1 103/31/1
f 113/30/2 112/31/2 115/29/2 116/28/2
f 112/31/2 111/20/2 114/21/2 115/29/2
f 107/28/5 104/30/5 113/30/5 116/28/5
f 105/21/3 106/29/3 115/29/3 114/21/3
f 104/30/1 103/31/1 112/31/1 113/30/1
f 106/29/3 107/28/3 116/28/3 115/29/3
f 127/19/1 118/2/1 120/3/1 128/20/1
f 128/20/2 120/3/2 124/10/2 131/21/2
f 131/21/3 124/10/3 122/11/3 134/22/3
f 134/22/4 122/11/4 118/13/4 127/23/4
f 119/15/5 123/9/5 121/12/5 117/16/5
f 124/10/6 120/17/6 118/18/6 122/11/6
f 121/12/4 136/24/4 125/25/4 117/14/4
f 136/24/4 135/26/4 126/27/4 125/25/4
f 135/26/4 134/22/4 127/23/4 126/27/4
f 123/9/3 133/28/3 136/24/3 121/12/3
f 133/28/3 132/29/3 135/26/3 136/24/3
f 132/29/3 131/21/3 134/22/3 135/26/3
f 119/4/2 130/30/2 133/28/2 123/9/2
f 128/20/6 131/21/6 140/21/6 137/20/6
f 129/31/1 128/20/1 137/20/1 138/31/1
f 117/1/1 125/32/1 130/30/1 119/4/1
f 125/32/1 126/33/1 129/31/1 130/30/1
f 126/33/1 127/19/1 128/20/1 129/31/1
f 139/30/2 138/31/2 141/29/2 142/28/2
f 138/31/2 137/20/2 140/21/2 141/29/2
f 133/28/5 130/30/5 139/30/5 142/28/5
f 131/21/3 132/29/3 141/29/3 140/21/3
f 130/30/1 129/31/1 138/31/1 139/30/1
f 132/29/3 133/28/3 142/28/3 141/29/3
f 153/19/1 144/2/1 146/3/1 154/20/1
f 154/20/2 146/3/2 150/10/2 157/21/2
f 157/21/3 150/10/3 148/11/3 160/22/3
f 160/22/4 148/11/4 144/13/4 153/23/4
f 145/15/5 149/9/5 147/12/5 143/16/5
f 150/10/6 146/17/6 144/18/6 148/11/6
f 147/12/4 162/24/4 151/25/4 143/14/4
f 162/24/4 161/26/4 152/27/4 151/25/4
f 161/26/4 160/22/4 153/23/4 152/27/4
f 149/9/3 159/28/3 162/24/3 147/12/3
f 159/28/3 158/29/3 161/26/3 162/24/3
f 158/29/3 157/21/3 160/22/3 161/26/3
f 145/4/2 156/30/2 159/28/2 149/9/2
f 154/20/6 157/21/6 166/21/6 163/20/6
f 155/31/1 154/20/1 163/20/1 164/31/1
f 143/1/1 151/32/1 156/30/1 145/4/1
f 151/32/1 152/33/1 155/31/1 156/30/1
f 152/33/1 153/19/1 154/20/1 155/31/1
f 165/30/2 164/31/2 167/29/2 168/28/2
f 164/31/2 163/20/2 166/21/2 167/29/2
f 159/28/5 156/30/5 165/30/5 168/28/5
f 157/21/3 158/29/3 167/29/3 166/21/3
f 156/30/1 155/31/1 164/31/1 165/30/1
f 158/29/3 159/28/3 168/28/3 167/29/3
f 179/19/1 170/2/1 172/3/1 180/20/1
f 180/20/2 172/3/2 176/10/2 183/21/2
f 183/21/3 176/10/3 174/11/3 186/22/3
f 186/22/4 174/11/4 170/13/4 179/23/4
f 171/15/5 175/9/5 173/12/5 169/16/5
f 176/10/6 172/17/6 170/18/6 174/11/6
f 173/12/4 188/24/4 177/25/4 169/14/4
f 188/24/4 187/26/4 178/27/4 177/25/4
f 187/26/4 186/22/4 179/23/4 178/27/4
f 175/9/3 185/28/3 188/24/3 173/12/3
f 185/28/3 184/29/3 187/26/3 188/24/3
f 184/29/3 183/21/3 186/22/3 187/26/3
f 171/4/2 182/30/2 185/28/2 175/9/2
f 180/20/6 183/21/6 192/21/6 189/20/6
f 181/31/1 180/20/1 189/20/1 190/31/1
f 169/1/1 177/32/1 182/30/1 171/4/1
f 177/32/1 178/33/1 181/31/1 182/30/1
f 178/33/1 179/19/1 180/20/1 181/31/1
f 191/30/2 190/31/2 193/29/2 194/28/2
f 190/31/2 189/20/2 192/21/2 193/29/2
f 185/28/5 182/30/5 191/30/5 194/28/5
f 183/21/3 184/29/3 193/29/3 192/21/3
f 182/30/1 181/31/1 190/31/1 191/30/1
f 184/29/3 185/28/3 194/28/3 193/29/3
f 205/19/1 196/2/1 198/3/1 206/20/1
f 206/20/2 198/3/2 202/10/2 209/21/2
f 209/21/3 202/10/3 200/11/3 212/22/3
f 212/22/4 200/11/4 196/13/4 205/23/4
f 197/15/5 201/9/5 199/12/5 195/16/5
f 202/10/6 198/17/6 196/18/6 200/11/6
f 199/12/4 214/24/4 203/25/4 195/14/4
f 214/24/4 213/26/4 204/27/4 203/25/4
f 213/26/4 212/22/4 205/23/4 204/27/4
f 201/9/3 211/28/3 214/24/3 199/12/3
f 211/28/3 210/29/3 213/26/3 214/24/3
f 210/29/3 209/21/3 212/22/3 213/26/3
f 197/4/2 208/30/2 211/28/2 201/9/2
f 206/20/6 209/21/6 218/21/6 215/20/6
f 207/31/1 206/20/1 215/20/1 216/31/1
f 195/1/1 203/32/1 208/30/1 197/4/1
f 203/32/1 204/33/1 207/31/1 208/30/1
f 204/33/1 205/19/1 206/20/1 207/31/1
f 217/30/2 216/31/2 219/29/2 220/28/2
f 216/31/2 215/20/2 218/21/2 219/29/2
f 211/28/5 208/30/5 217/30/5 220/28/5
f 209/21/3 210/29/3 219/29/3 218/21/3
f 208/30/1 207/31/1 216/31/1 217/30/1
f 210/29/3 211/28/3 220/28/3 219/29/3
f 231/19/1 222/2/1 224/3/1 232/20/1
f 232/20/2 224/3/2 228/10/2 235/21/2
f 235/21/3 228/10/3 226/11/3 238/22/3
f 238/22/4 226/11/4 222/13/4 231/23/4
f 223/15/5 227/9/5 225/12/5 221/16/5
f 228/10/6 224/17/6 222/18/6 226/11/6
f 225/12/4 240/24/4 229/25/4 221/14/4
f 240/24/4 239/26/4 230/27/4 229/25/4
f 239/26/4 238/22/4 231/23/4 230/27/4
f 227/9/3 237/28/3 240/24/3 225/12/3
f 237/28/3 236/29/3 239/26/3 240/24/3
f 236/29/3 235/21/3 238/22/3 239/26/3
f 223/4/2 234/30/2 237/28/2 227/9/2
f 232/20/6 235/21/6 244/21/6 241/20/6
f 233/31/1 232/20/1 241/20/1 242/31/1
f 221/1/1 229/32/1 234/30/1 223/4/1
f 229/32/1 230/33/1 233/31/1 234/30/1
f 230/33/1 231/19/1 232/20/1 233/31/1
f 243/30/2 242/31/2 245/29/2 246/28/2
f 242/31/2 241/20/2 244/21/2 245/29/2
f 237/28/5 234/30/5 243/30/5 246/28/5
f 235/21/3 236/29/3 245/29/3 244/21/3
f 234/30/1 233/31/1 242/31/1 243/30/1
f 236/29/3 237/28/3 246/28/3 245/29/3
f 257/19/1 248/2/1 250/3/1 258/20/1
f 258/20/2 250/3/2 254/10/2 261/21/2
f 261/21/3 254/10/3 252/11/3 264/22/3
f 264/22/4 252/11/4 248/13/4 257/23/4
f 249/15/5 253/9/5 251/12/5 247/16/5
f 254/10/6 250/17/6 248/18/6 252/11/6
f 251/12/4 266/24/4 255/25/4 247/14/4
f 266/24/4 265/26/4 256/27/4 255/25/4
f 265/26/4 264/22/4 257/23/4 256/27/4
f 253/9/3 263/28/3 266/24/3 251/12/3
f 263/28/3 262/29/3 265/26/3 266/24/3
f 262/29/3 261/21/3 264/22/3 265/26/3
f 249/4/2 260/30/2 263/28/2 253/9/2
f 258/20/6 261/21/6 270/21/6 267/20/6
f 259/31/1 258/20/1 267/20/1 268/31/1
f 247/1/1 255/32/1 260/30/1 249/4/1
f 255/32/1 256/33/1 259/31/1 260/30/1
f 256/33/1 257/19/1 258/20/1 259/31/1
f 269/30/2 268/31/2 271/29/2 272/28/2
f 268/31/2 267/20/2 270/21/2 271/29/2
f 263/28/5 260/30/5 269/30/5 272/28/5
f 261/21/3 262/29/3 271/29/3 270/21/3
f 260/30/1 259/31/1 268/31/1 269/30/1
f 262/29/3 263/28/3 272/28/3 271/29/3
