# Blender 4.2.3 LTS
# www.blender.org
mtllib Stairs_cellar.mtl
o Stairs
v -0.786500 -3.656000 4.430000
v -0.786500 -3.656000 3.330000
v -0.786500 -2.556000 3.330000
v 0.786500 -3.656000 4.430000
v 0.786500 -3.656000 3.330000
v 0.786500 -2.556000 3.330000
v -0.786500 -3.333650 4.041175
v -0.786500 -2.944825 3.652350
v 0.786500 -2.944825 3.652350
v 0.786500 -3.333650 4.041175
v -0.786500 -2.760848 3.652350
v -0.786500 -2.556000 3.447503
v -0.786500 -2.760848 3.549927
v -0.786500 -2.658424 3.549927
v -0.786500 -2.658424 3.447503
v 0.786500 -2.556000 3.447503
v 0.786500 -2.760848 3.652350
v 0.786500 -2.658424 3.447503
v 0.786500 -2.658424 3.549927
v 0.786500 -2.760848 3.549927
v -0.786500 -3.190753 4.041175
v -0.786500 -2.944825 3.795247
v -0.786500 -3.190753 3.918211
v -0.786500 -3.067789 3.918211
v -0.786500 -3.067789 3.795247
v 0.786500 -2.944825 3.795247
v 0.786500 -3.190753 4.041175
v 0.786500 -3.067789 3.795247
v 0.786500 -3.067789 3.918211
v 0.786500 -3.190753 3.918211
v -0.786500 -3.598000 4.430000
v -0.786500 -3.333650 4.165650
v -0.786500 -3.598000 4.297825
v -0.786500 -3.465825 4.297825
v -0.786500 -3.465825 4.165650
v 0.786500 -3.333650 4.165650
v 0.786500 -3.598000 4.430000
v 0.786500 -3.465825 4.165650
v 0.786500 -3.465825 4.297825
v 0.786500 -3.598000 4.297825
vn -0.0000 -1.0000 -0.0000
vn -0.0000 -0.0000 1.0000
vn 1.0000 -0.0000 -0.0000
vn -1.0000 -0.0000 -0.0000
vn -0.0000 1.0000 -0.0000
vn -0.0000 -0.0000 -1.0000
vt 0.125000 0.500000
vt 0.375000 0.500000
vt 0.375000 0.750000
vt 0.125000 0.750000
vt 0.513214 0.750000
vt 0.513214 1.000000
vt 0.448261 1.000000
vt 0.448261 0.750000
vt 0.625000 0.500000
vt 0.625000 0.526705
vt 0.601722 0.526705
vt 0.601722 0.549983
vt 0.578444 0.549983
vt 0.578444 0.573261
vt 0.536631 0.573261
vt 0.536631 0.605738
vt 0.508684 0.605738
vt 0.508684 0.633684
vt 0.480738 0.633684
vt 0.480738 0.661631
vt 0.448261 0.661631
vt 0.448261 0.689920
vt 0.418222 0.689920
vt 0.418222 0.719960
vt 0.388182 0.719960
vt 0.388182 0.750000
vt 0.388182 0.750000
vt 0.388182 1.000000
vt 0.375000 1.000000
vt 0.375000 0.000000
vt 0.388182 0.000000
vt 0.388182 0.030040
vt 0.418222 0.030040
vt 0.418222 0.060080
vt 0.448261 0.060080
vt 0.448261 0.088369
vt 0.480738 0.088369
vt 0.480738 0.116316
vt 0.508684 0.116316
vt 0.508684 0.144262
vt 0.536631 0.144262
vt 0.536631 0.176739
vt 0.578444 0.176739
vt 0.578444 0.200017
vt 0.601722 0.200017
vt 0.601722 0.223295
vt 0.625000 0.223295
vt 0.625000 0.250000
vt 0.375000 0.250000
vt 0.875000 0.526705
vt 0.875000 0.573261
vt 0.625000 0.573261
vt 0.625000 0.750000
vt 0.625000 1.000000
vt 0.875000 0.750000
vt 0.625000 0.638214
vt 0.875000 0.638214
s 0
f 2/1/1 5/2/1 4/3/1 1/4/1
f 27/5/2 21/6/2 7/7/2 10/8/2
f 5/2/3 6/9/3 16/10/3 18/11/3 19/12/3 20/13/3 17/14/3 9/15/3 26/16/3 28/17/3 29/18/3 30/19/3 27/20/3 10/21/3 36/22/3 38/23/3 39/24/3 40/25/3 37/26/3 4/3/3
f 4/3/2 37/27/2 31/28/2 1/29/2
f 1/30/4 31/31/4 33/32/4 34/33/4 35/34/4 32/35/4 7/36/4 21/37/4 23/38/4 24/39/4 25/40/4 22/41/4 8/42/4 11/43/4 13/44/4 14/45/4 15/46/4 12/47/4 3/48/4 2/49/4
f 16/10/2 12/50/2 15/50/2 18/10/2
f 18/10/5 15/50/5 14/51/5 19/52/5
f 19/52/2 14/51/2 13/51/2 20/52/2
f 20/52/5 13/51/5 11/51/5 17/52/5
f 17/52/2 11/51/2 8/51/2 9/52/2
f 21/6/5 27/5/5 30/5/5 23/6/5
f 23/6/2 30/5/2 29/53/2 24/54/2
f 24/55/5 29/53/5 28/56/5 25/57/5
f 25/57/2 28/56/2 26/56/2 22/57/2
f 9/52/5 8/51/5 22/57/5 26/56/5
f 31/28/5 37/27/5 40/27/5 33/28/5
f 33/28/2 40/27/2 39/8/2 34/7/2
f 34/7/5 39/8/5 38/8/5 35/7/5
f 35/7/2 38/8/2 36/8/2 32/7/2
f 10/8/5 7/7/5 32/7/5 36/8/5
f 16/10/5 6/9/5 3/48/5 12/47/5
f 2/1/6 3/48/6 6/9/6 5/2/6
