# Blender 4.2.3 LTS
# www.blender.org
mtllib Mailbox.mtl
o poteau.001
v -0.236600 0.006636 0.236600
v -0.236600 5.973364 0.236600
v -0.236600 0.006636 -0.236600
v -0.236600 5.973364 -0.236600
v 0.236600 0.006636 0.236600
v 0.236600 5.973364 0.236600
v 0.236600 0.006636 -0.236600
v 0.236600 5.973364 -0.236600
v -2.000000 5.970000 1.000000
v -2.000000 7.969999 1.000000
v -2.000000 5.970000 -1.000000
v -2.000000 7.969999 -1.000000
v 2.000000 5.970000 1.000000
v 2.000000 7.969999 1.000000
v 2.000000 5.970000 -1.000000
v 2.000000 7.969999 -1.000000
v -2.000000 7.969999 1.000000
v -2.000000 8.970000 -0.000391
v -2.000000 8.126434 0.987684
v -2.000000 8.279016 0.951037
v -2.000000 8.423990 0.890964
v -2.000000 8.557785 0.808942
v -2.000000 8.677107 0.706992
v -2.000000 8.779016 0.587624
v -2.000000 8.861006 0.453777
v -2.000000 8.921056 0.308747
v -2.000000 8.957687 0.156105
v -2.000000 8.970000 0.000391
v -2.000000 7.969999 -1.000000
v -2.000000 8.957687 -0.156105
v -2.000000 8.921056 -0.308747
v -2.000000 8.861006 -0.453777
v -2.000000 8.779016 -0.587624
v -2.000000 8.677107 -0.706992
v -2.000000 8.557785 -0.808942
v -2.000000 8.423990 -0.890964
v -2.000000 8.279016 -0.951037
v -2.000000 8.126434 -0.987684
v 2.000000 7.969999 -1.000000
v 2.000000 8.970000 0.000391
v 2.000000 8.126434 -0.987684
v 2.000000 8.279016 -0.951037
v 2.000000 8.423990 -0.890964
v 2.000000 8.557785 -0.808942
v 2.000000 8.677107 -0.706992
v 2.000000 8.779016 -0.587624
v 2.000000 8.861006 -0.453777
v 2.000000 8.921056 -0.308747
v 2.000000 8.957687 -0.156105
v 2.000000 8.970000 -0.000391
v 2.000000 7.969999 1.000000
v 2.000000 8.957687 0.156105
v 2.000000 8.921056 0.308747
v 2.000000 8.861006 0.453777
v 2.000000 8.779016 0.587624
v 2.000000 8.677107 0.706992
v 2.000000 8.557785 0.808942
v 2.000000 8.423990 0.890964
v 2.000000 8.279016 0.951037
v 2.000000 8.126434 0.987684
v 2.127192 7.969362 -1.000000
v 2.058656 5.970537 -1.000000
v 2.058656 5.970537 1.000000
v 2.127192 7.969362 1.000000
v 2.161460 8.968775 0.000391
v 2.161038 8.956470 -0.156105
v 2.159783 8.919860 -0.308747
v 2.157725 8.859845 -0.453777
v 2.154915 8.777904 -0.587624
v 2.151423 8.676054 -0.706992
v 2.147334 8.556802 -0.808942
v 2.142749 8.423086 -0.890964
v 2.137782 8.278197 -0.951037
v 2.132553 8.125705 -0.987684
v 2.127192 7.969362 -1.000000
v 2.161038 8.956470 0.156105
v 2.161460 8.968775 -0.000391
v 2.159783 8.919860 0.308747
v 2.157725 8.859845 0.453777
v 2.154915 8.777904 0.587624
v 2.151423 8.676054 0.706992
v 2.147334 8.556802 0.808942
v 2.142749 8.423086 0.890964
v 2.137782 8.278197 0.951037
v 2.132553 8.125705 0.987684
v 2.127192 7.969362 1.000000
v 2.077222 7.971076 -1.000000
v 2.008686 5.972250 -1.000000
v 2.109812 8.921574 0.308747
v 2.111068 8.958184 0.156105
v 2.104945 8.779617 -0.587624
v 2.101453 8.677767 -0.706992
v 2.077222 7.971076 1.000000
v 2.082582 8.127419 0.987684
v 2.008686 5.972250 1.000000
v 2.107754 8.861559 0.453777
v 2.097364 8.558516 -0.808942
v 2.111490 8.970489 -0.000391
v 2.111490 8.970489 0.000391
v 2.104945 8.779617 0.587624
v 2.092779 8.424799 -0.890964
v 2.077222 7.971076 1.000000
v 2.101453 8.677767 0.706992
v 2.087811 8.279911 -0.951037
v 2.077222 7.971076 -1.000000
v 2.111068 8.958184 -0.156105
v 2.097364 8.558516 0.808942
v 2.082582 8.127419 -0.987684
v 2.109812 8.921574 -0.308747
v 2.092779 8.424799 0.890964
v 2.107754 8.861559 -0.453777
v 2.087811 8.279911 0.951037
v 1.800000 7.365000 -1.029500
v 1.800000 7.365000 -0.990500
v 1.838042 7.361253 -1.029500
v 1.838042 7.361253 -0.990500
v 1.874623 7.350156 -1.029500
v 1.874623 7.350156 -0.990500
v 1.908336 7.332136 -1.029500
v 1.908336 7.332136 -0.990500
v 1.937886 7.307885 -1.029500
v 1.937886 7.307885 -0.990500
v 1.962136 7.278336 -1.029500
v 1.962136 7.278336 -0.990500
v 1.980156 7.244622 -1.029500
v 1.980156 7.244622 -0.990500
v 1.991253 7.208042 -1.029500
v 1.991253 7.208042 -0.990500
v 1.995000 7.169999 -1.029500
v 1.995000 7.169999 -0.990500
v 1.991253 7.131957 -1.029500
v 1.991253 7.131957 -0.990500
v 1.980156 7.095376 -1.029500
v 1.980156 7.095376 -0.990500
v 1.962136 7.061664 -1.029500
v 1.962136 7.061664 -0.990500
v 1.937886 7.032113 -1.029500
v 1.937886 7.032113 -0.990500
v 1.908336 7.007863 -1.029500
v 1.908336 7.007863 -0.990500
v 1.874623 6.989843 -1.029500
v 1.874623 6.989843 -0.990500
v 1.838042 6.978746 -1.029500
v 1.838042 6.978746 -0.990500
v 1.800000 6.974999 -1.029500
v 1.800000 6.974999 -0.990500
v 1.761957 6.978746 -1.029500
v 1.761957 6.978746 -0.990500
v 1.725377 6.989843 -1.029500
v 1.725377 6.989843 -0.990500
v 1.691664 7.007863 -1.029500
v 1.691664 7.007863 -0.990500
v 1.662114 7.032113 -1.029500
v 1.662114 7.032113 -0.990500
v 1.637863 7.061664 -1.029500
v 1.637863 7.061664 -0.990500
v 1.619843 7.095376 -1.029500
v 1.619843 7.095376 -0.990500
v 1.608747 7.131957 -1.029500
v 1.608747 7.131957 -0.990500
v 1.605000 7.169999 -1.029500
v 1.605000 7.169999 -0.990500
v 1.608747 7.208042 -1.029500
v 1.608747 7.208042 -0.990500
v 1.619843 7.244622 -1.029500
v 1.619843 7.244622 -0.990500
v 1.637863 7.278336 -1.029500
v 1.637863 7.278336 -0.990500
v 1.662114 7.307885 -1.029500
v 1.662114 7.307885 -0.990500
v 1.691664 7.332136 -1.029500
v 1.691664 7.332136 -0.990500
v 1.725377 7.350156 -1.029500
v 1.725377 7.350156 -0.990500
v 1.761957 7.361253 -1.029500
v 1.761957 7.361253 -0.990500
v 1.874623 9.051262 -1.029500
v 1.874623 9.051262 -0.990500
v 1.908336 9.051262 -1.029500
v 1.908336 9.051262 -0.990500
v 1.838004 9.363254 -0.990500
v 1.838004 9.363254 -1.029500
v 1.874584 9.363262 -1.029500
v 1.874584 9.363262 -0.990500
v 1.908297 9.363262 -1.029500
v 1.908297 9.363262 -0.990500
v 1.708043 9.051236 -0.990500
v 1.708043 9.051236 -1.029500
v 1.708004 9.363237 -0.990500
v 1.708004 9.363237 -1.029500
v 1.774865 9.051245 -0.990500
v 1.838042 8.988075 -0.990500
v 1.874613 9.051262 -0.990500
v 1.838035 9.114430 -0.990500
v 1.784748 9.050468 -0.990500
v 1.794388 9.048156 -0.990500
v 1.803547 9.044362 -0.990500
v 1.812000 9.039185 -0.990500
v 1.819538 9.032746 -0.990500
v 1.825977 9.025208 -0.990500
v 1.831156 9.016757 -0.990500
v 1.834950 9.007598 -0.990500
v 1.837265 8.997958 -0.990500
v 1.838042 8.988075 -1.029500
v 1.774865 9.051245 -1.029500
v 1.838035 9.114430 -1.029500
v 1.874613 9.051262 -1.029500
v 1.837265 8.997958 -1.029500
v 1.834950 9.007598 -1.029500
v 1.831156 9.016757 -1.029500
v 1.825977 9.025208 -1.029500
v 1.819538 9.032746 -1.029500
v 1.812000 9.039185 -1.029500
v 1.803547 9.044362 -1.029500
v 1.794388 9.048156 -1.029500
v 1.784748 9.050468 -1.029500
vn -1.0000 -0.0000 -0.0000
vn -0.0000 -0.0000 -1.0000
vn 1.0000 -0.0000 -0.0000
vn -0.0000 -0.0000 1.0000
vn -0.0000 -1.0000 -0.0000
vn -0.0000 1.0000 -0.0000
vn -0.0000 0.9969 -0.0784
vn -0.0000 0.9724 -0.2334
vn -0.0000 0.9239 -0.3826
vn -0.0000 0.8527 -0.5223
vn -0.0000 0.7605 -0.6493
vn -0.0000 0.6496 -0.7603
vn -0.0000 0.5226 -0.8525
vn -0.0000 0.3828 -0.9238
vn -0.0000 0.2335 -0.9723
vn -0.0000 0.0785 -0.9969
vn -0.0000 0.9969 0.0784
vn -0.0000 0.9724 0.2334
vn -0.0000 0.9239 0.3826
vn -0.0000 0.8527 0.5223
vn -0.0000 0.7605 0.6493
vn -0.0000 0.6496 0.7603
vn -0.0000 0.5226 0.8525
vn -0.0000 0.3828 0.9238
vn -0.0000 0.2335 0.9723
vn -0.0000 0.0785 0.9969
vn 0.0333 0.9718 0.2334
vn 0.9994 -0.0343 -0.0000
vn 0.0261 0.7601 -0.6493
vn 0.0027 0.0784 0.9969
vn -0.0343 -0.9994 -0.0000
vn 0.0317 0.9234 0.3826
vn 0.0223 0.6492 -0.7603
vn 0.0292 0.8522 0.5224
vn 0.0179 0.5223 -0.8526
vn 0.0261 0.7601 0.6493
vn 0.0131 0.3826 -0.9238
vn 0.0342 0.9963 -0.0784
vn 0.0223 0.6492 0.7603
vn 0.0080 0.2334 -0.9723
vn 0.0333 0.9718 -0.2334
vn 0.0179 0.5223 0.8525
vn 0.0027 0.0784 -0.9969
vn 0.0317 0.9234 -0.3826
vn 0.0131 0.3826 0.9238
vn 0.0342 0.9963 0.0784
vn 0.0292 0.8522 -0.5224
vn 0.0080 0.2334 0.9723
vn 0.0980 0.9952 -0.0000
vn 0.6344 0.7730 -0.0000
vn 0.7730 0.6344 -0.0000
vn 0.8819 0.4714 -0.0000
vn 0.9569 0.2903 -0.0000
vn 0.9952 0.0980 -0.0000
vn 0.9952 -0.0980 -0.0000
vn 0.9569 -0.2903 -0.0000
vn 0.8819 -0.4714 -0.0000
vn 0.7730 -0.6344 -0.0000
vn 0.6344 -0.7730 -0.0000
vn 0.4714 -0.8819 -0.0000
vn 0.2903 -0.9569 -0.0000
vn 0.0980 -0.9952 -0.0000
vn -0.0980 -0.9952 -0.0000
vn -0.2903 -0.9569 -0.0000
vn -0.4714 -0.8819 -0.0000
vn -0.6344 -0.7730 -0.0000
vn -0.7730 -0.6344 -0.0000
vn -0.8819 -0.4714 -0.0000
vn -0.9569 -0.2903 -0.0000
vn -0.9952 -0.0980 -0.0000
vn -0.9952 0.0980 -0.0000
vn -0.9569 0.2903 -0.0000
vn -0.8819 0.4714 -0.0000
vn -0.7730 0.6344 -0.0000
vn -0.6344 0.7730 -0.0000
vn -0.4714 0.8819 -0.0000
vn -0.2903 0.9569 -0.0000
vn -0.0980 0.9952 -0.0000
vn 1.0000 0.0001 -0.0000
vn -0.0002 1.0000 -0.0000
vn -1.0000 -0.0001 -0.0000
vn -0.0001 1.0000 -0.0000
vn -0.0783 -0.9969 -0.0000
vn -0.2333 -0.9724 -0.0000
vn -0.3827 -0.9239 -0.0000
vn -0.5223 -0.8528 -0.0000
vn -0.6494 -0.7604 -0.0000
vn -0.7604 -0.6495 -0.0000
vn -0.8526 -0.5226 -0.0000
vn -0.9239 -0.3827 -0.0000
vn -0.9724 -0.2334 -0.0000
vn -0.9969 -0.0785 -0.0000
vn 0.0001 -1.0000 -0.0000
vt 0.375000 0.000000
vt 0.625000 0.000000
vt 0.625000 0.250000
vt 0.375000 0.250000
vt 0.625000 0.500000
vt 0.375000 0.500000
vt 0.625000 0.750000
vt 0.375000 0.750000
vt 0.625000 1.000000
vt 0.375000 1.000000
vt 0.125000 0.500000
vt 0.125000 0.750000
vt 0.875000 0.500000
vt 0.875000 0.750000
vt 0.625000 0.625049
vt 0.875000 0.625049
vt 0.875000 0.624951
vt 0.625000 0.624951
vt 0.625000 0.605487
vt 0.875000 0.605487
vt 0.625000 0.586407
vt 0.875000 0.586407
vt 0.625000 0.568278
vt 0.875000 0.568278
vt 0.625000 0.551547
vt 0.875000 0.551547
vt 0.875000 0.644513
vt 0.625000 0.644513
vt 0.875000 0.663593
vt 0.625000 0.663593
vt 0.875000 0.681722
vt 0.625000 0.681722
vt 0.875000 0.698453
vt 0.625000 0.698453
vt 0.625000 0.001540
vt 0.625000 0.006120
vt 0.625000 0.013630
vt 0.625000 0.023882
vt 0.625000 0.036626
vt 0.625000 0.051547
vt 0.625000 0.068278
vt 0.625000 0.086407
vt 0.625000 0.105487
vt 0.625000 0.125049
vt 0.625000 0.124951
vt 0.625000 0.144513
vt 0.625000 0.163593
vt 0.625000 0.181722
vt 0.625000 0.198453
vt 0.625000 0.213374
vt 0.625000 0.226118
vt 0.625000 0.236371
vt 0.625000 0.243880
vt 0.625000 0.248460
vt 0.625000 0.663593
vt 0.625000 0.501540
vt 0.625000 0.506120
vt 0.625000 0.513629
vt 0.625000 0.523882
vt 0.625000 0.536626
vt 0.625000 0.551547
vt 0.625000 0.568278
vt 0.625000 0.681722
vt 0.625000 0.713374
vt 0.625000 0.726118
vt 0.625000 0.736371
vt 0.625000 0.743880
vt 0.625000 0.748460
vt 0.625000 0.586407
vt 1.000000 0.500000
vt 1.000000 1.000000
vt 0.968750 1.000000
vt 0.968750 0.500000
vt 0.883337 0.449553
vt 0.841844 0.471731
vt 0.906250 1.000000
vt 0.906250 0.500000
vt 0.875000 1.000000
vt 0.843750 1.000000
vt 0.843750 0.500000
vt 0.812500 1.000000
vt 0.812500 0.500000
vt 0.781250 1.000000
vt 0.781250 0.500000
vt 0.750000 1.000000
vt 0.750000 0.500000
vt 0.718750 1.000000
vt 0.718750 0.500000
vt 0.687500 1.000000
vt 0.687500 0.500000
vt 0.656250 1.000000
vt 0.656250 0.500000
vt 0.593750 1.000000
vt 0.593750 0.500000
vt 0.562500 1.000000
vt 0.562500 0.500000
vt 0.531250 1.000000
vt 0.531250 0.500000
vt 0.500000 1.000000
vt 0.500000 0.500000
vt 0.468750 1.000000
vt 0.468750 0.500000
vt 0.437500 1.000000
vt 0.437500 0.500000
vt 0.406250 1.000000
vt 0.406250 0.500000
vt 0.343750 1.000000
vt 0.343750 0.500000
vt 0.312500 1.000000
vt 0.312500 0.500000
vt 0.281250 1.000000
vt 0.281250 0.500000
vt 0.250000 1.000000
vt 0.250000 0.500000
vt 0.218750 1.000000
vt 0.218750 0.500000
vt 0.187500 1.000000
vt 0.187500 0.500000
vt 0.156250 1.000000
vt 0.156250 0.500000
vt 0.125000 1.000000
vt 0.093750 1.000000
vt 0.093750 0.500000
vt 0.062500 1.000000
vt 0.062500 0.500000
vt 0.296822 0.485388
vt 0.250000 0.490000
vt 0.203178 0.485388
vt 0.158156 0.471731
vt 0.116663 0.449553
vt 0.080294 0.419706
vt 0.050447 0.383337
vt 0.028269 0.341844
vt 0.014612 0.296822
vt 0.010000 0.250000
vt 0.014612 0.203178
vt 0.028269 0.158156
vt 0.050447 0.116663
vt 0.080294 0.080294
vt 0.116663 0.050447
vt 0.158156 0.028269
vt 0.203178 0.014612
vt 0.250000 0.010000
vt 0.296822 0.014612
vt 0.341844 0.028269
vt 0.383337 0.050447
vt 0.419706 0.080294
vt 0.449553 0.116663
vt 0.471731 0.158156
vt 0.485388 0.203178
vt 0.490000 0.250000
vt 0.485388 0.296822
vt 0.471731 0.341844
vt 0.449553 0.383337
vt 0.419706 0.419706
vt 0.383337 0.449553
vt 0.341844 0.471731
vt 0.031250 1.000000
vt 0.031250 0.500000
vt 0.000000 1.000000
vt 0.000000 0.500000
vt 0.750000 0.490000
vt 0.796822 0.485388
vt 0.919706 0.419706
vt 0.949553 0.383337
vt 0.971731 0.341844
vt 0.985388 0.296822
vt 0.990000 0.250000
vt 0.985388 0.203178
vt 0.971731 0.158156
vt 0.949553 0.116663
vt 0.919706 0.080294
vt 0.883337 0.050447
vt 0.841844 0.028269
vt 0.796822 0.014612
vt 0.750000 0.010000
vt 0.703178 0.014612
vt 0.658156 0.028269
vt 0.616663 0.050447
vt 0.580294 0.080294
vt 0.550447 0.116663
vt 0.528269 0.158156
vt 0.514612 0.203178
vt 0.510000 0.250000
vt 0.514612 0.296822
vt 0.528269 0.341844
vt 0.550447 0.383337
vt 0.580294 0.419706
vt 0.616663 0.449553
vt 0.658156 0.471731
vt 0.703178 0.485388
vt 0.341832 0.471735
vt 0.937500 1.000000
vt 0.937500 0.500000
vt 0.341832 0.471735
vt 0.968750 0.500000
vt 0.796822 0.485388
vt 0.841832 0.471735
vt 0.841832 0.471735
vt 0.296822 0.485388
vt 0.296822 0.485388
vt 0.796822 0.485388
vt 0.796822 0.485388
vt 0.796822 0.485388
vt 0.796822 0.485388
s 0
f 1/1/1 2/2/1 4/3/1 3/4/1
f 3/4/2 4/3/2 8/5/2 7/6/2
f 7/6/3 8/5/3 6/7/3 5/8/3
f 5/8/4 6/7/4 2/9/4 1/10/4
f 3/11/5 7/6/5 5/8/5 1/12/5
f 8/5/6 4/13/6 2/14/6 6/7/6
f 9/1/1 10/2/1 12/3/1 11/4/1
f 11/4/2 12/3/2 16/5/2 15/6/2
f 13/8/4 14/7/4 10/9/4 9/10/4
f 11/11/5 15/6/5 13/8/5 9/12/5
f 10/9/6 14/7/6 51/7/6 17/9/6
f 40/15/5 28/16/5 18/17/5 50/18/5
f 16/5/6 12/3/6 29/3/6 39/5/6
f 28/16/7 40/15/7 49/19/7 30/20/7
f 30/20/8 49/19/8 48/21/8 31/22/8
f 31/22/9 48/21/9 47/23/9 32/24/9
f 32/24/10 47/23/10 46/25/10 33/26/10
f 33/26/11 46/25/11 45/5/11 34/13/11
f 34/3/12 45/5/12 44/5/12 35/3/12
f 35/3/13 44/5/13 43/5/13 36/3/13
f 36/3/14 43/5/14 42/5/14 37/3/14
f 37/3/15 42/5/15 41/5/15 38/3/15
f 38/3/16 41/5/16 39/5/16 29/3/16
f 50/18/17 18/17/17 27/27/17 52/28/17
f 52/28/18 27/27/18 26/29/18 53/30/18
f 53/30/19 26/29/19 25/31/19 54/32/19
f 54/32/20 25/31/20 24/33/20 55/34/20
f 55/34/21 24/33/21 23/14/21 56/7/21
f 56/7/22 23/9/22 22/9/22 57/7/22
f 57/7/23 22/9/23 21/9/23 58/7/23
f 58/7/24 21/9/24 20/9/24 59/7/24
f 59/7/25 20/9/25 19/9/25 60/7/25
f 60/7/26 19/9/26 17/9/26 51/7/26
f 12/3/1 10/2/1 17/2/1 19/35/1 20/36/1 21/37/1 22/38/1 23/39/1 24/40/1 25/41/1 26/42/1 27/43/1 18/44/1 28/45/1 30/46/1 31/47/1 32/48/1 33/49/1 34/50/1 35/51/1 36/52/1 37/53/1 38/54/1 29/3/1
f 90/28/27 89/55/27 78/30/27 76/28/27
f 88/6/2 87/5/2 61/5/2 62/6/2
f 62/6/28 61/5/28 64/7/28 63/8/28
f 64/7/28 61/5/28 75/5/28 74/56/28 73/57/28 72/58/28 71/59/28 70/60/28 69/61/28 68/62/28 67/21/28 66/19/28 65/15/28 77/18/28 76/28/28 78/55/28 79/63/28 80/34/28 81/64/28 82/65/28 83/66/28 84/67/28 85/68/28 86/7/28
f 92/5/29 91/25/29 69/25/29 70/5/29
f 94/7/30 93/7/30 86/7/30 85/7/30
f 95/8/31 88/6/31 62/6/31 63/8/31
f 89/55/32 96/32/32 79/32/32 78/30/32
f 97/5/33 92/5/33 70/5/33 71/5/33
f 99/15/31 98/18/31 77/18/31 65/15/31
f 96/32/34 100/34/34 80/34/34 79/32/34
f 101/5/35 97/5/35 71/5/35 72/5/35
f 93/7/6 102/7/6 64/7/6 86/7/6
f 102/7/4 95/8/4 63/8/4 64/7/4
f 100/34/36 103/7/36 81/7/36 80/34/36
f 104/5/37 101/5/37 72/5/37 73/5/37
f 87/5/6 105/5/6 75/5/6 61/5/6
f 106/19/38 99/15/38 65/15/38 66/19/38
f 103/7/39 107/7/39 82/7/39 81/7/39
f 108/5/40 104/5/40 73/5/40 74/5/40
f 109/69/41 106/19/41 66/19/41 67/21/41
f 107/7/42 110/7/42 83/7/42 82/7/42
f 105/5/43 108/5/43 74/5/43 75/5/43
f 111/62/44 109/69/44 67/21/44 68/23/44
f 110/7/45 112/7/45 84/7/45 83/7/45
f 98/18/46 90/28/46 76/28/46 77/18/46
f 91/25/47 111/62/47 68/23/47 69/25/47
f 112/7/48 94/7/48 85/7/48 84/7/48
f 113/70/49 114/71/49 116/72/49 115/73/49
f 119/74/2 117/75/2 177/75/2 179/74/2
f 120/76/3 119/77/3 179/77/3 180/76/3
f 119/77/50 120/76/50 122/78/50 121/13/50
f 121/13/51 122/78/51 124/79/51 123/80/51
f 123/80/52 124/79/52 126/81/52 125/82/52
f 125/82/53 126/81/53 128/83/53 127/84/53
f 127/84/54 128/83/54 130/85/54 129/86/54
f 129/86/55 130/85/55 132/87/55 131/88/55
f 131/88/56 132/87/56 134/89/56 133/90/56
f 133/90/57 134/89/57 136/91/57 135/92/57
f 135/92/58 136/91/58 138/9/58 137/5/58
f 137/5/59 138/9/59 140/93/59 139/94/59
f 139/94/60 140/93/60 142/95/60 141/96/60
f 141/96/61 142/95/61 144/97/61 143/98/61
f 143/98/62 144/97/62 146/99/62 145/100/62
f 145/100/63 146/99/63 148/101/63 147/102/63
f 147/102/64 148/101/64 150/103/64 149/104/64
f 149/104/65 150/103/65 152/105/65 151/106/65
f 151/106/66 152/105/66 154/10/66 153/6/66
f 153/6/67 154/10/67 156/107/67 155/108/67
f 155/108/68 156/107/68 158/109/68 157/110/68
f 157/110/69 158/109/69 160/111/69 159/112/69
f 159/112/70 160/111/70 162/113/70 161/114/70
f 161/114/71 162/113/71 164/115/71 163/116/71
f 163/116/72 164/115/72 166/117/72 165/118/72
f 165/118/73 166/117/73 168/119/73 167/120/73
f 167/120/74 168/119/74 170/121/74 169/11/74
f 169/11/75 170/121/75 172/122/75 171/123/75
f 171/123/76 172/122/76 174/124/76 173/125/76
f 116/126/4 114/127/4 176/128/4 174/129/4 172/130/4 170/131/4 168/132/4 166/133/4 164/134/4 162/135/4 160/136/4 158/137/4 156/138/4 154/139/4 152/140/4 150/141/4 148/142/4 146/143/4 144/144/4 142/145/4 140/146/4 138/147/4 136/148/4 134/149/4 132/150/4 130/151/4 128/152/4 126/153/4 124/154/4 122/155/4 120/156/4 118/157/4
f 173/125/77 174/124/77 176/158/77 175/159/77
f 175/159/78 176/158/78 114/160/78 113/161/78
f 113/162/2 115/163/2 117/75/2 119/74/2 121/164/2 123/165/2 125/166/2 127/167/2 129/168/2 131/169/2 133/170/2 135/171/2 137/172/2 139/173/2 141/174/2 143/175/2 145/176/2 147/177/2 149/178/2 151/179/2 153/180/2 155/181/2 157/182/2 159/183/2 161/184/2 163/185/2 165/186/2 167/187/2 169/188/2 171/189/2 173/190/2 175/191/2
f 179/74/2 177/75/2 183/75/2 185/74/2
f 180/76/79 179/77/79 185/77/79 186/76/79
f 191/126/4 194/126/4 181/126/4 189/126/4 187/126/4
f 194/126/4 193/192/4 178/157/4 184/157/4 181/126/4
f 118/157/4 120/156/4 180/156/4 178/157/4
f 182/73/80 181/72/80 184/193/80 183/194/80
f 183/194/6 184/193/6 186/76/6 185/77/6
f 116/126/4 118/157/4 178/157/4 193/195/4 192/126/4
f 115/73/1 116/72/1 192/72/1 204/196/1
f 178/157/4 180/156/4 186/156/4 184/157/4
f 182/163/2 206/197/2 205/163/2 188/163/2 190/163/2
f 188/73/81 187/72/81 189/72/81 190/73/81
f 177/75/2 207/198/2 206/163/2 182/163/2 183/75/2
f 181/72/82 182/73/82 190/73/82 189/72/82
f 117/75/2 115/163/2 204/163/2 207/199/2 177/75/2
f 191/126/4 195/200/4 196/200/4 197/126/4 198/126/4 199/201/4 200/126/4 201/126/4 202/126/4 203/126/4 192/126/4 193/126/4 194/126/4
f 204/202/2 208/203/2 209/204/2 210/163/2 211/163/2 212/197/2 213/163/2 214/163/2 215/163/2 216/205/2 205/163/2 206/197/2 207/163/2
f 191/72/83 205/73/83 216/73/83 195/72/83
f 195/72/84 216/73/84 215/73/84 196/72/84
f 196/72/85 215/73/85 214/73/85 197/72/85
f 197/72/86 214/73/86 213/73/86 198/72/86
f 198/72/87 213/73/87 212/73/87 199/72/87
f 199/72/88 212/73/88 211/73/88 200/72/88
f 200/72/89 211/73/89 210/73/89 201/72/89
f 201/72/90 210/73/90 209/73/90 202/72/90
f 202/72/91 209/73/91 208/196/91 203/72/91
f 203/72/92 208/196/92 204/196/92 192/72/92
f 205/73/93 191/72/93 187/72/93 188/73/93
