# Blender 4.2.3 LTS
# www.blender.org
mtllib Road.mtl
o Road
v -10.000000 -0.220000 9.999999
v -6.205678 0.080000 9.999999
v -10.000000 -0.220000 -9.999999
v -6.205678 0.080000 -9.999999
v 10.000000 -0.220000 9.999999
v 6.205678 0.080000 9.999999
v 10.000000 -0.220000 -9.999999
v 6.205678 0.080000 -9.999999
v -10.000000 0.080000 9.999999
v -10.000000 0.080000 -9.999999
v 10.000000 0.080000 -9.999999
v 10.000000 0.080000 9.999999
vn -1.0000 -0.0000 -0.0000
vn -0.0000 -0.0000 -1.0000
vn 1.0000 -0.0000 -0.0000
vn -0.0000 -0.0000 1.0000
vn -0.0000 -1.0000 -0.0000
vn -0.0000 1.0000 -0.0000
vt 0.375000 0.000000
vt 0.625000 0.000000
vt 0.625000 0.250000
vt 0.375000 0.250000
vt 0.625000 0.500000
vt 0.375000 0.500000
vt 0.625000 0.750000
vt 0.375000 0.750000
vt 0.625000 1.000000
vt 0.375000 1.000000
vt 0.125000 0.500000
vt 0.125000 0.750000
vt 0.672429 0.547429
vt 0.827571 0.547429
vt 0.827571 0.702571
vt 0.672429 0.702571
vt 0.875000 0.500000
vt 0.875000 0.750000
s 0
f 1/1/1 9/2/1 10/3/1 3/4/1
f 3/4/2 10/3/2 11/5/2 7/6/2
f 7/6/3 11/5/3 12/7/3 5/8/3
f 5/8/4 12/7/4 9/9/4 1/10/4
f 3/11/5 7/6/5 5/8/5 1/12/5
f 8/13/6 4/14/6 2/15/6 6/16/6
f 4/14/6 8/13/6 11/5/6 10/17/6
f 6/16/6 2/15/6 9/18/6 12/7/6
