# Blender 4.2.3 LTS
# www.blender.org
mtllib Trees.mtl
o Sapin
v 0.000000 15.399001 -10.140000
v 6.517867 15.399001 -7.767691
v 9.985950 15.399001 -1.760793
v 8.781498 15.399001 5.070000
v 3.468085 15.399001 9.528483
v -3.468085 15.399001 9.528483
v -8.781498 15.399001 5.070000
v -9.985950 15.399001 -1.760793
v -6.517867 15.399001 -7.767691
v 0.000000 33.651001 0.000000
v 0.000000 19.977602 -9.126001
v 5.866081 19.977602 -6.990922
v 8.987356 19.977602 -1.584714
v 7.903349 19.977602 4.563001
v 3.121276 19.977602 8.575636
v -3.121276 19.977602 8.575636
v -7.903349 19.977602 4.563001
v -8.987356 19.977602 -1.584714
v -5.866081 19.977602 -6.990922
v 0.000000 36.404404 0.000000
v 0.000000 24.857281 -7.300800
v 4.692864 24.857281 -5.592738
v 7.189885 24.857281 -1.267771
v 6.322679 24.857281 3.650400
v 2.497021 24.857281 6.860508
v -2.497021 24.857281 6.860508
v -6.322679 24.857281 3.650400
v -7.189885 24.857281 -1.267771
v -4.692864 24.857281 -5.592738
v 0.000000 37.998722 0.000000
v 0.000000 28.411394 -6.132673
v 3.942006 28.411394 -4.697900
v 6.039504 28.411394 -1.064928
v 5.311050 28.411394 3.066336
v 2.097498 28.411394 5.762827
v -2.097498 28.411394 5.762827
v -5.311050 28.411394 3.066336
v -6.039504 28.411394 -1.064928
v -3.942006 28.411394 -4.697900
v 0.000000 39.450203 0.000000
v 0.000000 32.416389 -4.928041
v 3.167684 32.416389 -3.775099
v 4.853173 32.416389 -0.855745
v 4.267809 32.416389 2.464020
v 1.685489 32.416389 4.630844
v -1.685489 32.416389 4.630844
v -4.267809 32.416389 2.464020
v -4.853173 32.416389 -0.855745
v -3.167684 32.416389 -3.775099
v 0.000000 41.286861 0.000000
v 0.000000 35.808311 -4.435236
v 2.850915 35.808311 -3.397588
v 4.367855 35.808311 -0.770171
v 3.841027 35.808311 2.217618
v 1.516940 35.808311 4.167759
v -1.516940 35.808311 4.167759
v -3.841027 35.808311 2.217618
v -4.367855 35.808311 -0.770171
v -2.850915 35.808311 -3.397588
v 0.000000 43.791737 0.000000
v 0.000000 39.133854 -3.548190
v 2.280732 39.133854 -2.718071
v 3.494285 39.133854 -0.616137
v 3.072822 39.133854 1.774095
v 1.213552 39.133854 3.334208
v -1.213552 39.133854 3.334208
v -3.072822 39.133854 1.774095
v -3.494285 39.133854 -0.616137
v -2.280732 39.133854 -2.718071
v 0.000000 45.520592 0.000000
v 0.000000 42.619064 -2.483733
v 1.596513 42.619064 -1.902650
v 2.445999 42.619064 -0.431296
v 2.150975 42.619064 1.241866
v 0.849487 42.619064 2.333945
v -0.849487 42.619064 2.333945
v -2.150975 42.619064 1.241866
v -2.445999 42.619064 -0.431296
v -1.596513 42.619064 -1.902650
v 0.000000 47.089783 0.000000
v 0.000000 7.340038 -2.340000
v 0.000000 16.101000 -2.340000
v 1.654630 7.026602 -1.654630
v 1.654630 16.101000 -1.654630
v 2.340000 7.340038 0.000000
v 2.340000 16.101000 0.000000
v 1.654630 7.248778 1.654630
v 1.654630 16.101000 1.654630
v 0.000000 7.248778 2.340000
v 0.000000 16.101000 2.340000
v -1.654630 7.248778 1.654630
v -1.654630 16.101000 1.654630
v -2.340000 7.070563 0.000000
v -2.340000 16.101000 0.000000
v -1.654630 7.248778 -1.654630
v -1.654630 16.101000 -1.654630
v -0.000000 0.962536 -2.808001
v 1.985556 0.962536 -1.985556
v 2.808001 0.962536 0.000000
v 1.985556 0.962536 1.985556
v -0.000000 0.962536 2.808001
v -1.985556 0.962536 1.985556
v -2.808001 0.962536 0.000000
v -1.985556 0.962536 -1.985556
v 0.000000 14.275799 -2.340000
v 1.654630 14.275799 -1.654630
v 2.340000 14.275799 0.000000
v 1.654630 14.275799 1.654630
v 0.000000 14.275799 2.340000
v -1.654630 14.275799 1.654630
v -1.654630 14.275799 -1.654630
v 1.124298 8.070118 -1.719759
v -2.200103 14.275799 -0.337743
v -2.200102 14.275799 0.337743
v -2.340000 14.988661 0.000000
v -2.200103 8.070118 0.337743
v -2.200102 8.070118 -0.337743
v -2.201527 14.988661 0.000000
v -2.061629 14.275799 -0.337743
v -2.061629 14.275799 0.337743
v -2.201527 7.357256 0.000000
v -2.061629 8.070118 0.337743
v -2.061629 8.070118 -0.337743
v 0.000000 10.967473 -2.340000
v 1.545353 7.181412 -1.545353
v 2.340000 10.967473 0.000000
v 1.654630 10.967473 1.654630
v 0.000000 10.967473 2.340000
v -1.654630 10.967473 1.654630
v -1.654630 10.967473 -1.654630
v -2.200102 10.967473 -0.337743
v -2.200102 10.967473 0.337743
v -2.061629 10.967473 -0.337743
v -2.061629 10.967473 0.337743
v 1.233575 8.070118 -1.829036
v 1.829037 8.070118 -1.233575
v 1.829036 10.967473 -1.233575
v 1.233575 10.967473 -1.829037
v 1.654630 11.856178 -1.654630
v 1.719759 8.070118 -1.124298
v 1.545353 11.856178 -1.545353
v 1.719759 10.967473 -1.124298
v 1.124298 10.967473 -1.719759
vn 0.3032 0.4628 -0.8330
vn 0.7677 0.4628 -0.4432
vn 0.8730 0.4628 0.1539
vn 0.5698 0.4628 0.6791
vn -0.0000 0.4628 0.8865
vn -0.5698 0.4628 0.6791
vn -0.8730 0.4628 0.1539
vn -0.0000 -1.0000 -0.0000
vn -0.7677 0.4628 -0.4432
vn -0.3032 0.4628 -0.8330
vn 0.3827 -0.0000 -0.9239
vn 0.9239 -0.0000 -0.3827
vn 0.9239 -0.0000 0.3827
vn 0.3827 -0.0000 0.9239
vn -0.3827 -0.0000 0.9239
vn -0.9239 -0.0000 0.3827
vn -0.0000 1.0000 -0.0000
vn -0.9239 -0.0000 -0.3827
vn -0.3827 -0.0000 -0.9239
vn -0.9228 0.0696 0.3788
vn 0.3818 0.0686 0.9217
vn 0.9195 0.0693 -0.3869
vn -0.9228 0.0696 -0.3788
vn -0.3818 0.0686 0.9217
vn 0.9211 0.0681 0.3833
vn 0.3869 0.0693 -0.9195
vn -0.3833 0.0681 -0.9211
vn 0.6939 0.1926 -0.6939
vn -0.4058 0.3920 -0.8256
vn -0.4058 0.3920 0.8256
vn -0.0000 -0.0000 -1.0000
vn -0.9813 -0.1926 -0.0000
vn -0.9813 0.1926 -0.0000
vn -1.0000 -0.0000 -0.0000
vn -0.0000 -0.0000 1.0000
vn -0.0000 -0.4282 -0.9037
vn -0.0000 -0.4282 0.9037
vn 0.6390 -0.4282 0.6390
vn 0.7071 -0.0000 0.7071
vn 0.7728 0.4223 0.4737
vn 0.6939 -0.1926 -0.6939
vn 0.7071 -0.0000 -0.7071
vn -0.6390 -0.4282 -0.6390
vn -0.7071 -0.0000 -0.7071
vn -0.4737 0.4223 -0.7728
vt 0.372129 0.917473
vt 0.382275 0.903013
vt 0.383797 0.920612
vt 0.394753 0.915516
vt 0.399870 0.904570
vt 0.396754 0.892896
vt 0.386863 0.885956
vt 0.374825 0.886997
vt 0.366273 0.895532
vt 0.395553 0.978458
vt 0.407221 0.981596
vt 0.418177 0.976501
vt 0.423294 0.965555
vt 0.420178 0.953880
vt 0.410287 0.946940
vt 0.398249 0.947982
vt 0.389697 0.956517
vt 0.388632 0.968553
vt 0.365208 0.907568
vt 0.700000 0.663000
vt 0.700000 0.703000
vt 0.650000 0.703000
vt 0.650000 0.663000
vt 0.600000 0.703000
vt 0.600000 0.663000
vt 0.550000 0.703000
vt 0.550000 0.663000
vt 0.500000 0.703000
vt 0.500000 0.663000
vt 0.450000 0.703000
vt 0.450000 0.663000
vt 0.450000 0.590497
vt 0.410206 0.663000
vt 0.410206 0.590497
vt 0.467882 0.470882
vt 0.400000 0.499000
vt 0.332118 0.470882
vt 0.304000 0.403000
vt 0.332118 0.335118
vt 0.400000 0.307000
vt 0.467882 0.335118
vt 0.496000 0.403000
vt 0.389794 0.590497
vt 0.389794 0.663000
vt 0.350000 0.663000
vt 0.350000 0.590497
vt 0.350000 0.703000
vt 0.300000 0.703000
vt 0.300000 0.663000
vt 0.450000 0.503000
vt 0.400000 0.503000
vt 0.600000 0.499000
vt 0.667882 0.470882
vt 0.696000 0.403000
vt 0.667882 0.335118
vt 0.600000 0.307000
vt 0.532118 0.335118
vt 0.504000 0.403000
vt 0.532118 0.470882
vt 0.550000 0.503000
vt 0.500000 0.503000
vt 0.650000 0.503000
vt 0.600000 0.503000
vt 0.350000 0.503000
vt 0.700000 0.503000
vt 0.300000 0.503000
vt 0.300000 0.590497
vt 0.400000 0.703000
vt 0.400000 0.678623
vt 0.400000 0.511377
vt 0.389794 0.527000
vt 0.500000 0.590497
vt 0.550000 0.590497
vt 0.600000 0.590497
vt 0.662724 0.527000
vt 0.641003 0.527000
vt 0.650000 0.507524
vt 0.637276 0.590497
vt 0.650000 0.609973
vt 0.637277 0.527000
vt 0.637277 0.590497
vt 0.600000 0.527000
vt 0.700000 0.527000
vt 0.662724 0.527000
vt 0.450000 0.527000
vt 0.410206 0.527000
vt 0.410206 0.590497
vt 0.389794 0.663000
vt 0.407217 0.663000
vt 0.392783 0.527000
vt 0.700000 0.590497
vt 0.662724 0.590497
vt 0.550000 0.527000
vt 0.500000 0.527000
vt 0.350000 0.527000
vt 0.300000 0.527000
vt 0.650000 0.507524
vt 0.658997 0.590497
s 0
usemtl Material.001
f 1/1/1 10/2/1 2/3/1
f 2/3/2 10/2/2 3/4/2
f 3/4/3 10/2/3 4/5/3
f 4/5/4 10/2/4 5/6/4
f 5/6/5 10/2/5 6/7/5
f 6/7/6 10/2/6 7/8/6
f 7/8/7 10/2/7 8/9/7
f 1/10/8 2/11/8 3/12/8 4/13/8 5/14/8 6/15/8 7/16/8 8/17/8 9/18/8
f 8/9/9 10/2/9 9/19/9
f 9/19/10 10/2/10 1/1/10
f 11/1/1 20/2/1 12/3/1
f 12/3/2 20/2/2 13/4/2
f 13/4/3 20/2/3 14/5/3
f 14/5/4 20/2/4 15/6/4
f 15/6/5 20/2/5 16/7/5
f 16/7/6 20/2/6 17/8/6
f 17/8/7 20/2/7 18/9/7
f 11/10/8 12/11/8 13/12/8 14/13/8 15/14/8 16/15/8 17/16/8 18/17/8 19/18/8
f 18/9/9 20/2/9 19/19/9
f 19/19/10 20/2/10 11/1/10
f 21/1/1 30/2/1 22/3/1
f 22/3/2 30/2/2 23/4/2
f 23/4/3 30/2/3 24/5/3
f 24/5/4 30/2/4 25/6/4
f 25/6/5 30/2/5 26/7/5
f 26/7/6 30/2/6 27/8/6
f 27/8/7 30/2/7 28/9/7
f 21/10/8 22/11/8 23/12/8 24/13/8 25/14/8 26/15/8 27/16/8 28/17/8 29/18/8
f 28/9/9 30/2/9 29/19/9
f 29/19/10 30/2/10 21/1/10
f 31/1/1 40/2/1 32/3/1
f 32/3/2 40/2/2 33/4/2
f 33/4/3 40/2/3 34/5/3
f 34/5/4 40/2/4 35/6/4
f 35/6/5 40/2/5 36/7/5
f 36/7/6 40/2/6 37/8/6
f 37/8/7 40/2/7 38/9/7
f 31/10/8 32/11/8 33/12/8 34/13/8 35/14/8 36/15/8 37/16/8 38/17/8 39/18/8
f 38/9/9 40/2/9 39/19/9
f 39/19/10 40/2/10 31/1/10
f 41/1/1 50/2/1 42/3/1
f 42/3/2 50/2/2 43/4/2
f 43/4/3 50/2/3 44/5/3
f 44/5/4 50/2/4 45/6/4
f 45/6/5 50/2/5 46/7/5
f 46/7/6 50/2/6 47/8/6
f 47/8/7 50/2/7 48/9/7
f 41/10/8 42/11/8 43/12/8 44/13/8 45/14/8 46/15/8 47/16/8 48/17/8 49/18/8
f 48/9/9 50/2/9 49/19/9
f 49/19/10 50/2/10 41/1/10
f 51/1/1 60/2/1 52/3/1
f 52/3/2 60/2/2 53/4/2
f 53/4/3 60/2/3 54/5/3
f 54/5/4 60/2/4 55/6/4
f 55/6/5 60/2/5 56/7/5
f 56/7/6 60/2/6 57/8/6
f 57/8/7 60/2/7 58/9/7
f 51/10/8 52/11/8 53/12/8 54/13/8 55/14/8 56/15/8 57/16/8 58/17/8 59/18/8
f 58/9/9 60/2/9 59/19/9
f 59/19/10 60/2/10 51/1/10
f 61/1/1 70/2/1 62/3/1
f 62/3/2 70/2/2 63/4/2
f 63/4/3 70/2/3 64/5/3
f 64/5/4 70/2/4 65/6/4
f 65/6/5 70/2/5 66/7/5
f 66/7/6 70/2/6 67/8/6
f 67/8/7 70/2/7 68/9/7
f 61/10/8 62/11/8 63/12/8 64/13/8 65/14/8 66/15/8 67/16/8 68/17/8 69/18/8
f 68/9/9 70/2/9 69/19/9
f 69/19/10 70/2/10 61/1/10
f 71/1/1 80/2/1 72/3/1
f 72/3/2 80/2/2 73/4/2
f 73/4/3 80/2/3 74/5/3
f 74/5/4 80/2/4 75/6/4
f 75/6/5 80/2/5 76/7/5
f 76/7/6 80/2/6 77/8/6
f 77/8/7 80/2/7 78/9/7
f 71/10/8 72/11/8 73/12/8 74/13/8 75/14/8 76/15/8 77/16/8 78/17/8 79/18/8
f 78/9/9 80/2/9 79/19/9
f 79/19/10 80/2/10 71/1/10
usemtl Material.002
f 105/20/11 82/21/11 84/22/11 106/23/11
f 106/23/12 84/22/12 86/24/12 107/25/12
f 107/25/13 86/24/13 88/26/13 108/27/13
f 108/27/14 88/26/14 90/28/14 109/29/14
f 109/29/15 90/28/15 92/30/15 110/31/15
f 129/32/16 110/31/16 114/33/16 132/34/16
f 84/35/17 82/36/17 96/37/17 94/38/17 92/39/17 90/40/17 88/41/17 86/42/17
f 131/43/18 113/44/18 111/45/18 130/46/18
f 111/45/19 96/47/19 82/48/19 105/49/19
f 91/50/20 93/51/20 103/51/20 102/50/20
f 97/52/8 98/53/8 99/54/8 100/55/8 101/56/8 102/57/8 103/58/8 104/59/8
f 87/60/21 89/61/21 101/61/21 100/60/21
f 83/62/22 85/63/22 99/63/22 98/62/22
f 93/51/23 95/64/23 104/64/23 103/51/23
f 89/61/24 91/50/24 102/50/24 101/61/24
f 85/63/25 87/60/25 100/60/25 99/63/25
f 81/65/26 83/62/26 98/62/26 97/65/26
f 95/64/27 81/66/27 97/66/27 104/64/27
f 130/46/19 111/45/19 105/49/19 124/67/19
f 110/31/16 92/30/16 94/68/16 115/69/16 114/33/16
f 93/70/18 117/71/18 95/64/18
f 128/72/15 109/29/15 110/31/15 129/32/15
f 127/73/14 108/27/14 109/29/14 128/72/14
f 126/74/13 107/25/13 108/27/13 127/73/13
f 137/78/12 139/79/12 106/23/12 107/25/12 126/74/12
f 136/80/12 137/81/12 126/74/12 85/82/12
f 81/83/11 135/84/11 83/62/11
f 91/85/16 116/86/16 93/51/16
f 117/71/30 93/70/30 121/70/30 123/71/30
f 132/34/31 114/33/31 120/33/31 134/87/31
f 113/88/18 115/69/18 94/68/18 96/47/18 111/45/18
f 131/43/35 117/71/35 123/71/35 133/43/35
f 114/33/36 115/69/36 118/69/36 120/33/36
f 115/69/37 113/88/37 119/88/37 118/69/37
f 113/44/35 131/43/35 133/43/35 119/44/35
f 116/86/31 132/34/31 134/87/31 122/86/31
f 124/91/11 105/20/11 106/23/11 139/79/11 138/92/11
f 81/83/11 124/91/11 138/92/11 135/75/11
f 85/82/13 126/74/13 127/73/13 87/93/13
f 87/93/14 127/73/14 128/72/14 89/94/14
f 89/94/15 128/72/15 129/32/15 91/85/15
f 95/95/19 130/46/19 124/67/19 81/96/19
f 117/71/18 131/43/18 130/46/18 95/95/18
f 91/85/16 129/32/16 132/34/16 116/86/16
f 138/92/38 139/79/38 141/79/38 143/92/38
f 135/75/39 138/92/39 143/92/39 112/75/39
f 83/97/40 135/84/40 112/84/40 125/97/40
f 83/77/12 136/80/12 85/63/12
f 139/79/43 137/78/43 142/78/43 141/79/43
f 137/81/44 136/80/44 140/80/44 142/81/44
f 136/80/45 83/77/45 125/77/45 140/80/45
usemtl Material.003
f 112/75/28 140/76/28 125/77/28
f 93/70/29 116/86/29 122/86/29 121/70/29
f 119/44/32 120/89/32 118/69/32
f 122/86/33 123/90/33 121/70/33
f 133/43/34 123/71/34 122/86/34 134/87/34
f 119/44/34 133/43/34 134/87/34 120/33/34
f 142/81/41 143/98/41 141/79/41
f 142/81/42 140/80/42 112/75/42 143/92/42
