# Blender 4.2.3 LTS
# www.blender.org
mtllib Trunk.mtl
o Trunk
v 0.000000 5.138027 -1.638000
v 0.000000 11.270700 -1.638000
v 1.158241 4.918621 -1.158241
v 1.158241 11.270700 -1.158241
v 1.638000 5.138027 0.000000
v 1.638000 11.270700 0.000000
v 1.158241 5.074145 1.158241
v 1.158241 11.270700 1.158241
v 0.000000 5.074145 1.638000
v 0.000000 11.270700 1.638000
v -1.158241 5.074145 1.158241
v -1.158241 11.270700 1.158241
v -1.638000 4.949394 0.000000
v -1.638000 11.270700 0.000000
v -1.158241 5.074145 -1.158241
v -1.158241 11.270700 -1.158241
v -0.000000 0.673775 -1.965600
v 1.389889 0.673775 -1.389889
v 1.965600 0.673775 0.000000
v 1.389889 0.673775 1.389889
v -0.000000 0.673775 1.965600
v -1.389889 0.673775 1.389889
v -1.965600 0.673775 0.000000
v -1.389889 0.673775 -1.389889
v 0.000000 9.993059 -1.638000
v 1.158241 9.993059 -1.158241
v 1.638000 9.993059 0.000000
v 1.158241 9.993059 1.158241
v 0.000000 9.993059 1.638000
v -1.158241 9.993059 1.158241
v -1.158241 9.993059 -1.158241
v 0.787009 5.649083 -1.203831
v -1.540072 9.993059 -0.236420
v -1.540072 9.993059 0.236420
v -1.638000 10.492063 0.000000
v -1.540072 5.649083 0.236420
v -1.540072 5.649083 -0.236420
v -1.541069 10.492063 0.000000
v -1.443140 9.993059 -0.236420
v -1.443140 9.993059 0.236420
v -1.541069 5.150079 0.000000
v -1.443140 5.649083 0.236420
v -1.443140 5.649083 -0.236420
v 0.000000 7.677231 -1.638000
v 1.081747 5.026988 -1.081747
v 1.638000 7.677231 0.000000
v 1.158241 7.677231 1.158241
v 0.000000 7.677231 1.638000
v -1.158241 7.677231 1.158241
v -1.158241 7.677231 -1.158241
v -1.540072 7.677231 -0.236420
v -1.540072 7.677231 0.236420
v -1.443140 7.677231 -0.236420
v -1.443140 7.677231 0.236420
v 0.863503 5.649083 -1.280326
v 1.280326 5.649083 -0.863503
v 1.280326 7.677231 -0.863503
v 0.863503 7.677231 -1.280326
v 1.158241 8.299325 -1.158241
v 1.203831 5.649083 -0.787009
v 1.081747 8.299325 -1.081747
v 1.203831 7.677231 -0.787009
v 0.787009 7.677231 -1.203831
vn 0.3827 -0.0000 -0.9239
vn 0.9239 -0.0000 -0.3827
vn 0.9239 -0.0000 0.3827
vn 0.3827 -0.0000 0.9239
vn -0.3827 -0.0000 0.9239
vn -0.9239 -0.0000 0.3827
vn -0.0000 1.0000 -0.0000
vn -0.9239 -0.0000 -0.3827
vn -0.3827 -0.0000 -0.9239
vn -0.9228 0.0696 0.3788
vn -0.0000 -1.0000 -0.0000
vn 0.3818 0.0686 0.9217
vn 0.9195 0.0693 -0.3869
vn -0.9228 0.0696 -0.3788
vn -0.3818 0.0686 0.9217
vn 0.9211 0.0681 0.3833
vn 0.3869 0.0693 -0.9195
vn -0.3833 0.0681 -0.9211
vn 0.6939 0.1926 -0.6939
vn -0.4058 0.3920 -0.8256
vn -0.4058 0.3920 0.8256
vn -0.0000 -0.0000 -1.0000
vn -0.9813 -0.1926 -0.0000
vn -0.9813 0.1926 -0.0000
vn -1.0000 -0.0000 -0.0000
vn -0.0000 -0.0000 1.0000
vn -0.0000 -0.4282 -0.9037
vn -0.0000 -0.4282 0.9037
vn 0.6390 -0.4282 0.6390
vn 0.7071 -0.0000 0.7071
vn 0.7728 0.4223 0.4737
vn 0.6939 -0.1926 -0.6939
vn 0.7071 -0.0000 -0.7071
vn -0.6390 -0.4282 -0.6390
vn -0.7071 -0.0000 -0.7071
vn -0.4737 0.4223 -0.7728
vt 0.700000 0.663000
vt 0.700000 0.703000
vt 0.650000 0.703000
vt 0.650000 0.663000
vt 0.600000 0.703000
vt 0.600000 0.663000
vt 0.550000 0.703000
vt 0.550000 0.663000
vt 0.500000 0.703000
vt 0.500000 0.663000
vt 0.450000 0.703000
vt 0.450000 0.663000
vt 0.450000 0.590497
vt 0.410206 0.663000
vt 0.410206 0.590497
vt 0.467882 0.470882
vt 0.400000 0.499000
vt 0.332118 0.470882
vt 0.304000 0.403000
vt 0.332118 0.335118
vt 0.400000 0.307000
vt 0.467882 0.335118
vt 0.496000 0.403000
vt 0.389794 0.590497
vt 0.389794 0.663000
vt 0.350000 0.663000
vt 0.350000 0.590497
vt 0.350000 0.703000
vt 0.300000 0.703000
vt 0.300000 0.663000
vt 0.450000 0.503000
vt 0.400000 0.503000
vt 0.600000 0.499000
vt 0.667882 0.470882
vt 0.696000 0.403000
vt 0.667882 0.335118
vt 0.600000 0.307000
vt 0.532118 0.335118
vt 0.504000 0.403000
vt 0.532118 0.470882
vt 0.550000 0.503000
vt 0.500000 0.503000
vt 0.650000 0.503000
vt 0.600000 0.503000
vt 0.350000 0.503000
vt 0.700000 0.503000
vt 0.300000 0.503000
vt 0.300000 0.590497
vt 0.400000 0.703000
vt 0.400000 0.678623
vt 0.400000 0.511377
vt 0.389794 0.527000
vt 0.500000 0.590497
vt 0.550000 0.590497
vt 0.600000 0.590497
vt 0.662724 0.527000
vt 0.641003 0.527000
vt 0.650000 0.507524
vt 0.637276 0.590497
vt 0.650000 0.609973
vt 0.637277 0.527000
vt 0.637277 0.590497
vt 0.600000 0.527000
vt 0.700000 0.527000
vt 0.662724 0.527000
vt 0.450000 0.527000
vt 0.410206 0.527000
vt 0.410206 0.590497
vt 0.389794 0.663000
vt 0.407217 0.663000
vt 0.392783 0.527000
vt 0.700000 0.590497
vt 0.662724 0.590497
vt 0.550000 0.527000
vt 0.500000 0.527000
vt 0.350000 0.527000
vt 0.300000 0.527000
vt 0.650000 0.507524
vt 0.658997 0.590497
s 0
usemtl Material.002
f 25/1/1 2/2/1 4/3/1 26/4/1
f 26/4/2 4/3/2 6/5/2 27/6/2
f 27/6/3 6/5/3 8/7/3 28/8/3
f 28/8/4 8/7/4 10/9/4 29/10/4
f 29/10/5 10/9/5 12/11/5 30/12/5
f 49/13/6 30/12/6 34/14/6 52/15/6
f 4/16/7 2/17/7 16/18/7 14/19/7 12/20/7 10/21/7 8/22/7 6/23/7
f 51/24/8 33/25/8 31/26/8 50/27/8
f 31/26/9 16/28/9 2/29/9 25/30/9
f 11/31/10 13/32/10 23/32/10 22/31/10
f 17/33/11 18/34/11 19/35/11 20/36/11 21/37/11 22/38/11 23/39/11 24/40/11
f 7/41/12 9/42/12 21/42/12 20/41/12
f 3/43/13 5/44/13 19/44/13 18/43/13
f 13/32/14 15/45/14 24/45/14 23/32/14
f 9/42/15 11/31/15 22/31/15 21/42/15
f 5/44/16 7/41/16 20/41/16 19/44/16
f 1/46/17 3/43/17 18/43/17 17/46/17
f 15/45/18 1/47/18 17/47/18 24/45/18
f 50/27/9 31/26/9 25/30/9 44/48/9
f 30/12/6 12/11/6 14/49/6 35/50/6 34/14/6
f 13/51/8 37/52/8 15/45/8
f 48/53/5 29/10/5 30/12/5 49/13/5
f 47/54/4 28/8/4 29/10/4 48/53/4
f 46/55/3 27/6/3 28/8/3 47/54/3
f 57/59/2 59/60/2 26/4/2 27/6/2 46/55/2
f 56/61/2 57/62/2 46/55/2 5/63/2
f 1/64/1 55/65/1 3/43/1
f 11/66/6 36/67/6 13/32/6
f 37/52/21 13/51/21 41/51/21 43/52/21
f 52/15/22 34/14/22 40/14/22 54/68/22
f 33/69/8 35/50/8 14/49/8 16/28/8 31/26/8
f 51/24/26 37/52/26 43/52/26 53/24/26
f 34/14/27 35/50/27 38/50/27 40/14/27
f 35/50/28 33/69/28 39/69/28 38/50/28
f 33/25/26 51/24/26 53/24/26 39/25/26
f 36/67/22 52/15/22 54/68/22 42/67/22
f 44/72/1 25/1/1 26/4/1 59/60/1 58/73/1
f 1/64/1 44/72/1 58/73/1 55/56/1
f 5/63/3 46/55/3 47/54/3 7/74/3
f 7/74/4 47/54/4 48/53/4 9/75/4
f 9/75/5 48/53/5 49/13/5 11/66/5
f 15/76/9 50/27/9 44/48/9 1/77/9
f 37/52/8 51/24/8 50/27/8 15/76/8
f 11/66/6 49/13/6 52/15/6 36/67/6
f 58/73/29 59/60/29 61/60/29 63/73/29
f 55/56/30 58/73/30 63/73/30 32/56/30
f 3/78/31 55/65/31 32/65/31 45/78/31
f 3/58/2 56/61/2 5/44/2
f 59/60/34 57/59/34 62/59/34 61/60/34
f 57/62/35 56/61/35 60/61/35 62/62/35
f 56/61/36 3/58/36 45/58/36 60/61/36
usemtl Material.003
f 32/56/19 60/57/19 45/58/19
f 13/51/20 36/67/20 42/67/20 41/51/20
f 39/25/23 40/70/23 38/50/23
f 42/67/24 43/71/24 41/51/24
f 53/24/25 43/52/25 42/67/25 54/68/25
f 39/25/25 53/24/25 54/68/25 40/14/25
f 62/62/32 63/79/32 61/60/32
f 62/62/33 60/61/33 32/56/33 63/73/33
