# Blender 4.2.3 LTS
# www.blender.org
mtllib Barel_1983.mtl
o Plaquette_1983
v 0.540000 -0.248000 -0.080000
v 0.540000 0.248000 -0.080000
v 0.540000 -0.248000 -0.160000
v 0.540000 0.248000 -0.160000
v 0.620000 -0.248000 -0.080000
v 0.620000 0.248000 -0.080000
v 0.620000 -0.248000 -0.160000
v 0.620000 0.248000 -0.160000
v 0.540000 -0.177143 -0.080000
v 0.540000 -0.106286 -0.080000
v 0.540000 -0.035429 -0.080000
v 0.540000 0.035429 -0.080000
v 0.540000 0.106286 -0.080000
v 0.540000 0.177143 -0.080000
v 0.540000 0.177143 -0.160000
v 0.540000 0.106286 -0.160000
v 0.540000 0.035429 -0.160000
v 0.540000 -0.035429 -0.160000
v 0.540000 -0.106286 -0.160000
v 0.540000 -0.177143 -0.160000
v 0.620000 0.177143 -0.160000
v 0.620000 0.106286 -0.160000
v 0.620000 0.035429 -0.160000
v 0.620000 -0.035429 -0.160000
v 0.620000 -0.106286 -0.160000
v 0.620000 -0.177143 -0.160000
v 0.620000 0.177143 -0.080000
v 0.620000 0.106286 -0.080000
v 0.620000 0.035429 -0.080000
v 0.620000 -0.035429 -0.080000
v 0.620000 -0.106286 -0.080000
v 0.620000 -0.177143 -0.080000
v 0.124000 -0.248000 -0.080000
v 0.124000 0.248000 -0.080000
v 0.124000 -0.248000 -0.160000
v 0.124000 0.248000 -0.160000
v 0.196000 -0.248000 -0.080000
v 0.196000 0.248000 -0.080000
v 0.196000 -0.248000 -0.160000
v 0.196000 0.248000 -0.160000
v 0.124000 -0.177143 -0.080000
v 0.124000 -0.106286 -0.080000
v 0.124000 -0.035429 -0.080000
v 0.124000 0.035429 -0.080000
v 0.124000 0.106286 -0.080000
v 0.124000 0.177143 -0.080000
v 0.124000 0.177143 -0.160000
v 0.124000 0.106286 -0.160000
v 0.124000 0.035429 -0.160000
v 0.124000 -0.035429 -0.160000
v 0.124000 -0.106286 -0.160000
v 0.124000 -0.177143 -0.160000
v 0.196000 0.177143 -0.160000
v 0.196000 0.106286 -0.160000
v 0.196000 0.035429 -0.160000
v 0.196000 -0.035429 -0.160000
v 0.196000 -0.106286 -0.160000
v 0.196000 -0.177143 -0.160000
v 0.196000 0.177143 -0.080000
v 0.196000 0.106286 -0.080000
v 0.196000 0.035429 -0.080000
v 0.196000 -0.035429 -0.080000
v 0.196000 -0.106286 -0.080000
v 0.196000 -0.177143 -0.080000
v 0.349000 -0.177143 -0.160000
v 0.349000 -0.248000 -0.160000
v 0.349000 -0.248000 -0.080000
v 0.349000 0.248000 -0.160000
v 0.349000 0.248000 -0.080000
v 0.349000 -0.177143 -0.080000
v 0.349000 0.177143 -0.160000
v 0.349000 0.035286 -0.160000
v 0.349000 -0.035429 -0.160000
v 0.349000 0.177143 -0.080000
v 0.349000 0.035286 -0.080000
v 0.349000 -0.035429 -0.080000
v 0.421000 -0.177143 -0.160000
v 0.421000 -0.248000 -0.160000
v 0.421000 -0.248000 -0.080000
v 0.421000 0.248000 -0.160000
v 0.421000 0.248000 -0.080000
v 0.421000 -0.177143 -0.080000
v 0.421000 0.177143 -0.160000
v 0.421000 0.035286 -0.160000
v 0.421000 -0.035429 -0.160000
v 0.421000 0.177143 -0.080000
v 0.421000 0.035286 -0.080000
v 0.421000 -0.035429 -0.080000
v -0.246000 -0.248000 -0.080000
v -0.246000 0.248000 -0.080000
v -0.246000 -0.248000 -0.160000
v -0.246000 0.248000 -0.160000
v -0.174000 -0.248000 -0.080000
v -0.174000 0.248000 -0.080000
v -0.174000 -0.248000 -0.160000
v -0.174000 0.248000 -0.160000
v -0.246000 -0.177143 -0.080000
v -0.246000 -0.106286 -0.080000
v -0.246000 -0.035429 -0.080000
v -0.246000 0.035429 -0.080000
v -0.246000 0.106286 -0.080000
v -0.246000 0.177143 -0.080000
v -0.246000 0.177143 -0.160000
v -0.246000 0.106286 -0.160000
v -0.246000 0.035429 -0.160000
v -0.246000 -0.035429 -0.160000
v -0.246000 -0.106286 -0.160000
v -0.246000 -0.177143 -0.160000
v -0.174000 0.177143 -0.160000
v -0.174000 0.106286 -0.160000
v -0.174000 0.035429 -0.160000
v -0.174000 -0.035429 -0.160000
v -0.174000 -0.106286 -0.160000
v -0.174000 -0.177143 -0.160000
v -0.174000 0.177143 -0.080000
v -0.174000 0.106286 -0.080000
v -0.174000 0.035429 -0.080000
v -0.174000 -0.035429 -0.080000
v -0.174000 -0.106286 -0.080000
v -0.174000 -0.177143 -0.080000
v -0.021000 -0.177286 -0.160000
v -0.021000 -0.248000 -0.160000
v -0.021000 -0.248000 -0.080000
v -0.021000 0.248000 -0.160000
v -0.021000 0.248000 -0.080000
v -0.021000 -0.177286 -0.080000
v -0.021000 0.177143 -0.160000
v -0.021000 0.035286 -0.160000
v -0.021000 -0.035429 -0.160000
v -0.021000 0.177143 -0.080000
v -0.021000 0.035286 -0.080000
v -0.021000 -0.035429 -0.080000
v 0.051000 -0.177286 -0.160000
v 0.051000 -0.248000 -0.160000
v 0.051000 -0.248000 -0.080000
v 0.051000 0.248000 -0.160000
v 0.051000 0.248000 -0.080000
v 0.051000 -0.177286 -0.080000
v 0.051000 0.177143 -0.160000
v 0.051000 0.035286 -0.160000
v 0.051000 -0.035429 -0.160000
v 0.051000 0.177143 -0.080000
v 0.051000 0.035286 -0.080000
v 0.051000 -0.035429 -0.080000
v -0.600000 -0.248000 -0.080000
v -0.600000 0.248000 -0.080000
v -0.600000 -0.248000 -0.160000
v -0.600000 0.248000 -0.160000
v -0.520000 -0.248000 -0.080000
v -0.520000 0.248000 -0.080000
v -0.520000 -0.248000 -0.160000
v -0.520000 0.248000 -0.160000
v -0.600000 -0.177143 -0.080000
v -0.600000 -0.106286 -0.080000
v -0.600000 -0.035429 -0.080000
v -0.600000 0.035429 -0.080000
v -0.600000 0.106286 -0.080000
v -0.600000 0.177143 -0.080000
v -0.600000 0.177143 -0.160000
v -0.600000 0.106286 -0.160000
v -0.600000 0.035429 -0.160000
v -0.600000 -0.035429 -0.160000
v -0.600000 -0.106286 -0.160000
v -0.600000 -0.177143 -0.160000
v -0.520000 0.177143 -0.160000
v -0.520000 0.106286 -0.160000
v -0.520000 0.035429 -0.160000
v -0.520000 -0.035429 -0.160000
v -0.520000 -0.106286 -0.160000
v -0.520000 -0.177143 -0.160000
v -0.520000 0.177143 -0.080000
v -0.520000 0.106286 -0.080000
v -0.520000 0.035429 -0.080000
v -0.520000 -0.035429 -0.080000
v -0.520000 -0.106286 -0.080000
v -0.520000 -0.177143 -0.080000
v -0.330000 -0.177143 -0.160000
v -0.330000 -0.248000 -0.160000
v -0.330000 -0.248000 -0.080000
v -0.330000 0.248000 -0.160000
v -0.330000 0.248000 -0.080000
v -0.330000 -0.177143 -0.080000
v -0.330000 0.177143 -0.160000
v -0.330000 0.035429 -0.160000
v -0.330000 -0.035429 -0.160000
v -0.330000 0.177143 -0.080000
v -0.330000 0.035429 -0.080000
v -0.330000 -0.035429 -0.080000
v -0.647736 0.364647 0.114174
v -0.663836 -0.010000 0.072772
v -0.329492 0.364647 0.025169
v -0.337206 -0.010000 -0.018579
v 0.000001 0.364647 -0.000040
v 0.000970 -0.010000 -0.044452
v 0.328081 0.364647 0.039517
v 0.337695 -0.010000 -0.003852
v 0.642139 0.364647 0.142319
v 0.660030 -0.010000 0.101659
v -0.647736 -0.384646 0.114174
v -0.329492 -0.384646 0.025169
v 0.000001 -0.384646 -0.000040
v 0.328081 -0.384646 0.039517
v 0.642139 -0.384646 0.142319
v -0.645555 0.364647 0.014197
v -0.661655 -0.010000 -0.027204
v -0.327311 0.364647 -0.074808
v -0.335025 -0.010000 -0.118555
v 0.002182 0.364647 -0.100016
v 0.003151 -0.010000 -0.144428
v 0.330262 0.364647 -0.060459
v 0.339877 -0.010000 -0.103829
v 0.644321 0.364647 0.042343
v 0.662212 -0.010000 0.001683
v -0.645555 -0.384646 0.014197
v -0.327311 -0.384646 -0.074808
v 0.002182 -0.384646 -0.100016
v 0.330262 -0.384646 -0.060459
v 0.644321 -0.384646 0.042343
vn -1.0000 -0.0000 -0.0000
vn -0.0000 -0.0000 -1.0000
vn 1.0000 -0.0000 -0.0000
vn -0.0000 -0.0000 1.0000
vn -0.0000 -1.0000 -0.0000
vn -0.0000 1.0000 -0.0000
vn 0.0009 1.0000 -0.0000
vn -0.3089 0.1172 0.9438
vn -0.1189 0.1172 0.9860
vn 0.0758 0.1172 0.9902
vn 0.2675 0.1172 0.9564
vn 0.2675 -0.1172 0.9564
vn 0.0758 -0.1172 0.9902
vn -0.1189 -0.1172 0.9860
vn -0.3089 -0.1172 0.9438
vn 0.3089 -0.1172 -0.9438
vn 0.1189 -0.1172 -0.9860
vn -0.0758 -0.1172 -0.9902
vn -0.2675 -0.1172 -0.9564
vn -0.2675 0.1172 -0.9564
vn -0.0758 0.1172 -0.9902
vn 0.1189 0.1172 -0.9860
vn 0.3089 0.1172 -0.9438
vn -0.9987 -0.0453 -0.0218
vn 0.9987 -0.0453 0.0218
vn -0.9987 0.0453 -0.0218
vn 0.9987 0.0453 0.0218
vt 0.589286 0.000000
vt 0.625000 0.000000
vt 0.625000 0.250000
vt 0.589286 0.250000
vt 0.625000 0.500000
vt 0.589286 0.500000
vt 0.625000 0.750000
vt 0.589286 0.750000
vt 0.625000 1.000000
vt 0.589286 1.000000
vt 0.125000 0.500000
vt 0.375000 0.500000
vt 0.375000 0.750000
vt 0.125000 0.750000
vt 0.875000 0.500000
vt 0.875000 0.750000
vt 0.410714 0.750000
vt 0.410714 1.000000
vt 0.375000 1.000000
vt 0.446429 0.750000
vt 0.446429 1.000000
vt 0.482143 0.750000
vt 0.482143 1.000000
vt 0.517857 0.750000
vt 0.517857 1.000000
vt 0.553571 0.750000
vt 0.553571 1.000000
vt 0.410714 0.500000
vt 0.446429 0.500000
vt 0.482143 0.500000
vt 0.517857 0.500000
vt 0.553571 0.500000
vt 0.375000 0.250000
vt 0.410714 0.250000
vt 0.446429 0.250000
vt 0.482143 0.250000
vt 0.517857 0.250000
vt 0.553571 0.250000
vt 0.375000 0.000000
vt 0.410714 0.000000
vt 0.446429 0.000000
vt 0.482143 0.000000
vt 0.517857 0.000000
vt 0.553571 0.000000
vt 0.062500 0.718750
vt 0.031250 0.718750
vt 0.031250 0.750000
vt 0.062500 0.750000
vt 0.093750 0.718750
vt 0.093750 0.750000
vt 0.125000 0.718750
vt 0.125000 0.750000
vt 0.156250 0.718750
vt 0.156250 0.750000
vt 0.125000 0.781250
vt 0.156250 0.781250
vt 0.093750 0.781250
vt 0.062500 0.781250
vt 0.031250 0.781250
s 0
usemtl 
f 14/1/1 2/2/1 4/3/1 15/4/1
f 15/4/2 4/3/2 8/5/2 21/6/2
f 21/6/3 8/5/3 6/7/3 27/8/3
f 27/8/4 6/7/4 2/9/4 14/10/4
f 3/11/5 7/12/5 5/13/5 1/14/5
f 8/5/6 4/15/6 2/16/6 6/7/6
f 5/13/4 32/17/4 9/18/4 1/19/4
f 32/17/4 31/20/4 10/21/4 9/18/4
f 31/20/4 30/22/4 11/23/4 10/21/4
f 30/22/4 29/24/4 12/25/4 11/23/4
f 29/24/4 28/26/4 13/27/4 12/25/4
f 28/26/4 27/8/4 14/10/4 13/27/4
f 7/12/3 26/28/3 32/17/3 5/13/3
f 26/28/3 25/29/3 31/20/3 32/17/3
f 25/29/3 24/30/3 30/22/3 31/20/3
f 24/30/3 23/31/3 29/24/3 30/22/3
f 23/31/3 22/32/3 28/26/3 29/24/3
f 22/32/3 21/6/3 27/8/3 28/26/3
f 3/33/2 20/34/2 26/28/2 7/12/2
f 20/34/2 19/35/2 25/29/2 26/28/2
f 19/35/2 18/36/2 24/30/2 25/29/2
f 18/36/2 17/37/2 23/31/2 24/30/2
f 17/37/2 16/38/2 22/32/2 23/31/2
f 16/38/2 15/4/2 21/6/2 22/32/2
f 1/39/1 9/40/1 20/34/1 3/33/1
f 9/40/1 10/41/1 19/35/1 20/34/1
f 10/41/1 11/42/1 18/36/1 19/35/1
f 11/42/1 12/43/1 17/37/1 18/36/1
f 12/43/1 13/44/1 16/38/1 17/37/1
f 13/44/1 14/1/1 15/4/1 16/38/1
f 46/1/1 34/2/1 36/3/1 47/4/1
f 47/4/2 36/3/2 40/5/2 53/6/2
f 64/17/4 37/13/4 67/13/4 70/17/4
f 59/8/4 38/7/4 34/9/4 46/10/4
f 35/11/5 39/12/5 37/13/5 33/14/5
f 40/5/6 36/15/6 34/16/6 38/7/6
f 37/13/4 64/17/4 41/18/4 33/19/4
f 64/17/4 63/20/4 42/21/4 41/18/4
f 63/20/4 62/22/4 43/23/4 42/21/4
f 62/22/4 61/24/4 44/25/4 43/23/4
f 61/24/4 60/26/4 45/27/4 44/25/4
f 60/26/4 59/8/4 46/10/4 45/27/4
f 40/5/6 38/7/6 69/7/6 68/5/6
f 58/28/3 57/29/3 63/20/3 64/17/3
f 57/29/3 56/30/3 62/22/3 63/20/3
f 58/28/6 64/17/6 70/17/6 65/28/6
f 55/31/3 54/32/3 60/26/3 61/24/3
f 54/32/3 53/6/3 59/8/3 60/26/3
f 35/33/2 52/34/2 58/28/2 39/12/2
f 52/34/2 51/35/2 57/29/2 58/28/2
f 51/35/2 50/36/2 56/30/2 57/29/2
f 50/36/2 49/37/2 55/31/2 56/30/2
f 49/37/2 48/38/2 54/32/2 55/31/2
f 48/38/2 47/4/2 53/6/2 54/32/2
f 33/39/1 41/40/1 52/34/1 35/33/1
f 41/40/1 42/41/1 51/35/1 52/34/1
f 42/41/1 43/42/1 50/36/1 51/35/1
f 43/42/1 44/43/1 49/37/1 50/36/1
f 44/43/1 45/44/1 48/38/1 49/37/1
f 45/44/1 46/1/1 47/4/1 48/38/1
f 72/31/6 75/24/6 87/24/6 84/31/6
f 70/17/4 67/13/4 79/13/4 82/17/4
f 69/7/4 74/8/4 86/8/4 81/7/4
f 61/24/4 62/22/4 76/22/4 75/24/4
f 39/12/2 58/28/2 65/28/2 66/12/2
f 59/8/5 53/6/5 71/6/5 74/8/5
f 38/7/4 59/8/4 74/8/4 69/7/4
f 62/22/5 56/30/5 73/30/5 76/22/5
f 56/30/2 55/31/2 72/31/2 73/30/2
f 37/13/5 39/12/5 66/12/5 67/13/5
f 53/6/2 40/5/2 68/5/2 71/6/2
f 55/31/7 61/24/7 75/24/7 72/31/7
f 83/6/3 80/5/3 81/7/3 86/8/3
f 78/12/3 77/28/3 82/17/3 79/13/3
f 85/30/3 84/31/3 87/24/3 88/22/3
f 66/12/2 65/28/2 77/28/2 78/12/2
f 75/24/4 76/22/4 88/22/4 87/24/4
f 71/6/2 68/5/2 80/5/2 83/6/2
f 86/8/4 74/8/4 75/8/4 87/8/4
f 67/13/5 66/12/5 78/12/5 79/13/5
f 65/28/6 70/17/6 82/17/6 77/28/6
f 73/30/2 72/31/2 84/31/2 85/30/2
f 68/5/6 69/7/6 81/7/6 80/5/6
f 76/22/5 73/30/5 85/30/5 88/22/5
f 83/6/3 86/8/3 87/8/3 84/6/3
f 71/6/2 83/6/2 84/6/2 72/6/2
f 74/8/1 71/6/1 72/6/1 75/8/1
f 102/1/1 90/2/1 92/3/1 103/4/1
f 103/4/2 92/3/2 96/5/2 109/6/2
f 120/17/4 93/13/4 123/13/4 126/17/4
f 115/8/4 94/7/4 90/9/4 102/10/4
f 91/11/5 95/12/5 93/13/5 89/14/5
f 96/5/6 92/15/6 90/16/6 94/7/6
f 93/13/4 120/17/4 97/18/4 89/19/4
f 120/17/4 119/20/4 98/21/4 97/18/4
f 119/20/4 118/22/4 99/23/4 98/21/4
f 118/22/4 117/24/4 100/25/4 99/23/4
f 117/24/4 116/26/4 101/27/4 100/25/4
f 116/26/4 115/8/4 102/10/4 101/27/4
f 96/5/6 94/7/6 125/7/6 124/5/6
f 114/28/3 113/29/3 119/20/3 120/17/3
f 113/29/3 112/30/3 118/22/3 119/20/3
f 114/28/7 120/17/7 126/17/7 121/28/7
f 111/31/3 110/32/3 116/26/3 117/24/3
f 110/32/3 109/6/3 115/8/3 116/26/3
f 91/33/2 108/34/2 114/28/2 95/12/2
f 108/34/2 107/35/2 113/29/2 114/28/2
f 107/35/2 106/36/2 112/30/2 113/29/2
f 106/36/2 105/37/2 111/31/2 112/30/2
f 105/37/2 104/38/2 110/32/2 111/31/2
f 104/38/2 103/4/2 109/6/2 110/32/2
f 89/39/1 97/40/1 108/34/1 91/33/1
f 97/40/1 98/41/1 107/35/1 108/34/1
f 98/41/1 99/42/1 106/36/1 107/35/1
f 99/42/1 100/43/1 105/37/1 106/36/1
f 100/43/1 101/44/1 104/38/1 105/37/1
f 101/44/1 102/1/1 103/4/1 104/38/1
f 128/31/6 131/24/6 143/24/6 140/31/6
f 126/17/4 123/13/4 135/13/4 138/17/4
f 125/7/4 130/8/4 142/8/4 137/7/4
f 117/24/4 118/22/4 132/22/4 131/24/4
f 95/12/2 114/28/2 121/28/2 122/12/2
f 115/8/5 109/6/5 127/6/5 130/8/5
f 94/7/4 115/8/4 130/8/4 125/7/4
f 118/22/5 112/30/5 129/30/5 132/22/5
f 112/30/2 111/31/2 128/31/2 129/30/2
f 93/13/5 95/12/5 122/12/5 123/13/5
f 109/6/2 96/5/2 124/5/2 127/6/2
f 111/31/7 117/24/7 131/24/7 128/31/7
f 139/6/3 136/5/3 137/7/3 142/8/3
f 134/12/3 133/28/3 138/17/3 135/13/3
f 141/30/3 140/31/3 143/24/3 144/22/3
f 122/12/2 121/28/2 133/28/2 134/12/2
f 131/24/4 132/22/4 144/22/4 143/24/4
f 127/6/2 124/5/2 136/5/2 139/6/2
f 142/8/4 130/8/4 131/8/4 143/8/4
f 123/13/5 122/12/5 134/12/5 135/13/5
f 121/28/6 126/17/6 138/17/6 133/28/6
f 129/30/2 128/31/2 140/31/2 141/30/2
f 124/5/6 125/7/6 137/7/6 136/5/6
f 141/30/3 144/22/3 138/22/3 133/30/3
f 139/6/3 142/8/3 143/8/3 140/6/3
f 127/6/2 139/6/2 140/6/2 128/6/2
f 130/8/1 127/6/1 128/6/1 131/8/1
f 144/22/4 132/22/4 126/22/4 138/22/4
f 132/22/1 129/30/1 121/30/1 126/22/1
f 129/30/2 141/30/2 133/30/2 121/30/2
f 158/1/1 146/2/1 148/3/1 159/4/1
f 159/4/2 148/3/2 152/5/2 165/6/2
f 167/31/6 173/24/6 187/24/6 184/31/6
f 171/8/4 150/7/4 146/9/4 158/10/4
f 147/11/5 151/12/5 149/13/5 145/14/5
f 152/5/6 148/15/6 146/16/6 150/7/6
f 149/13/4 176/17/4 153/18/4 145/19/4
f 176/17/4 175/20/4 154/21/4 153/18/4
f 175/20/4 174/22/4 155/23/4 154/21/4
f 174/22/4 173/24/4 156/25/4 155/23/4
f 173/24/4 172/26/4 157/27/4 156/25/4
f 172/26/4 171/8/4 158/10/4 157/27/4
f 165/6/2 152/5/2 180/5/2 183/6/2
f 170/28/3 169/29/3 175/20/3 176/17/3
f 169/29/3 168/30/3 174/22/3 175/20/3
f 149/13/5 151/12/5 178/12/5 179/13/5
f 167/31/3 166/32/3 172/26/3 173/24/3
f 166/32/3 165/6/3 171/8/3 172/26/3
f 147/33/2 164/34/2 170/28/2 151/12/2
f 164/34/2 163/35/2 169/29/2 170/28/2
f 163/35/2 162/36/2 168/30/2 169/29/2
f 162/36/2 161/37/2 167/31/2 168/30/2
f 161/37/2 160/38/2 166/32/2 167/31/2
f 160/38/2 159/4/2 165/6/2 166/32/2
f 145/39/1 153/40/1 164/34/1 147/33/1
f 153/40/1 154/41/1 163/35/1 164/34/1
f 154/41/1 155/42/1 162/36/1 163/35/1
f 155/42/1 156/43/1 161/37/1 162/36/1
f 156/43/1 157/44/1 160/38/1 161/37/1
f 157/44/1 158/1/1 159/4/1 160/38/1
f 183/6/3 180/5/3 181/7/3 186/8/3
f 178/12/3 177/28/3 182/17/3 179/13/3
f 185/30/3 184/31/3 187/24/3 188/22/3
f 170/28/6 176/17/6 182/17/6 177/28/6
f 152/5/6 150/7/6 181/7/6 180/5/6
f 176/17/4 149/13/4 179/13/4 182/17/4
f 173/24/4 174/22/4 188/22/4 187/24/4
f 151/12/2 170/28/2 177/28/2 178/12/2
f 171/8/5 165/6/5 183/6/5 186/8/5
f 150/7/4 171/8/4 186/8/4 181/7/4
f 174/22/5 168/30/5 185/30/5 188/22/5
f 168/30/2 167/31/2 184/31/2 185/30/2
f 202/45/8 203/46/8 198/47/8 196/48/8
f 201/49/9 202/45/9 196/48/9 194/50/9
f 200/51/10 201/49/10 194/50/10 192/52/10
f 199/53/11 200/51/11 192/52/11 190/54/11
f 190/54/12 192/52/12 191/55/12 189/56/12
f 192/52/13 194/50/13 193/57/13 191/55/13
f 194/50/14 196/48/14 195/58/14 193/57/14
f 196/48/15 198/47/15 197/59/15 195/58/15
f 217/45/16 211/48/16 213/47/16 218/46/16
f 216/49/17 209/50/17 211/48/17 217/45/17
f 215/51/18 207/52/18 209/50/18 216/49/18
f 214/53/19 205/54/19 207/52/19 215/51/19
f 205/54/20 204/56/20 206/55/20 207/52/20
f 207/52/21 206/55/21 208/57/21 209/50/21
f 209/50/22 208/57/22 210/58/22 211/48/22
f 211/48/23 210/58/23 212/59/23 213/47/23
f 195/58/6 197/59/6 212/59/6 210/58/6
f 201/49/5 200/51/5 215/51/5 216/49/5
f 189/56/6 191/55/6 206/55/6 204/56/6
f 199/53/24 190/54/24 205/54/24 214/53/24
f 202/45/5 201/49/5 216/49/5 217/45/5
f 191/55/6 193/57/6 208/57/6 206/55/6
f 198/47/25 203/46/25 218/46/25 213/47/25
f 190/54/26 189/56/26 204/56/26 205/54/26
f 203/46/5 202/45/5 217/45/5 218/46/5
f 197/59/27 198/47/27 213/47/27 212/59/27
f 193/57/6 195/58/6 210/58/6 208/57/6
f 200/51/5 199/53/5 214/53/5 215/51/5
