# Blender 4.2.3 LTS
# www.blender.org
mtllib Barel_1993.mtl
o Plaquette_1993
v -0.256000 -0.248000 -0.080000
v -0.256000 0.248000 -0.080000
v -0.256000 -0.248000 -0.160000
v -0.256000 0.248000 -0.160000
v -0.184000 -0.248000 -0.080000
v -0.184000 0.248000 -0.080000
v -0.184000 -0.248000 -0.160000
v -0.184000 0.248000 -0.160000
v -0.256000 -0.177143 -0.080000
v -0.256000 -0.106286 -0.080000
v -0.256000 -0.035429 -0.080000
v -0.256000 0.035429 -0.080000
v -0.256000 0.106286 -0.080000
v -0.256000 0.177143 -0.080000
v -0.256000 0.177143 -0.160000
v -0.256000 0.106286 -0.160000
v -0.256000 0.035429 -0.160000
v -0.256000 -0.035429 -0.160000
v -0.256000 -0.106286 -0.160000
v -0.256000 -0.177143 -0.160000
v -0.184000 0.177143 -0.160000
v -0.184000 0.106286 -0.160000
v -0.184000 0.035429 -0.160000
v -0.184000 -0.035429 -0.160000
v -0.184000 -0.106286 -0.160000
v -0.184000 -0.177143 -0.160000
v -0.184000 0.177143 -0.080000
v -0.184000 0.106286 -0.080000
v -0.184000 0.035429 -0.080000
v -0.184000 -0.035429 -0.080000
v -0.184000 -0.106286 -0.080000
v -0.184000 -0.177143 -0.080000
v -0.031000 -0.177143 -0.160000
v -0.031000 -0.248000 -0.160000
v -0.031000 -0.248000 -0.080000
v -0.031000 0.248000 -0.160000
v -0.031000 0.248000 -0.080000
v -0.031000 -0.177143 -0.080000
v -0.031000 0.177143 -0.160000
v -0.031000 0.035286 -0.160000
v -0.031000 -0.035429 -0.160000
v -0.031000 0.177143 -0.080000
v -0.031000 0.035286 -0.080000
v -0.031000 -0.035429 -0.080000
v 0.041000 -0.177143 -0.160000
v 0.041000 -0.248000 -0.160000
v 0.041000 -0.248000 -0.080000
v 0.041000 0.248000 -0.160000
v 0.041000 0.248000 -0.080000
v 0.041000 -0.177143 -0.080000
v 0.041000 0.177143 -0.160000
v 0.041000 0.035286 -0.160000
v 0.041000 -0.035429 -0.160000
v 0.041000 0.177143 -0.080000
v 0.041000 0.035286 -0.080000
v 0.041000 -0.035429 -0.080000
v 0.540000 -0.248000 -0.080000
v 0.540000 0.248000 -0.080000
v 0.540000 -0.248000 -0.160000
v 0.540000 0.248000 -0.160000
v 0.620000 -0.248000 -0.080000
v 0.620000 0.248000 -0.080000
v 0.620000 -0.248000 -0.160000
v 0.620000 0.248000 -0.160000
v 0.540000 -0.177143 -0.080000
v 0.540000 -0.106286 -0.080000
v 0.540000 -0.035429 -0.080000
v 0.540000 0.035429 -0.080000
v 0.540000 0.106286 -0.080000
v 0.540000 0.177143 -0.080000
v 0.540000 0.177143 -0.160000
v 0.540000 0.106286 -0.160000
v 0.540000 0.035429 -0.160000
v 0.540000 -0.035429 -0.160000
v 0.540000 -0.106286 -0.160000
v 0.540000 -0.177143 -0.160000
v 0.620000 0.177143 -0.160000
v 0.620000 0.106286 -0.160000
v 0.620000 0.035429 -0.160000
v 0.620000 -0.035429 -0.160000
v 0.620000 -0.106286 -0.160000
v 0.620000 -0.177143 -0.160000
v 0.620000 0.177143 -0.080000
v 0.620000 0.106286 -0.080000
v 0.620000 0.035429 -0.080000
v 0.620000 -0.035429 -0.080000
v 0.620000 -0.106286 -0.080000
v 0.620000 -0.177143 -0.080000
v 0.124000 -0.248000 -0.080000
v 0.124000 0.248000 -0.080000
v 0.124000 -0.248000 -0.160000
v 0.124000 0.248000 -0.160000
v 0.196000 -0.248000 -0.080000
v 0.196000 0.248000 -0.080000
v 0.196000 -0.248000 -0.160000
v 0.196000 0.248000 -0.160000
v 0.124000 -0.177143 -0.080000
v 0.124000 -0.106286 -0.080000
v 0.124000 -0.035429 -0.080000
v 0.124000 0.035429 -0.080000
v 0.124000 0.106286 -0.080000
v 0.124000 0.177143 -0.080000
v 0.124000 0.177143 -0.160000
v 0.124000 0.106286 -0.160000
v 0.124000 0.035429 -0.160000
v 0.124000 -0.035429 -0.160000
v 0.124000 -0.106286 -0.160000
v 0.124000 -0.177143 -0.160000
v 0.196000 0.177143 -0.160000
v 0.196000 0.106286 -0.160000
v 0.196000 0.035429 -0.160000
v 0.196000 -0.035429 -0.160000
v 0.196000 -0.106286 -0.160000
v 0.196000 -0.177143 -0.160000
v 0.196000 0.177143 -0.080000
v 0.196000 0.106286 -0.080000
v 0.196000 0.035429 -0.080000
v 0.196000 -0.035429 -0.080000
v 0.196000 -0.106286 -0.080000
v 0.196000 -0.177143 -0.080000
v 0.349000 -0.177143 -0.160000
v 0.349000 -0.248000 -0.160000
v 0.349000 -0.248000 -0.080000
v 0.349000 0.248000 -0.160000
v 0.349000 0.248000 -0.080000
v 0.349000 -0.177143 -0.080000
v 0.349000 0.177143 -0.160000
v 0.349000 0.035286 -0.160000
v 0.349000 -0.035429 -0.160000
v 0.349000 0.177143 -0.080000
v 0.349000 0.035286 -0.080000
v 0.349000 -0.035429 -0.080000
v 0.421000 -0.177143 -0.160000
v 0.421000 -0.248000 -0.160000
v 0.421000 -0.248000 -0.080000
v 0.421000 0.248000 -0.160000
v 0.421000 0.248000 -0.080000
v 0.421000 -0.177143 -0.080000
v 0.421000 0.177143 -0.160000
v 0.421000 0.035286 -0.160000
v 0.421000 -0.035429 -0.160000
v 0.421000 0.177143 -0.080000
v 0.421000 0.035286 -0.080000
v 0.421000 -0.035429 -0.080000
v -0.600000 -0.248000 -0.080000
v -0.600000 0.248000 -0.080000
v -0.600000 -0.248000 -0.160000
v -0.600000 0.248000 -0.160000
v -0.520000 -0.248000 -0.080000
v -0.520000 0.248000 -0.080000
v -0.520000 -0.248000 -0.160000
v -0.520000 0.248000 -0.160000
v -0.600000 -0.177143 -0.080000
v -0.600000 -0.106286 -0.080000
v -0.600000 -0.035429 -0.080000
v -0.600000 0.035429 -0.080000
v -0.600000 0.106286 -0.080000
v -0.600000 0.177143 -0.080000
v -0.600000 0.177143 -0.160000
v -0.600000 0.106286 -0.160000
v -0.600000 0.035429 -0.160000
v -0.600000 -0.035429 -0.160000
v -0.600000 -0.106286 -0.160000
v -0.600000 -0.177143 -0.160000
v -0.520000 0.177143 -0.160000
v -0.520000 0.106286 -0.160000
v -0.520000 0.035429 -0.160000
v -0.520000 -0.035429 -0.160000
v -0.520000 -0.106286 -0.160000
v -0.520000 -0.177143 -0.160000
v -0.520000 0.177143 -0.080000
v -0.520000 0.106286 -0.080000
v -0.520000 0.035429 -0.080000
v -0.520000 -0.035429 -0.080000
v -0.520000 -0.106286 -0.080000
v -0.520000 -0.177143 -0.080000
v -0.330000 -0.177143 -0.160000
v -0.330000 -0.248000 -0.160000
v -0.330000 -0.248000 -0.080000
v -0.330000 0.248000 -0.160000
v -0.330000 0.248000 -0.080000
v -0.330000 -0.177143 -0.080000
v -0.330000 0.177143 -0.160000
v -0.330000 0.035429 -0.160000
v -0.330000 -0.035429 -0.160000
v -0.330000 0.177143 -0.080000
v -0.330000 0.035429 -0.080000
v -0.330000 -0.035429 -0.080000
v -0.647736 0.374647 0.114174
v -0.663836 0.000000 0.072772
v -0.329492 0.374647 0.025169
v -0.337206 0.000000 -0.018579
v 0.000001 0.374647 -0.000040
v 0.000970 0.000000 -0.044452
v 0.328081 0.374647 0.039517
v 0.337695 0.000000 -0.003852
v 0.642139 0.374647 0.142319
v 0.660030 0.000000 0.101659
v -0.647736 -0.374646 0.114174
v -0.329492 -0.374646 0.025169
v 0.000001 -0.374646 -0.000040
v 0.328081 -0.374646 0.039517
v 0.642139 -0.374646 0.142319
v -0.645555 0.374647 0.014197
v -0.661655 0.000000 -0.027204
v -0.327311 0.374647 -0.074808
v -0.335025 0.000000 -0.118555
v 0.002182 0.374647 -0.100016
v 0.003151 0.000000 -0.144428
v 0.330262 0.374647 -0.060459
v 0.339877 0.000000 -0.103829
v 0.644321 0.374647 0.042343
v 0.662212 0.000000 0.001683
v -0.645555 -0.374646 0.014197
v -0.327311 -0.374646 -0.074808
v 0.002182 -0.374646 -0.100016
v 0.330262 -0.374646 -0.060459
v 0.644321 -0.374646 0.042343
vn -1.0000 -0.0000 -0.0000
vn -0.0000 -0.0000 -1.0000
vn -0.0000 -0.0000 1.0000
vn -0.0000 -1.0000 -0.0000
vn -0.0000 1.0000 -0.0000
vn 1.0000 -0.0000 -0.0000
vn 0.0009 1.0000 -0.0000
vn -0.3089 0.1172 0.9438
vn -0.1189 0.1172 0.9860
vn 0.0758 0.1172 0.9902
vn 0.2675 0.1172 0.9564
vn 0.2675 -0.1172 0.9564
vn 0.0758 -0.1172 0.9902
vn -0.1189 -0.1172 0.9860
vn -0.3089 -0.1172 0.9438
vn 0.3089 -0.1172 -0.9438
vn 0.1189 -0.1172 -0.9860
vn -0.0758 -0.1172 -0.9902
vn -0.2675 -0.1172 -0.9564
vn -0.2675 0.1172 -0.9564
vn -0.0758 0.1172 -0.9902
vn 0.1189 0.1172 -0.9860
vn 0.3089 0.1172 -0.9438
vn -0.9987 -0.0453 -0.0218
vn 0.9987 -0.0453 0.0218
vn -0.9987 0.0453 -0.0218
vn 0.9987 0.0453 0.0218
vt 0.589286 0.000000
vt 0.625000 0.000000
vt 0.625000 0.250000
vt 0.589286 0.250000
vt 0.625000 0.500000
vt 0.589286 0.500000
vt 0.410714 0.750000
vt 0.375000 0.750000
vt 0.589286 0.750000
vt 0.625000 0.750000
vt 0.625000 1.000000
vt 0.589286 1.000000
vt 0.125000 0.500000
vt 0.375000 0.500000
vt 0.125000 0.750000
vt 0.875000 0.500000
vt 0.875000 0.750000
vt 0.410714 1.000000
vt 0.375000 1.000000
vt 0.446429 0.750000
vt 0.446429 1.000000
vt 0.482143 0.750000
vt 0.482143 1.000000
vt 0.517857 0.750000
vt 0.517857 1.000000
vt 0.553571 0.750000
vt 0.553571 1.000000
vt 0.410714 0.500000
vt 0.446429 0.500000
vt 0.482143 0.500000
vt 0.517857 0.500000
vt 0.553571 0.500000
vt 0.375000 0.250000
vt 0.410714 0.250000
vt 0.446429 0.250000
vt 0.482143 0.250000
vt 0.517857 0.250000
vt 0.553571 0.250000
vt 0.375000 0.000000
vt 0.410714 0.000000
vt 0.446429 0.000000
vt 0.482143 0.000000
vt 0.517857 0.000000
vt 0.553571 0.000000
vt 0.062500 0.718750
vt 0.031250 0.718750
vt 0.031250 0.750000
vt 0.062500 0.750000
vt 0.093750 0.718750
vt 0.093750 0.750000
vt 0.125000 0.718750
vt 0.125000 0.750000
vt 0.156250 0.718750
vt 0.156250 0.750000
vt 0.125000 0.781250
vt 0.156250 0.781250
vt 0.093750 0.781250
vt 0.062500 0.781250
vt 0.031250 0.781250
s 0
usemtl 
f 14/1/1 2/2/1 4/3/1 15/4/1
f 15/4/2 4/3/2 8/5/2 21/6/2
f 32/7/3 5/8/3 35/8/3 38/7/3
f 27/9/3 6/10/3 2/11/3 14/12/3
f 3/13/4 7/14/4 5/8/4 1/15/4
f 8/5/5 4/16/5 2/17/5 6/10/5
f 5/8/3 32/7/3 9/18/3 1/19/3
f 32/7/3 31/20/3 10/21/3 9/18/3
f 31/20/3 30/22/3 11/23/3 10/21/3
f 30/22/3 29/24/3 12/25/3 11/23/3
f 29/24/3 28/26/3 13/27/3 12/25/3
f 28/26/3 27/9/3 14/12/3 13/27/3
f 8/5/5 6/10/5 37/10/5 36/5/5
f 26/28/6 25/29/6 31/20/6 32/7/6
f 25/29/6 24/30/6 30/22/6 31/20/6
f 26/28/5 32/7/5 38/7/5 33/28/5
f 23/31/6 22/32/6 28/26/6 29/24/6
f 22/32/6 21/6/6 27/9/6 28/26/6
f 3/33/2 20/34/2 26/28/2 7/14/2
f 20/34/2 19/35/2 25/29/2 26/28/2
f 19/35/2 18/36/2 24/30/2 25/29/2
f 18/36/2 17/37/2 23/31/2 24/30/2
f 17/37/2 16/38/2 22/32/2 23/31/2
f 16/38/2 15/4/2 21/6/2 22/32/2
f 1/39/1 9/40/1 20/34/1 3/33/1
f 9/40/1 10/41/1 19/35/1 20/34/1
f 10/41/1 11/42/1 18/36/1 19/35/1
f 11/42/1 12/43/1 17/37/1 18/36/1
f 12/43/1 13/44/1 16/38/1 17/37/1
f 13/44/1 14/1/1 15/4/1 16/38/1
f 40/31/5 43/24/5 55/24/5 52/31/5
f 38/7/3 35/8/3 47/8/3 50/7/3
f 37/10/3 42/9/3 54/9/3 49/10/3
f 29/24/3 30/22/3 44/22/3 43/24/3
f 7/14/2 26/28/2 33/28/2 34/14/2
f 27/9/4 21/6/4 39/6/4 42/9/4
f 6/10/3 27/9/3 42/9/3 37/10/3
f 30/22/4 24/30/4 41/30/4 44/22/4
f 24/30/2 23/31/2 40/31/2 41/30/2
f 5/8/4 7/14/4 34/14/4 35/8/4
f 21/6/2 8/5/2 36/5/2 39/6/2
f 23/31/7 29/24/7 43/24/7 40/31/7
f 51/6/6 48/5/6 49/10/6 54/9/6
f 46/14/6 45/28/6 50/7/6 47/8/6
f 53/30/6 52/31/6 55/24/6 56/22/6
f 34/14/2 33/28/2 45/28/2 46/14/2
f 43/24/3 44/22/3 56/22/3 55/24/3
f 39/6/2 36/5/2 48/5/2 51/6/2
f 54/9/3 42/9/3 43/9/3 55/9/3
f 35/8/4 34/14/4 46/14/4 47/8/4
f 33/28/5 38/7/5 50/7/5 45/28/5
f 41/30/2 40/31/2 52/31/2 53/30/2
f 36/5/5 37/10/5 49/10/5 48/5/5
f 44/22/4 41/30/4 53/30/4 56/22/4
f 51/6/6 54/9/6 55/9/6 52/6/6
f 39/6/2 51/6/2 52/6/2 40/6/2
f 42/9/1 39/6/1 40/6/1 43/9/1
f 70/1/1 58/2/1 60/3/1 71/4/1
f 71/4/2 60/3/2 64/5/2 77/6/2
f 77/6/6 64/5/6 62/10/6 83/9/6
f 83/9/3 62/10/3 58/11/3 70/12/3
f 59/13/4 63/14/4 61/8/4 57/15/4
f 64/5/5 60/16/5 58/17/5 62/10/5
f 61/8/3 88/7/3 65/18/3 57/19/3
f 88/7/3 87/20/3 66/21/3 65/18/3
f 87/20/3 86/22/3 67/23/3 66/21/3
f 86/22/3 85/24/3 68/25/3 67/23/3
f 85/24/3 84/26/3 69/27/3 68/25/3
f 84/26/3 83/9/3 70/12/3 69/27/3
f 63/14/6 82/28/6 88/7/6 61/8/6
f 82/28/6 81/29/6 87/20/6 88/7/6
f 81/29/6 80/30/6 86/22/6 87/20/6
f 80/30/6 79/31/6 85/24/6 86/22/6
f 79/31/6 78/32/6 84/26/6 85/24/6
f 78/32/6 77/6/6 83/9/6 84/26/6
f 59/33/2 76/34/2 82/28/2 63/14/2
f 76/34/2 75/35/2 81/29/2 82/28/2
f 75/35/2 74/36/2 80/30/2 81/29/2
f 74/36/2 73/37/2 79/31/2 80/30/2
f 73/37/2 72/38/2 78/32/2 79/31/2
f 72/38/2 71/4/2 77/6/2 78/32/2
f 57/39/1 65/40/1 76/34/1 59/33/1
f 65/40/1 66/41/1 75/35/1 76/34/1
f 66/41/1 67/42/1 74/36/1 75/35/1
f 67/42/1 68/43/1 73/37/1 74/36/1
f 68/43/1 69/44/1 72/38/1 73/37/1
f 69/44/1 70/1/1 71/4/1 72/38/1
f 102/1/1 90/2/1 92/3/1 103/4/1
f 103/4/2 92/3/2 96/5/2 109/6/2
f 120/7/3 93/8/3 123/8/3 126/7/3
f 115/9/3 94/10/3 90/11/3 102/12/3
f 91/13/4 95/14/4 93/8/4 89/15/4
f 96/5/5 92/16/5 90/17/5 94/10/5
f 93/8/3 120/7/3 97/18/3 89/19/3
f 120/7/3 119/20/3 98/21/3 97/18/3
f 119/20/3 118/22/3 99/23/3 98/21/3
f 118/22/3 117/24/3 100/25/3 99/23/3
f 117/24/3 116/26/3 101/27/3 100/25/3
f 116/26/3 115/9/3 102/12/3 101/27/3
f 96/5/5 94/10/5 125/10/5 124/5/5
f 114/28/6 113/29/6 119/20/6 120/7/6
f 113/29/6 112/30/6 118/22/6 119/20/6
f 114/28/5 120/7/5 126/7/5 121/28/5
f 111/31/6 110/32/6 116/26/6 117/24/6
f 110/32/6 109/6/6 115/9/6 116/26/6
f 91/33/2 108/34/2 114/28/2 95/14/2
f 108/34/2 107/35/2 113/29/2 114/28/2
f 107/35/2 106/36/2 112/30/2 113/29/2
f 106/36/2 105/37/2 111/31/2 112/30/2
f 105/37/2 104/38/2 110/32/2 111/31/2
f 104/38/2 103/4/2 109/6/2 110/32/2
f 89/39/1 97/40/1 108/34/1 91/33/1
f 97/40/1 98/41/1 107/35/1 108/34/1
f 98/41/1 99/42/1 106/36/1 107/35/1
f 99/42/1 100/43/1 105/37/1 106/36/1
f 100/43/1 101/44/1 104/38/1 105/37/1
f 101/44/1 102/1/1 103/4/1 104/38/1
f 128/31/5 131/24/5 143/24/5 140/31/5
f 126/7/3 123/8/3 135/8/3 138/7/3
f 125/10/3 130/9/3 142/9/3 137/10/3
f 117/24/3 118/22/3 132/22/3 131/24/3
f 95/14/2 114/28/2 121/28/2 122/14/2
f 115/9/4 109/6/4 127/6/4 130/9/4
f 94/10/3 115/9/3 130/9/3 125/10/3
f 118/22/4 112/30/4 129/30/4 132/22/4
f 112/30/2 111/31/2 128/31/2 129/30/2
f 93/8/4 95/14/4 122/14/4 123/8/4
f 109/6/2 96/5/2 124/5/2 127/6/2
f 111/31/7 117/24/7 131/24/7 128/31/7
f 139/6/6 136/5/6 137/10/6 142/9/6
f 134/14/6 133/28/6 138/7/6 135/8/6
f 141/30/6 140/31/6 143/24/6 144/22/6
f 122/14/2 121/28/2 133/28/2 134/14/2
f 131/24/3 132/22/3 144/22/3 143/24/3
f 127/6/2 124/5/2 136/5/2 139/6/2
f 142/9/3 130/9/3 131/9/3 143/9/3
f 123/8/4 122/14/4 134/14/4 135/8/4
f 121/28/5 126/7/5 138/7/5 133/28/5
f 129/30/2 128/31/2 140/31/2 141/30/2
f 124/5/5 125/10/5 137/10/5 136/5/5
f 132/22/4 129/30/4 141/30/4 144/22/4
f 139/6/6 142/9/6 143/9/6 140/6/6
f 127/6/2 139/6/2 140/6/2 128/6/2
f 130/9/1 127/6/1 128/6/1 131/9/1
f 158/1/1 146/2/1 148/3/1 159/4/1
f 159/4/2 148/3/2 152/5/2 165/6/2
f 167/31/5 173/24/5 187/24/5 184/31/5
f 171/9/3 150/10/3 146/11/3 158/12/3
f 147/13/4 151/14/4 149/8/4 145/15/4
f 152/5/5 148/16/5 146/17/5 150/10/5
f 149/8/3 176/7/3 153/18/3 145/19/3
f 176/7/3 175/20/3 154/21/3 153/18/3
f 175/20/3 174/22/3 155/23/3 154/21/3
f 174/22/3 173/24/3 156/25/3 155/23/3
f 173/24/3 172/26/3 157/27/3 156/25/3
f 172/26/3 171/9/3 158/12/3 157/27/3
f 165/6/2 152/5/2 180/5/2 183/6/2
f 170/28/6 169/29/6 175/20/6 176/7/6
f 169/29/6 168/30/6 174/22/6 175/20/6
f 149/8/4 151/14/4 178/14/4 179/8/4
f 167/31/6 166/32/6 172/26/6 173/24/6
f 166/32/6 165/6/6 171/9/6 172/26/6
f 147/33/2 164/34/2 170/28/2 151/14/2
f 164/34/2 163/35/2 169/29/2 170/28/2
f 163/35/2 162/36/2 168/30/2 169/29/2
f 162/36/2 161/37/2 167/31/2 168/30/2
f 161/37/2 160/38/2 166/32/2 167/31/2
f 160/38/2 159/4/2 165/6/2 166/32/2
f 145/39/1 153/40/1 164/34/1 147/33/1
f 153/40/1 154/41/1 163/35/1 164/34/1
f 154/41/1 155/42/1 162/36/1 163/35/1
f 155/42/1 156/43/1 161/37/1 162/36/1
f 156/43/1 157/44/1 160/38/1 161/37/1
f 157/44/1 158/1/1 159/4/1 160/38/1
f 183/6/6 180/5/6 181/10/6 186/9/6
f 178/14/6 177/28/6 182/7/6 179/8/6
f 185/30/6 184/31/6 187/24/6 188/22/6
f 170/28/5 176/7/5 182/7/5 177/28/5
f 152/5/5 150/10/5 181/10/5 180/5/5
f 176/7/3 149/8/3 179/8/3 182/7/3
f 173/24/3 174/22/3 188/22/3 187/24/3
f 151/14/2 170/28/2 177/28/2 178/14/2
f 171/9/4 165/6/4 183/6/4 186/9/4
f 150/10/3 171/9/3 186/9/3 181/10/3
f 174/22/4 168/30/4 185/30/4 188/22/4
f 168/30/2 167/31/2 184/31/2 185/30/2
f 202/45/8 203/46/8 198/47/8 196/48/8
f 201/49/9 202/45/9 196/48/9 194/50/9
f 200/51/10 201/49/10 194/50/10 192/52/10
f 199/53/11 200/51/11 192/52/11 190/54/11
f 190/54/12 192/52/12 191/55/12 189/56/12
f 192/52/13 194/50/13 193/57/13 191/55/13
f 194/50/14 196/48/14 195/58/14 193/57/14
f 196/48/15 198/47/15 197/59/15 195/58/15
f 217/45/16 211/48/16 213/47/16 218/46/16
f 216/49/17 209/50/17 211/48/17 217/45/17
f 215/51/18 207/52/18 209/50/18 216/49/18
f 214/53/19 205/54/19 207/52/19 215/51/19
f 205/54/20 204/56/20 206/55/20 207/52/20
f 207/52/21 206/55/21 208/57/21 209/50/21
f 209/50/22 208/57/22 210/58/22 211/48/22
f 211/48/23 210/58/23 212/59/23 213/47/23
f 195/58/5 197/59/5 212/59/5 210/58/5
f 201/49/4 200/51/4 215/51/4 216/49/4
f 189/56/5 191/55/5 206/55/5 204/56/5
f 199/53/24 190/54/24 205/54/24 214/53/24
f 202/45/4 201/49/4 216/49/4 217/45/4
f 191/55/5 193/57/5 208/57/5 206/55/5
f 198/47/25 203/46/25 218/46/25 213/47/25
f 190/54/26 189/56/26 204/56/26 205/54/26
f 203/46/4 202/45/4 217/45/4 218/46/4
f 197/59/27 198/47/27 213/47/27 212/59/27
f 193/57/5 195/58/5 210/58/5 208/57/5
f 200/51/4 199/53/4 214/53/4 215/51/4
