# Blender 4.2.3 LTS
# www.blender.org
mtllib Barel_1980.mtl
o Plaquette_1980
v -0.647736 0.374647 0.114174
v -0.663836 0.000000 0.072772
v -0.329492 0.374647 0.025169
v -0.337206 0.000000 -0.018579
v 0.000001 0.374647 -0.000040
v 0.000970 0.000000 -0.044452
v 0.328081 0.374647 0.039517
v 0.337695 0.000000 -0.003852
v 0.642139 0.374647 0.142319
v 0.660030 0.000000 0.101659
v -0.647736 -0.374647 0.114174
v -0.329492 -0.374647 0.025169
v 0.000001 -0.374647 -0.000040
v 0.328081 -0.374647 0.039517
v 0.642139 -0.374647 0.142319
v -0.645555 0.374647 0.014197
v -0.661655 0.000000 -0.027204
v -0.327311 0.374647 -0.074808
v -0.335025 0.000000 -0.118555
v 0.002182 0.374647 -0.100016
v 0.003151 0.000000 -0.144428
v 0.330262 0.374647 -0.060459
v 0.339877 0.000000 -0.103829
v 0.644321 0.374647 0.042343
v 0.662212 0.000000 0.001683
v -0.645555 -0.374647 0.014197
v -0.327311 -0.374647 -0.074808
v 0.002182 -0.374647 -0.100016
v 0.330262 -0.374647 -0.060459
v 0.644321 -0.374647 0.042343
v 0.540000 -0.268000 -0.080000
v 0.540000 0.228000 -0.080000
v 0.540000 -0.268000 -0.160000
v 0.540000 0.228000 -0.160000
v 0.620000 -0.268000 -0.080000
v 0.620000 0.228000 -0.080000
v 0.620000 -0.268000 -0.160000
v 0.620000 0.228000 -0.160000
v 0.540000 -0.197143 -0.080000
v 0.540000 -0.126286 -0.080000
v 0.540000 -0.055429 -0.080000
v 0.540000 0.015429 -0.080000
v 0.540000 0.086286 -0.080000
v 0.540000 0.157143 -0.080000
v 0.540000 0.157143 -0.160000
v 0.540000 0.086286 -0.160000
v 0.540000 0.015429 -0.160000
v 0.540000 -0.055429 -0.160000
v 0.540000 -0.126286 -0.160000
v 0.540000 -0.197143 -0.160000
v 0.620000 0.157143 -0.160000
v 0.620000 0.086286 -0.160000
v 0.620000 0.015429 -0.160000
v 0.620000 -0.055429 -0.160000
v 0.620000 -0.126286 -0.160000
v 0.620000 -0.197143 -0.160000
v 0.620000 0.157143 -0.080000
v 0.620000 0.086286 -0.080000
v 0.620000 0.015429 -0.080000
v 0.620000 -0.055429 -0.080000
v 0.620000 -0.126286 -0.080000
v 0.620000 -0.197143 -0.080000
v 0.124000 -0.268000 -0.080000
v 0.124000 0.228000 -0.080000
v 0.124000 -0.268000 -0.160000
v 0.124000 0.228000 -0.160000
v 0.196000 -0.268000 -0.080000
v 0.196000 0.228000 -0.080000
v 0.196000 -0.268000 -0.160000
v 0.196000 0.228000 -0.160000
v 0.124000 -0.197143 -0.080000
v 0.124000 -0.126286 -0.080000
v 0.124000 -0.055429 -0.080000
v 0.124000 0.015429 -0.080000
v 0.124000 0.086286 -0.080000
v 0.124000 0.157143 -0.080000
v 0.124000 0.157143 -0.160000
v 0.124000 0.086286 -0.160000
v 0.124000 0.015429 -0.160000
v 0.124000 -0.055429 -0.160000
v 0.124000 -0.126286 -0.160000
v 0.124000 -0.197143 -0.160000
v 0.196000 0.157143 -0.160000
v 0.196000 0.086286 -0.160000
v 0.196000 0.015429 -0.160000
v 0.196000 -0.055429 -0.160000
v 0.196000 -0.126286 -0.160000
v 0.196000 -0.197143 -0.160000
v 0.196000 0.157143 -0.080000
v 0.196000 0.086286 -0.080000
v 0.196000 0.015429 -0.080000
v 0.196000 -0.055429 -0.080000
v 0.196000 -0.126286 -0.080000
v 0.196000 -0.197143 -0.080000
v 0.349000 -0.197143 -0.160000
v 0.349000 -0.268000 -0.160000
v 0.349000 -0.268000 -0.080000
v 0.349000 0.228000 -0.160000
v 0.349000 0.228000 -0.080000
v 0.349000 -0.197143 -0.080000
v 0.349000 0.157143 -0.160000
v 0.349000 0.015286 -0.160000
v 0.349000 -0.055429 -0.160000
v 0.349000 0.157143 -0.080000
v 0.349000 0.015286 -0.080000
v 0.349000 -0.055429 -0.080000
v 0.421000 -0.197143 -0.160000
v 0.421000 -0.268000 -0.160000
v 0.421000 -0.268000 -0.080000
v 0.421000 0.228000 -0.160000
v 0.421000 0.228000 -0.080000
v 0.421000 -0.197143 -0.080000
v 0.421000 0.157143 -0.160000
v 0.421000 0.015286 -0.160000
v 0.421000 -0.055429 -0.160000
v 0.421000 0.157143 -0.080000
v 0.421000 0.015286 -0.080000
v 0.421000 -0.055429 -0.080000
v -0.256000 -0.268000 -0.080000
v -0.256000 0.228000 -0.080000
v -0.256000 -0.268000 -0.160000
v -0.256000 0.228000 -0.160000
v -0.184000 -0.268000 -0.080000
v -0.184000 0.228000 -0.080000
v -0.184000 -0.268000 -0.160000
v -0.184000 0.228000 -0.160000
v -0.256000 -0.197143 -0.080000
v -0.256000 -0.126286 -0.080000
v -0.256000 -0.055429 -0.080000
v -0.256000 0.015429 -0.080000
v -0.256000 0.086286 -0.080000
v -0.256000 0.157143 -0.080000
v -0.256000 0.157143 -0.160000
v -0.256000 0.086286 -0.160000
v -0.256000 0.015429 -0.160000
v -0.256000 -0.055429 -0.160000
v -0.256000 -0.126286 -0.160000
v -0.256000 -0.197143 -0.160000
v -0.184000 0.157143 -0.160000
v -0.184000 0.086286 -0.160000
v -0.184000 0.015429 -0.160000
v -0.184000 -0.055429 -0.160000
v -0.184000 -0.126286 -0.160000
v -0.184000 -0.197143 -0.160000
v -0.184000 0.157143 -0.080000
v -0.184000 0.086286 -0.080000
v -0.184000 0.015429 -0.080000
v -0.184000 -0.055429 -0.080000
v -0.184000 -0.126286 -0.080000
v -0.184000 -0.197143 -0.080000
v -0.031000 -0.197286 -0.160000
v -0.031000 -0.268000 -0.160000
v -0.031000 -0.268000 -0.080000
v -0.031000 0.228000 -0.160000
v -0.031000 0.228000 -0.080000
v -0.031000 -0.197286 -0.080000
v -0.031000 0.157143 -0.160000
v -0.031000 0.015286 -0.160000
v -0.031000 -0.055429 -0.160000
v -0.031000 0.157143 -0.080000
v -0.031000 0.015286 -0.080000
v -0.031000 -0.055429 -0.080000
v 0.041000 -0.197286 -0.160000
v 0.041000 -0.268000 -0.160000
v 0.041000 -0.268000 -0.080000
v 0.041000 0.228000 -0.160000
v 0.041000 0.228000 -0.080000
v 0.041000 -0.197286 -0.080000
v 0.041000 0.157143 -0.160000
v 0.041000 0.015286 -0.160000
v 0.041000 -0.055429 -0.160000
v 0.041000 0.157143 -0.080000
v 0.041000 0.015286 -0.080000
v 0.041000 -0.055429 -0.080000
v -0.620000 -0.268000 -0.080000
v -0.620000 0.228000 -0.080000
v -0.620000 -0.268000 -0.160000
v -0.620000 0.228000 -0.160000
v -0.540000 -0.268000 -0.080000
v -0.540000 0.228000 -0.080000
v -0.540000 -0.268000 -0.160000
v -0.540000 0.228000 -0.160000
v -0.620000 -0.197143 -0.080000
v -0.620000 -0.126286 -0.080000
v -0.620000 -0.055429 -0.080000
v -0.620000 0.015429 -0.080000
v -0.620000 0.086286 -0.080000
v -0.620000 0.157143 -0.080000
v -0.620000 0.157143 -0.160000
v -0.620000 0.086286 -0.160000
v -0.620000 0.015429 -0.160000
v -0.620000 -0.055429 -0.160000
v -0.620000 -0.126286 -0.160000
v -0.620000 -0.197143 -0.160000
v -0.540000 0.157143 -0.160000
v -0.540000 0.086286 -0.160000
v -0.540000 0.015429 -0.160000
v -0.540000 -0.055429 -0.160000
v -0.540000 -0.126286 -0.160000
v -0.540000 -0.197143 -0.160000
v -0.540000 0.157143 -0.080000
v -0.540000 0.086286 -0.080000
v -0.540000 0.015429 -0.080000
v -0.540000 -0.055429 -0.080000
v -0.540000 -0.126286 -0.080000
v -0.540000 -0.197143 -0.080000
v -0.390000 -0.197500 -0.160000
v -0.390000 -0.268000 -0.160000
v -0.390000 -0.268000 -0.080000
v -0.390000 0.228000 -0.160000
v -0.390000 0.228000 -0.080000
v -0.390000 -0.197500 -0.080000
v -0.390000 0.157143 -0.160000
v -0.390000 0.157143 -0.080000
v -0.310000 -0.197500 -0.160000
v -0.310000 -0.268000 -0.160000
v -0.310000 -0.268000 -0.080000
v -0.310000 0.228000 -0.160000
v -0.310000 0.228000 -0.080000
v -0.310000 -0.197500 -0.080000
v -0.310000 0.157143 -0.160000
v -0.310000 0.157143 -0.080000
vn -0.3089 0.1172 0.9438
vn -0.1189 0.1172 0.9860
vn 0.0758 0.1172 0.9902
vn 0.2675 0.1172 0.9564
vn 0.2675 -0.1172 0.9564
vn 0.0758 -0.1172 0.9902
vn -0.1189 -0.1172 0.9860
vn -0.3089 -0.1172 0.9438
vn 0.3089 -0.1172 -0.9438
vn 0.1189 -0.1172 -0.9860
vn -0.0758 -0.1172 -0.9902
vn -0.2675 -0.1172 -0.9564
vn -0.2675 0.1172 -0.9564
vn -0.0758 0.1172 -0.9902
vn 0.1189 0.1172 -0.9860
vn 0.3089 0.1172 -0.9438
vn -0.0000 1.0000 -0.0000
vn -0.0000 -1.0000 -0.0000
vn -0.9987 -0.0453 -0.0218
vn 0.9987 -0.0453 0.0218
vn -0.9987 0.0453 -0.0218
vn 0.9987 0.0453 0.0218
vn -1.0000 -0.0000 -0.0000
vn -0.0000 -0.0000 -1.0000
vn 1.0000 -0.0000 -0.0000
vn -0.0000 -0.0000 1.0000
vn 0.0009 1.0000 -0.0000
vn 0.0024 1.0000 -0.0000
vt 0.062500 0.718750
vt 0.031250 0.718750
vt 0.031250 0.750000
vt 0.062500 0.750000
vt 0.093750 0.718750
vt 0.093750 0.750000
vt 0.125000 0.718750
vt 0.125000 0.750000
vt 0.156250 0.718750
vt 0.156250 0.750000
vt 0.125000 0.781250
vt 0.156250 0.781250
vt 0.093750 0.781250
vt 0.062500 0.781250
vt 0.031250 0.781250
vt 0.589286 0.000000
vt 0.625000 0.000000
vt 0.625000 0.250000
vt 0.589286 0.250000
vt 0.625000 0.500000
vt 0.589286 0.500000
vt 0.625000 0.750000
vt 0.589286 0.750000
vt 0.625000 1.000000
vt 0.589286 1.000000
vt 0.125000 0.500000
vt 0.375000 0.500000
vt 0.375000 0.750000
vt 0.125000 0.750000
vt 0.875000 0.500000
vt 0.875000 0.750000
vt 0.410714 0.750000
vt 0.410714 1.000000
vt 0.375000 1.000000
vt 0.446429 0.750000
vt 0.446429 1.000000
vt 0.482143 0.750000
vt 0.482143 1.000000
vt 0.517857 0.750000
vt 0.517857 1.000000
vt 0.553571 0.750000
vt 0.553571 1.000000
vt 0.410714 0.500000
vt 0.446429 0.500000
vt 0.482143 0.500000
vt 0.517857 0.500000
vt 0.553571 0.500000
vt 0.375000 0.250000
vt 0.410714 0.250000
vt 0.446429 0.250000
vt 0.482143 0.250000
vt 0.517857 0.250000
vt 0.553571 0.250000
vt 0.375000 0.000000
vt 0.410714 0.000000
vt 0.446429 0.000000
vt 0.482143 0.000000
vt 0.517857 0.000000
vt 0.553571 0.000000
s 0
usemtl 
f 14/1/1 15/2/1 10/3/1 8/4/1
f 13/5/2 14/1/2 8/4/2 6/6/2
f 12/7/3 13/5/3 6/6/3 4/8/3
f 11/9/4 12/7/4 4/8/4 2/10/4
f 2/10/5 4/8/5 3/11/5 1/12/5
f 4/8/6 6/6/6 5/13/6 3/11/6
f 6/6/7 8/4/7 7/14/7 5/13/7
f 8/4/8 10/3/8 9/15/8 7/14/8
f 29/1/9 23/4/9 25/3/9 30/2/9
f 28/5/10 21/6/10 23/4/10 29/1/10
f 27/7/11 19/8/11 21/6/11 28/5/11
f 26/9/12 17/10/12 19/8/12 27/7/12
f 17/10/13 16/12/13 18/11/13 19/8/13
f 19/8/14 18/11/14 20/13/14 21/6/14
f 21/6/15 20/13/15 22/14/15 23/4/15
f 23/4/16 22/14/16 24/15/16 25/3/16
f 7/14/17 9/15/17 24/15/17 22/14/17
f 13/5/18 12/7/18 27/7/18 28/5/18
f 1/12/17 3/11/17 18/11/17 16/12/17
f 11/9/19 2/10/19 17/10/19 26/9/19
f 14/1/18 13/5/18 28/5/18 29/1/18
f 3/11/17 5/13/17 20/13/17 18/11/17
f 10/3/20 15/2/20 30/2/20 25/3/20
f 2/10/21 1/12/21 16/12/21 17/10/21
f 15/2/18 14/1/18 29/1/18 30/2/18
f 9/15/22 10/3/22 25/3/22 24/15/22
f 5/13/17 7/14/17 22/14/17 20/13/17
f 12/7/18 11/9/18 26/9/18 27/7/18
f 44/16/23 32/17/23 34/18/23 45/19/23
f 45/19/24 34/18/24 38/20/24 51/21/24
f 51/21/25 38/20/25 36/22/25 57/23/25
f 57/23/26 36/22/26 32/24/26 44/25/26
f 33/26/18 37/27/18 35/28/18 31/29/18
f 38/20/17 34/30/17 32/31/17 36/22/17
f 35/28/26 62/32/26 39/33/26 31/34/26
f 62/32/26 61/35/26 40/36/26 39/33/26
f 61/35/26 60/37/26 41/38/26 40/36/26
f 60/37/26 59/39/26 42/40/26 41/38/26
f 59/39/26 58/41/26 43/42/26 42/40/26
f 58/41/26 57/23/26 44/25/26 43/42/26
f 37/27/25 56/43/25 62/32/25 35/28/25
f 56/43/25 55/44/25 61/35/25 62/32/25
f 55/44/25 54/45/25 60/37/25 61/35/25
f 54/45/25 53/46/25 59/39/25 60/37/25
f 53/46/25 52/47/25 58/41/25 59/39/25
f 52/47/25 51/21/25 57/23/25 58/41/25
f 33/48/24 50/49/24 56/43/24 37/27/24
f 50/49/24 49/50/24 55/44/24 56/43/24
f 49/50/24 48/51/24 54/45/24 55/44/24
f 48/51/24 47/52/24 53/46/24 54/45/24
f 47/52/24 46/53/24 52/47/24 53/46/24
f 46/53/24 45/19/24 51/21/24 52/47/24
f 31/54/23 39/55/23 50/49/23 33/48/23
f 39/55/23 40/56/23 49/50/23 50/49/23
f 40/56/23 41/57/23 48/51/23 49/50/23
f 41/57/23 42/58/23 47/52/23 48/51/23
f 42/58/23 43/59/23 46/53/23 47/52/23
f 43/59/23 44/16/23 45/19/23 46/53/23
f 76/16/23 64/17/23 66/18/23 77/19/23
f 77/19/24 66/18/24 70/20/24 83/21/24
f 94/32/26 67/28/26 97/28/26 100/32/26
f 89/23/26 68/22/26 64/24/26 76/25/26
f 65/26/18 69/27/18 67/28/18 63/29/18
f 70/20/17 66/30/17 64/31/17 68/22/17
f 67/28/26 94/32/26 71/33/26 63/34/26
f 94/32/26 93/35/26 72/36/26 71/33/26
f 93/35/26 92/37/26 73/38/26 72/36/26
f 92/37/26 91/39/26 74/40/26 73/38/26
f 91/39/26 90/41/26 75/42/26 74/40/26
f 90/41/26 89/23/26 76/25/26 75/42/26
f 70/20/17 68/22/17 99/22/17 98/20/17
f 88/43/25 87/44/25 93/35/25 94/32/25
f 87/44/25 86/45/25 92/37/25 93/35/25
f 88/43/17 94/32/17 100/32/17 95/43/17
f 85/46/25 84/47/25 90/41/25 91/39/25
f 84/47/25 83/21/25 89/23/25 90/41/25
f 65/48/24 82/49/24 88/43/24 69/27/24
f 82/49/24 81/50/24 87/44/24 88/43/24
f 81/50/24 80/51/24 86/45/24 87/44/24
f 80/51/24 79/52/24 85/46/24 86/45/24
f 79/52/24 78/53/24 84/47/24 85/46/24
f 78/53/24 77/19/24 83/21/24 84/47/24
f 63/54/23 71/55/23 82/49/23 65/48/23
f 71/55/23 72/56/23 81/50/23 82/49/23
f 72/56/23 73/57/23 80/51/23 81/50/23
f 73/57/23 74/58/23 79/52/23 80/51/23
f 74/58/23 75/59/23 78/53/23 79/52/23
f 75/59/23 76/16/23 77/19/23 78/53/23
f 102/46/17 105/39/17 117/39/17 114/46/17
f 100/32/26 97/28/26 109/28/26 112/32/26
f 99/22/26 104/23/26 116/23/26 111/22/26
f 91/39/26 92/37/26 106/37/26 105/39/26
f 69/27/24 88/43/24 95/43/24 96/27/24
f 89/23/18 83/21/18 101/21/18 104/23/18
f 68/22/26 89/23/26 104/23/26 99/22/26
f 92/37/18 86/45/18 103/45/18 106/37/18
f 86/45/24 85/46/24 102/46/24 103/45/24
f 67/28/18 69/27/18 96/27/18 97/28/18
f 83/21/24 70/20/24 98/20/24 101/21/24
f 85/46/27 91/39/27 105/39/27 102/46/27
f 113/21/25 110/20/25 111/22/25 116/23/25
f 108/27/25 107/43/25 112/32/25 109/28/25
f 115/45/25 114/46/25 117/39/25 118/37/25
f 96/27/24 95/43/24 107/43/24 108/27/24
f 105/39/26 106/37/26 118/37/26 117/39/26
f 101/21/24 98/20/24 110/20/24 113/21/24
f 116/23/26 104/23/26 105/23/26 117/23/26
f 97/28/18 96/27/18 108/27/18 109/28/18
f 95/43/17 100/32/17 112/32/17 107/43/17
f 103/45/24 102/46/24 114/46/24 115/45/24
f 98/20/17 99/22/17 111/22/17 110/20/17
f 106/37/18 103/45/18 115/45/18 118/37/18
f 113/21/25 116/23/25 117/23/25 114/21/25
f 101/21/24 113/21/24 114/21/24 102/21/24
f 104/23/23 101/21/23 102/21/23 105/23/23
f 132/16/23 120/17/23 122/18/23 133/19/23
f 133/19/24 122/18/24 126/20/24 139/21/24
f 150/32/26 123/28/26 153/28/26 156/32/26
f 145/23/26 124/22/26 120/24/26 132/25/26
f 121/26/18 125/27/18 123/28/18 119/29/18
f 126/20/17 122/30/17 120/31/17 124/22/17
f 123/28/26 150/32/26 127/33/26 119/34/26
f 150/32/26 149/35/26 128/36/26 127/33/26
f 149/35/26 148/37/26 129/38/26 128/36/26
f 148/37/26 147/39/26 130/40/26 129/38/26
f 147/39/26 146/41/26 131/42/26 130/40/26
f 146/41/26 145/23/26 132/25/26 131/42/26
f 126/20/17 124/22/17 155/22/17 154/20/17
f 144/43/25 143/44/25 149/35/25 150/32/25
f 143/44/25 142/45/25 148/37/25 149/35/25
f 144/43/27 150/32/27 156/32/27 151/43/27
f 141/46/25 140/47/25 146/41/25 147/39/25
f 140/47/25 139/21/25 145/23/25 146/41/25
f 121/48/24 138/49/24 144/43/24 125/27/24
f 138/49/24 137/50/24 143/44/24 144/43/24
f 137/50/24 136/51/24 142/45/24 143/44/24
f 136/51/24 135/52/24 141/46/24 142/45/24
f 135/52/24 134/53/24 140/47/24 141/46/24
f 134/53/24 133/19/24 139/21/24 140/47/24
f 119/54/23 127/55/23 138/49/23 121/48/23
f 127/55/23 128/56/23 137/50/23 138/49/23
f 128/56/23 129/57/23 136/51/23 137/50/23
f 129/57/23 130/58/23 135/52/23 136/51/23
f 130/58/23 131/59/23 134/53/23 135/52/23
f 131/59/23 132/16/23 133/19/23 134/53/23
f 158/46/17 161/39/17 173/39/17 170/46/17
f 156/32/26 153/28/26 165/28/26 168/32/26
f 155/22/26 160/23/26 172/23/26 167/22/26
f 147/39/26 148/37/26 162/37/26 161/39/26
f 125/27/24 144/43/24 151/43/24 152/27/24
f 145/23/18 139/21/18 157/21/18 160/23/18
f 124/22/26 145/23/26 160/23/26 155/22/26
f 148/37/18 142/45/18 159/45/18 162/37/18
f 142/45/24 141/46/24 158/46/24 159/45/24
f 123/28/18 125/27/18 152/27/18 153/28/18
f 139/21/24 126/20/24 154/20/24 157/21/24
f 141/46/27 147/39/27 161/39/27 158/46/27
f 169/21/25 166/20/25 167/22/25 172/23/25
f 164/27/25 163/43/25 168/32/25 165/28/25
f 171/45/25 170/46/25 173/39/25 174/37/25
f 152/27/24 151/43/24 163/43/24 164/27/24
f 161/39/26 162/37/26 174/37/26 173/39/26
f 157/21/24 154/20/24 166/20/24 169/21/24
f 172/23/26 160/23/26 161/23/26 173/23/26
f 153/28/18 152/27/18 164/27/18 165/28/18
f 151/43/17 156/32/17 168/32/17 163/43/17
f 159/45/24 158/46/24 170/46/24 171/45/24
f 154/20/17 155/22/17 167/22/17 166/20/17
f 171/45/25 174/37/25 168/37/25 163/45/25
f 169/21/25 172/23/25 173/23/25 170/21/25
f 157/21/24 169/21/24 170/21/24 158/21/24
f 160/23/23 157/21/23 158/21/23 161/23/23
f 174/37/26 162/37/26 156/37/26 168/37/26
f 162/37/23 159/45/23 151/45/23 156/37/23
f 159/45/24 171/45/24 163/45/24 151/45/24
f 188/16/23 176/17/23 178/18/23 189/19/23
f 189/19/24 178/18/24 182/20/24 195/21/24
f 195/21/24 182/20/24 210/20/24 213/21/24
f 201/23/26 180/22/26 176/24/26 188/25/26
f 177/26/18 181/27/18 179/28/18 175/29/18
f 182/20/17 178/30/17 176/31/17 180/22/17
f 179/28/26 206/32/26 183/33/26 175/34/26
f 206/32/26 205/35/26 184/36/26 183/33/26
f 205/35/26 204/37/26 185/38/26 184/36/26
f 204/37/26 203/39/26 186/40/26 185/38/26
f 203/39/26 202/41/26 187/42/26 186/40/26
f 202/41/26 201/23/26 188/25/26 187/42/26
f 181/27/24 200/43/24 207/43/24 208/27/24
f 200/43/25 199/44/25 205/35/25 206/32/25
f 199/44/25 198/45/25 204/37/25 205/35/25
f 198/45/25 197/46/25 203/39/25 204/37/25
f 197/46/25 196/47/25 202/41/25 203/39/25
f 196/47/25 195/21/25 201/23/25 202/41/25
f 177/48/24 194/49/24 200/43/24 181/27/24
f 194/49/24 193/50/24 199/44/24 200/43/24
f 193/50/24 192/51/24 198/45/24 199/44/24
f 192/51/24 191/52/24 197/46/24 198/45/24
f 191/52/24 190/53/24 196/47/24 197/46/24
f 190/53/24 189/19/24 195/21/24 196/47/24
f 175/54/23 183/55/23 194/49/23 177/48/23
f 183/55/23 184/56/23 193/50/23 194/49/23
f 184/56/23 185/57/23 192/51/23 193/50/23
f 185/57/23 186/58/23 191/52/23 192/51/23
f 186/58/23 187/59/23 190/53/23 191/52/23
f 187/59/23 188/16/23 189/19/23 190/53/23
f 207/43/17 212/32/17 220/32/17 215/43/17
f 209/28/18 208/27/18 216/27/18 217/28/18
f 200/43/28 206/32/28 212/32/28 207/43/28
f 206/32/26 179/28/26 209/28/26 212/32/26
f 179/28/18 181/27/18 208/27/18 209/28/18
f 201/23/18 195/21/18 213/21/18 214/23/18
f 180/22/26 201/23/26 214/23/26 211/22/26
f 182/20/17 180/22/17 211/22/17 210/20/17
f 221/21/25 218/20/25 219/22/25 222/23/25
f 216/27/25 215/43/25 220/32/25 217/28/25
f 213/21/24 210/20/24 218/20/24 221/21/24
f 210/20/17 211/22/17 219/22/17 218/20/17
f 208/27/24 207/43/24 215/43/24 216/27/24
f 221/21/25 222/23/25 220/23/25 215/21/25
f 211/22/26 214/23/26 222/23/26 219/22/26
f 212/32/26 209/28/26 217/28/26 220/32/26
f 222/23/26 214/23/26 212/23/26 220/23/26
f 214/23/23 213/21/23 207/21/23 212/23/23
f 213/21/24 221/21/24 215/21/24 207/21/24
