# Blender 4.2.3 LTS
# www.blender.org
mtllib Barel_1939.mtl
o Plaquette_1939
v -0.647736 0.374647 0.114174
v -0.663836 0.000000 0.072772
v -0.329492 0.374647 0.025169
v -0.337206 0.000000 -0.018579
v 0.000001 0.374647 -0.000040
v 0.000970 0.000000 -0.044452
v 0.328081 0.374647 0.039517
v 0.337695 0.000000 -0.003852
v 0.642139 0.374647 0.142319
v 0.660030 0.000000 0.101659
v -0.647736 -0.374647 0.114174
v -0.329492 -0.374647 0.025169
v 0.000001 -0.374647 -0.000040
v 0.328081 -0.374647 0.039517
v 0.642139 -0.374647 0.142319
v -0.645555 0.374647 0.014197
v -0.661655 0.000000 -0.027204
v -0.327311 0.374647 -0.074808
v -0.335025 0.000000 -0.118555
v 0.002182 0.374647 -0.100016
v 0.003151 0.000000 -0.144428
v 0.330262 0.374647 -0.060459
v 0.339877 0.000000 -0.103829
v 0.644321 0.374647 0.042343
v 0.662212 0.000000 0.001683
v -0.645555 -0.374647 0.014197
v -0.327311 -0.374647 -0.074808
v 0.002182 -0.374647 -0.100016
v 0.330262 -0.374647 -0.060459
v 0.644321 -0.374647 0.042343
v -0.469841 0.250000 -0.160000
v -0.469841 -0.254000 -0.160000
v -0.469841 0.250000 -0.080000
v -0.469841 -0.254000 -0.080000
v -0.554387 0.250000 -0.160000
v -0.554387 -0.254000 -0.160000
v -0.554387 0.250000 -0.080000
v -0.554387 -0.254000 -0.080000
v -0.469841 0.178000 -0.160000
v -0.469841 0.106000 -0.160000
v -0.469841 0.034000 -0.160000
v -0.469841 -0.038000 -0.160000
v -0.469841 -0.110000 -0.160000
v -0.469841 -0.182000 -0.160000
v -0.469841 -0.182000 -0.080000
v -0.469841 -0.110000 -0.080000
v -0.469841 -0.038000 -0.080000
v -0.469841 0.034000 -0.080000
v -0.469841 0.106000 -0.080000
v -0.469841 0.178000 -0.080000
v -0.554387 -0.182000 -0.080000
v -0.554387 -0.110000 -0.080000
v -0.554387 -0.038000 -0.080000
v -0.554387 0.034000 -0.080000
v -0.554387 0.106000 -0.080000
v -0.554387 0.178000 -0.080000
v -0.554387 -0.182000 -0.160000
v -0.554387 -0.110000 -0.160000
v -0.554387 -0.038000 -0.160000
v -0.554387 0.034000 -0.160000
v -0.554387 0.106000 -0.160000
v -0.554387 0.178000 -0.160000
v -0.343023 0.250000 -0.080000
v -0.343023 0.250000 -0.160000
v -0.343023 0.178000 -0.080000
v -0.343023 0.178000 -0.160000
v -0.343023 -0.038000 -0.160000
v -0.343023 -0.038000 -0.080000
v -0.343023 0.034000 -0.080000
v -0.258478 0.250000 -0.080000
v -0.258478 0.250000 -0.160000
v -0.258478 0.178000 -0.080000
v -0.258478 0.178000 -0.160000
v -0.258478 -0.038000 -0.160000
v -0.258478 -0.038000 -0.080000
v -0.258478 0.034000 -0.080000
v -0.343023 0.034000 -0.160000
v -0.258478 0.034000 -0.160000
v -0.269046 -0.182000 -0.160000
v -0.269046 -0.254000 -0.160000
v -0.269046 -0.254000 -0.080000
v -0.269046 -0.182000 -0.080000
v 0.502432 0.250000 -0.160000
v 0.502432 -0.254000 -0.160000
v 0.502432 0.250000 -0.080000
v 0.502432 -0.254000 -0.080000
v 0.417886 0.250000 -0.160000
v 0.417886 -0.254000 -0.160000
v 0.417886 0.250000 -0.080000
v 0.417886 -0.254000 -0.080000
v 0.502432 0.178000 -0.160000
v 0.502432 0.106000 -0.160000
v 0.502432 0.034000 -0.160000
v 0.502432 -0.038000 -0.160000
v 0.502432 -0.110000 -0.160000
v 0.502432 -0.182000 -0.160000
v 0.502432 -0.182000 -0.080000
v 0.502432 -0.110000 -0.080000
v 0.502432 -0.038000 -0.080000
v 0.502432 0.034000 -0.080000
v 0.502432 0.106000 -0.080000
v 0.502432 0.178000 -0.080000
v 0.417886 -0.182000 -0.080000
v 0.417886 -0.110000 -0.080000
v 0.417886 -0.038000 -0.080000
v 0.417886 0.034000 -0.080000
v 0.417886 0.106000 -0.080000
v 0.417886 0.178000 -0.080000
v 0.417886 -0.182000 -0.160000
v 0.417886 -0.110000 -0.160000
v 0.417886 -0.038000 -0.160000
v 0.417886 0.034000 -0.160000
v 0.417886 0.106000 -0.160000
v 0.417886 0.178000 -0.160000
v 0.174818 0.250000 -0.160000
v 0.174818 -0.254000 -0.160000
v 0.174818 0.250000 -0.080000
v 0.174818 -0.254000 -0.080000
v 0.090273 0.250000 -0.160000
v 0.090273 -0.254000 -0.160000
v 0.090273 0.250000 -0.080000
v 0.090273 -0.254000 -0.080000
v 0.174818 0.178000 -0.160000
v 0.174818 0.106000 -0.160000
v 0.174818 0.034000 -0.160000
v 0.174818 -0.038000 -0.160000
v 0.174818 -0.110000 -0.160000
v 0.174818 -0.182000 -0.160000
v 0.174818 -0.182000 -0.080000
v 0.174818 -0.110000 -0.080000
v 0.174818 -0.038000 -0.080000
v 0.174818 0.034000 -0.080000
v 0.174818 0.106000 -0.080000
v 0.174818 0.178000 -0.080000
v 0.090273 -0.182000 -0.080000
v 0.090273 -0.110000 -0.080000
v 0.090273 -0.038000 -0.080000
v 0.090273 0.034000 -0.080000
v 0.090273 0.106000 -0.080000
v 0.090273 0.178000 -0.080000
v 0.090273 -0.182000 -0.160000
v 0.090273 -0.110000 -0.160000
v 0.090273 -0.038000 -0.160000
v 0.090273 0.034000 -0.160000
v 0.090273 0.106000 -0.160000
v 0.090273 0.178000 -0.160000
v 0.301637 0.250000 -0.080000
v 0.301637 0.250000 -0.160000
v 0.301637 0.178000 -0.080000
v 0.301637 0.178000 -0.160000
v 0.301637 0.034000 -0.160000
v 0.301637 -0.038000 -0.160000
v 0.301637 -0.038000 -0.080000
v 0.386182 0.250000 -0.080000
v 0.386182 0.250000 -0.160000
v 0.386182 0.178000 -0.080000
v 0.386182 0.178000 -0.160000
v 0.386182 0.034000 -0.160000
v 0.386182 -0.038000 -0.160000
v 0.386182 -0.038000 -0.080000
v 0.386182 0.034000 -0.080000
v 0.301637 0.034000 -0.080000
v 0.375614 -0.182000 -0.160000
v 0.375614 -0.254000 -0.160000
v 0.375614 -0.254000 -0.080000
v 0.375614 -0.182000 -0.080000
v -0.142227 0.250000 -0.160000
v -0.142227 -0.254000 -0.160000
v -0.142227 0.250000 -0.080000
v -0.142227 -0.254000 -0.080000
v -0.226773 0.250000 -0.160000
v -0.226773 -0.254000 -0.160000
v -0.226773 0.250000 -0.080000
v -0.226773 -0.254000 -0.080000
v -0.142227 0.178000 -0.160000
v -0.142227 0.106000 -0.160000
v -0.142227 0.034000 -0.160000
v -0.142227 -0.038000 -0.160000
v -0.142227 -0.110000 -0.160000
v -0.142227 -0.182000 -0.160000
v -0.142227 -0.182000 -0.080000
v -0.142227 -0.110000 -0.080000
v -0.142227 -0.038000 -0.080000
v -0.142227 0.034000 -0.080000
v -0.142227 0.106000 -0.080000
v -0.142227 0.178000 -0.080000
v -0.226773 -0.182000 -0.080000
v -0.226773 -0.110000 -0.080000
v -0.226773 -0.038000 -0.080000
v -0.226773 0.034000 -0.080000
v -0.226773 0.106000 -0.080000
v -0.226773 0.178000 -0.080000
v -0.226773 -0.182000 -0.160000
v -0.226773 -0.110000 -0.160000
v -0.226773 -0.038000 -0.160000
v -0.226773 0.034000 -0.160000
v -0.226773 0.106000 -0.160000
v -0.226773 0.178000 -0.160000
v 0.048000 0.250000 -0.080000
v 0.048000 0.250000 -0.160000
v 0.048000 -0.182000 -0.160000
v 0.048000 -0.254000 -0.160000
v 0.048000 -0.254000 -0.080000
v 0.048000 0.178000 -0.080000
v 0.048000 0.178000 -0.160000
v 0.048000 0.034000 -0.160000
v 0.048000 -0.038000 -0.160000
v 0.048000 -0.182000 -0.080000
v 0.048000 -0.038000 -0.080000
v 0.048000 0.034000 -0.080000
v -0.469841 -0.182000 -0.260000
v -0.469841 -0.254000 -0.260000
v -0.554387 0.178000 -0.260000
v -0.554387 0.250000 -0.260000
v -0.469841 0.250000 -0.260000
v -0.554387 -0.254000 -0.260000
v -0.469841 0.178000 -0.260000
v -0.469841 0.106000 -0.260000
v -0.469841 0.034000 -0.260000
v -0.469841 -0.038000 -0.260000
v -0.469841 -0.110000 -0.260000
v -0.554387 -0.182000 -0.260000
v -0.554387 -0.110000 -0.260000
v -0.554387 -0.038000 -0.260000
v -0.554387 0.034000 -0.260000
v -0.554387 0.106000 -0.260000
v -0.343023 0.250000 -0.260000
v -0.343023 0.178000 -0.260000
v -0.343023 -0.038000 -0.260000
v -0.258478 0.250000 -0.260000
v -0.258478 0.178000 -0.260000
v -0.258478 -0.038000 -0.260000
v -0.343023 0.034000 -0.260000
v -0.258478 0.034000 -0.260000
v -0.269046 -0.182000 -0.260000
v -0.269046 -0.254000 -0.260000
v 0.502432 -0.182000 -0.260000
v 0.502432 -0.254000 -0.260000
v 0.417886 0.178000 -0.260000
v 0.417886 0.250000 -0.260000
v 0.502432 0.250000 -0.260000
v 0.417886 -0.254000 -0.260000
v 0.502432 0.178000 -0.260000
v 0.502432 0.106000 -0.260000
v 0.502432 0.034000 -0.260000
v 0.502432 -0.038000 -0.260000
v 0.502432 -0.110000 -0.260000
v 0.417886 -0.182000 -0.260000
v 0.417886 -0.110000 -0.260000
v 0.417886 -0.038000 -0.260000
v 0.417886 0.034000 -0.260000
v 0.417886 0.106000 -0.260000
v 0.174818 -0.182000 -0.260000
v 0.174818 -0.254000 -0.260000
v 0.090273 0.178000 -0.260000
v 0.090273 0.250000 -0.260000
v 0.174818 0.250000 -0.260000
v 0.090273 -0.254000 -0.260000
v 0.174818 0.178000 -0.260000
v 0.174818 0.106000 -0.260000
v 0.174818 0.034000 -0.260000
v 0.174818 -0.038000 -0.260000
v 0.174818 -0.110000 -0.260000
v 0.090273 -0.182000 -0.260000
v 0.090273 -0.110000 -0.260000
v 0.090273 -0.038000 -0.260000
v 0.090273 0.034000 -0.260000
v 0.090273 0.106000 -0.260000
v 0.301637 0.250000 -0.260000
v 0.301637 0.178000 -0.260000
v 0.301637 0.034000 -0.260000
v 0.301637 -0.038000 -0.260000
v 0.386182 0.250000 -0.260000
v 0.386182 0.178000 -0.260000
v 0.386182 0.034000 -0.260000
v 0.386182 -0.038000 -0.260000
v 0.375614 -0.182000 -0.260000
v 0.375614 -0.254000 -0.260000
v -0.142227 -0.182000 -0.260000
v -0.142227 -0.254000 -0.260000
v -0.226773 0.178000 -0.260000
v -0.226773 0.250000 -0.260000
v -0.142227 0.250000 -0.260000
v -0.226773 -0.254000 -0.260000
v -0.142227 0.178000 -0.260000
v -0.142227 0.106000 -0.260000
v -0.142227 0.034000 -0.260000
v -0.142227 -0.038000 -0.260000
v -0.142227 -0.110000 -0.260000
v -0.226773 -0.182000 -0.260000
v -0.226773 -0.110000 -0.260000
v -0.226773 -0.038000 -0.260000
v -0.226773 0.034000 -0.260000
v -0.226773 0.106000 -0.260000
v 0.048000 -0.182000 -0.260000
v 0.048000 -0.254000 -0.260000
v 0.048000 0.250000 -0.260000
v 0.048000 0.178000 -0.260000
v 0.048000 0.034000 -0.260000
v 0.048000 -0.038000 -0.260000
vn -0.3089 0.1172 0.9438
vn -0.1189 0.1172 0.9860
vn 0.0758 0.1172 0.9902
vn 0.2675 0.1172 0.9564
vn 0.2675 -0.1172 0.9564
vn 0.0758 -0.1172 0.9902
vn -0.1189 -0.1172 0.9860
vn -0.3089 -0.1172 0.9438
vn 0.3089 -0.1172 -0.9438
vn 0.1189 -0.1172 -0.9860
vn -0.0758 -0.1172 -0.9902
vn -0.2675 -0.1172 -0.9564
vn -0.2675 0.1172 -0.9564
vn -0.0758 0.1172 -0.9902
vn 0.1189 0.1172 -0.9860
vn 0.3089 0.1172 -0.9438
vn -0.0000 1.0000 -0.0000
vn -0.0000 -1.0000 -0.0000
vn -0.9987 -0.0453 -0.0218
vn 0.9987 -0.0453 0.0218
vn -0.9987 0.0453 -0.0218
vn 0.9987 0.0453 0.0218
vn -0.0000 -0.0000 1.0000
vn -1.0000 -0.0000 -0.0000
vn 1.0000 -0.0000 -0.0000
vn -0.0000 -0.0000 -1.0000
vt 0.062500 0.718750
vt 0.031250 0.718750
vt 0.031250 0.750000
vt 0.062500 0.750000
vt 0.093750 0.718750
vt 0.093750 0.750000
vt 0.125000 0.718750
vt 0.125000 0.750000
vt 0.156250 0.718750
vt 0.156250 0.750000
vt 0.125000 0.781250
vt 0.156250 0.781250
vt 0.093750 0.781250
vt 0.062500 0.781250
vt 0.031250 0.781250
vt 0.875000 0.750000
vt 0.875000 0.500000
vt 0.589286 0.250000
vt 0.589286 0.500000
vt 0.625000 0.500000
vt 0.625000 0.250000
vt 0.589286 0.750000
vt 0.625000 0.750000
vt 0.517857 0.750000
vt 0.482143 0.750000
vt 0.125000 0.500000
vt 0.125000 0.750000
vt 0.375000 0.750000
vt 0.375000 0.500000
vt 0.446429 0.000000
vt 0.482143 0.000000
vt 0.553571 0.750000
vt 0.517857 0.000000
vt 0.410714 0.750000
vt 0.410714 0.500000
vt 0.446429 0.750000
vt 0.446429 0.500000
vt 0.482143 0.500000
vt 0.517857 0.500000
vt 0.553571 0.500000
vt 0.375000 0.250000
vt 0.410714 0.250000
vt 0.446429 0.250000
vt 0.482143 0.250000
vt 0.517857 0.250000
vt 0.553571 0.250000
vt 0.410714 0.000000
vt 0.553571 0.000000
vt 0.589286 0.000000
vt 0.375000 0.000000
vt 0.625000 0.000000
vt 0.589286 1.000000
vt 0.625000 1.000000
vt 0.375000 1.000000
vt 0.410714 1.000000
vt 0.446429 1.000000
vt 0.482143 1.000000
vt 0.517857 1.000000
vt 0.553571 1.000000
s 0
usemtl 
f 14/1/1 15/2/1 10/3/1 8/4/1
f 13/5/2 14/1/2 8/4/2 6/6/2
f 12/7/3 13/5/3 6/6/3 4/8/3
f 11/9/4 12/7/4 4/8/4 2/10/4
f 2/10/5 4/8/5 3/11/5 1/12/5
f 4/8/6 6/6/6 5/13/6 3/11/6
f 6/6/7 8/4/7 7/14/7 5/13/7
f 8/4/8 10/3/8 9/15/8 7/14/8
f 29/1/9 23/4/9 25/3/9 30/2/9
f 28/5/10 21/6/10 23/4/10 29/1/10
f 27/7/11 19/8/11 21/6/11 28/5/11
f 26/9/12 17/10/12 19/8/12 27/7/12
f 17/10/13 16/12/13 18/11/13 19/8/13
f 19/8/14 18/11/14 20/13/14 21/6/14
f 21/6/15 20/13/15 22/14/15 23/4/15
f 23/4/16 22/14/16 24/15/16 25/3/16
f 7/14/17 9/15/17 24/15/17 22/14/17
f 13/5/18 12/7/18 27/7/18 28/5/18
f 1/12/17 3/11/17 18/11/17 16/12/17
f 11/9/19 2/10/19 17/10/19 26/9/19
f 14/1/18 13/5/18 28/5/18 29/1/18
f 3/11/17 5/13/17 20/13/17 18/11/17
f 10/3/20 15/2/20 30/2/20 25/3/20
f 2/10/21 1/12/21 16/12/21 17/10/21
f 15/2/18 14/1/18 29/1/18 30/2/18
f 9/15/22 10/3/22 25/3/22 24/15/22
f 5/13/17 7/14/17 22/14/17 20/13/17
f 12/7/18 11/9/18 26/9/18 27/7/18
f 32/16/18 80/16/18 81/17/18 34/17/18
f 45/18/23 51/19/23 38/20/23 34/21/23
f 51/19/24 57/22/24 36/23/24 38/20/24
f 59/24/24 60/25/24 225/25/24 224/24/24
f 33/26/17 31/27/17 35/28/17 37/29/17
f 38/20/18 36/23/18 32/16/18 34/17/18
f 143/24/24 144/25/24 267/25/24 266/24/24
f 92/30/25 93/31/25 245/31/25 244/30/25
f 176/30/25 177/31/25 287/31/25 286/30/25
f 58/32/24 59/24/24 224/24/24 223/32/24
f 142/32/24 143/24/24 266/24/24 265/32/24
f 74/33/18 67/33/18 229/33/18 232/33/18
f 37/29/24 35/28/24 62/34/24 56/35/24
f 56/35/24 62/34/24 61/36/24 55/37/24
f 55/37/24 61/36/24 60/25/24 54/38/24
f 54/38/24 60/25/24 59/24/24 53/39/24
f 53/39/24 59/24/24 58/32/24 52/40/24
f 52/40/24 58/32/24 57/22/24 51/19/24
f 33/41/23 37/29/23 56/35/23 50/42/23
f 50/42/23 56/35/23 55/37/23 49/43/23
f 49/43/23 55/37/23 54/38/23 48/44/23
f 48/44/23 54/38/23 53/39/23 47/45/23
f 47/45/23 53/39/23 52/40/23 46/46/23
f 46/46/23 52/40/23 51/19/23 45/18/23
f 33/26/17 63/26/17 64/27/17 31/27/17
f 39/47/25 50/42/25 49/43/25 40/30/25
f 40/30/25 49/43/25 48/44/25 41/31/25
f 42/33/18 67/33/18 68/45/18 47/45/18
f 42/33/25 47/45/25 46/46/25 43/48/25
f 43/48/25 46/46/25 45/18/25 44/49/25
f 68/45/23 75/45/23 76/44/23 69/44/23
f 69/44/17 76/44/17 78/31/17 77/31/17
f 50/42/23 65/42/23 63/41/23 33/41/23
f 48/44/17 69/44/17 77/31/17 41/31/17
f 91/47/25 92/30/25 244/30/25 243/47/25
f 39/47/18 66/47/18 65/42/18 50/42/18
f 47/45/23 68/45/23 69/44/23 48/44/23
f 148/27/17 155/27/17 273/27/17 269/27/17
f 71/50/25 70/41/25 72/42/25 73/47/25
f 78/31/25 76/44/25 75/45/25 74/33/25
f 175/47/25 176/30/25 286/30/25 285/47/25
f 63/26/17 70/26/17 71/27/17 64/27/17
f 67/33/18 74/33/18 75/45/18 68/45/18
f 65/42/23 69/42/23 76/42/23 72/42/23
f 57/22/24 58/32/24 223/32/24 222/22/24
f 65/42/23 72/42/23 70/41/23 63/41/23
f 66/47/24 77/47/24 69/42/24 65/42/24
f 141/22/24 142/32/24 265/32/24 264/22/24
f 72/42/25 76/42/25 78/47/25 73/47/25
f 79/49/25 82/18/25 81/21/25 80/51/25
f 34/21/23 81/21/23 82/18/23 45/18/23
f 206/31/25 207/33/25 300/33/25 299/31/25
f 45/18/17 82/18/17 79/49/17 44/49/17
f 96/49/25 97/18/25 86/21/25 84/51/25
f 97/18/23 103/19/23 90/20/23 86/21/23
f 103/19/24 109/22/24 88/23/24 90/20/24
f 83/50/25 91/47/25 243/47/25 241/50/25
f 85/26/17 83/27/17 87/28/17 89/29/17
f 90/20/18 88/23/18 84/16/18 86/17/18
f 36/23/24 57/22/24 222/22/24 216/23/24
f 120/23/24 141/22/24 264/22/24 258/23/24
f 200/50/25 205/47/25 298/47/25 297/50/25
f 64/27/17 71/27/17 230/27/17 227/27/17
f 84/16/18 88/23/18 242/23/18 238/16/18
f 168/16/18 172/23/18 284/23/18 280/16/18
f 89/29/24 87/28/24 114/34/24 108/35/24
f 108/35/24 114/34/24 113/36/24 107/37/24
f 107/37/24 113/36/24 112/25/24 106/38/24
f 106/38/24 112/25/24 111/24/24 105/39/24
f 105/39/24 111/24/24 110/32/24 104/40/24
f 104/40/24 110/32/24 109/22/24 103/19/24
f 85/41/23 89/29/23 108/35/23 102/42/23
f 102/42/23 108/35/23 107/37/23 101/43/23
f 101/43/23 107/37/23 106/38/23 100/44/23
f 100/44/23 106/38/23 105/39/23 99/45/23
f 99/45/23 105/39/23 104/40/23 98/46/23
f 98/46/23 104/40/23 103/19/23 97/18/23
f 83/50/25 85/41/25 102/42/25 91/47/25
f 91/47/25 102/42/25 101/43/25 92/30/25
f 92/30/25 101/43/25 100/44/25 93/31/25
f 93/31/25 100/44/25 99/45/25 94/33/25
f 94/33/25 99/45/25 98/46/25 95/48/25
f 95/48/25 98/46/25 97/18/25 96/49/25
f 116/16/18 164/16/18 165/17/18 118/17/18
f 129/18/23 135/19/23 122/20/23 118/21/23
f 135/19/24 141/22/24 120/23/24 122/20/24
f 87/28/17 83/27/17 241/27/17 240/28/17
f 117/26/17 115/27/17 119/28/17 121/29/17
f 122/20/18 120/23/18 116/16/18 118/17/18
f 171/28/17 167/27/17 283/27/17 282/28/17
f 114/34/24 87/28/24 240/28/24 239/34/24
f 113/36/24 114/34/24 239/34/24 252/36/24
f 198/34/24 171/28/24 282/28/24 281/34/24
f 197/36/24 198/34/24 281/34/24 294/36/24
f 201/49/25 202/51/25 296/51/25 295/49/25
f 121/29/24 119/28/24 146/34/24 140/35/24
f 140/35/24 146/34/24 145/36/24 139/37/24
f 139/37/24 145/36/24 144/25/24 138/38/24
f 138/38/24 144/25/24 143/24/24 137/39/24
f 137/39/24 143/24/24 142/32/24 136/40/24
f 136/40/24 142/32/24 141/22/24 135/19/24
f 117/41/23 121/29/23 140/35/23 134/42/23
f 134/42/23 140/35/23 139/37/23 133/43/23
f 133/43/23 139/37/23 138/38/23 132/44/23
f 132/44/23 138/38/23 137/39/23 131/45/23
f 131/45/23 137/39/23 136/40/23 130/46/23
f 130/46/23 136/40/23 135/19/23 129/18/23
f 117/26/17 147/26/17 148/27/17 115/27/17
f 123/47/25 134/42/25 133/43/25 124/30/25
f 124/30/25 133/43/25 132/44/25 125/31/25
f 126/33/18 152/33/18 153/45/18 131/45/18
f 126/33/25 131/45/25 130/46/25 127/48/25
f 127/48/25 130/46/25 129/18/25 128/49/25
f 153/45/23 160/45/23 161/44/23 162/44/23
f 162/44/17 161/44/17 158/31/17 151/31/17
f 134/42/23 149/42/23 147/41/23 117/41/23
f 132/44/17 162/44/17 151/31/17 125/31/17
f 78/31/25 74/33/25 232/33/25 234/31/25
f 123/47/18 150/47/18 149/42/18 134/42/18
f 131/45/23 153/45/23 162/44/23 132/44/23
f 112/25/24 113/36/24 252/36/24 251/25/24
f 155/50/25 154/41/25 156/42/25 157/47/25
f 158/31/25 161/44/25 160/45/25 159/33/25
f 196/25/24 197/36/24 294/36/24 293/25/24
f 147/26/17 154/26/17 155/27/17 148/27/17
f 152/33/18 159/33/18 160/45/18 153/45/18
f 149/42/23 162/42/23 161/42/23 156/42/23
f 41/31/17 77/31/17 233/31/17 219/31/17
f 149/42/23 156/42/23 154/41/23 147/41/23
f 150/47/24 151/47/24 162/42/24 149/42/24
f 111/24/24 112/25/24 251/25/24 250/24/24
f 156/42/25 161/42/25 158/47/25 157/47/25
f 163/49/25 166/18/25 165/21/25 164/51/25
f 118/21/23 165/21/23 166/18/23 129/18/23
f 195/24/24 196/25/24 293/25/24 292/24/24
f 129/18/17 166/18/17 163/49/17 128/49/17
f 186/42/23 204/42/23 199/41/23 169/41/23
f 181/18/23 187/19/23 174/20/23 170/21/23
f 187/19/24 193/22/24 172/23/24 174/20/24
f 110/32/24 111/24/24 250/24/24 249/32/24
f 169/26/17 167/27/17 171/28/17 173/29/17
f 174/20/18 172/23/18 168/16/18 170/17/18
f 194/32/24 195/24/24 292/24/24 291/32/24
f 158/31/25 159/33/25 276/33/25 275/31/25
f 109/22/24 110/32/24 249/32/24 248/22/24
f 193/22/24 194/32/24 291/32/24 290/22/24
f 71/50/25 73/47/25 231/47/25 230/50/25
f 177/31/17 206/31/17 299/31/17 287/31/17
f 173/29/24 171/28/24 198/34/24 192/35/24
f 192/35/24 198/34/24 197/36/24 191/37/24
f 191/37/24 197/36/24 196/25/24 190/38/24
f 190/38/24 196/25/24 195/24/24 189/39/24
f 189/39/24 195/24/24 194/32/24 188/40/24
f 188/40/24 194/32/24 193/22/24 187/19/24
f 169/41/23 173/29/23 192/35/23 186/42/23
f 186/42/23 192/35/23 191/37/23 185/43/23
f 185/43/23 191/37/23 190/38/23 184/44/23
f 184/44/23 190/38/23 189/39/23 183/45/23
f 183/45/23 189/39/23 188/40/23 182/46/23
f 182/46/23 188/40/23 187/19/23 181/18/23
f 175/47/18 205/47/18 204/42/18 186/42/18
f 175/47/25 186/42/25 185/43/25 176/30/25
f 176/30/25 185/43/25 184/44/25 177/31/25
f 178/33/18 207/33/18 209/45/18 183/45/18
f 178/33/25 183/45/25 182/46/25 179/48/25
f 179/48/25 182/46/25 181/18/25 180/49/25
f 201/49/25 208/18/25 203/21/25 202/51/25
f 200/50/25 199/41/25 204/42/25 205/47/25
f 206/31/25 210/44/25 209/45/25 207/33/25
f 169/26/17 199/26/17 200/27/17 167/27/17
f 183/45/23 209/45/23 210/44/23 184/44/23
f 155/50/25 157/47/25 274/47/25 273/50/25
f 170/21/23 203/21/23 208/18/23 181/18/23
f 181/18/17 208/18/17 201/49/17 180/49/17
f 88/23/24 109/22/24 248/22/24 242/23/24
f 184/44/17 210/44/17 206/31/17 177/31/17
f 172/23/24 193/22/24 290/22/24 284/23/24
f 168/16/18 202/16/18 203/17/18 170/17/18
f 222/22/26 211/52/26 212/53/26 216/23/26
f 214/28/26 215/54/26 217/55/26 213/34/26
f 213/34/26 217/55/26 218/56/26 226/36/26
f 226/36/26 218/56/26 219/57/26 225/25/26
f 225/25/26 219/57/26 220/58/26 224/24/26
f 224/24/26 220/58/26 221/59/26 223/32/26
f 223/32/26 221/59/26 211/52/26 222/22/26
f 215/54/26 227/54/26 228/55/26 217/55/26
f 219/57/26 233/57/26 229/58/26 220/58/26
f 227/54/26 230/54/26 231/55/26 228/55/26
f 233/57/26 234/57/26 232/58/26 229/58/26
f 231/55/26 234/55/26 233/55/26 228/55/26
f 211/52/26 235/52/26 236/53/26 212/53/26
f 248/22/26 237/52/26 238/53/26 242/23/26
f 240/28/26 241/54/26 243/55/26 239/34/26
f 239/34/26 243/55/26 244/56/26 252/36/26
f 252/36/26 244/56/26 245/57/26 251/25/26
f 251/25/26 245/57/26 246/58/26 250/24/26
f 250/24/26 246/58/26 247/59/26 249/32/26
f 249/32/26 247/59/26 237/52/26 248/22/26
f 264/22/26 253/52/26 254/53/26 258/23/26
f 256/28/26 257/54/26 259/55/26 255/34/26
f 255/34/26 259/55/26 260/56/26 268/36/26
f 268/36/26 260/56/26 261/57/26 267/25/26
f 267/25/26 261/57/26 262/58/26 266/24/26
f 266/24/26 262/58/26 263/59/26 265/32/26
f 265/32/26 263/59/26 253/52/26 264/22/26
f 257/54/26 269/54/26 270/55/26 259/55/26
f 261/57/26 271/57/26 272/58/26 262/58/26
f 269/54/26 273/54/26 274/55/26 270/55/26
f 271/57/26 275/57/26 276/58/26 272/58/26
f 274/55/26 275/55/26 271/55/26 270/55/26
f 253/52/26 277/52/26 278/53/26 254/53/26
f 290/22/26 279/52/26 280/53/26 284/23/26
f 282/28/26 283/54/26 285/55/26 281/34/26
f 281/34/26 285/55/26 286/56/26 294/36/26
f 294/36/26 286/56/26 287/57/26 293/25/26
f 293/25/26 287/57/26 288/58/26 292/24/26
f 292/24/26 288/58/26 289/59/26 291/32/26
f 291/32/26 289/59/26 279/52/26 290/22/26
f 279/52/26 295/52/26 296/53/26 280/53/26
f 287/57/26 299/57/26 300/58/26 288/58/26
f 283/54/26 297/54/26 298/55/26 285/55/26
f 159/33/18 152/33/18 272/33/18 276/33/18
f 93/31/25 94/33/25 246/33/25 245/31/25
f 144/25/24 145/36/24 268/36/24 267/25/24
f 60/25/24 61/36/24 226/36/24 225/25/24
f 178/33/25 179/48/25 289/48/25 288/33/25
f 94/33/25 95/48/25 247/48/25 246/33/25
f 77/47/24 66/47/24 228/47/24 233/47/24
f 145/36/24 146/34/24 255/34/24 268/36/24
f 61/36/24 62/34/24 213/34/24 226/36/24
f 146/34/24 119/28/24 256/28/24 255/34/24
f 179/48/25 180/49/25 279/49/25 289/48/25
f 62/34/24 35/28/24 214/28/24 213/34/24
f 95/48/25 96/49/25 237/49/25 247/48/25
f 151/47/24 150/47/24 270/47/24 271/47/24
f 73/47/25 78/47/25 234/47/25 231/47/25
f 119/28/17 115/27/17 257/27/17 256/28/17
f 35/28/17 31/27/17 215/27/17 214/28/17
f 163/49/25 164/51/25 278/51/25 277/49/25
f 157/47/25 158/47/25 275/47/25 274/47/25
f 79/49/25 80/51/25 236/51/25 235/49/25
f 116/16/18 120/23/18 258/23/18 254/16/18
f 32/16/18 36/23/18 216/23/18 212/16/18
f 207/33/18 178/33/18 288/33/18 300/33/18
f 123/47/25 124/30/25 260/30/25 259/47/25
f 39/47/25 40/30/25 218/30/25 217/47/25
f 124/30/25 125/31/25 261/31/25 260/30/25
f 40/30/25 41/31/25 219/31/25 218/30/25
f 152/33/18 126/33/18 262/33/18 272/33/18
f 205/47/18 175/47/18 285/47/18 298/47/18
f 67/33/18 42/33/18 220/33/18 229/33/18
f 164/16/18 116/16/18 254/16/18 278/16/18
f 115/27/17 148/27/17 269/27/17 257/27/17
f 80/16/18 32/16/18 212/16/18 236/16/18
f 31/27/17 64/27/17 227/27/17 215/27/17
f 126/33/25 127/48/25 263/48/25 262/33/25
f 42/33/25 43/48/25 221/48/25 220/33/25
f 167/27/17 200/27/17 297/27/17 283/27/17
f 127/48/25 128/49/25 253/49/25 263/48/25
f 43/48/25 44/49/25 211/49/25 221/48/25
f 128/49/17 163/49/17 277/49/17 253/49/17
f 44/49/17 79/49/17 235/49/17 211/49/17
f 125/31/17 151/31/17 271/31/17 261/31/17
f 202/16/18 168/16/18 280/16/18 296/16/18
f 150/47/18 123/47/18 259/47/18 270/47/18
f 96/49/25 84/51/25 238/51/25 237/49/25
f 180/49/17 201/49/17 295/49/17 279/49/17
f 66/47/18 39/47/18 217/47/18 228/47/18
