# Blender 4.2.3 LTS
# www.blender.org
mtllib Beak_duck.mtl
o bec
v -13.021134 7.165277 -0.439019
v -12.474869 10.955357 0.465983
v -12.499606 8.634083 0.087777
v -16.596540 6.373863 0.352394
v -14.475252 6.638480 0.087777
v -14.335760 8.493181 4.976985
v -14.032907 10.986689 1.440297
v -16.596540 8.370510 5.358643
v -16.596540 10.776798 2.013247
v -13.225745 10.593111 1.011209
v -12.470482 9.776361 0.270016
v -12.760370 7.899680 -0.175621
v -15.535896 6.506172 0.220085
v -13.748194 6.901878 -0.175621
v -14.198400 9.722196 3.221051
v -15.466150 8.431847 5.167813
v -15.328791 10.864004 1.739182
v -16.596540 9.573654 3.685945
v -13.417683 8.563632 2.532381
v -13.654661 10.699805 1.259764
v -16.596540 7.372187 2.855518
v -14.405506 7.565831 2.532380
v -12.811457 10.682849 0.732470
v -15.501023 7.469009 2.693949
v -13.582938 7.732755 1.178379
v -15.397470 9.647924 3.453497
v -20.171946 7.165277 -0.439019
v -20.718212 10.955357 0.465983
v -20.693474 8.634083 0.087777
v -18.717829 6.638480 0.087777
v -18.857319 8.493181 4.976985
v -19.160173 10.986689 1.440297
v -19.967335 10.593111 1.011209
v -20.722599 9.776361 0.270016
v -20.432709 7.899680 -0.175621
v -17.657185 6.506172 0.220085
v -19.444887 6.901878 -0.175621
v -18.994678 9.722196 3.221051
v -17.726931 8.431847 5.167813
v -17.864288 10.864004 1.739182
v -19.775396 8.563632 2.532381
v -19.538418 10.699805 1.259764
v -18.787573 7.565831 2.532380
v -20.381622 10.682849 0.732470
v -17.692057 7.469009 2.693949
v -19.610142 7.732755 1.178379
v -17.795610 9.647924 3.453497
vn 0.0662 0.8113 0.5808
vn 0.6840 -0.6772 0.2711
vn 0.8421 0.2686 0.4678
vn 0.1231 -0.9236 0.3631
vn 0.1471 -0.9206 0.3617
vn 0.1462 -0.9244 0.3522
vn 0.1219 -0.9273 0.3538
vn 0.5504 -0.7701 0.3224
vn 0.6372 -0.6309 0.4427
vn 0.7756 -0.5433 0.3215
vn 0.0583 0.8118 0.5810
vn 0.0575 0.8145 0.5773
vn 0.0595 0.8122 0.5804
vn -0.0662 0.8113 0.5808
vn -0.6840 -0.6772 0.2711
vn -0.8421 0.2686 0.4678
vn -0.1231 -0.9236 0.3631
vn -0.1471 -0.9206 0.3617
vn -0.1462 -0.9244 0.3522
vn -0.1219 -0.9273 0.3538
vn -0.5504 -0.7701 0.3224
vn -0.6372 -0.6309 0.4427
vn -0.7756 -0.5433 0.3215
vn -0.0583 0.8118 0.5810
vn -0.0575 0.8145 0.5773
vn -0.0595 0.8122 0.5804
vt 0.468750 0.843750
vt 0.500000 0.843750
vt 0.500000 0.875000
vt 0.468750 0.875000
vt 0.406250 0.781250
vt 0.437500 0.781250
vt 0.437500 0.812500
vt 0.406250 0.812500
vt 0.437500 0.750000
vt 0.468750 0.750000
vt 0.500000 0.750000
vt 0.500000 0.765625
vt 0.500000 0.781250
vt 0.500000 0.796875
vt 0.500000 0.812500
vt 0.468750 0.812500
vt 0.406250 0.843750
vt 0.437500 0.843750
vt 0.437500 0.875000
vt 0.406250 0.875000
vt 0.375000 0.843750
vt 0.375000 0.875000
vt 0.375000 0.812500
vt 0.375000 0.781250
vt 0.375000 0.750000
vt 0.406250 0.750000
s 0
f 26/1/1 17/2/1 9/3/1 18/4/1
f 25/5/2 19/6/2 6/7/2 22/8/2
f 3/9/3 11/10/3 2/11/3 23/12/3 10/13/3 20/14/3 7/15/3 15/16/3 6/7/3 19/6/3
f 24/17/4 16/18/4 8/19/4 21/20/4
f 13/21/5 24/17/5 21/20/5 4/22/5
f 5/23/6 22/8/6 24/17/6 13/21/6
f 22/8/7 6/7/7 16/18/7 24/17/7
f 14/24/8 25/5/8 22/8/8 5/23/8
f 1/25/9 12/26/9 25/5/9 14/24/9
f 12/26/10 3/9/10 19/6/10 25/5/10
f 16/18/11 26/1/11 18/4/11 8/19/11
f 6/7/12 15/16/12 26/1/12 16/18/12
f 15/16/13 7/15/13 17/2/13 26/1/13
f 47/1/14 18/4/14 9/3/14 40/2/14
f 46/5/15 43/8/15 31/7/15 41/6/15
f 29/9/16 41/6/16 31/7/16 38/16/16 32/15/16 42/14/16 33/13/16 44/12/16 28/11/16 34/10/16
f 45/17/17 21/20/17 8/19/17 39/18/17
f 36/21/18 4/22/18 21/20/18 45/17/18
f 30/23/19 36/21/19 45/17/19 43/8/19
f 43/8/20 45/17/20 39/18/20 31/7/20
f 37/24/21 30/23/21 43/8/21 46/5/21
f 27/25/22 37/24/22 46/5/22 35/26/22
f 35/26/23 46/5/23 41/6/23 29/9/23
f 39/18/24 8/19/24 18/4/24 47/1/24
f 31/7/25 39/18/25 47/1/25 38/16/25
f 38/16/26 47/1/26 40/2/26 32/15/26
