# Blender 4.2.3 LTS
# www.blender.org
mtllib Body_duck.mtl
o body
v -12.900469 12.945421 -7.070532
v -15.648716 14.819005 -7.214791
v -12.950355 12.389157 0.400637
v -12.825577 10.730325 0.655530
v -13.188442 7.224844 -0.110959
v -15.764452 6.556896 0.567863
v -13.555725 14.406277 -0.380796
v -11.122242 9.483032 -2.355711
v -14.256283 10.758808 1.541270
v -14.381061 12.417641 1.286377
v -12.591657 11.553842 0.344641
v -14.614981 11.594123 1.597266
v -13.515088 10.401011 1.151190
v -13.691550 12.746955 0.790717
v -12.634901 11.106498 0.461289
v -16.609848 8.747483 -8.751464
v -15.211148 11.917289 -8.822762
v -11.506002 9.654744 -5.734953
v -11.470634 12.830918 -2.447713
v -12.387754 14.403514 -4.445370
v -14.571737 12.041467 1.480617
v -16.614147 10.553723 2.002402
v -13.908951 10.498006 1.377149
v -14.071980 12.665375 1.044116
v -15.802277 5.169328 -1.691263
v -14.223061 6.874697 -7.089750
v -17.557369 15.748543 -5.681885
v -15.578422 16.023523 -2.152293
v -12.702430 12.004251 0.323342
v -14.504208 11.143713 1.618564
v -13.134658 10.482591 0.897790
v -13.297688 12.649960 0.564757
v -12.735971 6.392792 -4.452724
v -12.791739 9.525451 -7.653964
v -18.997740 14.207349 -7.143701
v -20.501316 7.456318 -6.348159
v -21.248352 13.713743 -1.752651
v -20.270445 12.389157 0.400637
v -20.395222 10.730325 0.655530
v -18.964516 10.758808 1.541270
v -18.839739 12.417641 1.286377
v -20.629143 11.553842 0.344641
v -18.605820 11.594123 1.597266
v -19.705711 10.401011 1.151190
v -19.529249 12.746955 0.790717
v -17.558901 6.537686 -7.456620
v -20.585899 11.106499 0.461289
v -22.148758 10.360336 -4.492897
v -18.649063 12.041467 1.480617
v -16.637997 12.758128 1.667232
v -19.311850 10.498006 1.377149
v -19.148819 12.665375 1.044116
v -20.518370 12.004252 0.323343
v -18.716591 11.143713 1.618564
v -20.086142 10.482591 0.897790
v -19.923113 12.649960 0.564757
v -20.792774 14.444124 -4.432143
v -17.585567 14.660602 0.469875
v -18.816608 15.726213 -2.972199
v -20.275188 6.203473 -2.381991
v -20.020889 7.235660 -0.115657
v -21.976772 9.012871 -2.125667
v -20.445915 11.562968 -7.673045
v -18.914284 9.935548 -8.566727
v -14.891624 5.222909 -3.539923
v -18.221924 5.170647 -3.258072
v -17.367893 5.093095 -5.020037
v -11.796374 4.557504 -5.820936
v -12.855854 -4.641497 -1.118783
v -19.250044 -4.636082 0.456859
v -24.531479 -0.168838 -7.343296
v -16.610399 -0.022458 -9.994380
v -9.841219 -0.022458 -8.702366
v -19.640942 4.537415 -13.394665
v -16.610399 -4.582458 -14.653055
v -19.614025 -4.581276 -13.406984
v -16.610399 -0.022458 -16.834381
v -12.634901 11.106498 0.461289
v -12.825577 10.730325 0.655530
v -14.571737 12.041467 1.480617
v -14.381061 12.417641 1.286377
v -13.908951 10.498006 1.377149
v -14.256283 10.758808 1.541270
v -14.071980 12.665375 1.044116
v -12.702430 12.004251 0.323342
v -12.591657 11.553842 0.344641
v -14.504208 11.143713 1.618564
v -14.614981 11.594123 1.597266
v -13.134658 10.482591 0.897790
v -13.515088 10.401011 1.151190
v -13.297688 12.649960 0.564757
v -13.691550 12.746955 0.790717
v -12.950355 12.389157 0.400637
v -13.753126 11.512012 1.076723
v -20.585899 11.106499 0.461289
v -20.395222 10.730325 0.655530
v -18.649063 12.041467 1.480617
v -18.839739 12.417641 1.286377
v -19.311850 10.498006 1.377149
v -18.964516 10.758808 1.541270
v -19.148819 12.665375 1.044116
v -20.518370 12.004252 0.323343
v -20.629143 11.553842 0.344641
v -18.716591 11.143713 1.618564
v -18.605820 11.594123 1.597266
v -20.086142 10.482591 0.897790
v -19.705711 10.401011 1.151190
v -19.923113 12.649960 0.564757
v -19.529249 12.746955 0.790717
v -20.270445 12.389157 0.400637
v -19.510664 11.440631 1.064249
v -21.771545 4.531700 -6.124600
v -9.605539 -0.044827 -8.078592
v -16.610399 1.573543 3.093581
v -10.114614 0.121346 -3.133887
v -16.610399 4.537542 -14.653054
v -11.868845 -0.066073 -14.868563
v -13.585025 -4.581579 -13.361987
v -13.603229 4.531212 -13.403396
v -14.852156 4.732889 0.579677
v -19.948029 4.516274 -0.458270
v -12.040409 -4.578964 -6.711275
v -12.007701 1.548365 1.196192
v -21.365398 1.440726 1.100635
v -21.393003 0.149749 -14.841721
v -22.013279 -4.576326 -6.733654
vn 0.7488 -0.4672 -0.4702
vn 0.8903 0.1119 0.4415
vn 0.8112 -0.5529 0.1905
vn -0.0000 1.0000 -0.0000
vn 0.5213 -0.8264 0.2127
vn 0.5323 0.8327 0.1524
vn 0.5079 0.7071 -0.4920
vn 0.2736 0.9349 -0.2262
vn 0.2196 0.5716 0.7906
vn 0.7792 0.4156 0.4692
vn 0.7167 -0.4922 -0.4941
vn 0.9400 0.2403 -0.2423
vn 0.5513 0.1573 -0.8193
vn 0.3765 0.4918 -0.7851
vn 0.3019 -0.1544 -0.9408
vn -0.2240 0.2987 -0.9277
vn -0.8961 0.1072 0.4307
vn -0.1526 0.1508 0.9767
vn -0.2087 -0.8810 0.4247
vn -0.4683 0.7978 -0.3797
vn -0.5987 0.7927 0.1143
vn -0.4523 0.7934 0.4074
vn -0.1725 0.9218 0.3471
vn -0.1508 0.7508 -0.6430
vn -0.2187 0.4394 0.8713
vn -0.7963 -0.5117 0.3224
vn 0.2458 -0.4490 -0.8591
vn -0.7069 0.4894 -0.5107
vn -0.8458 -0.1534 -0.5109
vn -0.8994 -0.4048 -0.1651
vn -0.6573 -0.2233 -0.7198
vn -0.0745 0.0105 -0.9972
vn -0.1028 0.9903 -0.0934
vn -0.3713 -0.2247 0.9009
vn -0.8389 0.4980 0.2196
vn -0.3529 -0.3905 -0.8503
vn 0.5213 0.1678 0.8367
vn -0.5213 0.1678 0.8367
vn 0.9148 0.3958 0.0809
vn -0.1753 0.6709 0.7205
vn 0.0001 -1.0000 0.0004
vn 0.3536 0.4037 -0.8438
vn -0.0003 -1.0000 0.0006
vn 0.3470 -0.4047 -0.8460
vn 0.8391 -0.2876 0.4617
vn -0.8411 -0.4364 0.3196
vn 0.0010 1.0000 0.0026
vn 0.8123 -0.5174 -0.2692
vn -0.7845 0.5398 -0.3054
vn 0.0827 0.9927 -0.0883
vn 0.9119 0.2564 -0.3205
vn 0.8137 -0.2033 0.5445
vn 0.1504 0.1532 0.9767
vn 0.4632 0.4995 0.7321
vn 0.2923 -0.8980 -0.3289
vn 0.3082 0.9245 -0.2242
vn 0.1682 0.8161 0.5529
vn 0.3374 -0.8047 0.4886
vn 0.5401 -0.8058 0.2427
vn 0.1419 -0.8466 -0.5130
vn 0.2926 -0.8620 -0.4139
vn 0.2021 0.5918 0.7804
vn 0.9115 -0.3922 -0.1234
vn 0.7107 0.6733 0.2038
vn 0.8208 0.1213 -0.5581
vn 0.9892 0.1000 -0.1073
vn -0.2743 -0.3958 -0.8764
vn -0.8837 0.2988 -0.3602
vn -0.7875 -0.2121 0.5787
vn -0.5197 -0.8239 -0.2260
vn -0.4994 0.5951 0.6296
vn -0.0837 0.9960 -0.0307
vn -0.4300 0.8821 -0.1926
vn -0.2677 -0.8190 0.5075
vn 0.2614 0.9588 0.1115
vn -0.4144 -0.7967 -0.4399
vn -0.2650 -0.8734 0.4085
vn -0.8545 -0.5074 -0.1115
vn -0.9787 0.1397 0.1506
vn -0.9460 0.3152 -0.0749
vn -0.4329 -0.4313 -0.7916
vn -0.2239 0.3077 -0.9247
vn -0.1044 0.4700 -0.8765
vn -0.2383 0.9679 0.0793
vn -0.0957 0.9761 0.1953
vn 0.2720 -0.4219 0.8649
vn 0.0659 0.9784 -0.1960
vn -0.3371 0.5446 0.7680
vn -0.0074 0.9992 0.0386
vn 0.3572 -0.4150 -0.8368
vn 0.7719 0.5755 0.2701
vn 0.3521 0.4022 -0.8452
vn 0.3401 0.4623 0.8189
vn -0.3427 0.4099 -0.8453
vn -0.0001 -1.0000 0.0007
vn -0.7908 -0.5005 -0.3523
vn 0.0010 1.0000 -0.0037
vn -0.0014 -1.0000 -0.0094
vn -0.8582 0.4320 0.2774
vn 0.8851 -0.4507 0.1157
vn -0.3645 -0.4018 -0.8400
vn 0.8528 0.4622 -0.2430
vn -0.8576 -0.3395 0.3863
vn 0.8898 -0.4071 -0.2065
vn -0.8562 -0.4152 -0.3075
vn -0.8666 0.4297 -0.2536
vn -0.1180 0.9924 -0.0338
vt 0.473237 0.562554
vt 0.369781 0.594145
vt 0.467560 0.491840
vt 0.546875 0.750000
vt 0.531250 0.750000
vt 0.515625 0.750000
vt 0.500000 0.750000
vt 0.470140 0.654769
vt 0.561482 0.653740
vt 0.562500 0.750000
vt 0.376183 0.749377
vt 0.500000 0.765625
vt 0.277544 0.675878
vt 0.726228 0.657228
vt 0.648287 0.723343
vt 0.617720 0.592849
vt 0.562500 0.781250
vt 0.562500 0.765625
vt 0.500000 0.796875
vt 0.500000 0.812500
vt 0.562500 0.796875
vt 0.562500 0.812500
vt 0.515625 0.812500
vt 0.500000 0.781250
vt 0.531250 0.812500
vt 0.546875 0.812500
vt 0.580370 0.499882
vt 0.718839 0.509994
vt 0.722627 0.562474
vt 0.625155 0.753314
vt 0.562461 0.875942
vt 0.375010 0.455307
vt 0.534932 0.414805
vt 0.624999 0.406079
vt 0.448513 0.374987
vt 0.481458 0.437466
vt 0.532151 0.492720
vt 0.586305 0.682201
vt 0.458346 0.660975
vt 0.500000 0.873151
vt 0.276164 0.749984
vt 0.375533 0.750032
vt 0.362495 0.655364
vt 0.669693 0.500010
vt 0.617392 0.594890
vt 0.687476 0.638816
vt 0.719862 0.749830
vt 0.625057 0.844759
vt 0.375038 0.404461
vt 0.401660 0.528863
vt 0.500019 0.596208
vt 0.273286 0.569021
vt 0.281273 0.594250
vt 0.293501 0.626537
vt 0.285089 0.660089
vt 0.272977 0.654615
vt 0.242187 0.656250
vt 0.285102 0.590327
vt 0.281336 0.656336
vt 0.284794 0.590206
vt 0.250000 0.593750
vt 0.281250 0.593750
vt 0.529297 0.786133
vt 0.527344 0.785156
vt 0.281663 0.604430
vt 0.281250 0.625000
vt 0.285170 0.589830
vt 0.266273 0.656255
vt 0.000000 0.000000
vt 0.284931 0.590069
vt 0.242187 0.593750
vt 0.281363 0.593637
vt 0.285150 0.660150
vt 0.281250 0.646032
vt 0.281294 0.593706
vt 0.281244 0.593758
vt 0.281228 0.593772
vt 0.330554 0.499892
vt 0.296771 0.624948
vt 0.279462 0.500000
vt 0.625108 0.455554
vt 0.242188 0.593750
vt 0.285156 0.589844
vt 0.281250 0.593750
s 0
f 18/1/1 33/2/1 34/3/1
f 29/4/2 11/5/2 15/6/2 4/7/2 8/8/2 19/9/2 3/10/2
f 8/8/3 5/11/3 33/2/3
f 39/7/4 106/12/4 96/7/4
f 33/2/5 5/11/5 25/13/5
f 28/14/6 7/15/6 20/16/6
f 45/17/4 108/18/4 109/17/4
f 51/19/4 100/20/4 99/19/4
f 24/21/4 81/22/4 84/21/4
f 4/7/4 78/6/4 79/7/4
f 40/20/4 104/23/4 100/20/4
f 55/12/4 107/24/4 106/12/4
f 9/20/4 82/19/4 83/20/4
f 38/10/4 102/4/4 110/10/4
f 54/23/4 105/25/4 104/23/4
f 3/10/4 91/18/4 93/10/4
f 53/4/4 103/5/4 102/4/4
f 43/25/4 97/26/4 105/25/4
f 1/27/7 2/28/7 20/16/7
f 2/28/8 27/29/8 28/14/8
f 7/30/9 50/31/9 10/22/9
f 31/12/4 79/7/4 89/12/4
f 21/26/4 88/25/4 80/26/4
f 30/23/4 83/20/4 87/23/4
f 19/9/10 7/15/10 3/10/10
f 26/32/11 34/3/11 33/2/11
f 20/16/12 19/9/12 18/1/12
f 17/33/13 1/27/13 34/3/13
f 17/33/14 2/34/14 1/27/14
f 17/33/15 34/3/15 16/35/15
f 64/36/16 63/37/16 17/33/16
f 47/6/17 42/5/17 53/4/17 38/10/17 37/38/17 62/39/17 39/7/17
f 43/25/18 54/23/18 40/20/18 22/40/18 50/31/18 41/22/18 49/26/18
f 42/5/4 95/6/4 103/5/4
f 6/41/19 61/42/19 60/43/19
f 27/29/20 35/44/20 57/45/20
f 37/38/21 59/46/21 57/45/21
f 49/26/4 98/22/4 97/26/4
f 32/18/4 92/17/4 91/18/4
f 29/4/4 93/10/4 85/4/4
f 13/24/4 89/12/4 90/24/4
f 47/6/4 96/7/4 95/6/4
f 12/25/4 87/23/4 88/25/4
f 10/22/4 80/26/4 81/22/4
f 11/5/4 85/4/4 86/5/4
f 14/17/4 84/21/4 92/17/4
f 15/6/4 86/5/4 78/6/4
f 52/21/4 109/17/4 101/21/4
f 23/19/4 90/24/4 82/19/4
f 37/38/22 58/47/22 59/46/22
f 58/47/23 28/14/23 59/46/23
f 35/44/24 27/29/24 2/28/24
f 50/31/25 58/48/25 41/22/25
f 44/24/4 99/19/4 107/24/4
f 56/18/4 110/10/4 108/18/4
f 41/22/4 101/21/4 98/22/4
f 60/43/26 61/42/26 62/39/26
f 26/32/27 46/49/27 16/35/27 34/3/27
f 57/45/28 35/44/28 63/37/28
f 36/50/29 48/51/29 63/37/29
f 36/50/30 62/39/30 48/51/30
f 36/50/31 63/37/31 64/36/31
f 64/36/32 17/33/32 16/35/32
f 67/52/33 112/53/33 66/54/33
f 124/55/34 70/56/34 114/57/34
f 71/58/35 124/55/35 121/59/35
f 125/60/36 75/61/36 76/62/36
f 85/4/37 94/63/37 86/5/37
f 89/12/37 94/63/37 90/24/37
f 94/63/37 82/19/37 90/24/37
f 94/63/37 80/26/37 88/25/37
f 111/64/38 102/4/38 103/5/38
f 95/6/38 111/64/38 103/5/38
f 99/19/38 111/64/38 107/24/38
f 111/64/38 101/21/38 109/17/38
f 68/65/39 115/66/39 113/67/39
f 121/59/40 114/57/40 120/68/40
f 75/69/41 118/69/41 122/69/41
f 116/61/42 117/70/42 77/71/42
f 75/69/43 122/72/43 126/69/43
f 117/70/44 75/61/44 77/71/44
f 115/66/45 123/73/45 69/74/45
f 71/58/46 126/75/46 70/56/46
f 74/76/47 119/77/47 116/61/47
f 113/67/48 122/72/48 117/70/48
f 71/58/49 112/53/49 125/60/49
f 67/52/50 68/65/50 74/76/50
f 1/27/51 20/16/51 18/1/51
f 8/8/52 4/7/52 5/11/52
f 12/25/53 21/26/53 10/22/53 50/31/53 22/40/53 9/20/53 30/23/53
f 39/7/4 55/12/4 106/12/4
f 24/21/54 14/17/54 32/18/54 3/10/54 7/30/54 10/22/54
f 26/78/55 33/2/55 67/52/55
f 45/17/4 56/18/4 108/18/4
f 51/19/4 40/20/4 100/20/4
f 24/21/4 10/22/4 81/22/4
f 4/7/4 15/6/4 78/6/4
f 40/20/4 54/23/4 104/23/4
f 55/12/4 44/24/4 107/24/4
f 9/20/4 23/19/4 82/19/4
f 38/10/4 53/4/4 102/4/4
f 54/23/4 43/25/4 105/25/4
f 3/10/4 32/18/4 91/18/4
f 53/4/4 42/5/4 103/5/4
f 43/25/4 49/26/4 97/26/4
f 20/16/56 2/28/56 28/14/56
f 28/14/57 58/47/57 7/15/57
f 25/13/58 5/11/58 6/41/58
f 65/79/59 33/2/59 25/13/59
f 46/80/60 26/78/60 67/52/60
f 67/52/61 33/2/61 65/79/61
f 7/30/62 58/48/62 50/31/62
f 31/12/4 4/7/4 79/7/4
f 21/26/4 12/25/4 88/25/4
f 30/23/4 9/20/4 83/20/4
f 33/2/63 18/1/63 8/8/63
f 19/9/64 20/16/64 7/15/64
f 34/3/65 1/27/65 18/1/65
f 18/1/66 19/9/66 8/8/66
f 46/49/67 64/36/67 16/35/67
f 48/51/68 57/45/68 63/37/68
f 61/42/69 39/7/69 62/39/69
f 42/5/4 47/6/4 95/6/4
f 36/50/70 67/52/70 66/54/70 60/43/70
f 45/17/71 52/21/71 41/22/71 58/48/71 37/38/71 38/10/71 56/18/71
f 59/46/72 28/14/72 27/29/72
f 49/26/4 41/22/4 98/22/4
f 32/18/4 14/17/4 92/17/4
f 29/4/4 3/10/4 93/10/4
f 13/24/4 31/12/4 89/12/4
f 47/6/4 39/7/4 96/7/4
f 12/25/4 30/23/4 87/23/4
f 10/22/4 21/26/4 80/26/4
f 11/5/4 29/4/4 85/4/4
f 14/17/4 24/21/4 84/21/4
f 15/6/4 11/5/4 86/5/4
f 52/21/4 45/17/4 109/17/4
f 23/19/4 13/24/4 90/24/4
f 27/29/73 57/45/73 59/46/73
f 25/13/74 6/41/74 60/43/74
f 68/65/75 65/79/75 25/13/75 120/68/75
f 67/52/76 36/50/76 46/80/76
f 66/54/77 25/13/77 60/43/77
f 44/24/4 51/19/4 99/19/4
f 56/18/4 38/10/4 110/10/4
f 41/22/4 52/21/4 101/21/4
f 36/50/78 60/43/78 62/39/78
f 48/51/79 62/39/79 37/38/79
f 48/51/80 37/38/80 57/45/80
f 46/49/81 36/50/81 64/36/81
f 17/33/82 63/37/82 35/81/82
f 17/33/83 35/81/83 2/34/83
f 66/54/84 112/53/84 121/59/84
f 120/68/85 25/13/85 66/54/85 121/59/85
f 69/74/86 123/73/86 114/57/86 70/56/86
f 65/79/87 68/65/87 67/52/87
f 81/22/37 80/26/37 94/63/37 84/21/37
f 121/59/88 124/55/88 114/57/88
f 72/82/89 113/83/89 73/83/89
f 117/70/90 118/84/90 75/61/90
f 94/63/37 85/4/37 93/10/37 91/18/37
f 94/63/37 88/25/37 87/23/37
f 91/18/37 92/17/37 94/63/37
f 94/63/37 89/12/37 79/7/37 78/6/37
f 83/20/37 82/19/37 94/63/37 87/23/37
f 78/6/37 86/5/37 94/63/37
f 98/22/38 101/21/38 111/64/38 97/26/38
f 94/63/37 92/17/37 84/21/37
f 110/10/38 102/4/38 111/64/38 108/18/38
f 104/23/38 105/25/38 111/64/38
f 111/64/38 109/17/38 108/18/38
f 111/64/38 95/6/38 96/7/38 106/12/38
f 106/12/38 107/24/38 111/64/38
f 111/64/38 99/19/38 100/20/38 104/23/38
f 123/73/91 115/66/91 68/65/91 120/68/91
f 111/64/38 105/25/38 97/26/38
f 119/77/92 117/70/92 116/61/92
f 120/68/93 114/57/93 123/73/93
f 77/71/94 125/60/94 74/76/94 116/61/94
f 75/69/95 126/69/95 76/69/95
f 71/58/96 125/60/96 126/75/96
f 74/76/97 68/65/97 119/77/97
f 122/72/98 69/74/98 70/56/98 126/75/98
f 112/53/99 71/58/99 121/59/99
f 122/72/100 113/67/100 115/66/100 69/74/100
f 77/71/101 75/61/101 125/60/101
f 119/77/102 68/65/102 113/67/102 117/70/102
f 71/58/103 70/56/103 124/55/103
f 117/70/104 122/72/104 118/84/104
f 126/75/105 125/60/105 76/62/105
f 125/60/106 112/53/106 74/76/106
f 67/52/107 74/76/107 112/53/107
