# Blender 4.2.3 LTS
# www.blender.org
mtllib Turnstile.mtl
o Tourniquet
v 0.021147 0.200800 -0.849937
v 0.634214 0.200800 -0.597410
v 0.597410 -0.000800 -0.634214
v 0.849937 -0.000800 -0.021147
v 0.849937 0.200800 0.021147
v 0.597410 0.200800 0.634214
v 0.634214 -0.000800 0.597410
v 0.021147 -0.000800 0.849937
v -0.021147 0.200800 0.849937
v -0.634214 0.200800 0.597410
v -0.597410 -0.000800 0.634214
v -0.849937 -0.000800 0.021147
v -0.849937 0.200800 -0.021147
v -0.597410 0.200800 -0.634214
v -0.634214 -0.000800 -0.597410
v -0.021147 -0.000800 -0.849937
v 0.167425 0.197440 -0.622659
v 0.622659 0.338560 -0.167425
v 0.622659 0.197440 0.167425
v 0.167425 0.338560 0.622659
v 0.075812 0.197440 0.596816
v -0.368405 0.197440 0.475620
v -0.622659 0.338560 0.167425
v -0.622659 0.197440 -0.167425
v -0.167425 0.338560 -0.622659
v -0.101370 4.454147 -6.998859
v -0.065000 0.027298 -7.042690
v 0.103652 0.027298 -6.989585
v 0.072615 4.458644 -7.033992
v 0.065000 0.027298 -6.817312
v -0.103652 0.027298 -6.870417
v -0.083827 4.470612 -6.834185
v -0.098619 4.456900 7.005679
v -0.136377 0.027298 6.893459
v 0.112687 0.027298 6.864999
v 0.022815 4.454795 6.805836
v 0.039867 0.027298 7.047786
v 0.054556 4.457090 7.036521
v 0.087947 4.466180 -6.836728
v 0.119945 4.611286 6.831638
v -0.032702 4.684965 6.832877
v 0.060577 4.674637 -6.815811
v -0.109744 4.515273 6.857130
v -0.062508 4.677944 -6.814507
v 6.908784 0.027298 -0.125422
v 6.904341 4.473578 -0.123754
v 7.006958 0.027298 0.044853
v 7.001790 4.457595 0.036496
v 6.765729 0.027298 0.070593
v -7.047680 4.456900 -0.098618
v -7.037002 0.027298 -0.112689
v -6.848173 0.027298 -0.028796
v -6.847837 4.454795 0.022816
v -7.020929 0.027298 0.129974
v -7.078522 4.457091 0.054557
v 6.772481 4.455368 -0.022060
v 6.816851 4.498468 0.116006
v -6.873639 4.611286 0.119946
v -6.874878 4.684965 -0.032701
v 6.773810 4.674637 0.060577
v -6.899130 4.515273 -0.109743
v 6.772506 4.677944 -0.062508
v -0.246960 0.225535 0.246960
v -0.246960 5.854465 0.246960
v -0.246960 0.225535 -0.246960
v -0.246960 5.854465 -0.246960
v 0.246960 0.225535 0.246960
v 0.246960 5.854465 0.246960
v 0.246960 0.225535 -0.246960
v 0.246960 5.854465 -0.246960
v 0.000000 -0.740000 -7.140000
v 0.000000 0.100000 -7.140000
v 1.392945 -0.740000 -7.002807
v 1.392945 0.100000 -7.002807
v 2.732360 -0.740000 -6.596500
v 2.732360 0.100000 -6.596500
v 3.966771 -0.740000 -5.936693
v 3.966771 0.100000 -5.936693
v 5.048742 -0.740000 -5.048742
v 5.048742 0.100000 -5.048742
v 5.936693 -0.740000 -3.966771
v 5.936693 0.100000 -3.966771
v 6.596500 -0.740000 -2.732360
v 6.596500 0.100000 -2.732360
v 7.002807 -0.740000 -1.392945
v 7.002807 0.100000 -1.392945
v 7.140000 -0.740000 0.000000
v 7.140000 0.100000 0.000000
v 7.002807 -0.740000 1.392945
v 7.002807 0.100000 1.392945
v 6.596500 -0.740000 2.732360
v 6.596500 0.100000 2.732360
v 5.936693 -0.740000 3.966771
v 5.936693 0.100000 3.966771
v 5.048742 -0.740000 5.048742
v 5.048742 0.100000 5.048742
v 3.966771 -0.740000 5.936693
v 3.966771 0.100000 5.936693
v 2.732360 -0.740000 6.596500
v 2.732360 0.100000 6.596500
v 1.392945 -0.740000 7.002807
v 1.392945 0.100000 7.002807
v 0.000000 -0.740000 7.140000
v 0.000000 0.100000 7.140000
v -1.392945 -0.740000 7.002807
v -1.392945 0.100000 7.002807
v -2.732360 -0.740000 6.596500
v -2.732360 0.100000 6.596500
v -3.966771 -0.740000 5.936693
v -3.966771 0.100000 5.936693
v -5.048742 -0.740000 5.048742
v -5.048742 0.100000 5.048742
v -5.936693 -0.740000 3.966771
v -5.936693 0.100000 3.966771
v -6.596500 -0.740000 2.732360
v -6.596500 0.100000 2.732360
v -7.002807 -0.740000 1.392945
v -7.002807 0.100000 1.392945
v -7.140000 -0.740000 0.000000
v -7.140000 0.100000 0.000000
v -7.002807 -0.740000 -1.392945
v -7.002807 0.100000 -1.392945
v -6.596500 -0.740000 -2.732360
v -6.596500 0.100000 -2.732360
v -5.936693 -0.740000 -3.966771
v -5.936693 0.100000 -3.966771
v -5.048742 -0.740000 -5.048742
v -5.048742 0.100000 -5.048742
v -3.966771 -0.740000 -5.936693
v -3.966771 0.100000 -5.936693
v -2.732360 -0.740000 -6.596500
v -2.732360 0.100000 -6.596500
v -1.392945 -0.740000 -7.002807
v -1.392945 0.100000 -7.002807
vn 0.5589 -0.7641 -0.3220
vn 0.5423 -0.4785 0.6906
vn -0.2632 -0.0058 0.9647
vn -0.7007 -0.6574 0.2771
vn -0.3220 -0.7641 -0.5589
vn -0.9757 -0.0058 -0.2189
vn 0.3003 -0.0075 -0.9538
vn 0.9757 -0.0041 0.2189
vn -0.3003 -0.0064 0.9538
vn -0.1135 -0.0156 -0.9934
vn -0.6587 -0.0134 0.7523
vn -0.0000 -1.0000 -0.0000
vn -0.4144 -0.9101 0.0022
vn 0.8494 -0.5278 0.0036
vn 0.4347 0.9006 0.0023
vn -0.9105 0.4136 0.0018
vn -0.1674 0.6440 -0.7465
vn 0.0117 0.7109 -0.7032
vn 0.9871 0.1378 -0.0820
vn -0.8722 0.4295 0.2341
vn 0.8663 0.0011 -0.4995
vn 0.1061 -0.0113 0.9943
vn -0.8078 -0.0006 -0.5895
vn 0.4060 -0.0119 -0.9138
vn 0.6766 -0.0086 0.7363
vn -0.0013 -0.9100 -0.4146
vn -0.0041 -0.5278 0.8493
vn -0.0023 0.9006 0.4347
vn -0.0018 0.4136 -0.9105
vn 0.7209 0.5791 -0.3806
vn 0.6901 0.7236 0.0121
vn -0.2341 0.4295 -0.8722
vn 0.9346 -0.0156 -0.3553
vn 0.9346 0.0156 0.3553
vn 0.3553 -0.0156 0.9346
vn -0.3553 0.0156 0.9346
vn -0.9346 -0.0156 0.3553
vn -0.9346 0.0156 -0.3553
vn -0.3553 -0.0156 -0.9346
vn -0.0000 1.0000 -0.0000
vn 0.3220 0.7641 -0.5589
vn 0.5589 0.7641 0.3220
vn -0.3543 0.7046 0.6149
vn -0.5589 0.7641 -0.3220
vn 0.3553 0.0156 -0.9346
vn -0.1981 0.0081 -0.9801
vn 0.9970 0.0062 -0.0777
vn 0.0149 0.0043 0.9999
vn -0.9944 0.0036 0.1056
vn 0.9420 -0.0006 0.3356
vn -0.9970 0.0065 0.0772
vn -0.3630 -0.0054 -0.9318
vn 0.2679 -0.0074 -0.9634
vn -0.9993 -0.0080 -0.0373
vn -0.1974 0.0031 0.9803
vn -0.0258 -0.9997 -0.0010
vn 0.9914 0.1305 -0.0037
vn 0.0269 0.9996 -0.0006
vn -0.9947 0.1025 -0.0022
vn -0.9910 0.0928 0.0963
vn 0.3409 0.6956 0.6323
vn -0.1549 0.6247 0.7654
vn 0.8544 -0.0000 -0.5196
vn 0.3954 0.0022 0.9185
vn -0.9527 0.0078 0.3037
vn -0.6093 -0.0157 -0.7928
vn -0.0759 0.0030 -0.9971
vn 0.9332 0.0041 -0.3592
vn 0.9530 -0.0300 0.3014
vn -0.3123 0.0121 0.9499
vn -0.0032 -0.9836 -0.1802
vn 0.0010 -0.9547 0.2977
vn 0.0028 0.3007 0.9537
vn 0.0006 0.9996 0.0269
vn -0.0001 0.2870 -0.9579
vn 0.4346 0.3652 0.8232
vn -0.6323 0.6956 0.3409
vn -0.7654 0.6247 -0.1549
vn -1.0000 -0.0000 -0.0000
vn -0.0000 -0.0000 -1.0000
vn 1.0000 -0.0000 -0.0000
vn -0.0000 -0.0000 1.0000
vn 0.0980 -0.0000 -0.9952
vn 0.2903 -0.0000 -0.9569
vn 0.4714 -0.0000 -0.8819
vn 0.6344 -0.0000 -0.7730
vn 0.7730 -0.0000 -0.6344
vn 0.8819 -0.0000 -0.4714
vn 0.9569 -0.0000 -0.2903
vn 0.9952 -0.0000 -0.0980
vn 0.9952 -0.0000 0.0980
vn 0.9569 -0.0000 0.2903
vn 0.8819 -0.0000 0.4714
vn 0.7730 -0.0000 0.6344
vn 0.6344 -0.0000 0.7730
vn 0.4714 -0.0000 0.8819
vn 0.2903 -0.0000 0.9569
vn 0.0980 -0.0000 0.9952
vn -0.0980 -0.0000 0.9952
vn -0.2903 -0.0000 0.9569
vn -0.4714 -0.0000 0.8819
vn -0.6344 -0.0000 0.7730
vn -0.7730 -0.0000 0.6344
vn -0.8819 -0.0000 0.4714
vn -0.9569 -0.0000 0.2903
vn -0.9952 -0.0000 0.0980
vn -0.9952 -0.0000 -0.0980
vn -0.9569 -0.0000 -0.2903
vn -0.8819 -0.0000 -0.4714
vn -0.7730 -0.0000 -0.6344
vn -0.6344 -0.0000 -0.7730
vn -0.4714 -0.0000 -0.8819
vn -0.2903 -0.0000 -0.9569
vn -0.0980 -0.0000 -0.9952
vt 0.791688 1.000000
vt 0.708312 0.500000
vt 0.941649 0.500000
vt 0.541688 1.000000
vt 0.520169 0.500000
vt 0.395169 0.500000
vt 0.291688 1.000000
vt 0.208312 0.500000
vt 0.058351 1.000000
vt 0.026221 0.500000
vt 0.910142 1.000000
vt 0.835613 0.500000
vt 1.000000 0.500000
vt 0.654773 1.000000
vt 0.582368 0.500000
vt 0.546845 1.000000
vt 0.335552 0.500000
vt 0.668331 1.000000
vt 0.083227 0.500000
vt 0.764433 0.738427
vt 0.583470 0.500000
vt 0.915116 0.500000
vt 0.104001 1.000000
vt 0.063477 0.500000
vt 0.303668 0.500000
vt 0.788917 0.416581
vt 0.852201 0.073719
vt 0.545898 0.178163
vt 0.935100 0.628437
vt 0.415785 0.548953
vt 0.303683 1.000000
vt 0.252454 0.500000
vt 0.219869 1.000000
vt 0.018899 0.500000
vt 0.435401 1.000000
vt 0.693379 0.500000
vt 0.947241 0.500000
vt 0.550038 1.000000
vt 0.334397 0.500000
vt 0.227880 1.000000
vt 0.041187 0.500000
vt 0.935100 0.628437
vt 0.787285 0.500000
vt 0.979190 0.500000
vt 0.764433 0.738426
vt 0.441540 0.500000
vt 0.582210 1.000000
vt 0.415785 0.548953
vt 0.303683 1.000000
vt 0.252454 0.500000
vt 0.219869 1.000000
vt 0.700028 1.000000
vt 0.104001 1.000000
vt 0.753903 0.500000
vt 0.880190 0.500000
vt 0.869810 1.000000
vt 0.746097 1.000000
vt 0.630190 0.500000
vt 0.619810 1.000000
vt 0.503903 0.500000
vt 0.496097 1.000000
vt 0.380190 0.500000
vt 0.369810 1.000000
vt 0.253903 0.500000
vt 0.246097 1.000000
vt 0.130190 0.500000
vt 0.119810 1.000000
vt 0.011857 0.500000
vt 0.012817 1.000000
vt 0.081624 0.092355
vt 0.244152 0.012924
vt 0.407645 0.081624
vt 0.487077 0.244152
vt 0.418376 0.407645
vt 0.255848 0.487077
vt 0.092355 0.418376
vt 0.012924 0.255848
vt 0.755848 0.012924
vt 0.592355 0.081624
vt 0.512923 0.244152
vt 0.581624 0.407645
vt 0.744152 0.487077
vt 0.907645 0.418376
vt 0.987076 0.255848
vt 0.918376 0.092355
vt 0.459112 0.305968
vt 0.194032 0.459112
vt 0.040888 0.194032
vt 0.305968 0.040888
vt 0.973779 1.000000
vt 0.987183 0.500000
vt 0.988143 1.000000
vt 0.540888 0.305968
vt 0.805968 0.459112
vt 0.959112 0.194032
vt 0.779658 0.017579
vt 0.606625 0.064682
vt 0.862399 0.052693
vt 0.575163 0.145325
vt 0.636748 0.446294
vt 0.924711 0.354610
vt 0.000000 1.000000
vt 0.325662 1.000000
vt 1.000000 1.000000
vt 0.096928 0.500000
vt 0.325663 1.000000
vt 0.782621 0.457712
vt 0.947481 0.176831
vt 0.601774 0.162982
vt 0.645388 0.424712
vt 0.954651 0.299060
vt 0.685050 0.081347
vt 0.375000 0.000000
vt 0.625000 0.000000
vt 0.625000 0.250000
vt 0.375000 0.250000
vt 0.625000 0.500000
vt 0.375000 0.500000
vt 0.625000 0.750000
vt 0.375000 0.750000
vt 0.625000 1.000000
vt 0.375000 1.000000
vt 0.125000 0.500000
vt 0.125000 0.750000
vt 0.875000 0.500000
vt 0.875000 0.750000
vt 0.968750 1.000000
vt 0.968750 0.500000
vt 0.937500 1.000000
vt 0.937500 0.500000
vt 0.906250 1.000000
vt 0.906250 0.500000
vt 0.875000 1.000000
vt 0.843750 1.000000
vt 0.843750 0.500000
vt 0.812500 1.000000
vt 0.812500 0.500000
vt 0.781250 1.000000
vt 0.781250 0.500000
vt 0.750000 1.000000
vt 0.750000 0.500000
vt 0.718750 1.000000
vt 0.718750 0.500000
vt 0.687500 1.000000
vt 0.687500 0.500000
vt 0.656250 1.000000
vt 0.656250 0.500000
vt 0.593750 1.000000
vt 0.593750 0.500000
vt 0.562500 1.000000
vt 0.562500 0.500000
vt 0.531250 1.000000
vt 0.531250 0.500000
vt 0.500000 1.000000
vt 0.500000 0.500000
vt 0.468750 1.000000
vt 0.468750 0.500000
vt 0.437500 1.000000
vt 0.437500 0.500000
vt 0.406250 1.000000
vt 0.406250 0.500000
vt 0.343750 1.000000
vt 0.343750 0.500000
vt 0.312500 1.000000
vt 0.312500 0.500000
vt 0.281250 1.000000
vt 0.281250 0.500000
vt 0.250000 1.000000
vt 0.250000 0.500000
vt 0.218750 1.000000
vt 0.218750 0.500000
vt 0.187500 1.000000
vt 0.187500 0.500000
vt 0.156250 1.000000
vt 0.156250 0.500000
vt 0.125000 1.000000
vt 0.093750 1.000000
vt 0.093750 0.500000
vt 0.062500 1.000000
vt 0.062500 0.500000
vt 0.296822 0.485388
vt 0.250000 0.490000
vt 0.203178 0.485388
vt 0.158156 0.471731
vt 0.116663 0.449553
vt 0.080294 0.419706
vt 0.050447 0.383337
vt 0.028269 0.341844
vt 0.014612 0.296822
vt 0.010000 0.250000
vt 0.014612 0.203178
vt 0.028269 0.158156
vt 0.050447 0.116663
vt 0.080294 0.080294
vt 0.116663 0.050447
vt 0.158156 0.028269
vt 0.203178 0.014612
vt 0.250000 0.010000
vt 0.296822 0.014612
vt 0.341844 0.028269
vt 0.383337 0.050447
vt 0.419706 0.080294
vt 0.449553 0.116663
vt 0.471731 0.158156
vt 0.485388 0.203178
vt 0.490000 0.250000
vt 0.485388 0.296822
vt 0.471731 0.341844
vt 0.449553 0.383337
vt 0.419706 0.419706
vt 0.383337 0.449553
vt 0.341844 0.471731
vt 0.031250 1.000000
vt 0.031250 0.500000
vt 0.000000 0.500000
vt 0.750000 0.490000
vt 0.796822 0.485388
vt 0.841844 0.471731
vt 0.883337 0.449553
vt 0.919706 0.419706
vt 0.949553 0.383337
vt 0.971731 0.341844
vt 0.985388 0.296822
vt 0.990000 0.250000
vt 0.985388 0.203178
vt 0.971731 0.158156
vt 0.949553 0.116663
vt 0.919706 0.080294
vt 0.883337 0.050447
vt 0.841844 0.028269
vt 0.796822 0.014612
vt 0.750000 0.010000
vt 0.703178 0.014612
vt 0.658156 0.028269
vt 0.616663 0.050447
vt 0.580294 0.080294
vt 0.550447 0.116663
vt 0.528269 0.158156
vt 0.514612 0.203178
vt 0.510000 0.250000
vt 0.514612 0.296822
vt 0.528269 0.341844
vt 0.550447 0.383337
vt 0.580294 0.419706
vt 0.616663 0.449553
vt 0.658156 0.471731
vt 0.703178 0.485388
s 0
f 18/1/1 19/2/1 17/3/1
f 20/4/2 21/5/2 19/2/2
f 20/4/3 22/6/3 21/5/3
f 23/7/4 24/8/4 22/6/4
f 25/9/5 17/10/5 24/8/5
f 26/11/6 27/12/6 31/13/6
f 29/14/7 28/15/7 27/12/7
f 39/16/8 30/17/8 28/15/8
f 32/18/9 31/19/9 30/17/9
f 36/20/10 35/21/10 34/22/10
f 33/23/11 34/24/11 37/25/11
f 34/26/12 35/27/12 37/28/12
f 32/18/13 36/20/13 43/29/13
f 39/16/14 40/30/14 36/20/14
f 40/30/15 42/31/15 41/32/15
f 44/33/16 43/34/16 41/32/16
f 44/33/17 29/14/17 26/11/17
f 42/31/18 29/14/18 44/33/18
f 39/16/19 29/14/19 42/31/19
f 43/34/20 33/23/20 41/32/20
f 46/35/21 47/36/21 45/37/21
f 57/38/22 49/39/22 47/36/22
f 46/40/23 45/41/23 49/39/23
f 61/42/24 52/43/24 51/44/24
f 53/45/25 54/46/25 52/43/25
f 56/47/26 53/45/26 61/42/26
f 57/38/27 58/48/27 53/45/27
f 58/48/28 60/49/28 59/50/28
f 62/51/29 61/34/29 59/50/29
f 62/51/30 48/52/30 46/35/30
f 60/49/31 48/52/31 62/51/31
f 61/34/32 50/53/32 59/50/32
f 4/54/33 3/55/33 2/56/33 5/57/33
f 7/58/34 4/54/34 5/57/34 6/59/34
f 8/60/35 7/58/35 6/59/35 9/61/35
f 11/62/36 8/60/36 9/61/36 10/63/36
f 12/64/37 11/62/37 10/63/37 13/65/37
f 15/66/38 12/64/38 13/65/38 14/67/38
f 16/68/39 15/66/39 14/67/39 1/69/39
f 10/70/40 9/71/40 6/72/40 5/73/40 2/74/40 1/75/40 14/76/40 13/77/40
f 8/78/12 11/79/12 12/80/12 15/81/12 16/82/12 3/83/12 4/84/12 7/85/12
f 18/86/40 25/87/40 23/88/40 20/89/40
f 25/90/41 18/1/41 17/3/41
f 18/1/42 20/4/42 19/2/42
f 20/4/43 23/7/43 22/6/43
f 23/7/44 25/9/44 24/8/44
f 3/55/45 16/91/45 1/92/45 2/56/45
f 24/93/12 17/94/12 19/95/12 21/96/12 22/97/12
f 28/98/12 30/99/12 31/100/12 27/101/12
f 26/11/46 29/14/46 27/12/46
f 29/14/47 39/16/47 28/15/47
f 39/16/48 32/18/48 30/17/48
f 32/18/49 26/102/49 31/19/49
f 37/25/50 35/21/50 40/30/50 38/103/50
f 33/104/51 43/29/51 34/22/51
f 43/29/52 36/20/52 34/22/52
f 36/20/53 40/30/53 35/21/53
f 51/105/54 54/46/54 55/106/54 50/53/54
f 38/103/55 33/23/55 37/25/55
f 32/18/56 39/16/56 36/20/56
f 39/16/57 42/31/57 40/30/57
f 42/31/58 44/33/58 41/32/58
f 44/33/59 32/102/59 43/34/59
f 32/102/60 44/33/60 26/11/60
f 40/30/61 41/32/61 38/103/61
f 41/32/62 33/23/62 38/103/62
f 46/35/63 48/52/63 47/36/63
f 48/52/64 57/38/64 47/36/64
f 57/38/65 56/47/65 49/39/65
f 56/47/66 46/40/66 49/39/66
f 45/107/12 47/108/12 49/109/12
f 50/104/67 61/42/67 51/44/67
f 61/42/68 53/45/68 52/43/68
f 53/45/69 58/48/69 54/46/69
f 58/48/70 55/106/70 54/46/70
f 51/110/12 52/111/12 54/112/12
f 61/42/71 46/40/71 56/47/71
f 56/47/72 57/38/72 53/45/72
f 57/38/73 60/49/73 58/48/73
f 60/49/74 62/51/74 59/50/74
f 62/51/75 46/40/75 61/34/75
f 60/49/76 57/38/76 48/52/76
f 58/48/77 59/50/77 55/106/77
f 59/50/78 50/53/78 55/106/78
f 63/113/79 64/114/79 66/115/79 65/116/79
f 65/116/80 66/115/80 70/117/80 69/118/80
f 69/118/81 70/117/81 68/119/81 67/120/81
f 67/120/82 68/119/82 64/121/82 63/122/82
f 65/123/12 69/118/12 67/120/12 63/124/12
f 70/117/40 66/125/40 64/126/40 68/119/40
f 71/13/83 72/104/83 74/127/83 73/128/83
f 73/128/84 74/127/84 76/129/84 75/130/84
f 75/130/85 76/129/85 78/131/85 77/132/85
f 77/132/86 78/131/86 80/133/86 79/125/86
f 79/125/87 80/133/87 82/134/87 81/135/87
f 81/135/88 82/134/88 84/136/88 83/137/88
f 83/137/89 84/136/89 86/138/89 85/139/89
f 85/139/90 86/138/90 88/140/90 87/141/90
f 87/141/91 88/140/91 90/142/91 89/143/91
f 89/143/92 90/142/92 92/144/92 91/145/92
f 91/145/93 92/144/93 94/146/93 93/147/93
f 93/147/94 94/146/94 96/121/94 95/117/94
f 95/117/95 96/121/95 98/148/95 97/149/95
f 97/149/96 98/148/96 100/150/96 99/151/96
f 99/151/97 100/150/97 102/152/97 101/153/97
f 101/153/98 102/152/98 104/154/98 103/155/98
f 103/155/99 104/154/99 106/156/99 105/157/99
f 105/157/100 106/156/100 108/158/100 107/159/100
f 107/159/101 108/158/101 110/160/101 109/161/101
f 109/161/102 110/160/102 112/122/102 111/118/102
f 111/118/103 112/122/103 114/162/103 113/163/103
f 113/163/104 114/162/104 116/164/104 115/165/104
f 115/165/105 116/164/105 118/166/105 117/167/105
f 117/167/106 118/166/106 120/168/106 119/169/106
f 119/169/107 120/168/107 122/170/107 121/171/107
f 121/171/108 122/170/108 124/172/108 123/173/108
f 123/173/109 124/172/109 126/174/109 125/175/109
f 125/175/110 126/174/110 128/176/110 127/123/110
f 127/123/111 128/176/111 130/177/111 129/178/111
f 129/178/112 130/177/112 132/179/112 131/180/112
f 74/181/40 72/182/40 134/183/40 132/184/40 130/185/40 128/186/40 126/187/40 124/188/40 122/189/40 120/190/40 118/191/40 116/192/40 114/193/40 112/194/40 110/195/40 108/196/40 106/197/40 104/198/40 102/199/40 100/200/40 98/201/40 96/202/40 94/203/40 92/204/40 90/205/40 88/206/40 86/207/40 84/208/40 82/209/40 80/210/40 78/211/40 76/212/40
f 131/180/113 132/179/113 134/213/113 133/214/113
f 133/214/114 134/213/114 72/102/114 71/215/114
f 71/216/12 73/217/12 75/218/12 77/219/12 79/220/12 81/221/12 83/222/12 85/223/12 87/224/12 89/225/12 91/226/12 93/227/12 95/228/12 97/229/12 99/230/12 101/231/12 103/232/12 105/233/12 107/234/12 109/235/12 111/236/12 113/237/12 115/238/12 117/239/12 119/240/12 121/241/12 123/242/12 125/243/12 127/244/12 129/245/12 131/246/12 133/247/12
