# Blender 4.2.3 LTS
# www.blender.org
mtllib Wooden_barrier.mtl
o Barrière
v -3.673425 -0.595400 0.039200
v -3.673425 1.899400 0.039200
v -3.673425 -0.595400 -0.025600
v -3.219825 -0.595400 0.039200
v -3.219825 1.899400 0.039200
v -3.219825 -0.595400 -0.025600
v -3.219825 1.899400 -0.025600
v -3.446625 -0.595400 -0.025600
v -3.446625 1.899400 -0.025600
v -3.446625 -0.595400 0.039200
v -3.446625 1.899400 0.039200
v -3.446625 2.169400 -0.025600
v -3.446625 2.169400 0.039200
v -3.673425 1.899400 -0.025600
v -2.766225 -0.595400 0.039200
v -2.766225 1.899400 0.039200
v -2.766225 -0.595400 -0.025600
v -2.312625 -0.595400 0.039200
v -2.312625 1.899400 0.039200
v -2.312625 -0.595400 -0.025600
v -2.312625 1.899400 -0.025600
v -2.539425 -0.595400 -0.025600
v -2.539425 1.899400 -0.025600
v -2.539425 -0.595400 0.039200
v -2.539425 1.899400 0.039200
v -2.539425 2.169400 -0.025600
v -2.539425 2.169400 0.039200
v -2.766225 1.899400 -0.025600
v -1.859025 -0.595400 0.039200
v -1.859025 1.899400 0.039200
v -1.859025 -0.595400 -0.025600
v -1.405425 -0.595400 0.039200
v -1.405425 1.899400 0.039200
v -1.405425 -0.595400 -0.025600
v -1.405425 1.899400 -0.025600
v -1.632225 -0.595400 -0.025600
v -1.632225 1.899400 -0.025600
v -1.632225 -0.595400 0.039200
v -1.632225 1.899400 0.039200
v -1.632225 2.169400 -0.025600
v -1.632225 2.169400 0.039200
v -1.859025 1.899400 -0.025600
v -0.951825 -0.595400 0.039200
v -0.951825 1.899400 0.039200
v -0.951825 -0.595400 -0.025600
v -0.498225 -0.595400 0.039200
v -0.498225 1.899400 0.039200
v -0.498225 -0.595400 -0.025600
v -0.498225 1.899400 -0.025600
v -0.725025 -0.595400 -0.025600
v -0.725025 1.899400 -0.025600
v -0.725025 -0.595400 0.039200
v -0.725025 1.899400 0.039200
v -0.725025 2.169400 -0.025600
v -0.725025 2.169400 0.039200
v -0.951825 1.899400 -0.025600
v -0.044625 -0.595400 0.039200
v -0.044625 1.899400 0.039200
v -0.044625 -0.595400 -0.025600
v 0.408975 -0.595400 0.039200
v 0.408975 1.899400 0.039200
v 0.408975 -0.595400 -0.025600
v 0.408975 1.899400 -0.025600
v 0.182175 -0.595400 -0.025600
v 0.182175 1.899400 -0.025600
v 0.182175 -0.595400 0.039200
v 0.182175 1.899400 0.039200
v 0.182175 2.169400 -0.025600
v 0.182175 2.169400 0.039200
v -0.044625 1.899400 -0.025600
v 0.862575 -0.595400 0.039200
v 0.862575 1.899400 0.039200
v 0.862575 -0.595400 -0.025600
v 1.316175 -0.595400 0.039200
v 1.316175 1.899400 0.039200
v 1.316175 -0.595400 -0.025600
v 1.316175 1.899400 -0.025600
v 1.089375 -0.595400 -0.025600
v 1.089375 1.899400 -0.025600
v 1.089375 -0.595400 0.039200
v 1.089375 1.899400 0.039200
v 1.089375 2.169400 -0.025600
v 1.089375 2.169400 0.039200
v 0.862575 1.899400 -0.025600
v 1.769774 -0.595400 0.039200
v 1.769774 1.899400 0.039200
v 1.769774 -0.595400 -0.025600
v 2.223375 -0.595400 0.039200
v 2.223375 1.899400 0.039200
v 2.223375 -0.595400 -0.025600
v 2.223375 1.899400 -0.025600
v 1.996575 -0.595400 -0.025600
v 1.996575 1.899400 -0.025600
v 1.996575 -0.595400 0.039200
v 1.996575 1.899400 0.039200
v 1.996575 2.169400 -0.025600
v 1.996575 2.169400 0.039200
v 1.769774 1.899400 -0.025600
v 2.676975 -0.595400 0.039200
v 2.676975 1.899400 0.039200
v 2.676975 -0.595400 -0.025600
v 3.130575 -0.595400 0.039200
v 3.130575 1.899400 0.039200
v 3.130575 -0.595400 -0.025600
v 3.130575 1.899400 -0.025600
v 2.903775 -0.595400 -0.025600
v 2.903775 1.899400 -0.025600
v 2.903775 -0.595400 0.039200
v 2.903775 1.899400 0.039200
v 2.903775 2.169400 -0.025600
v 2.903775 2.169400 0.039200
v 2.676975 1.899400 -0.025600
v 3.584175 -0.595400 0.039200
v 3.584175 1.899400 0.039200
v 3.584175 -0.595400 -0.025600
v 4.037775 -0.595400 0.039200
v 4.037775 1.899400 0.039200
v 4.037775 -0.595400 -0.025600
v 4.037775 1.899400 -0.025600
v 3.810975 -0.595400 -0.025600
v 3.810975 1.899400 -0.025600
v 3.810975 -0.595400 0.039200
v 3.810975 1.899400 0.039200
v 3.810975 2.169400 -0.025600
v 3.810975 2.169400 0.039200
v 3.584175 1.899400 -0.025600
v 4.491374 -0.595400 0.039200
v 4.491374 1.899400 0.039200
v 4.491374 -0.595400 -0.025600
v 4.944974 -0.595400 0.039200
v 4.944974 1.899400 0.039200
v 4.944974 -0.595400 -0.025600
v 4.944974 1.899400 -0.025600
v 4.718174 -0.595400 -0.025600
v 4.718174 1.899400 -0.025600
v 4.718174 -0.595400 0.039200
v 4.718174 1.899400 0.039200
v 4.718174 2.169400 -0.025600
v 4.718174 2.169400 0.039200
v 4.491374 1.899400 -0.025600
v -4.105157 -0.249800 -0.021820
v -4.105157 0.041800 -0.021820
v -4.105157 -0.249800 -0.050980
v -4.105157 0.041800 -0.050980
v 5.392907 -0.249800 -0.021820
v 5.392907 0.041800 -0.021820
v 5.392907 -0.249800 -0.050980
v 5.392907 0.041800 -0.050980
v -4.105157 1.100200 -0.021820
v -4.105157 1.391800 -0.021820
v -4.105157 1.100200 -0.050980
v -4.105157 1.391800 -0.050980
v 5.392906 1.100200 -0.021820
v 5.392906 1.391800 -0.021820
v 5.392906 1.100200 -0.050980
v 5.392906 1.391800 -0.050980
vn -1.0000 -0.0000 -0.0000
vn -0.0000 -0.0000 -1.0000
vn 1.0000 -0.0000 -0.0000
vn -0.0000 -0.0000 1.0000
vn -0.0000 -1.0000 -0.0000
vn -0.7657 0.6432 -0.0000
vn 0.7657 0.6432 -0.0000
vn -0.0000 1.0000 -0.0000
vt 0.375000 0.000000
vt 0.625000 0.000000
vt 0.625000 0.250000
vt 0.375000 0.250000
vt 0.375000 0.375000
vt 0.625000 0.375000
vt 0.625000 0.500000
vt 0.375000 0.500000
vt 0.625000 0.750000
vt 0.375000 0.750000
vt 0.375000 0.875000
vt 0.625000 0.875000
vt 0.625000 1.000000
vt 0.375000 1.000000
vt 0.250000 0.500000
vt 0.250000 0.750000
vt 0.125000 0.500000
vt 0.125000 0.750000
vt 0.750000 0.500000
vt 0.750000 0.750000
vt 0.875000 0.500000
vt 0.875000 0.750000
s 0
f 1/1/1 2/2/1 14/3/1 3/4/1
f 8/5/2 9/6/2 7/7/2 6/8/2
f 6/8/3 7/7/3 5/9/3 4/10/3
f 10/11/4 11/12/4 2/13/4 1/14/4
f 8/15/5 6/8/5 4/10/5 10/16/5
f 7/7/2 9/6/2 12/6/2
f 2/13/4 11/12/4 13/12/4
f 11/12/4 5/9/4 13/12/4
f 9/6/2 14/3/2 12/6/2
f 3/17/5 8/15/5 10/16/5 1/18/5
f 4/10/4 5/9/4 11/12/4 10/11/4
f 3/4/2 14/3/2 9/6/2 8/5/2
f 13/2/6 12/3/6 14/3/6 2/2/6
f 12/19/7 13/20/7 5/9/7 7/7/7
f 15/1/1 16/2/1 28/3/1 17/4/1
f 22/5/2 23/6/2 21/7/2 20/8/2
f 20/8/3 21/7/3 19/9/3 18/10/3
f 24/11/4 25/12/4 16/13/4 15/14/4
f 22/15/5 20/8/5 18/10/5 24/16/5
f 21/7/2 23/6/2 26/6/2
f 16/13/4 25/12/4 27/12/4
f 25/12/4 19/9/4 27/12/4
f 23/6/2 28/3/2 26/6/2
f 17/17/5 22/15/5 24/16/5 15/18/5
f 18/10/4 19/9/4 25/12/4 24/11/4
f 17/4/2 28/3/2 23/6/2 22/5/2
f 27/2/6 26/3/6 28/3/6 16/2/6
f 26/19/7 27/20/7 19/9/7 21/7/7
f 29/1/1 30/2/1 42/3/1 31/4/1
f 36/5/2 37/6/2 35/7/2 34/8/2
f 34/8/3 35/7/3 33/9/3 32/10/3
f 38/11/4 39/12/4 30/13/4 29/14/4
f 36/15/5 34/8/5 32/10/5 38/16/5
f 35/7/2 37/6/2 40/6/2
f 30/13/4 39/12/4 41/12/4
f 39/12/4 33/9/4 41/12/4
f 37/6/2 42/3/2 40/6/2
f 31/17/5 36/15/5 38/16/5 29/18/5
f 32/10/4 33/9/4 39/12/4 38/11/4
f 31/4/2 42/3/2 37/6/2 36/5/2
f 41/2/6 40/3/6 42/3/6 30/2/6
f 40/19/7 41/20/7 33/9/7 35/7/7
f 43/1/1 44/2/1 56/3/1 45/4/1
f 50/5/2 51/6/2 49/7/2 48/8/2
f 48/8/3 49/7/3 47/9/3 46/10/3
f 52/11/4 53/12/4 44/13/4 43/14/4
f 50/15/5 48/8/5 46/10/5 52/16/5
f 49/7/2 51/6/2 54/6/2
f 44/13/4 53/12/4 55/12/4
f 53/12/4 47/9/4 55/12/4
f 51/6/2 56/3/2 54/6/2
f 45/17/5 50/15/5 52/16/5 43/18/5
f 46/10/4 47/9/4 53/12/4 52/11/4
f 45/4/2 56/3/2 51/6/2 50/5/2
f 55/2/6 54/3/6 56/3/6 44/2/6
f 54/19/7 55/20/7 47/9/7 49/7/7
f 57/1/1 58/2/1 70/3/1 59/4/1
f 64/5/2 65/6/2 63/7/2 62/8/2
f 62/8/3 63/7/3 61/9/3 60/10/3
f 66/11/4 67/12/4 58/13/4 57/14/4
f 64/15/5 62/8/5 60/10/5 66/16/5
f 63/7/2 65/6/2 68/6/2
f 58/13/4 67/12/4 69/12/4
f 67/12/4 61/9/4 69/12/4
f 65/6/2 70/3/2 68/6/2
f 59/17/5 64/15/5 66/16/5 57/18/5
f 60/10/4 61/9/4 67/12/4 66/11/4
f 59/4/2 70/3/2 65/6/2 64/5/2
f 69/2/6 68/3/6 70/3/6 58/2/6
f 68/19/7 69/20/7 61/9/7 63/7/7
f 71/1/1 72/2/1 84/3/1 73/4/1
f 78/5/2 79/6/2 77/7/2 76/8/2
f 76/8/3 77/7/3 75/9/3 74/10/3
f 80/11/4 81/12/4 72/13/4 71/14/4
f 78/15/5 76/8/5 74/10/5 80/16/5
f 77/7/2 79/6/2 82/6/2
f 72/13/4 81/12/4 83/12/4
f 81/12/4 75/9/4 83/12/4
f 79/6/2 84/3/2 82/6/2
f 73/17/5 78/15/5 80/16/5 71/18/5
f 74/10/4 75/9/4 81/12/4 80/11/4
f 73/4/2 84/3/2 79/6/2 78/5/2
f 83/2/6 82/3/6 84/3/6 72/2/6
f 82/19/7 83/20/7 75/9/7 77/7/7
f 85/1/1 86/2/1 98/3/1 87/4/1
f 92/5/2 93/6/2 91/7/2 90/8/2
f 90/8/3 91/7/3 89/9/3 88/10/3
f 94/11/4 95/12/4 86/13/4 85/14/4
f 92/15/5 90/8/5 88/10/5 94/16/5
f 91/7/2 93/6/2 96/6/2
f 86/13/4 95/12/4 97/12/4
f 95/12/4 89/9/4 97/12/4
f 93/6/2 98/3/2 96/6/2
f 87/17/5 92/15/5 94/16/5 85/18/5
f 88/10/4 89/9/4 95/12/4 94/11/4
f 87/4/2 98/3/2 93/6/2 92/5/2
f 97/2/6 96/3/6 98/3/6 86/2/6
f 96/19/7 97/20/7 89/9/7 91/7/7
f 99/1/1 100/2/1 112/3/1 101/4/1
f 106/5/2 107/6/2 105/7/2 104/8/2
f 104/8/3 105/7/3 103/9/3 102/10/3
f 108/11/4 109/12/4 100/13/4 99/14/4
f 106/15/5 104/8/5 102/10/5 108/16/5
f 105/7/2 107/6/2 110/6/2
f 100/13/4 109/12/4 111/12/4
f 109/12/4 103/9/4 111/12/4
f 107/6/2 112/3/2 110/6/2
f 101/17/5 106/15/5 108/16/5 99/18/5
f 102/10/4 103/9/4 109/12/4 108/11/4
f 101/4/2 112/3/2 107/6/2 106/5/2
f 111/2/6 110/3/6 112/3/6 100/2/6
f 110/19/7 111/20/7 103/9/7 105/7/7
f 113/1/1 114/2/1 126/3/1 115/4/1
f 120/5/2 121/6/2 119/7/2 118/8/2
f 118/8/3 119/7/3 117/9/3 116/10/3
f 122/11/4 123/12/4 114/13/4 113/14/4
f 120/15/5 118/8/5 116/10/5 122/16/5
f 119/7/2 121/6/2 124/6/2
f 114/13/4 123/12/4 125/12/4
f 123/12/4 117/9/4 125/12/4
f 121/6/2 126/3/2 124/6/2
f 115/17/5 120/15/5 122/16/5 113/18/5
f 116/10/4 117/9/4 123/12/4 122/11/4
f 115/4/2 126/3/2 121/6/2 120/5/2
f 125/2/6 124/3/6 126/3/6 114/2/6
f 124/19/7 125/20/7 117/9/7 119/7/7
f 127/1/1 128/2/1 140/3/1 129/4/1
f 134/5/2 135/6/2 133/7/2 132/8/2
f 132/8/3 133/7/3 131/9/3 130/10/3
f 136/11/4 137/12/4 128/13/4 127/14/4
f 134/15/5 132/8/5 130/10/5 136/16/5
f 133/7/2 135/6/2 138/6/2
f 128/13/4 137/12/4 139/12/4
f 137/12/4 131/9/4 139/12/4
f 135/6/2 140/3/2 138/6/2
f 129/17/5 134/15/5 136/16/5 127/18/5
f 130/10/4 131/9/4 137/12/4 136/11/4
f 129/4/2 140/3/2 135/6/2 134/5/2
f 139/2/6 138/3/6 140/3/6 128/2/6
f 138/19/7 139/20/7 131/9/7 133/7/7
f 141/1/1 142/2/1 144/3/1 143/4/1
f 143/4/2 144/3/2 148/7/2 147/8/2
f 147/8/3 148/7/3 146/9/3 145/10/3
f 145/10/4 146/9/4 142/13/4 141/14/4
f 143/17/5 147/8/5 145/10/5 141/18/5
f 148/7/8 144/21/8 142/22/8 146/9/8
f 149/1/1 150/2/1 152/3/1 151/4/1
f 151/4/2 152/3/2 156/7/2 155/8/2
f 155/8/3 156/7/3 154/9/3 153/10/3
f 153/10/4 154/9/4 150/13/4 149/14/4
f 151/17/5 155/8/5 153/10/5 149/18/5
f 156/7/8 152/21/8 150/22/8 154/9/8
