# Blender 4.2.3 LTS
# www.blender.org
mtllib Key_padlock.mtl
o Cle_
v -0.029120 0.570000 0.416000
v 0.029120 0.570000 0.416000
v -0.029120 0.651158 0.408007
v 0.029120 0.651158 0.408007
v -0.029120 0.729196 0.384334
v 0.029120 0.729196 0.384334
v -0.029120 0.801117 0.345891
v 0.029120 0.801117 0.345891
v -0.029120 0.864156 0.294156
v 0.029120 0.864156 0.294156
v -0.029120 0.915891 0.231117
v 0.029120 0.915891 0.231117
v -0.029120 0.954334 0.159196
v 0.029120 0.954334 0.159196
v -0.029120 0.978007 0.081158
v 0.029120 0.978007 0.081158
v -0.029120 0.986000 0.000000
v 0.029120 0.986000 -0.000000
v -0.029120 0.978007 -0.081158
v 0.029120 0.978007 -0.081158
v -0.029120 0.954334 -0.159196
v 0.029120 0.954334 -0.159196
v -0.029120 0.915891 -0.231117
v 0.029120 0.915891 -0.231117
v -0.029120 0.864156 -0.294156
v 0.029120 0.864156 -0.294156
v -0.029120 0.801117 -0.345891
v 0.029120 0.801117 -0.345891
v -0.029120 0.729196 -0.384334
v 0.029120 0.729196 -0.384334
v -0.029120 0.651158 -0.408007
v 0.029120 0.651158 -0.408007
v -0.029120 0.570000 -0.416000
v 0.029120 0.570000 -0.416000
v -0.029120 0.488842 -0.408007
v 0.029120 0.488842 -0.408007
v -0.029120 0.410804 -0.384334
v 0.029120 0.410804 -0.384334
v -0.029120 0.338883 -0.345891
v 0.029120 0.338883 -0.345891
v -0.029120 0.275844 -0.294156
v 0.029120 0.275844 -0.294156
v -0.029120 0.224109 -0.231117
v 0.029120 0.224109 -0.231117
v -0.029120 0.185666 -0.159196
v 0.029120 0.185666 -0.159196
v -0.029120 0.161993 -0.081158
v 0.029120 0.161993 -0.081158
v -0.029120 0.154000 0.000000
v 0.029120 0.154000 -0.000000
v -0.029120 0.161993 0.081158
v 0.029120 0.161993 0.081158
v -0.029120 0.185666 0.159196
v 0.029120 0.185666 0.159196
v -0.029120 0.224109 0.231117
v 0.029120 0.224109 0.231117
v -0.029120 0.275844 0.294156
v 0.029120 0.275844 0.294156
v -0.029120 0.338883 0.345891
v 0.029120 0.338883 0.345891
v -0.029120 0.410804 0.384334
v 0.029120 0.410804 0.384334
v -0.029120 0.488842 0.408007
v 0.029120 0.488842 0.408007
v 0.029120 0.278800 -0.000000
v 0.029120 0.281038 -0.022724
v 0.029120 0.281038 0.022724
v 0.029120 0.298430 -0.064713
v 0.029120 0.298430 0.064713
v 0.029120 0.287666 -0.044575
v 0.029120 0.287666 0.044575
v 0.029120 0.330567 -0.096850
v 0.029120 0.330567 0.096850
v 0.029120 0.372556 -0.114242
v 0.029120 0.372556 0.114242
v 0.029120 0.350705 -0.107613
v 0.029120 0.350705 0.107613
v 0.029120 0.312916 -0.082364
v 0.029120 0.312916 0.082364
v 0.029120 0.418004 -0.114242
v 0.029120 0.418004 0.114242
v 0.029120 0.459993 -0.096850
v 0.029120 0.459993 0.096850
v 0.029120 0.477644 -0.082364
v 0.029120 0.439855 -0.107613
v 0.029120 0.439855 0.107613
v 0.029120 0.492130 -0.064713
v 0.029120 0.492130 0.064713
v 0.029120 0.511760 -0.000000
v 0.029120 0.509522 0.022724
v 0.029120 0.509522 -0.022724
v 0.029120 0.502893 0.044575
v 0.029120 0.502893 -0.044575
v 0.029120 0.477644 0.082364
v 0.029120 0.395280 0.116480
v 0.029120 0.395280 -0.116480
v -0.029120 0.278800 0.000000
v -0.029120 0.281038 -0.022724
v -0.029120 0.281038 0.022724
v -0.029120 0.298430 -0.064713
v -0.029120 0.298430 0.064713
v -0.029120 0.287666 -0.044575
v -0.029120 0.287666 0.044575
v -0.029120 0.330567 -0.096850
v -0.029120 0.330567 0.096850
v -0.029120 0.372556 -0.114242
v -0.029120 0.372556 0.114242
v -0.029120 0.350705 -0.107613
v -0.029120 0.350705 0.107613
v -0.029120 0.312916 -0.082364
v -0.029120 0.312916 0.082364
v -0.029120 0.418004 -0.114242
v -0.029120 0.418004 0.114242
v -0.029120 0.459993 -0.096850
v -0.029120 0.459993 0.096850
v -0.029120 0.439855 -0.107613
v -0.029120 0.439855 0.107613
v -0.029120 0.492130 -0.064713
v -0.029120 0.492130 0.064713
v -0.029120 0.511760 0.000000
v -0.029120 0.509522 0.022724
v -0.029120 0.509522 -0.022724
v -0.029120 0.502893 -0.044575
v -0.029120 0.502893 0.044575
v -0.029120 0.477644 -0.082364
v -0.029120 0.477644 0.082364
v -0.029120 0.395280 0.116480
v -0.029120 0.395280 -0.116480
v -0.014560 1.693200 -0.166400
v -0.014560 0.944400 -0.166400
v -0.014560 1.693200 0.166400
v -0.014560 0.944400 0.166400
v 0.014560 1.693200 -0.166400
v 0.014560 0.944400 -0.166400
v 0.013066 1.693200 0.156934
v 0.013066 0.944400 0.156934
v -0.014560 1.568400 -0.166400
v -0.014560 1.443600 -0.166400
v -0.014560 1.318800 -0.166400
v -0.014560 1.194000 -0.166400
v -0.014560 1.069200 -0.166400
v -0.014560 1.069200 0.166400
v -0.014560 1.194000 0.041600
v -0.014560 1.318800 0.166400
v -0.014560 1.443600 0.041600
v -0.014560 1.568400 0.166400
v 0.013066 1.069200 0.156934
v 0.014912 1.194000 0.043827
v 0.013066 1.318800 0.156934
v 0.014912 1.443600 0.043827
v 0.013066 1.568400 0.156934
v 0.014560 1.069200 -0.166400
v 0.014560 1.194000 -0.166400
v 0.014560 1.318800 -0.166400
v 0.014560 1.443600 -0.166400
v 0.014560 1.568400 -0.166400
v -0.014560 1.859600 0.000000
v -0.011551 0.944400 0.000000
v 0.015527 1.859600 0.006125
v 0.012518 0.944400 0.006125
v 0.015527 1.568400 0.006125
v 0.015527 1.443600 0.006125
v 0.015527 1.318800 0.006125
v 0.015527 1.194000 0.006125
v 0.015527 1.069200 0.006125
v -0.014560 1.568400 0.000000
v -0.014560 1.443600 0.000000
v -0.014560 1.318800 0.000000
v -0.014560 1.194000 0.000000
v -0.014560 1.069200 0.000000
vn -0.0000 0.0980 0.9952
vn -0.0000 0.2903 0.9569
vn -0.0000 0.4714 0.8819
vn -0.0000 0.6344 0.7730
vn -0.0000 0.7730 0.6344
vn -0.0000 0.8819 0.4714
vn -0.0000 0.9569 0.2903
vn -0.0000 0.9952 0.0980
vn -0.0000 0.9952 -0.0980
vn -0.0000 0.9569 -0.2903
vn -0.0000 0.8819 -0.4714
vn -0.0000 0.7730 -0.6344
vn -0.0000 0.6344 -0.7730
vn -0.0000 0.4714 -0.8819
vn -0.0000 0.2903 -0.9569
vn -0.0000 0.0980 -0.9952
vn -0.0000 -0.0980 -0.9952
vn -0.0000 -0.2903 -0.9569
vn -0.0000 -0.4714 -0.8819
vn -0.0000 -0.6344 -0.7730
vn -0.0000 -0.7730 -0.6344
vn -0.0000 -0.8819 -0.4714
vn -0.0000 -0.9569 -0.2903
vn -0.0000 -0.9952 -0.0980
vn -0.0000 -0.9952 0.0980
vn -0.0000 -0.9569 0.2903
vn -0.0000 -0.8819 0.4714
vn -0.0000 -0.7730 0.6344
vn -0.0000 -0.6344 0.7730
vn -0.0000 -0.4714 0.8819
vn 1.0000 -0.0000 -0.0000
vn -0.0000 -0.2903 0.9569
vn -0.0000 -0.0980 0.9952
vn -1.0000 -0.0000 -0.0000
vn -0.9999 -0.0121 -0.0090
vn 0.3241 -0.0000 0.9460
vn 0.9999 -0.0121 0.0031
vn -0.0000 -0.0000 -1.0000
vn 0.0723 0.7116 -0.6989
vn -0.0000 -1.0000 -0.0000
vn 1.0000 -0.0000 -0.0056
vn 0.0914 -0.6867 0.7212
vn 0.0914 0.6867 0.7212
vn 0.9999 -0.0000 0.0163
vn 0.0419 0.6892 0.7234
vn 0.9999 -0.0121 0.0063
vn -0.9999 -0.0121 0.0090
vt 1.000000 0.500000
vt 1.000000 1.000000
vt 0.968750 1.000000
vt 0.968750 0.500000
vt 0.937500 1.000000
vt 0.937500 0.500000
vt 0.906250 1.000000
vt 0.906250 0.500000
vt 0.875000 1.000000
vt 0.875000 0.500000
vt 0.843750 1.000000
vt 0.843750 0.500000
vt 0.812500 1.000000
vt 0.812500 0.500000
vt 0.781250 1.000000
vt 0.781250 0.500000
vt 0.750000 1.000000
vt 0.750000 0.500000
vt 0.718750 1.000000
vt 0.718750 0.500000
vt 0.687500 1.000000
vt 0.687500 0.500000
vt 0.656250 1.000000
vt 0.656250 0.500000
vt 0.625000 1.000000
vt 0.625000 0.500000
vt 0.593750 1.000000
vt 0.593750 0.500000
vt 0.562500 1.000000
vt 0.562500 0.500000
vt 0.531250 1.000000
vt 0.531250 0.500000
vt 0.500000 1.000000
vt 0.500000 0.500000
vt 0.468750 1.000000
vt 0.468750 0.500000
vt 0.437500 1.000000
vt 0.437500 0.500000
vt 0.406250 1.000000
vt 0.406250 0.500000
vt 0.375000 1.000000
vt 0.375000 0.500000
vt 0.343750 1.000000
vt 0.343750 0.500000
vt 0.312500 1.000000
vt 0.312500 0.500000
vt 0.281250 1.000000
vt 0.281250 0.500000
vt 0.250000 1.000000
vt 0.250000 0.500000
vt 0.218750 1.000000
vt 0.218750 0.500000
vt 0.187500 1.000000
vt 0.187500 0.500000
vt 0.156250 1.000000
vt 0.156250 0.500000
vt 0.125000 1.000000
vt 0.125000 0.500000
vt 0.093750 1.000000
vt 0.093750 0.500000
vt 0.062500 1.000000
vt 0.062500 0.500000
vt 0.419706 0.419706
vt 0.383337 0.449553
vt 0.341844 0.471731
vt 0.296822 0.485388
vt 0.250000 0.490000
vt 0.203178 0.485388
vt 0.158156 0.471731
vt 0.116663 0.449553
vt 0.080294 0.419706
vt 0.050447 0.383337
vt 0.028269 0.341844
vt 0.093325 0.287334
vt 0.101682 0.297518
vt 0.111866 0.305875
vt 0.123484 0.312085
vt 0.136090 0.315909
vt 0.149200 0.317200
vt 0.162310 0.315909
vt 0.174916 0.312085
vt 0.186534 0.305875
vt 0.196718 0.297518
vt 0.205075 0.287334
vt 0.211285 0.275716
vt 0.215109 0.263110
vt 0.216400 0.250000
vt 0.215109 0.236890
vt 0.211285 0.224284
vt 0.205075 0.212666
vt 0.196718 0.202482
vt 0.186534 0.194125
vt 0.174916 0.187915
vt 0.162310 0.184091
vt 0.149200 0.182800
vt 0.158156 0.028269
vt 0.203178 0.014612
vt 0.250000 0.010000
vt 0.296822 0.014612
vt 0.341844 0.028269
vt 0.383337 0.050447
vt 0.419706 0.080294
vt 0.449553 0.116663
vt 0.471731 0.158156
vt 0.485388 0.203178
vt 0.490000 0.250000
vt 0.485388 0.296822
vt 0.471731 0.341844
vt 0.449553 0.383337
vt 0.014612 0.296822
vt 0.010000 0.250000
vt 0.014612 0.203178
vt 0.028269 0.158156
vt 0.050447 0.116663
vt 0.080294 0.080294
vt 0.116663 0.050447
vt 0.136090 0.184091
vt 0.123484 0.187915
vt 0.111866 0.194125
vt 0.101682 0.202482
vt 0.093325 0.212666
vt 0.087115 0.224284
vt 0.083291 0.236890
vt 0.082000 0.250000
vt 0.083291 0.263110
vt 0.087115 0.275716
vt 0.031250 1.000000
vt 0.031250 0.500000
vt 0.000000 1.000000
vt 0.000000 0.500000
vt 0.703178 0.485388
vt 0.750000 0.490000
vt 0.796822 0.485388
vt 0.841844 0.471731
vt 0.883337 0.449553
vt 0.919706 0.419706
vt 0.949553 0.383337
vt 0.971731 0.341844
vt 0.985388 0.296822
vt 0.990000 0.250000
vt 0.985388 0.203178
vt 0.971731 0.158156
vt 0.949553 0.116663
vt 0.919706 0.080294
vt 0.883337 0.050447
vt 0.841844 0.028269
vt 0.796822 0.014612
vt 0.750000 0.010000
vt 0.703178 0.014612
vt 0.658156 0.028269
vt 0.616663 0.050447
vt 0.580294 0.080294
vt 0.550447 0.116663
vt 0.528269 0.158156
vt 0.514612 0.203178
vt 0.587115 0.224284
vt 0.593325 0.212666
vt 0.601682 0.202482
vt 0.611866 0.194125
vt 0.623484 0.187915
vt 0.636090 0.184091
vt 0.649200 0.182800
vt 0.662310 0.184091
vt 0.674916 0.187915
vt 0.686534 0.194125
vt 0.696718 0.202482
vt 0.705075 0.212666
vt 0.711285 0.224284
vt 0.715109 0.236890
vt 0.716400 0.250000
vt 0.715109 0.263110
vt 0.711285 0.275716
vt 0.705075 0.287334
vt 0.696718 0.297518
vt 0.686534 0.305875
vt 0.674916 0.312085
vt 0.662310 0.315909
vt 0.510000 0.250000
vt 0.514612 0.296822
vt 0.528269 0.341844
vt 0.550447 0.383337
vt 0.580294 0.419706
vt 0.616663 0.449553
vt 0.658156 0.471731
vt 0.649200 0.317200
vt 0.636090 0.315909
vt 0.623484 0.312085
vt 0.611866 0.305875
vt 0.601682 0.297518
vt 0.593325 0.287334
vt 0.587115 0.275716
vt 0.583291 0.263110
vt 0.582000 0.250000
vt 0.583291 0.236890
vt 1.000000 0.811155
vt 0.968750 0.811155
vt 0.968750 0.688845
vt 1.000000 0.688845
vt 0.937500 0.811155
vt 0.937500 0.688845
vt 0.906250 0.811155
vt 0.906250 0.688845
vt 0.875000 0.811155
vt 0.875000 0.688845
vt 0.843750 0.811155
vt 0.843750 0.688845
vt 0.812500 0.811155
vt 0.812500 0.688845
vt 0.781250 0.811155
vt 0.781250 0.688845
vt 0.750000 0.811155
vt 0.750000 0.688845
vt 0.718750 0.811155
vt 0.718750 0.688845
vt 0.687500 0.811155
vt 0.687500 0.688845
vt 0.656250 0.811155
vt 0.656250 0.688845
vt 0.625000 0.811155
vt 0.625000 0.688845
vt 0.593750 0.811155
vt 0.593750 0.688845
vt 0.562500 0.811155
vt 0.562500 0.688845
vt 0.531250 0.811155
vt 0.531250 0.688845
vt 0.500000 0.811155
vt 0.500000 0.688845
vt 0.468750 0.811155
vt 0.468750 0.688845
vt 0.437500 0.811155
vt 0.437500 0.688845
vt 0.406250 0.811155
vt 0.406250 0.688845
vt 0.375000 0.811155
vt 0.375000 0.688845
vt 0.343750 0.811155
vt 0.343750 0.688845
vt 0.312500 0.811155
vt 0.312500 0.688845
vt 0.281250 0.811155
vt 0.281250 0.688845
vt 0.250000 0.811155
vt 0.250000 0.688845
vt 0.218750 0.811155
vt 0.218750 0.688845
vt 0.187500 0.811155
vt 0.187500 0.688845
vt 0.156250 0.811155
vt 0.156250 0.688845
vt 0.125000 0.811155
vt 0.125000 0.688845
vt 0.093750 0.811155
vt 0.093750 0.688845
vt 0.062500 0.811155
vt 0.062500 0.688845
vt 0.031250 0.811155
vt 0.031250 0.688845
vt 0.000000 0.811155
vt 0.000000 0.688845
vt 0.583333 0.125000
vt 0.625000 0.125000
vt 0.625000 0.250000
vt 0.583333 0.250000
vt 0.583333 0.500000
vt 0.583333 0.625000
vt 0.625000 0.625000
vt 0.625000 0.750000
vt 0.583333 0.750000
vt 0.583333 1.000000
vt 0.125000 0.625000
vt 0.375000 0.625000
vt 0.375000 0.750000
vt 0.125000 0.750000
vt 0.875000 0.625000
vt 0.875000 0.750000
vt 0.416667 0.750000
vt 0.416667 1.000000
vt 0.458333 0.750000
vt 0.458333 1.000000
vt 0.500000 0.750000
vt 0.541667 0.750000
vt 0.541667 1.000000
vt 0.416667 0.625000
vt 0.458333 0.625000
vt 0.500000 0.625000
vt 0.541667 0.625000
vt 0.375000 0.250000
vt 0.416667 0.250000
vt 0.416667 0.500000
vt 0.458333 0.250000
vt 0.458333 0.500000
vt 0.500000 0.250000
vt 0.541667 0.250000
vt 0.541667 0.500000
vt 0.375000 0.125000
vt 0.416667 0.125000
vt 0.458333 0.125000
vt 0.500000 0.125000
vt 0.541667 0.125000
vt 0.541667 0.000000
vt 0.583333 0.000000
vt 0.500000 0.000000
vt 0.458333 0.000000
vt 0.416667 0.000000
vt 0.375000 0.000000
vt 0.625000 0.000000
s 0
f 1/1/1 2/2/1 4/3/1 3/4/1
f 3/4/2 4/3/2 6/5/2 5/6/2
f 5/6/3 6/5/3 8/7/3 7/8/3
f 7/8/4 8/7/4 10/9/4 9/10/4
f 9/10/5 10/9/5 12/11/5 11/12/5
f 11/12/6 12/11/6 14/13/6 13/14/6
f 13/14/7 14/13/7 16/15/7 15/16/7
f 15/16/8 16/15/8 18/17/8 17/18/8
f 17/18/9 18/17/9 20/19/9 19/20/9
f 19/20/10 20/19/10 22/21/10 21/22/10
f 21/22/11 22/21/11 24/23/11 23/24/11
f 23/24/12 24/23/12 26/25/12 25/26/12
f 25/26/13 26/25/13 28/27/13 27/28/13
f 27/28/14 28/27/14 30/29/14 29/30/14
f 29/30/15 30/29/15 32/31/15 31/32/15
f 31/32/16 32/31/16 34/33/16 33/34/16
f 33/34/17 34/33/17 36/35/17 35/36/17
f 35/36/18 36/35/18 38/37/18 37/38/18
f 37/38/19 38/37/19 40/39/19 39/40/19
f 39/40/20 40/39/20 42/41/20 41/42/20
f 41/42/21 42/41/21 44/43/21 43/44/21
f 43/44/22 44/43/22 46/45/22 45/46/22
f 45/46/23 46/45/23 48/47/23 47/48/23
f 47/48/24 48/47/24 50/49/24 49/50/24
f 49/50/25 50/49/25 52/51/25 51/52/25
f 51/52/26 52/51/26 54/53/26 53/54/26
f 53/54/27 54/53/27 56/55/27 55/56/27
f 55/56/28 56/55/28 58/57/28 57/58/28
f 57/58/29 58/57/29 60/59/29 59/60/29
f 59/60/30 60/59/30 62/61/30 61/62/30
f 10/63/31 8/64/31 6/65/31 4/66/31 2/67/31 64/68/31 62/69/31 60/70/31 58/71/31 56/72/31 54/73/31 69/74/31 79/75/31 73/76/31 77/77/31 75/78/31 95/79/31 81/80/31 86/81/31 83/82/31 94/83/31 88/84/31 92/85/31 90/86/31 89/87/31 91/88/31 93/89/31 87/90/31 84/91/31 82/92/31 85/93/31 80/94/31 96/95/31 38/96/31 36/97/31 34/98/31 32/99/31 30/100/31 28/101/31 26/102/31 24/103/31 22/104/31 20/105/31 18/106/31 16/107/31 14/108/31 12/109/31
f 69/74/31 54/73/31 52/110/31 50/111/31 48/112/31 46/113/31 44/114/31 42/115/31 40/116/31 38/96/31 96/95/31 74/117/31 76/118/31 72/119/31 78/120/31 68/121/31 70/122/31 66/123/31 65/124/31 67/125/31 71/126/31
f 61/62/32 62/61/32 64/127/32 63/128/32
f 63/128/33 64/127/33 2/129/33 1/130/33
f 63/131/34 1/132/34 3/133/34 5/134/34 7/135/34 9/136/34 11/137/34 13/138/34 15/139/34 17/140/34 19/141/34 21/142/34 23/143/34 25/144/34 27/145/34 29/146/34 31/147/34 33/148/34 35/149/34 37/150/34 39/151/34 41/152/34 43/153/34 45/154/34 47/155/34 102/156/34 100/157/34 110/158/34 104/159/34 108/160/34 106/161/34 128/162/34 112/163/34 116/164/34 114/165/34 125/166/34 118/167/34 123/168/34 122/169/34 120/170/34 121/171/34 124/172/34 119/173/34 126/174/34 115/175/34 117/176/34 113/177/34
f 102/156/34 47/155/34 49/178/34 51/179/34 53/180/34 55/181/34 57/182/34 59/183/34 61/184/34 63/131/34 113/177/34 127/185/34 107/186/34 109/187/34 105/188/34 111/189/34 101/190/34 103/191/34 99/192/34 97/193/34 98/194/34
f 89/195/24 90/196/24 121/197/24 120/198/24
f 90/196/23 92/199/23 124/200/23 121/197/23
f 92/199/22 88/201/22 119/202/22 124/200/22
f 88/201/21 94/203/21 126/204/21 119/202/21
f 126/204/20 94/203/20 83/205/20 115/206/20
f 115/206/19 83/205/19 86/207/19 117/208/19
f 117/208/18 86/207/18 81/209/18 113/210/18
f 113/210/17 81/209/17 95/211/17 127/212/17
f 127/212/16 95/211/16 75/213/16 107/214/16
f 107/214/15 75/213/15 77/215/15 109/216/15
f 109/216/14 77/215/14 73/217/14 105/218/14
f 105/218/13 73/217/13 79/219/13 111/220/13
f 111/220/12 79/219/12 69/221/12 101/222/12
f 101/222/11 69/221/11 71/223/11 103/224/11
f 103/224/10 71/223/10 67/225/10 99/226/10
f 99/226/9 67/225/9 65/227/9 97/228/9
f 97/228/8 65/227/8 66/229/8 98/230/8
f 98/230/7 66/229/7 70/231/7 102/232/7
f 102/232/6 70/231/6 68/233/6 100/234/6
f 100/234/5 68/233/5 78/235/5 110/236/5
f 78/235/4 72/237/4 104/238/4 110/236/4
f 72/237/3 76/239/3 108/240/3 104/238/3
f 76/239/2 74/241/2 106/242/2 108/240/2
f 74/241/1 96/243/1 128/244/1 106/242/1
f 96/243/33 80/245/33 112/246/33 128/244/33
f 80/245/32 85/247/32 116/248/32 112/246/32
f 85/247/30 82/249/30 114/250/30 116/248/30
f 82/249/29 84/251/29 125/252/29 114/250/29
f 84/251/28 87/253/28 118/254/28 125/252/28
f 87/253/27 93/255/27 123/256/27 118/254/27
f 93/255/26 91/257/26 122/258/26 123/256/26
f 91/257/25 89/259/25 120/260/25 122/258/25
f 170/261/35 158/262/35 132/263/35 142/264/35
f 142/264/36 132/263/36 136/26/36 147/265/36
f 165/266/37 160/267/37 134/268/37 152/269/37
f 152/269/38 134/268/38 130/25/38 141/270/38
f 157/271/39 159/272/39 133/273/39 129/274/39
f 160/267/40 158/275/40 130/276/40 134/268/40
f 133/273/38 156/277/38 137/278/38 129/41/38
f 156/277/38 155/279/38 138/280/38 137/278/38
f 155/279/38 154/281/38 139/33/38 138/280/38
f 154/281/38 153/282/38 140/283/38 139/33/38
f 153/282/38 152/269/38 141/270/38 140/283/38
f 159/272/41 161/284/41 156/277/41 133/273/41
f 161/284/41 162/285/41 155/279/41 156/277/41
f 162/285/41 163/286/41 154/281/41 155/279/41
f 163/286/41 164/287/41 153/282/41 154/281/41
f 164/287/41 165/266/41 152/269/41 153/282/41
f 131/288/36 146/289/36 151/290/36 135/42/36
f 146/289/42 145/291/42 150/292/42 151/290/42
f 145/291/43 144/293/43 149/34/43 150/292/43
f 144/293/42 143/294/42 148/295/42 149/34/42
f 143/294/43 142/264/43 147/265/43 148/295/43
f 157/296/34 166/297/34 146/289/34 131/288/34
f 166/297/34 167/298/34 145/291/34 146/289/34
f 167/298/34 168/299/34 144/293/34 145/291/34
f 168/299/34 169/300/34 143/294/34 144/293/34
f 169/300/34 170/261/34 142/264/34 143/294/34
f 140/301/34 141/302/34 170/261/34 169/300/34
f 139/303/34 140/301/34 169/300/34 168/299/34
f 138/304/34 139/303/34 168/299/34 167/298/34
f 137/305/34 138/304/34 167/298/34 166/297/34
f 129/306/34 137/305/34 166/297/34 157/296/34
f 148/295/44 147/265/44 165/266/44 164/287/44
f 149/34/44 148/295/44 164/287/44 163/286/44
f 150/292/44 149/34/44 163/286/44 162/285/44
f 151/290/44 150/292/44 162/285/44 161/284/44
f 135/42/44 151/290/44 161/284/44 159/272/44
f 136/26/40 132/10/40 158/275/40 160/267/40
f 131/58/45 135/42/45 159/272/45 157/271/45
f 147/265/46 136/26/46 160/267/46 165/266/46
f 141/302/47 130/307/47 158/262/47 170/261/47
