# Blender 4.2.3 LTS
# www.blender.org
mtllib Key_box.mtl
o boite
v 0.307176 3.078980 0.403386
v 0.318843 3.295327 0.486000
v 0.220000 3.223762 0.448207
v 0.318843 3.888633 0.486000
v 0.307176 3.969980 0.403386
v 0.238869 3.921594 0.403386
v 0.307176 3.078980 -0.403386
v 0.220000 3.223762 -0.448207
v 0.318843 3.295327 -0.486000
v -0.499683 2.438005 1.000000
v -0.499683 2.438005 -1.000000
v 0.307176 3.969980 -0.403386
v 0.579876 3.209192 -1.000000
v 0.318843 3.888633 -0.486000
v 0.579876 3.209192 1.000000
v 0.238869 3.921594 -0.403386
v -0.500000 1.420821 -0.921427
v 0.628570 3.055919 -1.000000
v 0.674055 2.902598 -1.000000
v 0.707686 2.749100 -1.000000
v 0.720818 2.595296 -1.000000
v 0.720818 2.441296 -1.000000
v 0.720818 2.287296 -1.000000
v 0.707686 2.133100 -1.000000
v 0.674055 1.978598 -1.000000
v 0.628570 1.823919 -1.000000
v 0.579876 1.669192 -1.000000
v 0.536618 1.514547 -1.000000
v 0.628570 3.055919 1.000000
v 0.674055 2.902598 1.000000
v 0.707686 2.749100 1.000000
v 0.720818 2.595296 1.000000
v 0.720818 2.441296 1.000000
v 0.720818 2.287296 1.000000
v 0.707686 2.133100 1.000000
v 0.674055 1.978598 1.000000
v 0.628570 1.823919 1.000000
v 0.579876 1.669192 1.000000
v 0.536618 1.514547 1.000000
v -0.500000 1.420821 0.921427
v 0.505471 3.943715 0.403386
v 0.509597 3.888633 -0.486000
v 0.505471 3.943715 -0.403386
v 0.548100 3.295327 0.486000
v 0.604223 3.132556 0.540775
v 0.509597 3.888633 0.486000
v 0.548100 3.295327 -0.486000
v 0.604223 3.132556 -0.540775
v 0.624183 3.105980 -0.403386
v 0.624183 3.105980 0.403386
v -0.500000 4.306898 0.913570
v -0.500000 4.306898 -0.913570
v 0.536618 1.514547 1.000000
v 0.507441 1.360111 0.741563
v 0.531112 1.485403 0.999600
v 0.525618 1.456324 0.996321
v 0.520229 1.427798 0.986319
v 0.515268 1.401538 0.965162
v 0.511374 1.380929 0.930675
v 0.508986 1.368286 0.886731
v 0.507857 1.362309 0.838995
v 0.507486 1.360350 0.790333
v 0.500000 4.440000 0.741563
v 0.525828 4.042006 1.000000
v 0.500040 4.439384 0.790333
v 0.500368 4.434335 0.838995
v 0.501367 4.418932 0.886731
v 0.503482 4.386350 0.930675
v 0.506928 4.333239 0.965162
v 0.511320 4.265565 0.986319
v 0.516091 4.192052 0.996321
v 0.520954 4.117113 0.999600
v 0.507441 1.360111 -0.741563
v 0.536618 1.514547 -1.000000
v 0.507486 1.360350 -0.790333
v 0.507857 1.362309 -0.838995
v 0.508986 1.368286 -0.886731
v 0.511374 1.380929 -0.930675
v 0.515268 1.401538 -0.965162
v 0.520229 1.427798 -0.986319
v 0.525618 1.456324 -0.996321
v 0.531112 1.485403 -0.999600
v 0.525828 4.042006 -1.000000
v 0.500000 4.440000 -0.741563
v 0.520954 4.117113 -0.999600
v 0.516091 4.192052 -0.996321
v 0.511320 4.265565 -0.986319
v 0.506928 4.333239 -0.965162
v 0.503482 4.386350 -0.930675
v 0.501367 4.418932 -0.886731
v 0.500368 4.434335 -0.838995
v 0.500040 4.439384 -0.790333
v 0.083924 2.439253 -1.000000
v 0.083924 2.439253 1.000000
v 0.009482 1.420962 -0.921427
v 0.009482 1.420962 0.921427
v 0.004319 4.306898 -0.913570
v 0.004319 4.306898 0.913570
v 0.009482 1.420962 0.921427
v 0.400000 3.600000 -0.700000
v 0.400000 3.600000 0.700000
v 0.419509 3.598078 -0.700000
v 0.419509 3.598078 0.700000
v 0.438268 3.592388 -0.700000
v 0.438268 3.592388 0.700000
v 0.455557 3.583147 -0.700000
v 0.455557 3.583147 0.700000
v 0.470711 3.570711 -0.700000
v 0.470711 3.570711 0.700000
v 0.483147 3.555557 -0.700000
v 0.483147 3.555557 0.700000
v 0.492388 3.538268 -0.700000
v 0.492388 3.538268 0.700000
v 0.498078 3.519509 -0.700000
v 0.498078 3.519509 0.700000
v 0.500000 3.500000 -0.700000
v 0.500000 3.500000 0.700000
v 0.498078 3.480491 -0.700000
v 0.498078 3.480491 0.700000
v 0.492388 3.461732 -0.700000
v 0.492388 3.461731 0.700000
v 0.483147 3.444443 -0.700000
v 0.483147 3.444443 0.700000
v 0.470711 3.429289 -0.700000
v 0.470711 3.429289 0.700000
v 0.455557 3.416853 -0.700000
v 0.455557 3.416853 0.700000
v 0.438268 3.407612 -0.700000
v 0.438268 3.407612 0.700000
v 0.419509 3.401922 -0.700000
v 0.419509 3.401921 0.700000
v 0.400000 3.400000 -0.700000
v 0.400000 3.400000 0.700000
v 0.380491 3.401922 -0.700000
v 0.380491 3.401921 0.700000
v 0.361732 3.407612 -0.700000
v 0.361732 3.407612 0.700000
v 0.344443 3.416853 -0.700000
v 0.344443 3.416853 0.700000
v 0.329289 3.429289 -0.700000
v 0.329289 3.429289 0.700000
v 0.316853 3.444443 -0.700000
v 0.316853 3.444443 0.700000
v 0.307612 3.461732 -0.700000
v 0.307612 3.461731 0.700000
v 0.301921 3.480491 -0.700000
v 0.301921 3.480491 0.700000
v 0.300000 3.500000 -0.700000
v 0.300000 3.500000 0.700000
v 0.301921 3.519509 -0.700000
v 0.301921 3.519509 0.700000
v 0.307612 3.538268 -0.700000
v 0.307612 3.538268 0.700000
v 0.316853 3.555557 -0.700000
v 0.316853 3.555557 0.700000
v 0.329289 3.570711 -0.700000
v 0.329289 3.570711 0.700000
v 0.344443 3.583147 -0.700000
v 0.344443 3.583147 0.700000
v 0.361732 3.592388 -0.700000
v 0.361732 3.592388 0.700000
v 0.380491 3.598078 -0.700000
v 0.380491 3.598078 0.700000
vn -0.0000 1.0000 -0.0000
vn 0.9826 -0.1856 -0.0000
vn -1.0000 -0.0002 -0.0000
vn 0.9531 0.3028 -0.0000
vn -0.0000 -0.0000 -1.0000
vn -0.1213 -0.9926 -0.0000
vn -1.0000 0.0003 -0.0000
vn -0.0979 0.0270 -0.9948
vn -0.1127 -0.0552 -0.9921
vn 0.9985 0.0549 -0.0000
vn 0.9630 -0.2694 -0.0000
vn 0.9539 -0.3002 -0.0000
vn 0.9594 -0.2821 -0.0000
vn 0.9771 -0.2127 -0.0000
vn 0.9964 -0.0849 -0.0000
vn 1.0000 -0.0000 -0.0000
vn 0.9964 0.0851 -0.0000
vn 0.9768 0.2140 -0.0000
vn 0.9644 0.2646 -0.0000
vn -0.0001 0.0462 0.9989
vn 0.0001 -0.0770 0.9970
vn -0.1313 -0.9913 -0.0000
vn 0.9996 -0.0270 -0.0000
vn -0.0000 -0.0000 1.0000
vn 0.1026 0.3500 -0.9311
vn 0.4328 -0.6110 -0.6628
vn 0.1026 0.3500 0.9311
vn 0.4328 -0.6110 0.6628
vn 0.8567 0.5158 -0.0000
vn 0.5636 -0.0369 -0.8252
vn 0.5780 -0.8160 -0.0000
vn 0.5636 -0.0369 0.8252
vn 0.1736 0.4338 0.8841
vn -0.0522 -0.7725 0.6329
vn 0.1736 0.4338 -0.8841
vn -0.0522 -0.7725 -0.6329
vn -0.0849 0.9964 -0.0000
vn -0.2553 0.9668 -0.0124
vn -0.2331 0.9671 -0.1019
vn -0.1937 0.9325 -0.3049
vn -0.1463 0.7913 -0.5937
vn -0.1140 0.5358 -0.8366
vn -0.1127 0.2898 -0.9504
vn -0.1309 0.1253 -0.9834
vn -0.1522 0.0333 -0.9878
vn -0.1662 -0.0055 -0.9861
vn -0.1662 -0.0055 0.9861
vn -0.1522 0.0333 0.9878
vn -0.1309 0.1253 0.9834
vn -0.1127 0.2898 0.9504
vn -0.1140 0.5358 0.8366
vn -0.1463 0.7913 0.5937
vn -0.1937 0.9325 0.3049
vn -0.2331 0.9671 0.1019
vn -0.2553 0.9668 0.0124
vn -0.1500 0.0148 -0.9886
vn -0.1374 -0.0853 -0.9868
vn -0.1158 -0.3091 -0.9440
vn -0.0914 -0.6142 -0.7838
vn -0.0775 -0.8520 -0.5179
vn -0.0815 -0.9566 -0.2797
vn -0.0954 -0.9874 -0.1259
vn -0.1101 -0.9931 -0.0408
vn -0.1195 -0.9928 -0.0050
vn -0.1195 -0.9928 0.0050
vn -0.1101 -0.9931 0.0408
vn -0.0954 -0.9874 0.1259
vn -0.0815 -0.9566 0.2797
vn -0.0775 -0.8520 0.5179
vn -0.0914 -0.6143 0.7838
vn -0.1158 -0.3091 0.9440
vn -0.1374 -0.0853 0.9868
vn -0.1500 0.0148 0.9886
vn -0.1127 -0.0552 0.9921
vn -0.0979 0.0270 0.9948
vn 0.0001 -0.0770 -0.9970
vn -0.0001 0.0462 -0.9989
vn 0.0003 -1.0000 -0.0000
vn -0.2593 0.9658 -0.0000
vn 0.0980 0.9952 -0.0000
vn 0.2903 0.9569 -0.0000
vn 0.4714 0.8819 -0.0000
vn 0.6344 0.7730 -0.0000
vn 0.7730 0.6344 -0.0000
vn 0.8819 0.4714 -0.0000
vn 0.9569 0.2903 -0.0000
vn 0.9952 0.0980 -0.0000
vn 0.9952 -0.0980 -0.0000
vn 0.9569 -0.2903 -0.0000
vn 0.8819 -0.4714 -0.0000
vn 0.7730 -0.6344 -0.0000
vn 0.6344 -0.7730 -0.0000
vn 0.4714 -0.8819 -0.0000
vn 0.2903 -0.9569 -0.0000
vn 0.0980 -0.9952 -0.0000
vn -0.0980 -0.9952 -0.0000
vn -0.2903 -0.9569 -0.0000
vn -0.4714 -0.8819 -0.0000
vn -0.6344 -0.7730 -0.0000
vn -0.7730 -0.6344 -0.0000
vn -0.8819 -0.4714 -0.0000
vn -0.9569 -0.2903 -0.0000
vn -0.9952 -0.0980 -0.0000
vn -0.9952 0.0980 -0.0000
vn -0.9569 0.2903 -0.0000
vn -0.8819 0.4714 -0.0000
vn -0.7730 0.6344 -0.0000
vn -0.6344 0.7730 -0.0000
vn -0.4714 0.8819 -0.0000
vn -0.2903 0.9569 -0.0000
vn -0.0980 0.9952 -0.0000
vt 0.750000 0.532305
vt 0.875000 0.532305
vt 0.875000 0.717695
vt 0.750000 0.717695
vt 0.375000 0.532305
vt 0.375019 0.526208
vt 0.375178 0.520126
vt 0.375662 0.514159
vt 0.376685 0.508666
vt 0.378353 0.504355
vt 0.380479 0.501710
vt 0.382787 0.500460
vt 0.385141 0.500050
vt 0.387500 0.500000
vt 0.387500 0.750000
vt 0.385141 0.749950
vt 0.382787 0.749540
vt 0.380479 0.748290
vt 0.378353 0.745645
vt 0.376685 0.741334
vt 0.375662 0.735841
vt 0.375178 0.729874
vt 0.375019 0.723792
vt 0.375000 0.717695
vt 0.525000 0.000000
vt 0.625000 0.032305
vt 0.592695 0.250000
vt 0.525000 0.250000
vt 0.331316 0.500000
vt 0.525000 0.698817
vt 0.525000 0.750000
vt 0.512500 0.750000
vt 0.512500 0.500000
vt 0.525000 0.500000
vt 0.512500 0.563624
vt 0.525000 0.375000
vt 0.250000 0.532305
vt 0.250000 0.717695
vt 0.387500 0.000000
vt 0.400000 0.000000
vt 0.400000 0.250000
vt 0.387500 0.250000
vt 0.592680 0.375000
vt 0.592664 0.500000
vt 0.387500 0.375000
vt 0.400000 0.375000
vt 0.400000 0.500000
vt 0.412500 0.375000
vt 0.412500 0.500000
vt 0.425000 0.375000
vt 0.425000 0.500000
vt 0.437500 0.375000
vt 0.437500 0.500000
vt 0.450000 0.375000
vt 0.450000 0.500000
vt 0.462500 0.375000
vt 0.462500 0.500000
vt 0.475000 0.375000
vt 0.475000 0.500000
vt 0.487500 0.375000
vt 0.487500 0.500000
vt 0.500000 0.375000
vt 0.500000 0.500000
vt 0.512500 0.375000
vt 0.598767 0.500050
vt 0.604866 0.500460
vt 0.610877 0.501710
vt 0.616450 0.504355
vt 0.620794 0.508666
vt 0.623380 0.514159
vt 0.624572 0.520126
vt 0.624954 0.526208
vt 0.625000 0.532305
vt 0.625000 0.717695
vt 0.624954 0.723792
vt 0.624572 0.729874
vt 0.623380 0.735841
vt 0.620794 0.741334
vt 0.616450 0.745645
vt 0.610877 0.748290
vt 0.604866 0.749540
vt 0.598767 0.749950
vt 0.592664 0.750000
vt 0.526184 0.700000
vt 0.585696 0.700000
vt 0.604688 0.681026
vt 0.604688 0.568974
vt 0.585696 0.550000
vt 0.526184 0.550000
vt 0.525000 0.551183
vt 0.400000 0.750000
vt 0.412500 0.750000
vt 0.425000 0.750000
vt 0.437500 0.750000
vt 0.450000 0.750000
vt 0.462500 0.750000
vt 0.475000 0.750000
vt 0.487500 0.750000
vt 0.500000 0.750000
vt 0.512500 0.686376
vt 0.507126 0.568974
vt 0.507126 0.681026
vt 0.525000 0.875000
vt 0.592680 0.875000
vt 0.592695 1.000000
vt 0.525000 1.000000
vt 0.387500 0.875000
vt 0.400000 0.875000
vt 0.400000 1.000000
vt 0.387500 1.000000
vt 0.423700 0.925223
vt 0.423700 0.984188
vt 0.576300 0.984188
vt 0.576300 0.935126
vt 0.859188 0.718376
vt 0.859188 0.531624
vt 0.813287 0.531624
vt 0.813287 0.718376
vt 0.423700 0.031624
vt 0.423700 0.218376
vt 0.576300 0.218376
vt 0.576300 0.031624
vt 0.576300 0.314874
vt 0.576300 0.265812
vt 0.423700 0.265812
vt 0.423700 0.324777
vt 0.140812 0.718376
vt 0.125000 0.718376
vt 0.140812 0.750000
vt 0.576300 0.000000
vt 0.625000 0.031624
vt 0.140812 0.531624
vt 0.140812 0.500000
vt 0.125000 0.531624
vt 0.625000 0.218376
vt 0.576300 0.250000
vt 0.423700 0.000000
vt 0.199777 0.500000
vt 0.214193 0.531624
vt 0.199974 0.501971
vt 0.625000 0.311713
vt 0.625000 0.265812
vt 0.214193 0.718376
vt 0.199777 0.750000
vt 0.210119 0.727294
vt 0.625000 0.984188
vt 0.625000 0.938287
vt 0.624990 0.526208
vt 0.749995 0.526208
vt 0.624908 0.520126
vt 0.749954 0.520126
vt 0.624658 0.514159
vt 0.749829 0.514159
vt 0.625000 0.500000
vt 0.625000 0.375000
vt 0.616326 0.500000
vt 0.616330 0.375000
vt 0.610828 0.500000
vt 0.610834 0.375000
vt 0.604855 0.500000
vt 0.604865 0.375000
vt 0.598766 0.500000
vt 0.598779 0.375000
vt 0.598766 0.750000
vt 0.598779 0.875000
vt 0.604855 0.750000
vt 0.604865 0.875000
vt 0.610828 0.750000
vt 0.610834 0.875000
vt 0.616326 0.750000
vt 0.616330 0.875000
vt 0.625000 0.750000
vt 0.750000 0.750000
vt 0.624658 0.735841
vt 0.749829 0.735841
vt 0.624908 0.729874
vt 0.749954 0.729874
vt 0.624990 0.723792
vt 0.749995 0.723792
vt 0.385141 0.500000
vt 0.385141 0.375000
vt 0.382787 0.500000
vt 0.382787 0.375000
vt 0.380479 0.500000
vt 0.380479 0.375000
vt 0.375000 0.500000
vt 0.250000 0.500000
vt 0.375976 0.508666
vt 0.250488 0.508666
vt 0.375383 0.514159
vt 0.250192 0.514159
vt 0.375103 0.520126
vt 0.250051 0.520126
vt 0.375011 0.526208
vt 0.250006 0.526208
vt 0.375011 0.723792
vt 0.250006 0.723792
vt 0.375103 0.729874
vt 0.250052 0.729874
vt 0.375383 0.735841
vt 0.250192 0.735841
vt 0.375976 0.741334
vt 0.250488 0.741334
vt 0.375000 0.750000
vt 0.375000 0.875000
vt 0.380479 0.750000
vt 0.380479 0.875000
vt 0.382787 0.750000
vt 0.382787 0.875000
vt 0.385141 0.750000
vt 0.385141 0.875000
vt 0.500000 0.875000
vt 0.487500 0.875000
vt 0.475000 0.875000
vt 0.462500 0.875000
vt 0.450000 0.875000
vt 0.437500 0.875000
vt 0.425000 0.875000
vt 0.412500 0.875000
vt 0.125000 0.532305
vt 0.125000 0.717695
vt 0.512500 0.875000
vt 0.331315 0.750000
vt 1.000000 0.500000
vt 1.000000 1.000000
vt 0.968750 1.000000
vt 0.968750 0.500000
vt 0.937500 1.000000
vt 0.937500 0.500000
vt 0.906250 1.000000
vt 0.906250 0.500000
vt 0.875000 1.000000
vt 0.875000 0.500000
vt 0.843750 1.000000
vt 0.843750 0.500000
vt 0.812500 1.000000
vt 0.812500 0.500000
vt 0.781250 1.000000
vt 0.781250 0.500000
vt 0.750000 1.000000
vt 0.750000 0.500000
vt 0.718750 1.000000
vt 0.718750 0.500000
vt 0.687500 1.000000
vt 0.687500 0.500000
vt 0.656250 1.000000
vt 0.656250 0.500000
vt 0.625000 1.000000
vt 0.593750 1.000000
vt 0.593750 0.500000
vt 0.562500 1.000000
vt 0.562500 0.500000
vt 0.531250 1.000000
vt 0.531250 0.500000
vt 0.500000 1.000000
vt 0.500000 0.500000
vt 0.468750 1.000000
vt 0.468750 0.500000
vt 0.437500 1.000000
vt 0.437500 0.500000
vt 0.406250 1.000000
vt 0.406250 0.500000
vt 0.375000 1.000000
vt 0.343750 1.000000
vt 0.343750 0.500000
vt 0.312500 1.000000
vt 0.312500 0.500000
vt 0.281250 1.000000
vt 0.281250 0.500000
vt 0.250000 1.000000
vt 0.218750 1.000000
vt 0.218750 0.500000
vt 0.187500 1.000000
vt 0.187500 0.500000
vt 0.156250 1.000000
vt 0.156250 0.500000
vt 0.125000 1.000000
vt 0.125000 0.500000
vt 0.093750 1.000000
vt 0.093750 0.500000
vt 0.062500 1.000000
vt 0.062500 0.500000
vt 0.296822 0.485388
vt 0.250000 0.490000
vt 0.203178 0.485388
vt 0.158156 0.471731
vt 0.116663 0.449553
vt 0.080294 0.419706
vt 0.050447 0.383337
vt 0.028269 0.341844
vt 0.014612 0.296822
vt 0.010000 0.250000
vt 0.014612 0.203178
vt 0.028269 0.158156
vt 0.050447 0.116663
vt 0.080294 0.080294
vt 0.116663 0.050447
vt 0.158156 0.028269
vt 0.203178 0.014612
vt 0.250000 0.010000
vt 0.296822 0.014612
vt 0.341844 0.028269
vt 0.383337 0.050447
vt 0.419706 0.080294
vt 0.449553 0.116663
vt 0.471731 0.158156
vt 0.485388 0.203178
vt 0.490000 0.250000
vt 0.485388 0.296822
vt 0.471731 0.341844
vt 0.449553 0.383337
vt 0.419706 0.419706
vt 0.383337 0.449553
vt 0.341844 0.471731
vt 0.031250 1.000000
vt 0.031250 0.500000
vt 0.000000 1.000000
vt 0.000000 0.500000
vt 0.750000 0.490000
vt 0.796822 0.485388
vt 0.841844 0.471731
vt 0.883337 0.449553
vt 0.919706 0.419706
vt 0.949553 0.383337
vt 0.971731 0.341844
vt 0.985388 0.296822
vt 0.990000 0.250000
vt 0.985388 0.203178
vt 0.971731 0.158156
vt 0.949553 0.116663
vt 0.919706 0.080294
vt 0.883337 0.050447
vt 0.841844 0.028269
vt 0.796822 0.014612
vt 0.750000 0.010000
vt 0.703178 0.014612
vt 0.658156 0.028269
vt 0.616663 0.050447
vt 0.580294 0.080294
vt 0.550447 0.116663
vt 0.528269 0.158156
vt 0.514612 0.203178
vt 0.510000 0.250000
vt 0.514612 0.296822
vt 0.528269 0.341844
vt 0.550447 0.383337
vt 0.580294 0.419706
vt 0.616663 0.449553
vt 0.658156 0.471731
vt 0.703178 0.485388
s 0
f 97/1/1 52/2/1 51/3/1 98/4/1
f 73/5/2 75/6/2 76/7/2 77/8/2 78/9/2 79/10/2 80/11/2 81/12/2 82/13/2 74/14/2 28/14/2 39/15/2 53/15/2 55/16/2 56/17/2 57/18/2 58/19/2 59/20/2 60/21/2 61/22/2 62/23/2 54/24/2
f 10/25/3 51/26/3 52/27/3 11/28/3
f 95/29/1 28/14/1 74/14/1
f 45/30/4 15/31/4 29/32/4
f 18/33/4 13/34/4 48/35/4
f 93/36/5 13/34/5 18/33/5
f 95/37/6 73/5/6 54/24/6 96/38/6
f 40/39/7 10/40/7 11/41/7 17/42/7
f 93/36/8 97/43/8 83/44/8 13/34/8
f 95/45/9 93/46/9 27/47/9 28/14/9
f 93/48/5 26/49/5 27/47/5
f 93/50/5 25/51/5 26/49/5
f 93/52/5 24/53/5 25/51/5
f 93/54/5 23/55/5 24/53/5
f 93/56/5 22/57/5 23/55/5
f 93/58/5 21/59/5 22/57/5
f 93/60/5 20/61/5 21/59/5
f 93/62/5 19/63/5 20/61/5
f 93/64/5 18/33/5 19/63/5
f 13/34/10 83/44/10 85/65/10 86/66/10 87/67/10 88/68/10 89/69/10 90/70/10 91/71/10 92/72/10 84/73/10 63/74/10 65/75/10 66/76/10 67/77/10 68/78/10 69/79/10 70/80/10 71/81/10 72/82/10 64/83/10 15/31/10 45/30/10 44/84/10 46/85/10 41/86/10 43/87/10 42/88/10 47/89/10 48/90/10
f 28/14/11 27/47/11 38/91/11 39/15/11
f 27/47/12 26/49/12 37/92/12 38/91/12
f 26/49/13 25/51/13 36/93/13 37/92/13
f 25/51/14 24/53/14 35/94/14 36/93/14
f 24/53/15 23/55/15 34/95/15 35/94/15
f 23/55/16 22/57/16 33/96/16 34/95/16
f 22/57/16 21/59/16 32/97/16 33/96/16
f 21/59/17 20/61/17 31/98/17 32/97/17
f 20/61/18 19/63/18 30/99/18 31/98/18
f 45/100/19 29/32/19 30/99/19 19/63/19 18/33/19 48/35/19 49/101/19 50/102/19
f 94/103/20 98/104/20 51/105/20 10/106/20
f 96/107/21 94/108/21 10/109/21 40/110/21
f 44/111/5 2/112/5 4/113/5 46/114/5
f 5/115/22 12/116/22 43/117/22 41/118/22
f 3/119/23 8/120/23 16/121/23 6/122/23
f 42/123/24 14/124/24 9/125/24 47/126/24
f 1/127/25 3/128/25 2/129/25
f 4/130/26 6/122/26 5/131/26
f 7/132/27 9/133/27 8/134/27
f 12/135/28 16/121/28 14/136/28
f 7/132/29 8/134/29 3/128/29 1/127/29
f 2/137/30 3/119/30 6/122/30 4/130/30
f 5/131/31 6/122/31 16/121/31 12/135/31
f 14/124/32 16/121/32 8/120/32 9/125/32
f 47/138/33 9/133/33 7/132/33 49/139/33 48/140/33
f 43/141/34 12/142/34 14/124/34 42/123/34
f 50/143/35 1/127/35 2/129/35 44/144/35 45/145/35
f 46/114/36 4/113/36 5/146/36 41/147/36
f 7/132/37 1/127/37 50/143/37 49/139/37
f 97/1/38 84/73/38 92/148/38
f 97/149/39 92/148/39 91/150/39
f 97/151/40 91/150/40 90/152/40
f 97/153/41 90/152/41 89/154/41
f 97/155/42 89/154/42 88/156/42
f 97/157/43 88/156/43 87/158/43
f 97/159/44 87/158/44 86/160/44
f 97/161/45 86/160/45 85/162/45
f 97/163/46 85/162/46 83/44/46
f 98/104/47 64/83/47 72/164/47
f 98/165/48 72/164/48 71/166/48
f 98/167/49 71/166/49 70/168/49
f 98/169/50 70/168/50 69/170/50
f 98/171/51 69/170/51 68/172/51
f 98/173/52 68/172/52 67/174/52
f 98/175/53 67/174/53 66/176/53
f 98/177/54 66/176/54 65/178/54
f 98/179/55 65/178/55 63/74/55
f 95/45/56 74/14/56 82/180/56
f 95/181/57 82/180/57 81/182/57
f 95/183/58 81/182/58 80/184/58
f 95/185/59 80/184/59 79/186/59
f 95/187/60 79/186/60 78/188/60
f 95/189/61 78/188/61 77/190/61
f 95/191/62 77/190/62 76/192/62
f 95/193/63 76/192/63 75/194/63
f 95/195/64 75/194/64 73/5/64
f 96/38/65 54/24/65 62/196/65
f 96/197/66 62/196/66 61/198/66
f 96/199/67 61/198/67 60/200/67
f 96/201/68 60/200/68 59/202/68
f 96/203/69 59/202/69 58/204/69
f 96/205/70 58/204/70 57/206/70
f 96/207/71 57/206/71 56/208/71
f 96/209/72 56/208/72 55/210/72
f 96/211/73 55/210/73 53/15/73
f 30/99/24 29/32/24 94/212/24
f 31/98/24 30/99/24 94/213/24
f 32/97/24 31/98/24 94/214/24
f 33/96/24 32/97/24 94/215/24
f 34/95/24 33/96/24 94/216/24
f 35/94/24 34/95/24 94/217/24
f 36/93/24 35/94/24 94/218/24
f 37/92/24 36/93/24 94/219/24
f 38/91/24 37/92/24 94/108/24
f 39/15/74 38/91/74 94/108/74 96/107/74
f 15/31/75 64/83/75 98/104/75 94/103/75
f 17/42/76 11/41/76 93/46/76 95/45/76
f 11/28/77 52/27/77 97/43/77 93/36/77
f 17/220/78 95/37/78 96/38/78 40/221/78
f 29/32/24 15/31/24 94/222/24
f 53/15/1 39/15/1 96/223/1
f 84/73/79 97/1/79 98/4/79 63/74/79
f 100/224/80 101/225/80 103/226/80 102/227/80
f 102/227/81 103/226/81 105/228/81 104/229/81
f 104/229/82 105/228/82 107/230/82 106/231/82
f 106/231/83 107/230/83 109/232/83 108/233/83
f 108/233/84 109/232/84 111/234/84 110/235/84
f 110/235/85 111/234/85 113/236/85 112/237/85
f 112/237/86 113/236/86 115/238/86 114/239/86
f 114/239/87 115/238/87 117/240/87 116/241/87
f 116/241/88 117/240/88 119/242/88 118/243/88
f 118/243/89 119/242/89 121/244/89 120/245/89
f 120/245/90 121/244/90 123/246/90 122/247/90
f 122/247/91 123/246/91 125/248/91 124/154/91
f 124/154/92 125/248/92 127/249/92 126/250/92
f 126/250/93 127/249/93 129/251/93 128/252/93
f 128/252/94 129/251/94 131/253/94 130/254/94
f 130/254/95 131/253/95 133/255/95 132/256/95
f 132/256/96 133/255/96 135/257/96 134/258/96
f 134/258/97 135/257/97 137/259/97 136/260/97
f 136/260/98 137/259/98 139/261/98 138/262/98
f 138/262/99 139/261/99 141/263/99 140/186/99
f 140/186/100 141/263/100 143/264/100 142/265/100
f 142/265/101 143/264/101 145/266/101 144/267/101
f 144/267/102 145/266/102 147/268/102 146/269/102
f 146/269/103 147/268/103 149/270/103 148/187/103
f 148/187/104 149/270/104 151/271/104 150/272/104
f 150/272/105 151/271/105 153/273/105 152/274/105
f 152/274/106 153/273/106 155/275/106 154/276/106
f 154/276/107 155/275/107 157/277/107 156/278/107
f 156/278/108 157/277/108 159/279/108 158/280/108
f 158/280/109 159/279/109 161/281/109 160/282/109
f 103/283/24 101/284/24 163/285/24 161/286/24 159/287/24 157/288/24 155/289/24 153/290/24 151/291/24 149/292/24 147/293/24 145/294/24 143/295/24 141/296/24 139/297/24 137/298/24 135/299/24 133/300/24 131/301/24 129/302/24 127/303/24 125/304/24 123/305/24 121/306/24 119/307/24 117/308/24 115/309/24 113/310/24 111/311/24 109/312/24 107/313/24 105/314/24
f 160/282/110 161/281/110 163/315/110 162/316/110
f 162/316/111 163/315/111 101/317/111 100/318/111
f 100/319/5 102/320/5 104/321/5 106/322/5 108/323/5 110/324/5 112/325/5 114/326/5 116/327/5 118/328/5 120/329/5 122/330/5 124/331/5 126/332/5 128/333/5 130/334/5 132/335/5 134/336/5 136/337/5 138/338/5 140/339/5 142/340/5 144/341/5 146/342/5 148/343/5 150/344/5 152/345/5 154/346/5 156/347/5 158/348/5 160/349/5 162/350/5
l 96 99
